#N canvas 95 23 1057 750 10;
#X obj 57 7 vs-3D-data-gui \$0 \$0-3d-data-one;
#A saved 25 0 0 0 1 50 180 0;
#X obj 56 137 vs-3D-wav-gui \$0 \$0-3d-wav-one;
#A saved 50 0 0 0 1 25 100 0;
#X text 59 635 Derek Holzer;
#X text 59 684 macumbista@gmail.com;
#X text 59 659 Helsinki May 2019;
#X obj 701 369 cnv 15 320 360 empty empty Connect_here_to_test 20 12
0 14 -191407 -66577 0;
#X obj 710 306 vs-rotate-gui \$0 \$0-rotate-one;
#A saved 80 45 180 0 0 0 1 10 0 0;
#X obj 373 7 vs-cube-gui \$0 \$0-cube-one;
#A saved 25 0 0 0 3 105 100 1 0;
#X obj 373 127 vs-pyramid-gui \$0 \$0-pyramid-one;
#A saved 25 0 0 0 1 25 100 1 0;
#X obj 373 247 vs-tetrahedron-gui \$0 \$0-tet-one;
#A saved 25 0 0 0 1 150 100 1 0;
#X obj 373 367 vs-octahedron-gui \$0 \$0-oct-one;
#A saved 25 0 0 0 1 25 100 1 0;
#X obj 373 487 vs-sphere-gui \$0 \$0-sphere-one;
#A saved 25 0 0 0 1 25 100 1 0;
#X obj 698 11 vs-dodecahedron-gui \$0 \$0-dod-one;
#A saved 15 100 0 0 1 113 101 1 0;
#X obj 701 139 vs-icosahedron-gui \$0 \$0-ico-one;
#A saved 25 0 0 0 1 47 100 1 0;
#X obj 372 608 vs-hand-gui \$0 \$0-hand-one;
#A saved 10 0 0 0 1 25 100 0 0;
#X obj 710 526 vs-projector-gui \$0 \$0-project-one;
#A saved 100 0 0 85;
#X obj 21 268 cnv 15 340 350 empty empty empty 20 12 0 14 -4034 -66577
0;
#X obj 231 521 cnv 15 100 60 empty empty empty 20 12 0 14 -233017 -66577
0;
#X obj 267 543 bng 15 250 50 0 empty empty ? 17 7 0 10 -4032 -1 -1
;
#X text 245 525 CLICK THE;
#X text 249 561 FOR HELP;
#X text 47 534 When in doubt about the;
#X text 46 554 inlets and outlets --->;
#X text 61 322 INLETS:;
#X text 61 412 OUTLETS:;
#X text 87 435 1) X signal;
#X text 87 455 2) Y signal;
#X text 87 495 3) Brightness signal (0-1);
#X text 87 345 1) Ramp signal (i.e. from [phasor~]) (0-1);
#X text 87 475 3) Z signal;
#X text 87 365 2) Scale signal (0-1);
#X text 87 385 3) Brightness signal (0-1);
#X text 30 302 for their inlets and outlets:;
#X text 27 590 CAUTION: make sure to rename "\$0-<objectname>-one"
to "\$0-<objectname>-two" when making multiple copies!;
#X text 30 282 All 3D vector generators follow a pattern;
#X obj 709 602 vs-ilda-throw-gui \$0 \$0-laserone;
#A saved 25 19 1 0 1 2 1;
#X obj 1031 4 vs-ext-input \$0 \$0-input;
#A saved 100 0 0 0 0 0 0 0 0 0 0 0 0 1 1 175 0 0 0 0 1 0;
#X obj 716 446 vs-scale-gui \$0 \$0-scale;
#A saved 25 25 25;
#X obj 1028 625 switch~;
#X connect 6 0 37 0;
#X connect 6 1 37 1;
#X connect 6 2 37 2;
#X connect 6 3 37 3;
#X connect 9 0 6 0;
#X connect 9 1 6 1;
#X connect 9 2 6 2;
#X connect 9 3 6 3;
#X connect 15 0 35 0;
#X connect 15 1 35 1;
#X connect 15 2 35 2;
#X connect 35 0 38 0;
#X connect 36 0 37 6;
#X connect 36 0 37 5;
#X connect 36 0 37 4;
#X connect 37 0 15 0;
#X connect 37 1 15 1;
#X connect 37 2 15 2;
#X connect 37 3 15 3;
