#N canvas 433 23 1214 696 10;
#X obj 496 363 expr~ $v1 && $v2;
#X obj 24 423 vs-seeme;
#X obj 39 194 vs-operator-gui \$0 \$0-operator-one;
#A saved -7 0 0 8 0 61 0 0 1 0 1;
#X text 623 591 Derek Holzer;
#X text 623 640 macumbista@gmail.com;
#X text 623 615 Helsinki May 2019;
#X text 24 677 CAUTION: make sure to rename "\$0-<objectname>-one"
to "\$0-<objectname>-two" when making multiple copies!;
#X obj 39 104 vs-phasor-gui \$0 \$0-phasor-two;
#A saved 0 10 0 0;
#X obj 349 104 vs-phasor-gui \$0 \$0-phasor-three;
#A saved 0 0 0 0;
#X text 438 386 (Blank brightness only when both inputs are "0");
#X obj 271 512 cnv 15 320 150 empty empty Connect_here_to_test 20 12
0 14 -191407 -66577 0;
#X obj 619 513 cnv 15 100 60 empty empty empty 20 12 0 14 -233017 -66577
0;
#X obj 655 535 bng 15 250 50 0 empty empty ? 17 7 0 10 -4032 -1 -1
;
#X text 633 517 CLICK THE;
#X text 637 553 FOR HELP;
#X obj 24 12 vs-phasor-gui \$0 \$0-phasor-one;
#A saved 25 3 0 0;
#X obj 279 549 vs-ilda-throw-gui \$0 \$0-laserone;
#A saved 200 20 1 0 0 110 1;
#X obj 489 455 *~;
#X obj 587 434 nbx 5 14 -1e+37 1e+37 0 1 empty empty empty 0 -8 0 10
-262144 -1 -1 100 256;
#X obj 587 462 / 100;
#X obj 686 24 vs-ext-input \$0 \$0-input;
#A saved 100 0 0 0 0 0 0 0 0 0 0 0 0 1 1 175 0 0 0 1 1 0;
#X obj 278 660 switch~;
#X obj 353 192 vs-operator-gui \$0 \$0-operator-two2;
#A saved 136 0 0 6 0 -97 0 4 1 0 0;
#X connect 0 0 17 0;
#X connect 2 0 1 1;
#X connect 2 0 16 0;
#X connect 2 1 0 0;
#X connect 7 0 2 1;
#X connect 8 0 22 1;
#X connect 15 0 1 0;
#X connect 17 0 16 2;
#X connect 18 0 19 0;
#X connect 19 0 17 1;
#X connect 20 0 2 2;
#X connect 20 0 22 2;
#X connect 22 0 1 2;
#X connect 22 0 16 1;
#X connect 22 1 0 1;
