#N canvas 148 53 1132 712 10;
#X text 887 576 Derek Holzer;
#X text 887 625 macumbista@gmail.com;
#X obj 60 124 vs-scale-gui \$0 \$0-scale-one;
#A saved 100 100 100;
#X obj 60 284 vs-rotate-gui \$0 \$0-rotate-one;
#A saved -40 45 120 0 0 0 1 0 0 10;
#X obj 388 14 vs-morph-gui \$0 \$0-morph-one;
#A saved 0 1 0 1;
#X obj 388 82 vs-decimate-gui \$0 \$0-decimate-one;
#A saved 1 0 0 45 1 0 50 0;
#X obj 60 415 vs-projector-gui \$0 \$0-projector-one;
#A saved 100 0 0 80;
#X text 733 438 CAUTION: make sure to rename "\$0-<objectname>-one"
to "\$0-<objectname>-two" when making multiple copies!;
#X obj 51 492 cnv 15 320 150 empty empty Connect_here_to_test 20 12
0 14 -191407 -66577 0;
#X obj 388 216 vs-operator-gui \$0 \$0-operator-one;
#A saved 1 10 0 5 25 10000 0 5 1 0 0;
#X obj 388 350 cnv 15 320 60 empty empty empty 20 12 0 14 -4034 -66577
0;
#X obj 721 15 cnv 15 340 400 empty empty empty 20 12 0 14 -4034 -66577
0;
#X text 766 96 1) X axis signal;
#X text 766 116 2) Y axis signal;
#X text 766 134 3) Z axis signal (ignore for 2D vectors);
#X text 766 270 1) X axis signal;
#X text 766 290 2) Y axis signal;
#X text 766 308 3) Z axis signal (ignore for 2D projection);
#X text 766 326 4) Brightness signal;
#X text 766 152 4) Brightness signal (0-1);
#X text 742 77 INLETS;
#X text 741 240 OUTLETS;
#X text 730 29 Most modifiers follow a pattern for their inlets;
#X text 730 49 and outlets:;
#X text 392 391 to different inlets of the different modifiers.;
#X text 392 356 Try connecting the left outlet of;
#X text 766 173 5) X modifier (Xscale \, Xrotate \, etc) (0-1);
#X text 766 193 6) Y modifier (Yscale \, Yrotate \, etc) (0-1);
#X text 766 213 7) Z modifier (Zscale \, Zrotate \, etc) (0-1);
#X obj 931 348 cnv 15 100 60 empty empty empty 20 12 0 14 -233017 -66577
0;
#X obj 967 370 bng 15 250 50 0 empty empty ? 17 7 0 10 -4032 -1 -1
;
#X text 945 352 CLICK THE;
#X text 949 388 FOR HELP;
#X text 747 361 When in doubt about the;
#X text 746 381 inlets and outlets --->;
#X obj 388 419 vs-ext-input \$0 \$0-input-one;
#A saved 100 0 0 0 0 127 0 0 0 0 0 0 0 1 1 205 0 100 0 1 1 0;
#X text 594 356 [vs-operator-gui] \,;
#X text 393 374 or of [vs-ext-input] if you have an external signal
\,;
#X text 887 600 Santa Cruz de Tenerife May 2019;
#X obj 59 522 vs-ilda-throw-gui \$0 \$0-laserone;
#A saved 1 0 1 0 1 0 1;
#X obj 61 198 vs-translate-gui \$0 \$0-translate-one;
#A saved 0 0 0;
#X obj 60 14 vs-circle-gui \$0 \$0-ico-one;
#A saved 54 0 0 0 1 25 100 0;
#X obj 733 532 vs-seeme;
#X connect 2 0 40 0;
#X connect 2 1 40 1;
#X connect 2 2 40 2;
#X connect 2 3 40 3;
#X connect 3 0 6 0;
#X connect 3 1 6 1;
#X connect 3 2 6 2;
#X connect 3 3 6 3;
#X connect 6 0 39 0;
#X connect 6 1 39 1;
#X connect 6 2 39 2;
#X connect 35 0 2 5;
#X connect 35 0 2 4;
#X connect 35 0 2 6;
#X connect 40 0 3 0;
#X connect 40 1 3 1;
#X connect 40 2 3 2;
#X connect 40 3 3 3;
#X connect 41 0 2 0;
#X connect 41 1 2 1;
#X connect 41 2 2 3;
