#N canvas 427 23 820 734 10;
#X obj 555 362 expr~ $v1 && $v2;
#X obj 24 423 vs-seeme;
#X obj 39 194 vs-operator-gui \$0 \$0-operator-one;
#A saved 100 0 0 1 0 100 0 1 1 0 0;
#X obj 353 192 vs-operator-gui \$0 \$0-operator-two;
#A saved 500 0 0 1 0 0 90 1 1 0 0;
#X text 623 591 Derek Holzer;
#X text 623 640 macumbista@gmail.com;
#X text 623 615 Helsinki May 2019;
#X text 24 677 CAUTION: make sure to rename "\$0-<objectname>-one"
to "\$0-<objectname>-two" when making multiple copies!;
#X obj 39 104 vs-phasor-gui \$0 \$0-phasor-two;
#A saved 220 0 0 0;
#X obj 349 104 vs-phasor-gui \$0 \$0-phasor-three;
#A saved 0 50 0 0;
#X text 438 386 (Blank brightness only when both inputs are "0");
#X obj 271 512 cnv 15 320 150 empty empty Connect_here_to_test 20 12
0 14 -191407 -66577 0;
#X obj 619 513 cnv 15 100 60 empty empty empty 20 12 0 14 -233017 -66577
0;
#X obj 655 535 bng 15 250 50 0 empty empty ? 17 7 0 10 -4032 -1 -1
;
#X text 633 517 CLICK THE;
#X text 637 553 FOR HELP;
#X obj 24 12 vs-phasor-gui \$0 \$0-phasor-one;
#A saved 50 0 1 0;
#X obj 280 532 vs-audiodac-gui \$0 \$0-dac-vectorgen;
#A saved 75 0 1 2 0 1 25 0 0;
#X connect 0 0 17 2;
#X connect 2 0 1 1;
#X connect 2 0 17 0;
#X connect 2 1 0 0;
#X connect 3 0 1 2;
#X connect 3 0 17 1;
#X connect 3 1 0 1;
#X connect 8 0 2 0;
#X connect 8 0 3 0;
#X connect 9 0 3 2;
#X connect 16 0 1 0;
