#N canvas 94 129 1186 625 10;
#X text 118 479 Derek Holzer;
#X text 118 528 macumbista@gmail.com;
#X text 117 503 Santa Cruz de Tenerife May 2019;
#X obj 130 87 vs-ilda-gui \$0 \$0-lasermaster;
#A saved 100 0 60 0 100 0 60 0 86.6142 1 0 3 0.175426 1 0.252101 3
0.163154 127 97.6378;
#X obj 470 346 vs-ilda-throw-gui \$0 \$0-laserone;
#A saved 50 50 1 0 1 0 0;
#X obj 451 84 vs-circle-gui \$0 \$0-circle-one;
#A saved 50 0 0 0 1 30 100 0;
#N canvas 0 23 504 326 midi 0;
#X obj 102 171 t b f;
#X obj 102 205 s \$0-lasermaster/audiovol;
#X obj 102 98 vs-rescale 0 127 0 100, f 27;
#X obj 295 168 t b f;
#X obj 295 95 vs-rescale 0 127 0 100, f 27;
#X obj 212 35 ctlin;
#X floatatom 199 61 5 0 0 0 - - -;
#X floatatom 239 59 5 0 0 0 - - -;
#X obj 295 202 s \$0-lasermaster/bright;
#X obj 101 70 ctlin 7;
#X obj 294 67 ctlin 23;
#X connect 0 0 1 0;
#X connect 0 1 1 0;
#X connect 2 0 0 0;
#X connect 3 0 8 0;
#X connect 3 1 8 0;
#X connect 4 0 3 0;
#X connect 5 0 6 0;
#X connect 5 1 7 0;
#X connect 9 0 2 0;
#X connect 10 0 4 0;
#X restore 196 440 pd midi;
#X connect 5 0 4 0;
#X connect 5 1 4 1;
#X connect 5 2 4 2;
