#N canvas 0 23 740 749 10;
#X obj 390 151 vs-poly-gui \$0 \$0-poly-one;
#A saved 25 0 0 0 1 24 100 1 0 0 0;
#X obj 18 599 vs-audiodac-gui \$0 \$0-dac-2dvectors;
#A saved 75 0 0 1 1 1 100 0 0;
#X obj 18 729 switch~;
#X obj 18 10 vs-icosahedron-gui \$0 \$0-ico-one;
#A saved 200 0 0 0 1 10 100 1 0;
#X obj 18 312 vs-translate-gui \$0 \$0-translate-one;
#A saved 0 0 0;
#X obj 389 10 vs-operator-gui \$0 \$0-operator-one;
#A saved 0 100 0 1 0 0 0 5 0 0 0;
#X obj 18 393 vs-rotate-gui \$0 \$0-rotate-one;
#A saved 0 45 120 0 0 0 1 4 3 20;
#X obj 18 526 vs-projector-gui \$0 \$0-project-one;
#A saved 100 0 0 85;
#X obj 18 152 vs-rotate-gui \$0 \$0-rotate-two;
#A saved 0 0 0 0 0 0 1 25 0 0;
#X obj 397 565 t b f;
#X obj 397 592 s \$0-rotate-one/zfreq;
#X msg 467 491 500;
#X msg 497 491 1000;
#X obj 397 543 line;
#X obj 397 521 pack 0 1000;
#X msg 397 491 0;
#X msg 537 491 2000;
#X msg 437 491 25;
#X obj 538 564 t b f;
#X obj 538 591 s \$0-operator-one/scale;
#X msg 538 537 0;
#X msg 572 537 800;
#X text 529 664 Derek Holzer;
#X text 529 713 macumbista@gmail.com;
#X text 529 688 Helsinki June 2019;
#X text 475 634 DIVISIONS of a CIRCLE;
#X connect 0 0 4 4;
#X connect 0 0 8 4;
#X connect 0 1 4 5;
#X connect 0 2 7 3;
#X connect 1 0 2 0;
#X connect 3 0 8 0;
#X connect 3 1 8 1;
#X connect 3 2 8 2;
#X connect 3 3 8 3;
#X connect 4 0 6 0;
#X connect 4 1 6 1;
#X connect 4 2 6 2;
#X connect 4 3 6 3;
#X connect 5 0 0 4;
#X connect 6 0 7 0;
#X connect 6 1 7 1;
#X connect 6 2 7 2;
#X connect 7 0 1 0;
#X connect 7 1 1 1;
#X connect 7 2 1 2;
#X connect 8 0 4 0;
#X connect 8 1 4 1;
#X connect 8 2 4 2;
#X connect 8 3 4 3;
#X connect 9 0 10 0;
#X connect 9 1 10 0;
#X connect 11 0 14 0;
#X connect 12 0 14 0;
#X connect 13 0 9 0;
#X connect 14 0 13 0;
#X connect 15 0 14 0;
#X connect 16 0 14 0;
#X connect 17 0 14 0;
#X connect 18 0 19 0;
#X connect 18 1 19 0;
#X connect 20 0 18 0;
#X connect 21 0 18 0;
