#N canvas 213 23 1046 1008 12;
#X obj 21 210 vs-circle-gui \$0 \$0-circle-one;
#A saved 25 0 2 0 50 0 100 0;
#X obj 697 633 vs-audiodac-gui \$0 \$0-dac-2dvectors;
#A saved 75 1 5 6 1 1 25 0 0 0 1 2 100;
#X obj 19 73 vs-operator-gui \$0 \$0-operator-one;
#A saved 25 0 2 5 0 200 1 0 0 0 0;
#X obj 697 778 switch~;
#X obj 334 74 vs-operator-gui \$0 \$0-operator-two;
#A saved 25 0 2 5 0 200 84 0 0 0 0;
#X obj 336 211 vs-circle-gui \$0 \$0-circle-two;
#A saved 25 0 2 0 50 0 100 0;
#X obj 21 438 vs-multiplex \$0 1;
#X obj 334 441 vs-multiplex \$0 2;
#X obj 697 543 vs-multiplex-gui \$0 multiplex-one;
#A saved 25 5 1 1;
#X obj 137 400 *~;
#X obj 450 403 *~;
#X obj 772 407 *~;
#X obj 656 445 vs-multiplex \$0 3;
#X obj 654 75 vs-operator-gui \$0 \$0-operator-three;
#A saved 0 0 2 5 0 200 0 0 0 0 0;
#X obj 656 211 vs-circle-gui \$0 \$0-circle-three;
#A saved 0 0 2 0 50 0 100 0;
#X obj 21 301 vs-translate-gui \$0 \$0-trans-1;
#A saved 119 -1 0;
#X obj 335 301 vs-translate-gui \$0 \$0-trans-2;
#A saved 121 -9 0;
#X obj 656 301 vs-translate-gui \$0 \$0-trans-3;
#A saved -40 -18 0;
#X obj 147 872 *~;
#X obj 31 910 vs-multiplex \$0 4;
#X obj 30 541 vs-operator-gui \$0 \$0-operator-four;
#A saved 0 0 2 5 0 200 0 0 0 0 0;
#X obj 32 677 vs-circle-gui \$0 \$0-circle-four;
#A saved 0 0 2 0 50 0 100 0;
#X obj 32 767 vs-translate-gui \$0 \$0-trans-4;
#A saved -38 62 0;
#X obj 475 868 *~;
#X obj 357 540 vs-operator-gui \$0 \$0-operator-five;
#A saved 0 0 2 5 0 200 21 0 0 0 0;
#X obj 359 676 vs-circle-gui \$0 \$0-circle-five;
#A saved 0 0 2 0 50 0 100 0;
#X obj 359 766 vs-translate-gui \$0 \$0-trans-5;
#A saved -279 -20 0;
#X obj 359 906 vs-multiplex \$0 5;
#X obj 772 378 expr~ ($v1 > -0.4)&($v1 < 0.4);
#X text 852 807 Derek Holzer;
#X text 852 856 macumbista@gmail.com;
#X text 852 831 Stockholm NOV 2020;
#X obj 450 377 expr~ ($v1 > -1.2)&($v1 < -0.4);
#X obj 137 374 expr~ ($v1 < -1.2)&($v1 > -2);
#X obj 147 846 expr~ ($v1 > 0.4)&($v1 < 1.2);
#X obj 475 842 expr~ ($v1 > 1.2)&($v1 < 2);
#X obj 504 516 phasor~ 0.01;
#X obj 177 516 phasor~ 0.013;
#X obj 166 45 phasor~ 0.015;
#X obj 481 45 phasor~ 0.008;
#X obj 801 46 phasor~ 0.007;
#X connect 0 0 15 0;
#X connect 0 1 15 1;
#X connect 0 2 15 3;
#X connect 1 0 3 0;
#X connect 2 0 0 2;
#X connect 4 0 5 2;
#X connect 5 0 16 0;
#X connect 5 1 16 1;
#X connect 5 2 16 3;
#X connect 8 0 1 0;
#X connect 8 1 1 1;
#X connect 8 3 1 2;
#X connect 9 0 6 3;
#X connect 10 0 7 3;
#X connect 11 0 12 3;
#X connect 13 0 14 2;
#X connect 14 0 17 0;
#X connect 14 1 17 1;
#X connect 14 2 17 3;
#X connect 15 0 6 0;
#X connect 15 0 33 0;
#X connect 15 1 6 1;
#X connect 15 3 9 1;
#X connect 16 0 7 0;
#X connect 16 0 32 0;
#X connect 16 1 7 1;
#X connect 16 3 10 1;
#X connect 17 0 12 0;
#X connect 17 0 28 0;
#X connect 17 1 12 1;
#X connect 17 3 11 1;
#X connect 18 0 19 3;
#X connect 20 0 21 2;
#X connect 21 0 22 0;
#X connect 21 1 22 1;
#X connect 21 2 22 3;
#X connect 22 0 19 0;
#X connect 22 0 34 0;
#X connect 22 1 19 1;
#X connect 22 3 18 1;
#X connect 23 0 27 3;
#X connect 24 0 25 2;
#X connect 25 0 26 0;
#X connect 25 1 26 1;
#X connect 25 2 26 3;
#X connect 26 0 27 0;
#X connect 26 0 35 0;
#X connect 26 1 27 1;
#X connect 26 3 23 1;
#X connect 28 0 11 0;
#X connect 32 0 10 0;
#X connect 33 0 9 0;
#X connect 34 0 18 0;
#X connect 35 0 23 0;
#X connect 36 0 24 1;
#X connect 37 0 20 1;
#X connect 38 0 2 1;
#X connect 39 0 4 1;
#X connect 40 0 13 1;
