#N canvas 79 71 900 576 10;
#X obj 59 50 inlet~ base frequency;
#X obj 199 50 inlet~ multiplier;
#X obj 409 50 inlet~ scale;
#X obj 59 142 phasor~;
#X obj 119 179 *~;
#X obj 119 207 wrap~;
#X obj 59 276 cos~;
#X obj 119 276 cos~;
#X obj 59 329 *~;
#X obj 119 329 *~;
#X obj 59 383 outlet~ H;
#X obj 119 383 outlet~ V;
#X obj 179 383 outlet~ brightness;
#X obj 119 243 +~;
#X obj 319 50 inlet~ phase;
#X obj 499 50 inlet~ brightness;
#X text 479 284 Derek Holzer;
#X text 479 310 Berlin July 2017;
#X text 481 332 macumbista@gmail.com;
#X connect 0 0 3 0;
#X connect 1 0 4 1;
#X connect 2 0 9 1;
#X connect 2 0 8 1;
#X connect 3 0 4 0;
#X connect 3 0 6 0;
#X connect 4 0 5 0;
#X connect 5 0 13 0;
#X connect 6 0 8 0;
#X connect 7 0 9 0;
#X connect 8 0 10 0;
#X connect 9 0 11 0;
#X connect 13 0 7 0;
#X connect 14 0 13 1;
#X connect 15 0 12 0;
