#N canvas 0 22 897 703 10;
#X obj 54 43 cnv 15 300 400 empty empty empty 20 12 0 14 -233017 -66577
0;
#X text 482 386 Derek Holzer;
#X text 482 410 Berlin July 2017;
#X text 482 435 macumbista@gmail.com;
#X obj 57 210 cnv 15 100 60 empty empty empty 20 12 0 14 -191407 -66577
0;
#X obj 67 177 phasor~;
#X obj 67 48 nbx 5 14 -1e+37 1e+37 0 1 empty empty base_frequency 60
8 0 10 -4034 -1 -1 2000 256;
#X obj 129 134 sig~;
#X obj 129 91 nbx 5 14 -1e+37 1e+37 0 1 empty empty phase 60 8 0 10
-4034 -1 -1 90 256;
#X obj 89 112 sig~;
#X obj 89 88 / 100;
#X obj 89 67 nbx 5 14 -1e+37 1e+37 0 1 empty empty harmonic 60 8 0
10 -4034 -1 -1 100 256;
#X obj 169 157 sig~;
#X obj 169 134 / 100;
#X obj 169 115 nbx 5 14 -1e+37 1e+37 0 1 empty empty scale 60 8 0 10
-4034 -1 -1 25 256;
#X obj 112 322 *~;
#X obj 67 322 *~;
#X obj 195 392 tgl 15 1 empty empty ON_OFF 17 7 0 10 -258113 -1 -1
0 1;
#X obj 195 420 switch~;
#X obj 67 373 dac~ 1 2 3;
#X obj 67 228 V-circle;
#X obj 147 322 sig~;
#X obj 209 157 / 100;
#X obj 209 137 nbx 5 14 -1e+37 1e+37 0 1 empty empty brightness 60
8 0 10 -4034 -1 -1 100 256;
#X text 401 49 [V-circle] is a simple \, [phasor~] driven shape generator
with phase modulation \, and with the option of increasing the hramonic
relationship between the two function generators to create a Lissajous
figure. It has no size-scaling or brightness controls inside of it
\, those two operations must be done externally to the abstraction.
;
#X obj 129 112 / 360;
#X text 405 157 A phase of 90 degrees (= 0.25) gives a perfect circle
shape. Phase modulation creates a pseudo-3D "rotation" effect.;
#X connect 5 0 20 0;
#X connect 6 0 5 0;
#X connect 7 0 20 2;
#X connect 8 0 25 0;
#X connect 9 0 20 1;
#X connect 10 0 9 0;
#X connect 11 0 10 0;
#X connect 12 0 15 1;
#X connect 12 0 16 1;
#X connect 13 0 12 0;
#X connect 14 0 13 0;
#X connect 15 0 19 1;
#X connect 16 0 19 0;
#X connect 17 0 18 0;
#X connect 20 0 16 0;
#X connect 20 1 15 0;
#X connect 21 0 19 2;
#X connect 22 0 21 0;
#X connect 23 0 22 0;
#X connect 25 0 7 0;
