#N canvas 124 257 662 334 10;
#X obj 48 -164 inlet~ phasor;
#X obj 238 -49 +~;
#X obj 48 -18 wrap~;
#X obj 238 -18 wrap~;
#X obj 253 -164 inlet~ phase;
#X obj 128 -89 *~;
#X obj 143 -164 inlet~ harmonic;
#X obj 48 119 outlet~ H;
#X obj 238 119 outlet~ V;
#X obj 48 20 cos~;
#X obj 238 20 cos~;
#X text 444 -9 Derek Holzer;
#X text 444 11 Ljubljana June 2017;
#X text 445 34 macumbista@gmail.com;
#X connect 0 0 2 0;
#X connect 0 0 5 0;
#X connect 1 0 3 0;
#X connect 2 0 9 0;
#X connect 3 0 10 0;
#X connect 4 0 1 1;
#X connect 5 0 1 0;
#X connect 6 0 5 1;
#X connect 9 0 7 0;
#X connect 10 0 8 0;
