#N canvas 7 194 936 499 10;
#X obj 110 49 inlet~ H1;
#X obj 180 49 inlet~ V1;
#X obj 110 239 outlet~ H;
#X obj 180 239 outlet~ V;
#X obj 250 238 outlet~ brightness;
#X obj 250 49 inlet~ brightness1;
#X obj 110 163 *~;
#X obj 658 49 inlet~ xfade;
#X obj 180 163 *~;
#X obj 250 163 *~;
#X obj 370 123 *~;
#X obj 440 123 *~;
#X obj 510 123 *~;
#X obj 370 49 inlet~ H2;
#X obj 440 49 inlet~ V2;
#X obj 510 49 inlet~ brightness2;
#X text 659 189 Derek Holzer;
#X text 659 213 Berlin July 2017;
#X text 659 238 macumbista@gmail.com;
#X text 659 127 UNIPOLAR INPUT to CROSSFADE (0-1);
#X obj 658 106 expr~ ($v1 * -1) + 1;
#X obj 658 74 clip~ 0 1;
#X connect 0 0 6 0;
#X connect 1 0 8 0;
#X connect 5 0 9 0;
#X connect 6 0 2 0;
#X connect 7 0 21 0;
#X connect 8 0 3 0;
#X connect 9 0 4 0;
#X connect 10 0 2 0;
#X connect 11 0 3 0;
#X connect 12 0 4 0;
#X connect 13 0 10 0;
#X connect 14 0 11 0;
#X connect 15 0 12 0;
#X connect 20 0 6 1;
#X connect 20 0 8 1;
#X connect 20 0 9 1;
#X connect 21 0 20 0;
#X connect 21 0 10 1;
#X connect 21 0 12 1;
#X connect 21 0 11 1;
