#N canvas 261 34 897 703 10;
#X obj 44 43 cnv 15 350 600 empty empty empty 20 12 0 14 -233017 -66577
0;
#X text 680 586 Derek Holzer;
#X text 680 610 Berlin July 2017;
#X text 680 635 macumbista@gmail.com;
#X obj 57 530 cnv 15 100 60 empty empty empty 20 12 0 14 -191407 -66577
0;
#X obj 67 68 phasor~;
#X obj 67 48 nbx 5 14 -1e+37 1e+37 0 1 empty empty base_frequency 60
8 0 10 -4034 -1 -1 3000 256;
#X obj 118 113 sig~;
#X obj 118 70 nbx 5 14 -1e+37 1e+37 0 1 empty empty phase 60 8 0 10
-4034 -1 -1 90 256;
#X obj 305 578 tgl 15 1 empty empty ON_OFF 17 7 0 10 -258113 -1 -1
0 1;
#X obj 305 606 switch~;
#X obj 67 605 dac~ 1 2 3;
#X obj 259 203 sig~;
#X obj 259 179 / 100;
#X obj 259 159 nbx 5 14 -1e+37 1e+37 0 1 empty empty brightness 60
8 0 10 -4034 -1 -1 100 256;
#X obj 67 138 V-diamond;
#X obj 118 91 / 360;
#X obj 118 162 *~ 0.2;
#X obj 67 162 *~ 0.2;
#X obj 217 68 phasor~;
#X obj 217 48 nbx 5 14 -1e+37 1e+37 0 1 empty empty base_frequency
60 8 0 10 -4034 -1 -1 3000 256;
#X obj 274 121 *~ 0.2;
#X obj 217 121 *~ 0.2;
#X obj 217 97 V-triangle;
#X obj 216 506 V-operator;
#X obj 244 404 V-waveselect;
#X obj 244 379 hradio 15 1 1 4 empty empty saw.sin.tri.sqr -13 -10
0 10 -4034 -1 -1 1;
#X obj 266 320 nbx 5 14 -1e+37 1e+37 0 1 empty empty Xfade_frq 60 8
0 10 -4034 -1 -1 0.5 256;
#X obj 216 343 phasor~;
#X obj 244 456 sig~;
#X obj 273 428 nbx 5 14 -1e+37 1e+37 0 1 empty empty scale 60 8 0 10
-4034 -1 -1 100 256;
#X obj 273 480 sig~;
#X obj 273 456 / 100;
#X text 226 554 UNIPOLAR (0-1) OUTPUT;
#X obj 280 242 phasor~;
#X obj 280 224 nbx 5 14 -1e+37 1e+37 0 1 empty empty rot_frq 60 8 0
10 -4034 -1 -1 301 256;
#X obj 217 267 V-rotate-2D;
#X obj 130 242 phasor~;
#X obj 130 224 nbx 5 14 -1e+37 1e+37 0 1 empty empty rot_frq 60 8 0
10 -4034 -1 -1 1 256;
#X obj 67 267 V-rotate-2D;
#X text 431 49 [V-crossfade] applies a linear crossfade to the signals
which make up two vector shapes (Horizontal \, Vertical \, and Brightness).
Reducing the level of a vector shape's signal reduces its size \, therefore
this patch effectively "morphs" between two vector shapes.;
#X text 431 484 To crossfade visually between two vector shapes without
morphing \, multiplexing is required. Please see the V-multiplex-help.pd
patch.;
#X obj 273 527 *~;
#X obj 305 341 tgl 15 0 empty empty auto_Xfade 21 7 0 10 -4034 -1 -1
0 1;
#X obj 267 300 nbx 5 14 0 100 0 1 empty empty man_Xfade 60 8 0 10 -4034
-1 -1 0 256;
#X obj 130 348 sig~;
#X obj 130 298 / 100;
#X obj 67 550 V-crossfade;
#X text 431 384 Or it may be automated using the unipolar output of
the [V-operator] abstraction. In this case \, the manual crossfading
should be set to 0;
#X text 434 293 The crossfading can be controlled simply via a DC signal
between 0 and 1 A value of "0" gives only the left set of input \,
a value of "1" gives on the right set of inputs.;
#X text 433 125 INLETS;
#X text 455 149 Horizontal 1;
#X text 455 169 Vertical 1;
#X text 456 188 Brightness 1;
#X text 455 209 Horizontal 2;
#X text 455 229 Vertical 2;
#X text 456 249 Brightness 2;
#X text 583 125 OUTLETS;
#X text 605 149 Horizontal;
#X text 605 169 Vertical;
#X text 606 188 Brightness;
#X connect 5 0 15 0;
#X connect 6 0 5 0;
#X connect 7 0 15 1;
#X connect 8 0 16 0;
#X connect 9 0 10 0;
#X connect 12 0 39 2;
#X connect 12 0 36 2;
#X connect 13 0 12 0;
#X connect 14 0 13 0;
#X connect 15 0 18 0;
#X connect 15 1 17 0;
#X connect 16 0 7 0;
#X connect 17 0 39 1;
#X connect 18 0 39 0;
#X connect 19 0 23 0;
#X connect 20 0 19 0;
#X connect 21 0 36 1;
#X connect 22 0 36 0;
#X connect 23 0 22 0;
#X connect 23 1 21 0;
#X connect 24 1 42 0;
#X connect 25 0 29 0;
#X connect 26 0 25 0;
#X connect 27 0 28 0;
#X connect 28 0 24 0;
#X connect 29 0 24 1;
#X connect 30 0 32 0;
#X connect 31 0 24 2;
#X connect 32 0 31 0;
#X connect 34 0 36 3;
#X connect 35 0 34 0;
#X connect 36 0 47 3;
#X connect 36 1 47 4;
#X connect 36 2 47 5;
#X connect 37 0 39 3;
#X connect 38 0 37 0;
#X connect 39 0 47 0;
#X connect 39 1 47 1;
#X connect 39 2 47 2;
#X connect 42 0 47 6;
#X connect 43 0 42 1;
#X connect 44 0 46 0;
#X connect 45 0 47 6;
#X connect 46 0 45 0;
#X connect 47 0 11 0;
#X connect 47 1 11 1;
#X connect 47 2 11 2;
