#N canvas 0 22 834 645 10;
#X text 369 154 The diamond shaped image is really a square tilted
45 degrees. The two triangles waves required must be 90 degrees out
of phase with each other. They are applied to any two axes desired
to get a flat \, 2-dimensional image. From: “Applications of OEI
3D Display Modules” (1975);
#X obj 48 -76 inlet~ phasor;
#X obj 48 385 outlet~ H;
#X obj 268 385 outlet~ V;
#X text 370 391 macumbista@gmail.com;
#X text 370 350 Derek Holzer;
#X text 370 370 Ljubljana June 2017;
#X obj 268 121 +~;
#X obj 268 152 wrap~;
#X obj 48 152 wrap~;
#X obj 268 182 *~ -1;
#X obj 268 211 +~ 1;
#X obj 268 241 min~;
#X obj 268 270 *~ -4;
#X obj 268 297 +~ 1;
#X obj 48 182 *~ -1;
#X obj 48 211 +~ 1;
#X obj 48 241 min~;
#X obj 48 270 *~ -4;
#X obj 48 297 +~ 1;
#X obj 283 -70 inlet~ phase;
#X text 384 -69 Phase of 0.25 (= 90 degrees) creates perfect diamond
shape.;
#X connect 1 0 9 0;
#X connect 1 0 7 0;
#X connect 7 0 8 0;
#X connect 8 0 10 0;
#X connect 8 0 12 1;
#X connect 9 0 15 0;
#X connect 9 0 17 1;
#X connect 10 0 11 0;
#X connect 11 0 12 0;
#X connect 12 0 13 0;
#X connect 13 0 14 0;
#X connect 14 0 3 0;
#X connect 15 0 16 0;
#X connect 16 0 17 0;
#X connect 17 0 18 0;
#X connect 18 0 19 0;
#X connect 19 0 2 0;
#X connect 20 0 7 1;
