#N canvas 118 206 895 568 10;
#X obj 338 161 V-invert-unipolar;
#X obj 162 161 V-invert-bipolar;
#X obj 437 89 tgl 30 0 empty empty invert 35 13 0 10 -4034 -1 -1 0
1;
#X obj 437 128 sig~;
#X obj 338 210 V-seeme~;
#X obj 18 210 V-seeme~;
#X text 689 345 Derek Holzer;
#X text 689 369 Berlin July 2017;
#X text 689 394 macumbista@gmail.com;
#X obj 255 89 tgl 30 0 empty empty invert 35 13 0 10 -4034 -1 -1 0
1;
#X obj 255 128 sig~;
#X obj 162 38 osc~ 10;
#X obj 338 38 phasor~ 10;
#X text 433 36 INVERT A UNIPOLAR SIGNAL;
#X text 3 36 INVERT A BIPOLAR SIGNAL;
#X text -10 427 For example \, to flip a vector shape on one axis;
#X text 335 427 For example \, to reverse the direction of rotation
with [V-rotate-2D];
#X connect 0 0 4 0;
#X connect 1 0 5 0;
#X connect 2 0 3 0;
#X connect 3 0 0 1;
#X connect 9 0 10 0;
#X connect 10 0 1 1;
#X connect 11 0 1 0;
#X connect 12 0 0 0;
