#N canvas 53 23 1065 613 10;
#X obj 113 9 cnv 15 350 400 empty empty empty 20 12 0 14 -233017 -66577
0;
#X obj 130 373 V-lissagen helpfile;
#X obj 130 427 dac~ 1 2 3;
#X obj 158 212 V-waveselect;
#X obj 161 238 hsl 128 15 -1 1 0 0 empty empty empty 135 8 0 10 -4034
-1 -1 12700 1;
#X obj 158 187 hradio 15 1 1 4 empty empty Hshape 65 8 0 10 -4034 -1
-1 3;
#X obj 130 40 nbx 5 14 -1e+37 1e+37 0 1 empty empty base_freq 0 -8
0 10 -4034 -1 -1 1000 256;
#X obj 130 69 phasor~;
#X obj 158 257 sig~;
#X obj 157 288 nbx 5 14 -1e+37 1e+37 0 1 empty empty Hscale 60 8 0
10 -4034 -1 -1 35 256;
#X obj 157 330 sig~;
#X obj 157 306 / 100;
#X floatatom 216 258 5 0 0 0 - - -, f 5;
#X obj 199 41 nbx 5 14 0 360 0 1 empty empty phase_degrees 0 -8 0 10
-4034 -1 -1 90 256;
#X obj 199 61 / 360;
#X obj 199 85 sig~;
#X obj 157 120 nbx 5 14 -1e+37 1e+37 0 1 empty empty Hmultiplier 60
8 0 10 -4034 -1 -1 100 256;
#X obj 157 160 sig~;
#X obj 157 139 / 100;
#X obj 305 41 nbx 5 14 -1e+37 1e+37 0 1 empty empty brightness 0 -8
0 10 -4034 -1 -1 100 256;
#X obj 305 88 sig~;
#X obj 305 62 / 100;
#X obj 318 212 V-waveselect;
#X obj 321 238 hsl 128 15 -1 1 0 0 empty empty empty 135 8 0 10 -4034
-1 -1 12700 1;
#X obj 318 187 hradio 15 1 1 4 empty empty Vshape 65 8 0 10 -4034 -1
-1 3;
#X obj 318 257 sig~;
#X obj 317 288 nbx 5 14 -1e+37 1e+37 0 1 empty empty Vscale 60 8 0
10 -4034 -1 -1 35 256;
#X obj 317 330 sig~;
#X obj 317 306 / 100;
#X floatatom 376 258 5 0 0 0 - - -, f 5;
#X obj 317 120 nbx 5 14 -1e+37 1e+37 0 1 empty empty Vmultiplier 60
8 0 10 -4034 -1 -1 100 256;
#X obj 317 160 sig~;
#X obj 317 139 / 100;
#X text 485 206 -1;
#X text 509 206 saw;
#X text 493 266 1;
#X text 510 266 square;
#X text 473 226 -0.3;
#X text 505 226 sine;
#X text 481 246 0.3;
#X text 511 246 tri;
#X text 462 186 SHAPE:;
#X obj 485 362 tgl 15 1 empty empty ON_OFF 17 7 0 10 -258113 -1 -1
0 1;
#X obj 485 390 switch~;
#X text 652 476 Derek Holzer;
#X text 652 500 Berlin July 2017;
#X text 652 525 macumbista@gmail.com;
#X text 606 190 The shape of the waveform is continuously controllable
by an audio signal \, or you can use the [V-waveselect] abstraction
to jump to preset waveforms of saw \, sine \, triangle \, and square.
;
#X text 606 284 The "multiplier" number boxes create harmonic frequencies
of the input [phasor~] \, while the "phase_degrees" number box determines
the phase difference between the two functions. Changing this phase
difference can create a pseudo-3D "rotation" effect.;
#X text 609 386 Keep in mind the Vectrex needs a certain minimum frequency
input otherwise the beam shuts off.;
#X text 607 128 Each instance of [V-lissagen] could use it's own [phasor~]
\, or they could all be phase-locked to a single [phasor~].;
#X text 606 16 [V-lissagen] is a dual function generator with variable
shape and amplitude which is driven by the ramp input of a [phasor~]
object. It outputs a Horizontal \, Vertical \, and Birghtness signal
which can be sent directly to the vector monitor. Please note that
it is *not* bandwidth-limited \, and both visible and audible aliasing
can occur when any harmonic goes over the Nyquist frequency.;
#X connect 1 0 2 0;
#X connect 1 1 2 1;
#X connect 1 2 2 2;
#X connect 3 0 4 0;
#X connect 4 0 8 0;
#X connect 4 0 12 0;
#X connect 5 0 3 0;
#X connect 6 0 7 0;
#X connect 7 0 1 0;
#X connect 8 0 1 3;
#X connect 9 0 11 0;
#X connect 10 0 1 6;
#X connect 11 0 10 0;
#X connect 13 0 14 0;
#X connect 14 0 15 0;
#X connect 15 0 1 5;
#X connect 16 0 18 0;
#X connect 17 0 1 1;
#X connect 18 0 17 0;
#X connect 19 0 21 0;
#X connect 20 0 1 8;
#X connect 21 0 20 0;
#X connect 22 0 23 0;
#X connect 23 0 25 0;
#X connect 23 0 29 0;
#X connect 24 0 22 0;
#X connect 25 0 1 4;
#X connect 26 0 28 0;
#X connect 27 0 1 7;
#X connect 28 0 27 0;
#X connect 30 0 32 0;
#X connect 31 0 1 2;
#X connect 32 0 31 0;
#X connect 42 0 43 0;
