#N canvas 19 116 832 658 10;
#X obj 194 188 *~;
#X obj 107 188 *~;
#X obj 194 244 +~;
#X text 223 244 offset1;
#X obj 194 452 *~;
#X obj 107 452 *~;
#X obj 469 94 inlet~ phase;
#X text 414 526 macumbista@gmail.com;
#X obj 122 94 inlet~ Hratio;
#X obj 209 94 inlet~ Vratio;
#X obj 550 94 inlet~ Hsize;
#X obj 630 94 inlet~ Vsize;
#X obj 107 521 outlet~ H;
#X obj 194 521 outlet~ V;
#X obj 282 521 outlet~ Z;
#X obj 107 288 V-operator;
#X obj 194 287 V-operator;
#X obj 251 256 sig~ 1;
#X obj 295 94 inlet~ Hshape;
#X obj 382 94 inlet~ Vshape;
#X obj 37 94 inlet~ phasor;
#X obj 710 94 inlet~ brightness;
#X text 414 485 Derek Holzer;
#X text 414 506 Helsinki May 2017;
#X connect 0 0 2 0;
#X connect 1 0 15 0;
#X connect 2 0 16 0;
#X connect 4 0 13 0;
#X connect 5 0 12 0;
#X connect 6 0 2 1;
#X connect 8 0 1 1;
#X connect 9 0 0 1;
#X connect 10 0 5 1;
#X connect 11 0 4 1;
#X connect 15 0 5 0;
#X connect 16 0 4 0;
#X connect 17 0 16 2;
#X connect 17 0 15 2;
#X connect 18 0 15 1;
#X connect 19 0 16 1;
#X connect 20 0 1 0;
#X connect 20 0 0 0;
#X connect 21 0 14 0;
