#N canvas 533 23 711 632 10;
#X obj 205 22 inlet number of channels;
#X obj 21 18 inlet clock freq;
#X obj 21 44 phasor~;
#X text 112 277 logic OR operator;
#X text 359 190 logic AND operators;
#X obj 21 277 expr~ $v1||$v2;
#X obj 205 44 sig~;
#X text 349 345 macumbista@gmail.com;
#X obj 190 129 wrap~;
#X obj 190 72 *~;
#X obj 21 189 expr~ ($v1>0.1)&($v1<0.4);
#X obj 190 189 expr~ ($v1>0.5)&($v1<0.9);
#X obj 21 129 s~ \$1-masterclock;
#X obj 231 129 s~ \$1-mastermultiplex;
#X obj 371 129 s~ \$1-masterchannels;
#X obj 21 361 s~ \$1-masterblank;
#X text 349 298 Derek Holzer;
#X text 349 321 Helsinki May 2017;
#X obj 401 25 inlet blanking on_off;
#X obj 21 304 +~;
#X obj 21 330 clip~ 0 1;
#X obj 401 70 expr~ ($v1 * -1) + 1;
#X obj 401 48 sig~;
#X connect 0 0 6 0;
#X connect 1 0 2 0;
#X connect 2 0 9 0;
#X connect 2 0 12 0;
#X connect 5 0 19 0;
#X connect 6 0 9 1;
#X connect 6 0 14 0;
#X connect 8 0 10 0;
#X connect 8 0 11 0;
#X connect 9 0 8 0;
#X connect 9 0 13 0;
#X connect 10 0 5 0;
#X connect 11 0 5 1;
#X connect 18 0 22 0;
#X connect 19 0 20 0;
#X connect 20 0 15 0;
#X connect 21 0 19 1;
#X connect 22 0 21 0;
