#N canvas 212 52 897 703 10;
#X obj 54 43 cnv 15 400 500 empty empty empty 20 12 0 14 -233017 -66577
0;
#X text 712 486 Derek Holzer;
#X text 712 510 Berlin July 2017;
#X text 712 535 macumbista@gmail.com;
#X obj 61 433 cnv 15 100 60 empty empty empty 20 12 0 14 -191407 -66577
0;
#X obj 67 177 phasor~;
#X obj 67 48 nbx 5 14 -1e+37 1e+37 0 1 empty empty base_frequency 60
8 0 10 -4034 -1 -1 1930 256;
#X obj 118 134 sig~;
#X obj 118 91 nbx 5 14 -1e+37 1e+37 0 1 empty empty phase 60 8 0 10
-4034 -1 -1 97 256;
#X obj 269 192 sig~;
#X obj 269 150 nbx 5 14 -1e+37 1e+37 0 1 empty empty rotate 60 8 0
10 -4034 -1 -1 256 256;
#X obj 365 492 tgl 15 1 empty empty ON_OFF 17 7 0 10 -258113 -1 -1
1 1;
#X obj 365 520 switch~;
#X obj 67 513 dac~ 1 2 3;
#X obj 169 160 sig~;
#X obj 169 135 / 100;
#X obj 169 115 nbx 5 14 -1e+37 1e+37 0 1 empty empty brightness 60
8 0 10 -4034 -1 -1 82 256;
#X obj 118 112 / 360;
#X obj 67 257 *~ 0.2;
#X obj 87 277 *~ 0.2;
#X obj 308 214 phasor~;
#X obj 308 170 nbx 5 14 -1e+37 1e+37 0 1 empty empty rotation_freq
60 8 0 10 -4034 -1 -1 -14.5 256;
#X obj 308 255 *~;
#X obj 361 217 tgl 15 1 empty empty rot_on_off 17 7 0 10 -4034 -1 -1
1 1;
#X text 484 340 INLETS;
#X text 510 370 Horizontal signal;
#X text 510 390 Vertical signal;
#X text 510 410 Brightness signal;
#X text 510 490 Horizontal signal;
#X text 510 510 Vertical signal;
#X text 510 530 Brightness signal;
#X text 484 460 OUTLETS;
#X obj 67 453 V-rotate-2D;
#X obj 269 169 / 360;
#X obj 67 228 V-diamond;
#X text 481 147 Simple rotation is done via static \, DC audio signals.
;
#X text 510 430 Rotation signal;
#X obj 129 332 sig~;
#X obj 129 309 / 100;
#X obj 129 290 nbx 5 14 -1e+37 1e+37 0 1 empty empty Htranslate 60
8 0 10 -4034 -1 -1 0 256;
#X obj 169 354 sig~;
#X obj 169 331 / 100;
#X obj 169 312 nbx 5 14 -1e+37 1e+37 0 1 empty empty Vtranslate 60
8 0 10 -4034 -1 -1 0 256;
#X obj 67 393 V-translate-2D;
#X text 481 49 [V-rotate-2D] allows rotation of a 2D vector figure
around a given axis. Brightness values are passed through.;
#X text 485 268 The rotation axis is either the central point of the
figure \, or an anchor point created using the [V-translate-2D] abstraction
before the vector signals enter the rotation process.;
#X text 482 189 Automated rotation is done via any sort of changing
audio signal \, i.e. from [phasor~] or from the [V-operator] abstractions.
Inverting the rotation signal results in rotation in the opposite direction.
;
#X obj 308 298 V-invert-unipolar;
#X obj 362 236 tgl 15 1 empty empty reverse_rot 17 7 0 10 -4034 -1
-1 0 1;
#X obj 362 255 sig~;
#X text 482 110 https://www.lzxindustries.net/products/navigator/;
#X text 481 96 With inspiration from Lars Larsen's LZX Navigator module:
;
#X connect 5 0 34 0;
#X connect 6 0 5 0;
#X connect 7 0 34 1;
#X connect 8 0 17 0;
#X connect 9 0 32 3;
#X connect 10 0 33 0;
#X connect 11 0 12 0;
#X connect 14 0 43 2;
#X connect 15 0 14 0;
#X connect 16 0 15 0;
#X connect 17 0 7 0;
#X connect 18 0 43 0;
#X connect 19 0 43 1;
#X connect 20 0 22 0;
#X connect 21 0 20 0;
#X connect 22 0 47 0;
#X connect 23 0 22 1;
#X connect 32 0 13 0;
#X connect 32 1 13 1;
#X connect 32 2 13 2;
#X connect 33 0 9 0;
#X connect 34 0 18 0;
#X connect 34 1 19 0;
#X connect 37 0 43 3;
#X connect 38 0 37 0;
#X connect 39 0 38 0;
#X connect 40 0 43 4;
#X connect 41 0 40 0;
#X connect 42 0 41 0;
#X connect 43 0 32 0;
#X connect 43 1 32 1;
#X connect 43 2 32 2;
#X connect 47 0 32 3;
#X connect 48 0 49 0;
#X connect 49 0 47 1;
