#N canvas 0 22 1056 666 10;
#X obj 215 251 cos~;
#X obj 253 226 +~ 0.25;
#X obj 253 251 cos~;
#X text 292 253 SIN;
#X text 20 489 Hout = Hin*cos - Vin*sin;
#X obj 22 59 inlet~ Hin;
#X obj 106 59 inlet~ Vin;
#X obj 22 459 outlet~ Hout;
#X obj 106 459 outlet~ Vout;
#X text 20 520 Vout = Vin*cos + Hin*sin;
#X obj 22 381 expr~ ($v1*$v2)-($v3*$v4);
#X obj 106 341 expr~ ($v1*$v2)+($v3*$v4);
#X text 186 252 COS;
#X obj 253 200 wrap~;
#X text 15 14 VECTOR ROTATION 2D;
#X text 298 520 https://www.lzxindustries.net/products/navigator/;
#X text 297 490 With inspiration from Lars Larsen's LZX Navigator module:
;
#X text 296 464 macumbista@gmail.com;
#X obj 196 459 outlet~ Bout;
#X text 297 419 Derek Holzer;
#X text 296 443 Helsinki May 2017;
#X obj 314 59 inlet~ rotate;
#X obj 196 59 inlet~ brightness;
#X connect 0 0 10 1;
#X connect 0 0 11 1;
#X connect 1 0 2 0;
#X connect 2 0 10 3;
#X connect 2 0 11 3;
#X connect 5 0 10 0;
#X connect 5 0 11 2;
#X connect 6 0 10 2;
#X connect 6 0 11 0;
#X connect 10 0 7 0;
#X connect 11 0 8 0;
#X connect 13 0 0 0;
#X connect 13 0 1 0;
#X connect 21 0 13 0;
#X connect 22 0 18 0;
