#N canvas 0 22 907 669 10;
#X obj 355 30 inlet~ rotX;
#X obj 435 30 inlet~ rotY;
#X obj 515 30 inlet~ rotZ;
#X obj 50 194 *~;
#X obj 90 194 *~;
#X obj 130 194 *~;
#X obj 50 239 +~;
#X obj 130 284 -~;
#X obj 492 238 *~ -1;
#X obj 35 354 *~;
#X obj 115 354 *~;
#X obj 195 354 *~;
#X obj 317 355 *~;
#X obj 397 355 *~;
#X obj 477 355 *~;
#N canvas 440 322 239 297 cos-sin 0;
#X obj 95 56 inlet~;
#X obj 95 231 outlet~;
#X obj 45 161 cos~;
#X obj 95 136 +~ 0.25;
#X obj 95 161 cos~;
#X text 134 163 SIN;
#X text 16 163 COS;
#X obj 95 110 wrap~;
#X obj 45 231 outlet~;
#X connect 0 0 7 0;
#X connect 2 0 8 0;
#X connect 3 0 4 0;
#X connect 4 0 1 0;
#X connect 7 0 2 0;
#X connect 7 0 3 0;
#X restore 355 57 pd cos-sin;
#N canvas 440 322 239 297 cos-sin 0;
#X obj 95 56 inlet~;
#X obj 95 231 outlet~;
#X obj 45 161 cos~;
#X obj 95 136 +~ 0.25;
#X obj 95 161 cos~;
#X text 134 163 SIN;
#X text 16 163 COS;
#X obj 95 110 wrap~;
#X obj 45 231 outlet~;
#X connect 0 0 7 0;
#X connect 2 0 8 0;
#X connect 3 0 4 0;
#X connect 4 0 1 0;
#X connect 7 0 2 0;
#X connect 7 0 3 0;
#X restore 435 57 pd cos-sin;
#N canvas 440 322 239 297 cos-sin 0;
#X obj 95 56 inlet~;
#X obj 95 231 outlet~;
#X obj 45 161 cos~;
#X obj 95 136 +~ 0.25;
#X obj 95 161 cos~;
#X text 134 163 SIN;
#X text 16 163 COS;
#X obj 95 110 wrap~;
#X obj 45 231 outlet~;
#X connect 0 0 7 0;
#X connect 2 0 8 0;
#X connect 3 0 4 0;
#X connect 4 0 1 0;
#X connect 7 0 2 0;
#X connect 7 0 3 0;
#X restore 515 57 pd cos-sin;
#X obj 90 239 *~;
#X obj 130 239 *~;
#X obj 170 239 *~;
#X obj 332 238 *~;
#X obj 412 238 *~;
#X obj 210 239 *~;
#X text 405 576 macumbista@gmail.com;
#X text 405 601 With thanks to Akira's Rebirth;
#X obj 35 464 outlet~ Hout;
#X obj 317 464 outlet~ Vout;
#X obj 35 30 inlet~ Xin;
#X obj 115 30 inlet~ Yin;
#X obj 195 30 inlet~ Zin;
#X obj 565 464 outlet~ Bout;
#X obj 265 30 inlet~ Bin;
#X text 405 519 Derek Holzer;
#X text 405 546 Ljubljana June 2017;
#X connect 0 0 15 0;
#X connect 1 0 16 0;
#X connect 2 0 17 0;
#X connect 3 0 6 0;
#X connect 4 0 5 0;
#X connect 5 0 6 1;
#X connect 6 0 9 1;
#X connect 7 0 10 1;
#X connect 8 0 14 1;
#X connect 9 0 26 0;
#X connect 10 0 26 0;
#X connect 11 0 26 0;
#X connect 12 0 27 0;
#X connect 13 0 27 0;
#X connect 14 0 27 0;
#X connect 15 0 3 0;
#X connect 15 0 20 1;
#X connect 15 1 4 0;
#X connect 15 1 18 1;
#X connect 15 1 23 1;
#X connect 16 0 21 0;
#X connect 16 0 22 1;
#X connect 16 0 23 0;
#X connect 16 1 4 1;
#X connect 16 1 8 0;
#X connect 16 1 19 1;
#X connect 17 0 3 1;
#X connect 17 0 18 0;
#X connect 17 0 22 0;
#X connect 17 1 21 1;
#X connect 17 1 20 0;
#X connect 17 1 5 1;
#X connect 18 0 19 0;
#X connect 19 0 7 0;
#X connect 20 0 7 1;
#X connect 21 0 12 1;
#X connect 22 0 13 1;
#X connect 23 0 11 1;
#X connect 28 0 9 0;
#X connect 28 0 12 0;
#X connect 29 0 10 0;
#X connect 29 0 13 0;
#X connect 30 0 11 0;
#X connect 30 0 14 0;
#X connect 32 0 31 0;
