#N canvas 0 22 882 431 10;
#X obj 218 129 inlet~ H;
#X obj 278 129 inlet~ V;
#X obj 338 129 inlet~ brightness;
#X obj 218 269 outlet~ H;
#X obj 278 269 outlet~ V;
#X obj 338 269 outlet~ brightness;
#X obj 218 198 *~;
#X obj 278 198 *~;
#X obj 448 129 inlet~ Hscale;
#X obj 538 129 inlet~ Vscale;
#X text 650 226 Derek Holzer;
#X text 650 250 Berlin July 2017;
#X text 650 275 macumbista@gmail.com;
#X connect 0 0 6 0;
#X connect 1 0 7 0;
#X connect 2 0 5 0;
#X connect 6 0 3 0;
#X connect 7 0 4 0;
#X connect 8 0 6 1;
#X connect 9 0 7 1;
