#N canvas 24 24 1020 724 10;
#N canvas 90 65 864 442 getpixdata 0;
#X obj 205 71 inlet~ X;
#X obj 325 71 inlet~ Y;
#X obj 90 239 outlet~ Z;
#X obj 90 71 inlet gemlist;
#N canvas 0 22 450 278 (subpatch) 0;
#X array \$1-pix-x 64 float 2;
#X coords 0 1 64 -1 200 140 1 0 0;
#X restore 333 185 graph;
#N canvas 0 22 450 278 (subpatch) 0;
#X array \$1-pix-y 64 float 2;
#X coords 0 1 64 -1 200 140 1 0 0;
#X restore 543 187 graph;
#N canvas 239 23 438 546 pix 0;
#X obj 76 338 pix_data;
#X obj 121 391 outlet~;
#X obj 188 98 block~ 1;
#X obj 106 156 i;
#X obj 106 212 % 64;
#X obj 75 122 metro;
#X obj 182 65 tgl 15 0 empty empty empty 17 7 0 10 -262144 -1 -1 1
1;
#X msg 75 97 tempo \$1 samp;
#X obj 121 365 vline~;
#X obj 106 189 + 1;
#X obj 91 38 inlet gemlist;
#X obj 182 38 inlet on_off;
#X obj 75 73 nbx 5 14 0 1e+37 0 1 empty empty empty 0 -8 0 10 -262144
-1 -1 1 256;
#X text 148 157 with thanks to IOhannes Zmoelnig;
#X obj 106 257 tabread \$1-pix-x;
#X obj 121 287 tabread \$1-pix-y;
#X connect 0 2 8 0;
#X connect 3 0 9 0;
#X connect 4 0 3 1;
#X connect 4 0 14 0;
#X connect 4 0 15 0;
#X connect 5 0 0 0;
#X connect 5 0 3 0;
#X connect 6 0 5 0;
#X connect 7 0 5 0;
#X connect 8 0 1 0;
#X connect 9 0 4 0;
#X connect 10 0 0 1;
#X connect 11 0 6 0;
#X connect 12 0 7 0;
#X connect 14 0 0 2;
#X connect 15 0 0 3;
#X restore 90 151 pd pix;
#X obj 422 71 inlet on_off;
#X obj 205 104 tabsend~ \$1-pix-x;
#X obj 325 104 tabsend~ \$1-pix-y;
#X connect 0 0 8 0;
#X connect 1 0 9 0;
#X connect 3 0 6 0;
#X connect 6 0 2 0;
#X connect 7 0 6 1;
#X restore 30 354 pd getpixdata;
#X obj 127 628 outlet~ V;
#X obj 37 628 outlet~ H;
#X obj 217 628 outlet~ brightness;
#X obj 80 34 inlet~ Vrampfreq;
#X obj 30 14 inlet gemlist;
#X obj 493 121 inlet~ Hdeflect;
#X obj 540 151 inlet~ Vdeflect;
#X obj 586 63 inlet~ brightness;
#X obj 80 61 phasor~;
#X obj 130 121 *~;
#X obj 130 152 wrap~;
#X obj 145 61 inlet~ Hrampmult;
#X obj 145 433 *~;
#X obj 318 264 *~;
#X obj 130 264 *~;
#X obj 318 477 +~;
#X obj 130 477 +~;
#X obj 250 61 inlet~ Hsize;
#X obj 333 61 inlet~ Vsize;
#X obj 413 61 inlet~ Hpos;
#X obj 443 91 inlet~ Vpos;
#X obj 333 433 *~;
#X obj 217 566 *~;
#X obj 646 124 switch~;
#X obj 646 93 inlet switch;
#X text 453 540 Derek Holzer;
#X text 455 597 macumbista@gmail.com;
#X text 454 570 Berlin July 2017;
#X text 447 465 PLEASE SEE v-scanprocessor-help.pd for details;
#X text 446 434 USAGE [v-scanprocessor \$0];
#N canvas 0 22 635 297 flipH 0;
#X obj 364 66 inlet flipH;
#X obj 180 66 inlet~ Hsize;
#X obj 180 226 outlet~ Hsize;
#X obj 280 66 inlet~ Hpos;
#X obj 280 226 outlet~ Hpos;
#X obj 364 96 select 0 1;
#X msg 364 131 1;
#X msg 392 131 -1;
#X obj 180 194 *~;
#X obj 280 194 *~;
#X connect 0 0 5 0;
#X connect 1 0 8 0;
#X connect 3 0 9 0;
#X connect 5 0 6 0;
#X connect 5 1 7 0;
#X connect 6 0 9 1;
#X connect 6 0 8 1;
#X connect 7 0 9 1;
#X connect 7 0 8 1;
#X connect 8 0 2 0;
#X connect 9 0 4 0;
#X restore 241 148 pd flipH;
#N canvas 0 22 635 297 flipV 0;
#X obj 364 66 inlet flipH;
#X obj 180 66 inlet~ Hsize;
#X obj 180 226 outlet~ Hsize;
#X obj 280 66 inlet~ Hpos;
#X obj 280 226 outlet~ Hpos;
#X obj 364 96 select 0 1;
#X msg 364 131 1;
#X msg 392 131 -1;
#X obj 180 194 *~;
#X obj 280 194 *~;
#X connect 0 0 5 0;
#X connect 1 0 8 0;
#X connect 3 0 9 0;
#X connect 5 0 6 0;
#X connect 5 1 7 0;
#X connect 6 0 9 1;
#X connect 6 0 8 1;
#X connect 7 0 9 1;
#X connect 7 0 8 1;
#X connect 8 0 2 0;
#X connect 9 0 4 0;
#X restore 351 148 pd flipV;
#X obj 706 146 inlet flipH;
#X obj 746 176 inlet flipV;
#X obj 80 192 samphold~;
#N canvas 0 22 450 300 blanking 0;
#X obj 66 60 inlet~ brightness;
#X obj 186 60 inlet~ Hramp;
#X obj 66 200 outlet~ brightness;
#X obj 66 149 *~;
#X obj 81 109 expr~ ($v1>0.15)&($v1<0.95);
#X connect 0 0 3 0;
#X connect 1 0 4 0;
#X connect 3 0 2 0;
#X connect 4 0 3 1;
#X restore 217 596 pd blanking;
#X connect 0 0 13 0;
#X connect 0 0 22 0;
#X connect 0 0 23 0;
#X connect 4 0 9 0;
#X connect 5 0 0 0;
#X connect 6 0 13 1;
#X connect 7 0 22 1;
#X connect 8 0 23 1;
#X connect 9 0 10 0;
#X connect 9 0 35 0;
#X connect 10 0 11 0;
#X connect 11 0 0 1;
#X connect 11 0 15 0;
#X connect 11 0 35 1;
#X connect 11 0 36 1;
#X connect 12 0 10 1;
#X connect 13 0 17 1;
#X connect 14 0 16 0;
#X connect 15 0 17 0;
#X connect 16 0 1 0;
#X connect 17 0 2 0;
#X connect 18 0 31 0;
#X connect 19 0 32 0;
#X connect 20 0 31 1;
#X connect 21 0 32 1;
#X connect 22 0 16 1;
#X connect 23 0 36 0;
#X connect 25 0 24 0;
#X connect 25 0 0 3;
#X connect 31 0 15 1;
#X connect 31 1 17 1;
#X connect 32 0 14 1;
#X connect 32 1 16 1;
#X connect 33 0 31 2;
#X connect 34 0 32 2;
#X connect 35 0 0 2;
#X connect 35 0 14 0;
#X connect 36 0 3 0;
