#N canvas 282 108 897 703 10;
#X obj 44 43 cnv 15 300 400 empty empty empty 20 12 0 14 -233017 -66577
0;
#X text 650 386 Derek Holzer;
#X text 650 410 Berlin July 2017;
#X text 650 435 macumbista@gmail.com;
#X obj 57 210 cnv 15 100 60 empty empty empty 20 12 0 14 -191407 -66577
0;
#X obj 67 177 phasor~;
#X obj 67 48 nbx 5 14 -1e+37 1e+37 0 1 empty empty base_frequency 60
8 0 10 -4034 -1 -1 2000 256;
#X obj 82 117 sig~;
#X obj 82 94 / 100;
#X obj 82 75 nbx 5 14 -1e+37 1e+37 0 1 empty empty scale 60 8 0 10
-4034 -1 -1 25 256;
#X obj 112 322 *~;
#X obj 67 322 *~;
#X obj 365 398 tgl 15 1 empty empty ON_OFF 17 7 0 10 -258113 -1 -1
0 1;
#X obj 365 426 switch~;
#X obj 67 373 dac~ 1 2 3;
#X obj 147 322 sig~;
#X obj 147 117 / 100;
#X obj 147 97 nbx 5 14 -1e+37 1e+37 0 1 empty empty brightness 60 8
0 10 -4034 -1 -1 100 256;
#X obj 67 228 V-triangle;
#X text 401 174 "The triangle poses an interesting challenge to signal
requirements. Both deflection waveforms are basically triangles \,
however they have been modified. The triangle creating the vertical
motion is flattened at the bottom peak. The triangle producing the
horizontal motion must be non-symmetrical with time (faster positive
slope than negative slope). The two triangles are related in phase."
;
#X text 400 289 From: “Applications of OEI 3D Display Modules”
(1975);
#X text 401 49 [V-triangle] is a simple \, [phasor~] driven shape generator.
It has no size-scaling or brightness controls inside of it \, those
two operations must be done externally to the abstraction.;
#X connect 5 0 18 0;
#X connect 6 0 5 0;
#X connect 7 0 10 1;
#X connect 7 0 11 1;
#X connect 8 0 7 0;
#X connect 9 0 8 0;
#X connect 10 0 14 1;
#X connect 11 0 14 0;
#X connect 12 0 13 0;
#X connect 15 0 14 2;
#X connect 16 0 15 0;
#X connect 17 0 16 0;
#X connect 18 0 11 0;
#X connect 18 1 10 0;
