#N canvas 32 311 493 328 10;
#X obj 74 67 select 0 1 2 3;
#X msg 74 90 -1;
#X msg 94 113 -0.3;
#X msg 114 137 0.3;
#X msg 134 160 1;
#X obj 74 34 inlet;
#X obj 74 218 outlet;
#X text 269 200 Derek Holzer;
#X text 269 222 Berlin July 2017;
#X text 270 242 macumbista@gmail.com;
#X text 130 33 Please see the V-operator-help.pd patch for usage.;
#X connect 0 0 1 0;
#X connect 0 1 2 0;
#X connect 0 2 3 0;
#X connect 0 3 4 0;
#X connect 1 0 6 0;
#X connect 2 0 6 0;
#X connect 3 0 6 0;
#X connect 4 0 6 0;
#X connect 5 0 0 0;
