#N canvas 66 141 942 608 10;
#N canvas 374 23 714 727 tables 0;
#N canvas 0 23 450 278 (subpatch) 0;
#X array \$0-shapeX 24 float 2;
#X coords 0 1 24 -1 200 140 1 0 0;
#X restore 361 88 graph;
#N canvas 0 22 450 278 (subpatch) 0;
#X array \$0-shapeY 24 float 2;
#X coords 0 1 24 -1 200 140 1 0 0;
#X restore 361 248 graph;
#X obj 112 76 openpanel;
#X obj 112 138 t a b a;
#X msg 112 117 read \$1;
#X obj 112 97 symbol;
#X msg 131 176 0;
#X obj 151 158 text define \$0-shapeX-temp;
#X obj 131 218 array size \$0-shapeX;
#X obj 112 236 s \$0-shapeX;
#X obj 131 197 text size \$0-shapeX-temp;
#X obj 17 620 outlet;
#X obj 112 39 inlet loadX;
#X obj 112 266 openpanel;
#X obj 112 328 t a b a;
#X msg 112 307 read \$1;
#X obj 112 287 symbol;
#X msg 131 366 0;
#X obj 151 348 text define \$0-shapeY-temp;
#X obj 131 387 text size \$0-shapeY-temp;
#X obj 131 408 array size \$0-shapeY;
#X obj 112 426 s \$0-shapeY;
#X obj 64 235 bang;
#X obj 83 37 bng 15 250 50 0 empty empty empty 17 7 0 10 -262144 -1
-1;
#X connect 2 0 5 0;
#X connect 3 0 9 0;
#X connect 3 0 22 0;
#X connect 3 1 6 0;
#X connect 3 2 7 0;
#X connect 4 0 3 0;
#X connect 5 0 4 0;
#X connect 6 0 10 0;
#X connect 10 0 8 0;
#X connect 10 0 11 0;
#X connect 12 0 2 0;
#X connect 13 0 16 0;
#X connect 14 0 21 0;
#X connect 14 1 17 0;
#X connect 14 2 18 0;
#X connect 15 0 14 0;
#X connect 16 0 15 0;
#X connect 17 0 19 0;
#X connect 19 0 20 0;
#X connect 22 0 13 0;
#X connect 23 0 2 0;
#X restore 583 100 pd tables;
#X obj 36 430 *~;
#X obj 129 430 *~;
#X obj 36 457 outlet~ X;
#X obj 129 457 outlet~ Y;
#X obj 339 457 outlet~ brightness;
#X obj 36 77 inlet~ phasor;
#X obj 124 77 inlet~ scale;
#X obj 339 77 inlet~ brightness;
#N canvas 0 23 450 300 blanking 0;
#X obj 66 60 inlet~ brightness;
#X obj 186 60 inlet~ Hramp;
#X obj 66 200 outlet~ brightness;
#X obj 66 149 *~;
#X obj 81 109 expr~ ($v1>0.02)&($v1<0.98);
#X connect 0 0 3 0;
#X connect 1 0 4 0;
#X connect 3 0 2 0;
#X connect 4 0 3 1;
#X restore 339 269 pd blanking;
#X obj 459 77 inlet interpolation;
#X obj 389 102 sig~;
#X obj 459 137 expr~ ($v1 * -1) + 1;
#X obj 36 390 *~;
#X obj 129 390 *~;
#X obj 56 189 VS-tabreadlin~ \$0-shapeX;
#X obj 46 410 *~;
#X obj 139 410 *~;
#X obj 36 156 tabread~ \$0-shapeX;
#X obj 129 236 tabread~ \$0-shapeY;
#X obj 149 269 VS-tabreadlin~ \$0-shapeY;
#X obj 583 77 inlet loadtables;
#X obj 36 125 *~;
#X connect 0 0 22 1;
#X connect 1 0 3 0;
#X connect 2 0 4 0;
#X connect 6 0 22 0;
#X connect 6 0 9 1;
#X connect 7 0 1 1;
#X connect 7 0 2 1;
#X connect 8 0 9 0;
#X connect 9 0 5 0;
#X connect 10 0 11 0;
#X connect 11 0 12 0;
#X connect 11 0 16 1;
#X connect 11 0 17 1;
#X connect 12 0 13 1;
#X connect 12 0 14 1;
#X connect 13 0 1 0;
#X connect 14 0 2 0;
#X connect 15 0 16 0;
#X connect 16 0 1 0;
#X connect 17 0 2 0;
#X connect 18 0 13 0;
#X connect 19 0 14 0;
#X connect 20 0 17 0;
#X connect 21 0 0 0;
#X connect 22 0 15 0;
#X connect 22 0 20 0;
#X connect 22 0 19 0;
#X connect 22 0 18 0;
