#N canvas 70 23 685 655 10;
#X text 558 543 Derek Holzer;
#X text 558 592 macumbista@gmail.com;
#X text 558 567 Helsinki MAY 2019;
#X obj 101 118 cnv 15 300 100 empty empty empty 20 12 0 14 -228856
-66577 0;
#X obj 99 552 outlet~ X;
#X obj 169 552 outlet~ Y;
#X obj 307 552 outlet~ B;
#X obj 178 161 nbx 5 14 -1e+37 1e+37 0 0 \$2/scale \$2/scale scale
0 -8 0 10 -4034 -1 -1 100 256;
#X obj 156 400 / 100;
#X obj 319 161 nbx 5 14 -1e+37 1e+37 0 0 \$2/brightness \$2/brightness
brightness 0 -8 0 10 -4034 -1 -1 100 256;
#X obj 225 401 / 100;
#X obj 377 366 kollabs/ds_reg \$1 \$2/frequency;
#X obj 377 426 kollabs/ds_reg \$1 \$2/harmonic;
#X obj 377 446 kollabs/ds_reg \$1 \$2/scale;
#X obj 377 466 kollabs/ds_reg \$1 \$2/phase;
#X obj 377 486 kollabs/ds_reg \$1 \$2/brightness;
#X obj 102 17 inlet~ phasor;
#X obj 108 130 nbx 5 14 -1e+37 1e+37 0 0 \$2/frequency \$2/frequency
frequency 0 -8 0 10 -257985 -1 -1 50 256;
#X obj 168 130 nbx 5 14 -1e+37 1e+37 0 0 \$2/frequency-100 \$2/frequency-100
freq/100 0 -8 0 10 -257985 -1 -1 0 256;
#X obj 227 130 bng 15 250 50 0 empty empty Reset -6 -8 0 10 -258113
-1 -1;
#X obj 99 336 phasor~;
#X obj 69 295 sig~;
#X obj 129 241 / 100;
#X obj 129 295 sig~;
#X msg 165 295 0, f 4;
#N canvas 0 23 634 533 selector 0;
#X obj 139 36 inlet~;
#X obj 210 36 inlet~;
#X obj 380 36 inlet;
#X msg 142 112 0;
#X msg 154 135 1;
#X msg 214 112 0;
#X msg 225 135 1;
#X obj 139 239 *~;
#X obj 210 239 *~;
#X obj 163 267 outlet~;
#X obj 152 81 select 0 1 2;
#X msg 280 112 0;
#X msg 292 135 1;
#X obj 277 239 *~;
#X obj 277 36 r~ \$1-master;
#X connect 0 0 7 0;
#X connect 1 0 8 0;
#X connect 2 0 10 0;
#X connect 3 0 8 1;
#X connect 3 0 13 1;
#X connect 4 0 7 1;
#X connect 5 0 7 1;
#X connect 5 0 13 1;
#X connect 6 0 8 1;
#X connect 7 0 9 0;
#X connect 8 0 9 0;
#X connect 10 0 3 0;
#X connect 10 0 4 0;
#X connect 10 1 5 0;
#X connect 10 1 6 0;
#X connect 10 2 11 0;
#X connect 10 2 12 0;
#X connect 11 0 8 1;
#X connect 11 0 7 1;
#X connect 12 0 13 1;
#X connect 13 0 9 0;
#X connect 14 0 13 0;
#X restore 99 366 pd selector;
#X obj 323 52 r \$1-reset-phase;
#X obj 318 130 hradio 15 1 0 3 \$2/source \$2/source Int.Ext.Master
-12 -8 0 10 -257985 -1 -1 0;
#X obj 273 17 inlet~ scale;
#X obj 421 93 savestate;
#X obj 472 137 f;
#X obj 487 157 f;
#X obj 503 177 f;
#X obj 523 198 f;
#X obj 543 218 f;
#X obj 563 238 f;
#X obj 583 258 f;
#X obj 377 386 kollabs/ds_reg \$1 \$2/frequency-100;
#X obj 377 406 kollabs/ds_reg \$1 \$2/source;
#X obj 353 17 inlet~ brightness;
#X obj 108 161 nbx 5 14 0 360 0 0 \$2/harmonic \$2/harmonic harmonic
0 -8 0 10 -4034 -1 -1 1 256;
#X obj 99 399 *~;
#X obj 99 426 wrap~;
#X obj 109 194 bng 15 250 50 0 empty empty LOAD_2D_DATA_TABLES 20 8
0 10 -4034 -1 -1;
#X obj 261 194 hradio 15 1 0 2 \$2/interpolation \$2/interpolation
Off.On 0 -8 0 10 -4034 -1 -1 0;
#X obj 377 506 kollabs/ds_reg \$1 \$2/interpolation;
#X text 297 193 INTERPOLATION;
#X obj 99 504 vs-2D-data;
#X obj 377 129 bng 15 250 50 0 empty empty ? 17 7 0 10 -4032 -1 -1
;
#X obj 320 269 s pd-\$2-help;
#X msg 320 247 vis 1;
#N canvas 0 23 836 658 \$2-help 0;
#X text 21 456 Click the INTERPOLATION toggle ON for a continuous audio
signal if using an oscilloscope. Click the INTERPOLATION toggle OFF
for points if using an ILDA laser.;
#X text 17 237 [vs-2D-data] renders three individual .txt files containing
2D information into into a 2D vector graphic \, with brightness blanking
to remove the flyback line.;
#X text 20 369 To create your own 2D data sets from OBJ and SVG files
files \, please check the README file in the 00.vector_synthesis-3d_parser
folder. This requires Hansi Raber's OsciStudio and Python to be installed
on your computer. Youwill simply ignore the zvert.txt file produced.
;
#X text 18 294 Click the geen LOAD object to load data files. You will
see two Open File windows \, one after the other. Load X data in the
first and Y data in the second. Data sets can be found in the 01.tables
folder of this library.;
#X obj 245 13 cnv 15 300 200 empty empty HELP:vs-2D-data 20 12 0 14
-4034 -66577 0;
#X text 252 38 INLETS:;
#X text 252 128 OUTLETS:;
#X text 278 151 1) X signal;
#X text 278 171 2) Y signal;
#X text 278 191 3) Brightness signal (0-1);
#X text 278 61 1) Ramp signal (i.e. from [phasor~]) (0-1);
#X text 278 81 2) Scale signal (0-1);
#X text 278 101 3) Brightness signal (0-1);
#X text 415 233 The source of the ramp driving this abstraction is
selected from three options:;
#X text 426 324 EXT: ramp is taken from left-most inlet in the abstraction
;
#X text 427 348 MASTER: ramp is taken from the MASTER bus \, which
could be a [vs-phasor-gui] set to MASTER \, or the master clock of
the [vs-multiplex-gui] set to MASTER.;
#X text 420 404 Other controls:;
#X text 442 513 PHASE adjusts the phase of the output waveform.;
#X text 441 488 SCALE adjusts the amplitude of the output waveform.
;
#X text 441 439 HARMONIC sets the output waveform to a harmonic multiple
of the driving ramp. It also determines the number of STEP or RANDOM
steps per cycle of the driving ramp.;
#X text 426 278 INT: internal ramp generator with rough and fine tune
(freq/100) plus RESET button for phase. Set SMOOTH to ON if using MIDI
CC to control frequency.;
#X text 442 533 BRIGHTNESS sets the brightness value of this vector
figure.;
#X text 683 568 Derek Holzer;
#X text 683 617 macumbista@gmail.com;
#X text 683 592 Helsinki May 2019;
#X restore 320 299 pd \$2-help;
#X obj 377 528 kollabs/ds_reg \$1 \$2/smooth;
#X obj 608 286 f;
#X obj 197 246 * 20;
#X obj 129 270 pack 0 0;
#X obj 69 270 pack 0 0;
#X obj 156 423 pack 0 0;
#X obj 225 423 pack 0 0;
#X obj 156 466 line~;
#X obj 225 467 line~;
#X obj 399 75 loadbang;
#X obj 246 161 nbx 5 14 0 360 0 0 \$2/phase \$2/phase phase 0 -8 0
10 -4034 -1 -1 0 256;
#X obj 628 306 f;
#X obj 472 115 t b b b b b b b b b;
#X obj 472 320 pack 0 0 0 0 0 0 0 0 0;
#X obj 421 341 unpack 0 0 0 0 0 0 0 0 0;
#X obj 246 307 pack 0 20;
#X obj 246 330 line~;
#X obj 257 130 hradio 15 1 0 2 \$2/smooth \$2/smooth ON 35 8 0 10 -257985
-1 -1 0;
#X text 256 115 Smooth;
#X obj 284 401 r \$2/source;
#X obj 197 220 r \$2/smooth;
#X obj 256 359 r \$2/interpolation;
#X connect 7 0 8 0;
#X connect 7 0 35 1;
#X connect 8 0 57 0;
#X connect 9 0 10 0;
#X connect 9 0 36 1;
#X connect 10 0 58 0;
#X connect 16 0 25 1;
#X connect 17 0 30 1;
#X connect 17 0 56 0;
#X connect 18 0 22 0;
#X connect 18 0 31 1;
#X connect 19 0 24 0;
#X connect 20 0 25 0;
#X connect 21 0 20 0;
#X connect 22 0 55 0;
#X connect 23 0 20 0;
#X connect 24 0 20 1;
#X connect 25 0 41 0;
#X connect 26 0 19 0;
#X connect 28 0 47 1;
#X connect 29 0 66 0;
#X connect 29 1 64 0;
#X connect 30 0 65 0;
#X connect 31 0 65 1;
#X connect 32 0 65 2;
#X connect 33 0 65 3;
#X connect 34 0 65 4;
#X connect 35 0 65 5;
#X connect 36 0 65 6;
#X connect 39 0 47 2;
#X connect 40 0 41 1;
#X connect 40 0 34 1;
#X connect 41 0 42 0;
#X connect 42 0 47 0;
#X connect 43 0 47 4;
#X connect 47 0 4 0;
#X connect 47 1 5 0;
#X connect 47 2 6 0;
#X connect 48 0 50 0;
#X connect 50 0 49 0;
#X connect 53 0 65 7;
#X connect 54 0 55 1;
#X connect 54 0 56 1;
#X connect 55 0 23 0;
#X connect 56 0 21 0;
#X connect 57 0 59 0;
#X connect 58 0 60 0;
#X connect 59 0 47 1;
#X connect 60 0 47 2;
#X connect 61 0 27 0;
#X connect 61 0 44 0;
#X connect 61 0 62 0;
#X connect 61 0 40 0;
#X connect 61 0 19 0;
#X connect 61 0 18 0;
#X connect 61 0 17 0;
#X connect 61 0 9 0;
#X connect 61 0 7 0;
#X connect 61 0 69 0;
#X connect 62 0 63 1;
#X connect 62 0 67 0;
#X connect 63 0 65 8;
#X connect 64 0 30 0;
#X connect 64 1 31 0;
#X connect 64 2 32 0;
#X connect 64 3 33 0;
#X connect 64 4 34 0;
#X connect 64 5 35 0;
#X connect 64 6 36 0;
#X connect 64 7 53 0;
#X connect 64 8 63 0;
#X connect 65 0 29 0;
#X connect 66 0 17 0;
#X connect 66 1 18 0;
#X connect 66 2 27 0;
#X connect 66 3 44 0;
#X connect 66 4 40 0;
#X connect 66 5 7 0;
#X connect 66 6 9 0;
#X connect 66 7 69 0;
#X connect 66 8 62 0;
#X connect 67 0 68 0;
#X connect 68 0 42 0;
#X connect 71 0 25 2;
#X connect 71 0 32 1;
#X connect 72 0 54 0;
#X connect 72 0 53 1;
#X connect 73 0 47 3;
#X connect 73 0 33 1;
#X coords 0 -1 1 1 302 120 1 100 100;
