#N canvas 26 207 646 567 10;
#N canvas 566 47 714 727 tables 0;
#N canvas 0 23 450 278 (subpatch) 0;
#X array \$0-shapeX 3840 float 2;
#X coords 0 1 3840 -1 200 140 1 0 0;
#X restore 361 88 graph;
#N canvas 0 22 450 278 (subpatch) 0;
#X array \$0-shapeY 3840 float 2;
#X coords 0 1 3840 -1 200 140 1 0 0;
#X restore 361 248 graph;
#N canvas 0 22 450 278 (subpatch) 0;
#X array \$0-shapeZ 3840 float 2;
#X coords 0 1 3840 -1 200 140 1 0 0;
#X restore 361 408 graph;
#X obj 42 188 openpanel;
#X obj 87 219 f \$0;
#X obj 42 131 t b b;
#X obj 42 244 pack s 0;
#X obj 42 301 soundfiler;
#X msg 42 271 read -resize \$1 \$2-shapeX \$2-shapeY \$2-shapeZ;
#X obj 42 532 outlet;
#X obj 42 88 inlet load;
#X connect 3 0 6 0;
#X connect 4 0 6 1;
#X connect 5 0 3 0;
#X connect 5 1 4 0;
#X connect 6 0 8 0;
#X connect 7 0 9 0;
#X connect 8 0 7 0;
#X connect 10 0 5 0;
#X restore 399 104 pd tables;
#X obj 36 430 *~;
#X obj 129 430 *~;
#X obj 199 429 *~;
#X obj 36 457 outlet~ X;
#X obj 129 457 outlet~ Y;
#X obj 199 457 outlet~ Z;
#X obj 269 457 outlet~ brightness;
#X obj 36 77 inlet~ phasor;
#X obj 124 77 inlet~ scale;
#X obj 269 77 inlet~ brightness;
#N canvas 0 23 450 300 blanking 0;
#X obj 66 60 inlet~ brightness;
#X obj 186 60 inlet~ Hramp;
#X obj 66 200 outlet~ brightness;
#X obj 66 149 *~;
#X obj 81 109 expr~ ($v1>0.02)&($v1<0.98);
#X connect 0 0 3 0;
#X connect 1 0 4 0;
#X connect 3 0 2 0;
#X connect 4 0 3 1;
#X restore 269 270 pd blanking;
#X obj 36 145 *~;
#X obj 399 77 inlet load;
#X obj 36 201 tabread~ \$0-shapeX;
#X obj 102 269 tabread~ \$0-shapeY;
#X obj 172 359 tabread~ \$0-shapeZ;
#X connect 0 0 12 1;
#X connect 1 0 4 0;
#X connect 2 0 5 0;
#X connect 3 0 6 0;
#X connect 8 0 12 0;
#X connect 8 0 11 1;
#X connect 9 0 1 1;
#X connect 9 0 2 1;
#X connect 9 0 3 1;
#X connect 10 0 11 0;
#X connect 11 0 7 0;
#X connect 12 0 14 0;
#X connect 12 0 15 0;
#X connect 12 0 16 0;
#X connect 13 0 0 0;
#X connect 14 0 1 0;
#X connect 15 0 2 0;
#X connect 16 0 3 0;
