#N canvas 67 23 1100 751 10;
#X obj 19 35 cnv 15 300 500 empty empty 3D_WAV_DATA_OBJECT 20 12 0
14 -233017 -66577 0;
#X obj 333 36 cnv 15 300 500 empty empty XYZ_ROTATION_+_MODULATION
20 12 0 14 -233017 -66577 0;
#X obj 46 502 dac~ 1 2 3;
#X obj 357 90 nbx 5 14 -1e+37 1e+37 0 1 empty empty Xrotation 0 -8
0 10 -4034 -1 -1 0 256;
#X obj 357 129 sig~;
#X obj 242 131 sig~;
#X obj 242 90 nbx 5 14 -1e+37 1e+37 0 1 empty empty brightness 0 -8
0 10 -4034 -1 -1 100 256;
#X obj 456 90 nbx 5 14 -1e+37 1e+37 0 1 empty empty Yrotation 0 -8
0 10 -4034 -1 -1 0 256;
#X obj 456 130 sig~;
#X obj 546 89 nbx 5 14 -1e+37 1e+37 0 1 empty empty Zrotation 0 -8
0 10 -4034 -1 -1 0 256;
#X obj 546 129 sig~;
#X obj 142 109 / 100;
#X obj 46 89 nbx 5 14 -1e+37 1e+37 0 1 empty empty freq 0 -8 0 10 -4034
-1 -1 50 256;
#X obj 141 134 sig~;
#X obj 142 90 nbx 5 14 -1e+37 1e+37 0 1 empty empty scale 0 -8 0 10
-4034 -1 -1 25 256;
#X obj 46 109 phasor~;
#X obj 242 109 / 100;
#X obj 357 108 / 360;
#X obj 456 108 / 360;
#X obj 546 108 / 360;
#X obj 356 168 nbx 5 14 -1e+37 1e+37 0 1 empty empty freq/100 0 -8
0 10 -4034 -1 -1 10 256;
#X obj 356 222 phasor~;
#X obj 456 168 nbx 5 14 -1e+37 1e+37 0 1 empty empty freq/100 0 -8
0 10 -4034 -1 -1 10 256;
#X obj 456 222 phasor~;
#X obj 546 168 nbx 5 14 -1e+37 1e+37 0 1 empty empty freq/100 0 -8
0 10 -4034 -1 -1 10 256;
#X obj 546 222 phasor~;
#X text 902 477 Derek Holzer;
#X text 902 526 macumbista@gmail.com;
#X obj 565 468 tgl 15 1 empty empty ON_OFF 17 7 0 10 -258113 -1 -1
1 1;
#X obj 565 496 switch~;
#X obj 546 192 / 100;
#X obj 456 192 / 100;
#X obj 356 192 / 100;
#X text 900 384 X (horizontal);
#X text 900 404 Y (vertical);
#X text 900 424 Z (depth);
#X text 900 444 Brightness;
#X text 883 355 OUTLETS;
#X text 673 355 INLETS;
#X text 689 384 Signal from [phasor~];
#X text 689 403 Scale (signal 0-1);
#X text 689 424 Brightness (signal 0-1);
#X obj 46 470 VS-rotate, f 22;
#X msg 508 271 0;
#X obj 113 295 bng 25 250 50 0 empty empty LOAD_3D_DATA_TABLES 30 12
0 10 -4034 -1 -1;
#X text 902 501 Santa Barbara MAR 2019;
#X text 541 272 reset phase;
#X obj 46 331 VS-3D-data;
#X obj 114 250 tgl 25 1 empty empty INTERPOLATION_ON_OFF 30 12 0 10
-4034 -1 -1 0 1;
#X text 652 93 Click the geen BANG objejct to load data files. You
will see three Open File windows \, one after the other. Load X data
in the firts \, Y data in the second \, Z data in the third. Data sets
can be found in the 01.tables folder of this library.;
#X text 654 168 To create your own 3D data sets form .obj or .svg )for
2D images) files \, please check the README file in the 00.vector_synthesis-3d_parser
folder. This requires Hansi Raber's OsciStudio and Python to be installed
on your computer.;
#X text 655 255 Click the INTERPOLATION toggle ON for a continuous
audio signal if using an oscilloscope. Click the INTERPOLATION toggle
OFF for points if using an ILDA laser.;
#X text 651 36 [VS-3D-data] renders three individual .txt files containing
3D information into into a 3D vector graphic \, with brightness blanking
to remove the flyback line.;
#X text 689 445 Interpolation ( 0-1);
#X text 690 465 Load .txt files (bang);
#X connect 3 0 17 0;
#X connect 4 0 42 4;
#X connect 5 0 47 2;
#X connect 6 0 16 0;
#X connect 7 0 18 0;
#X connect 8 0 42 5;
#X connect 9 0 19 0;
#X connect 10 0 42 6;
#X connect 11 0 13 0;
#X connect 12 0 15 0;
#X connect 13 0 47 1;
#X connect 14 0 11 0;
#X connect 15 0 47 0;
#X connect 16 0 5 0;
#X connect 17 0 4 0;
#X connect 18 0 8 0;
#X connect 19 0 10 0;
#X connect 20 0 32 0;
#X connect 21 0 42 4;
#X connect 22 0 31 0;
#X connect 23 0 42 5;
#X connect 24 0 30 0;
#X connect 25 0 42 6;
#X connect 28 0 29 0;
#X connect 30 0 25 0;
#X connect 31 0 23 0;
#X connect 32 0 21 0;
#X connect 42 0 2 0;
#X connect 42 1 2 1;
#X connect 42 3 2 2;
#X connect 43 0 25 1;
#X connect 43 0 23 1;
#X connect 43 0 21 1;
#X connect 44 0 47 4;
#X connect 47 0 42 0;
#X connect 47 1 42 1;
#X connect 47 2 42 2;
#X connect 47 3 42 3;
#X connect 48 0 47 3;
