#N canvas 110 68 780 644 10;
#X obj 101 118 cnv 15 300 100 empty empty empty 20 12 0 14 -233017
-66577 0;
#X obj 85 -3 inlet~ X;
#X obj 140 -3 inlet~ Y;
#X obj 195 -3 inlet~ B;
#X obj 109 129 nbx 5 14 0 1e+37 0 0 \$2/audio_vol \$2/audio_vol audio_vol(dB)
0 -8 0 10 -4034 -1 -1 75 256;
#X obj 57 486 catch~ \$1-master;
#X obj 57 515 s~ \$1-master;
#X obj 250 -3 inlet~ L;
#X obj 311 -3 inlet~ R;
#X obj 263 437 *~;
#X obj 303 437 *~;
#X obj 277 320 select 0 1;
#X obj 278 395 *~;
#X msg 277 346 0;
#X msg 289 369 1;
#X msg 317 346 0;
#X msg 329 369 1;
#X obj 311 395 sig~;
#N canvas 0 23 512 521 demulitiplex 0;
#X obj 37 21 inlet~;
#X obj 203 21 inlet;
#X obj 36 343 *~;
#X obj 76 343 *~;
#X obj 116 343 *~;
#X obj 156 343 *~;
#X obj 196 343 *~;
#X obj 236 343 *~;
#X obj 276 343 *~;
#X msg 203 76 0;
#X msg 213 96 1;
#X msg 233 116 0;
#X msg 243 136 1;
#X msg 243 76 0;
#X msg 253 96 1;
#X msg 293 96 1;
#X msg 333 96 1;
#X msg 282 136 1;
#X msg 323 136 1;
#X msg 283 76 0;
#X msg 323 76 0;
#X msg 273 116 0;
#X msg 313 116 0;
#X obj 203 51 select 0 1 2 3 4 5 6;
#X obj 141 418 dac~ 4 5 6 7 8 65 66;
#X connect 0 0 2 0;
#X connect 0 0 8 0;
#X connect 0 0 7 0;
#X connect 0 0 6 0;
#X connect 0 0 5 0;
#X connect 0 0 4 0;
#X connect 0 0 3 0;
#X connect 1 0 23 0;
#X connect 2 0 24 0;
#X connect 3 0 24 1;
#X connect 4 0 24 2;
#X connect 5 0 24 3;
#X connect 6 0 24 4;
#X connect 7 0 24 5;
#X connect 8 0 24 6;
#X connect 9 0 3 1;
#X connect 9 0 8 1;
#X connect 9 0 7 1;
#X connect 9 0 6 1;
#X connect 9 0 5 1;
#X connect 9 0 4 1;
#X connect 10 0 2 1;
#X connect 11 0 2 1;
#X connect 11 0 8 1;
#X connect 11 0 7 1;
#X connect 11 0 6 1;
#X connect 11 0 5 1;
#X connect 11 0 4 1;
#X connect 12 0 3 1;
#X connect 13 0 2 1;
#X connect 13 0 3 1;
#X connect 13 0 8 1;
#X connect 13 0 7 1;
#X connect 13 0 6 1;
#X connect 13 0 5 1;
#X connect 14 0 4 1;
#X connect 15 0 6 1;
#X connect 16 0 8 1;
#X connect 17 0 5 1;
#X connect 18 0 7 1;
#X connect 19 0 2 1;
#X connect 19 0 5 1;
#X connect 19 0 4 1;
#X connect 19 0 3 1;
#X connect 19 0 8 1;
#X connect 19 0 7 1;
#X connect 20 0 7 1;
#X connect 20 0 6 1;
#X connect 20 0 5 1;
#X connect 20 0 4 1;
#X connect 20 0 3 1;
#X connect 20 0 2 1;
#X connect 21 0 2 1;
#X connect 21 0 4 1;
#X connect 21 0 3 1;
#X connect 21 0 8 1;
#X connect 21 0 7 1;
#X connect 21 0 6 1;
#X connect 22 0 6 1;
#X connect 22 0 5 1;
#X connect 22 0 4 1;
#X connect 22 0 3 1;
#X connect 22 0 2 1;
#X connect 22 0 8 1;
#X connect 23 0 9 0;
#X connect 23 0 10 0;
#X connect 23 1 11 0;
#X connect 23 1 12 0;
#X connect 23 2 13 0;
#X connect 23 2 14 0;
#X connect 23 3 21 0;
#X connect 23 3 17 0;
#X connect 23 4 19 0;
#X connect 23 4 15 0;
#X connect 23 5 22 0;
#X connect 23 5 18 0;
#X connect 23 6 20 0;
#X connect 23 6 16 0;
#X restore 263 574 pd demulitiplex;
#N canvas 0 23 512 521 demulitiplex 0;
#X obj 37 21 inlet~;
#X obj 203 21 inlet;
#X obj 36 343 *~;
#X obj 76 343 *~;
#X obj 116 343 *~;
#X obj 156 343 *~;
#X obj 196 343 *~;
#X obj 236 343 *~;
#X obj 276 343 *~;
#X msg 203 76 0;
#X msg 213 96 1;
#X msg 233 116 0;
#X msg 243 136 1;
#X msg 243 76 0;
#X msg 253 96 1;
#X msg 293 96 1;
#X msg 333 96 1;
#X msg 282 136 1;
#X msg 323 136 1;
#X msg 283 76 0;
#X msg 323 76 0;
#X msg 273 116 0;
#X msg 313 116 0;
#X obj 203 51 select 0 1 2 3 4 5 6;
#X obj 141 418 dac~ 4 5 6 7 8 65 66;
#X connect 0 0 2 0;
#X connect 0 0 8 0;
#X connect 0 0 7 0;
#X connect 0 0 6 0;
#X connect 0 0 5 0;
#X connect 0 0 4 0;
#X connect 0 0 3 0;
#X connect 1 0 23 0;
#X connect 2 0 24 0;
#X connect 3 0 24 1;
#X connect 4 0 24 2;
#X connect 5 0 24 3;
#X connect 6 0 24 4;
#X connect 7 0 24 5;
#X connect 8 0 24 6;
#X connect 9 0 3 1;
#X connect 9 0 8 1;
#X connect 9 0 7 1;
#X connect 9 0 6 1;
#X connect 9 0 5 1;
#X connect 9 0 4 1;
#X connect 10 0 2 1;
#X connect 11 0 2 1;
#X connect 11 0 8 1;
#X connect 11 0 7 1;
#X connect 11 0 6 1;
#X connect 11 0 5 1;
#X connect 11 0 4 1;
#X connect 12 0 3 1;
#X connect 13 0 2 1;
#X connect 13 0 3 1;
#X connect 13 0 8 1;
#X connect 13 0 7 1;
#X connect 13 0 6 1;
#X connect 13 0 5 1;
#X connect 14 0 4 1;
#X connect 15 0 6 1;
#X connect 16 0 8 1;
#X connect 17 0 5 1;
#X connect 18 0 7 1;
#X connect 19 0 2 1;
#X connect 19 0 5 1;
#X connect 19 0 4 1;
#X connect 19 0 3 1;
#X connect 19 0 8 1;
#X connect 19 0 7 1;
#X connect 20 0 7 1;
#X connect 20 0 6 1;
#X connect 20 0 5 1;
#X connect 20 0 4 1;
#X connect 20 0 3 1;
#X connect 20 0 2 1;
#X connect 21 0 2 1;
#X connect 21 0 4 1;
#X connect 21 0 3 1;
#X connect 21 0 8 1;
#X connect 21 0 7 1;
#X connect 21 0 6 1;
#X connect 22 0 6 1;
#X connect 22 0 5 1;
#X connect 22 0 4 1;
#X connect 22 0 3 1;
#X connect 22 0 2 1;
#X connect 22 0 8 1;
#X connect 23 0 9 0;
#X connect 23 0 10 0;
#X connect 23 1 11 0;
#X connect 23 1 12 0;
#X connect 23 2 13 0;
#X connect 23 2 14 0;
#X connect 23 3 21 0;
#X connect 23 3 17 0;
#X connect 23 4 19 0;
#X connect 23 4 15 0;
#X connect 23 5 22 0;
#X connect 23 5 18 0;
#X connect 23 6 20 0;
#X connect 23 6 16 0;
#X restore 303 596 pd demulitiplex;
#X obj 256 183 hradio 15 1 0 7 \$2/left \$2/left 4.5.6.7.8.65.66 6
-8 0 12 -4032 -1 -1 5;
#X obj 189 322 / 100;
#X obj 189 346 pack 0 100;
#X obj 190 370 line~;
#X obj 263 467 *~;
#X obj 303 467 *~;
#X text 366 182 LEFT;
#X obj 256 201 hradio 15 1 0 7 \$2/right \$2/right empty 6 -8 0 10
-4032 -1 -1 6;
#X text 366 200 RIGHT;
#X text 453 507 Derek Holzer;
#X text 453 556 macumbista@gmail.com;
#X text 453 531 Helsinki May 2019;
#X obj 411 93 savestate;
#X obj 462 137 f;
#X obj 477 157 f;
#X obj 493 177 f;
#X obj 509 138 f;
#X obj 377 376 kollabs/ds_reg \$1 \$2/audio_vol;
#X obj 377 396 kollabs/ds_reg \$1 \$2/brightmod;
#X obj 377 416 kollabs/ds_reg \$1 \$2/left;
#X obj 377 436 kollabs/ds_reg \$1 \$2/right;
#X obj 85 446 dac~ 1 2 3;
#X text 215 184 AUDIO;
#X text 212 199 OUTPUT;
#X obj 87 400 *~;
#X obj 114 400 *~;
#X obj 143 402 *~;
#X obj 263 545 *~;
#X obj 303 544 *~;
#X obj 217 129 bng 15 250 50 0 empty empty Reset.Phases -20 -8 0 10
-258113 -1 -1;
#X obj 44 367 s \$1-reset-phase;
#X obj 331 128 hradio 15 1 0 2 \$2/offon \$2/offon Off.On -5 -8 0 10
-258113 -1 -1 0;
#X obj 539 168 f;
#X obj 377 456 kollabs/ds_reg \$1 \$2/offon;
#X obj 109 200 hradio 15 1 0 2 \$2/brightmod \$2/brightmod empty -5
-8 0 10 -4034 -1 -1 0;
#X obj 109 183 hradio 15 1 0 2 \$2/xylr \$2/xylr Off.On -5 -8 0 10
-4034 -1 -1 1;
#X text 143 182 XY to LR;
#X obj 551 145 f;
#X obj 377 476 kollabs/ds_reg \$1 \$2/xylr;
#X obj 88 71 *~;
#X obj 115 71 *~;
#X text 143 200 Bright.Mod;
#X obj 377 129 bng 15 250 50 0 empty empty ? 17 7 0 10 -4032 -1 -1
;
#X obj 360 246 s pd-\$2-help;
#X msg 360 224 vis 1;
#N canvas 0 23 474 616 \$2-help 0;
#X obj 36 18 cnv 15 300 140 empty empty HELP:vs-audiodac-gui 20 12
0 14 -4034 -66577 0;
#X text 85 60 1) X axis signal;
#X text 85 80 2) Y axis signal;
#X text 85 99 3) Brightness signal;
#X text 85 120 4) Audio Left;
#X text 85 138 5) Audio Right;
#X text 42 41 INLETS:;
#X text 35 193 [vs-audiodac-gui] is a sinmple abstraction to output
to your audio interface. It also takes care of routing the master oscillator
signal from either a [vs-phasor-gui] or the [vs-multiplex-gui].;
#X text 38 363 ON/OFF switches on and off both the audio and vector
signals. Think of it as an overall "mute".;
#X text 39 402 The BLUE RADIO BOXES assign the LEFT and RIGHT channels
of the audio signals to one of the channels (1-10) of your audio interface.
Note that X \, Y \, and Brightness normally go on channels 1-3.;
#X text 37 304 BRIGHT MOD switches on or off the amplitude modulation
of the audio channels by the overall brightness signal. This should
be turned OFF when using the [vs-multiplex-gui] since that abstraction
does this function already.;
#X text 35 257 AUDIO VOL controls the overall amount of the signal
going to the audio channels. It does not affect the signals going to
the vector channels. This number is in dB.;
#X text 40 504 HORZ adjusts the horizontal position of the figure through
zero.;
#X text 40 544 VERT adjusts the vertical location of the figure through
zero.;
#X text 40 464 SCALE adjusts the size of the image in percentage through
zero to inversion(default 100%).;
#X restore 360 356 pd \$2-help;
#X obj 170 151 nbx 5 14 -1e+37 1e+37 0 0 \$2/scale \$2/scale Scale
0 -8 0 10 -4034 -1 -1 25 256;
#X obj 242 151 nbx 5 14 -1e+37 1e+37 0 0 \$2/horz \$2/horz Horz 0 -8
0 10 -4034 -1 -1 0 256;
#X obj 301 151 nbx 5 14 -1e+37 1e+37 0 0 \$2/vert \$2/vert Vert 0 -8
0 10 -4034 -1 -1 0 256;
#X obj 547 436 kollabs/ds_reg \$1 \$2/scale;
#X obj 547 456 kollabs/ds_reg \$1 \$2/horz;
#X obj 547 476 kollabs/ds_reg \$1 \$2/vert;
#X obj 462 115 t b b b b b b b b b;
#X obj 462 200 pack 0 0 0 0 0 0 0 0 0;
#X obj 411 221 unpack 0 0 0 0 0 0 0 0 0;
#X obj 581 145 f;
#X obj 601 165 f;
#X obj 621 185 f;
#X obj 36 199 pack 0 20;
#X obj 56 239 pack 0 20;
#X obj 76 279 pack 0 20;
#X obj 36 304 line~;
#X obj 56 324 line~;
#X obj 76 344 line~;
#X obj 85 44 *~;
#X obj 140 44 *~;
#X obj 36 178 / 100;
#X obj 56 219 / 100;
#X obj 76 259 / 100;
#X obj 397 42 loadbang;
#X obj 263 486 hip~ 20;
#X obj 303 504 hip~ 20;
#X obj 332 272 outlet switch;
#X obj 181 233 r \$2/offon;
#X obj 112 17 r \$2/xylr;
#X obj 277 299 r \$2/brightmod;
#X obj 369 299 r \$2/left;
#X obj 429 299 r \$2/right;
#X connect 1 0 84 0;
#X connect 2 0 85 0;
#X connect 3 0 46 0;
#X connect 4 0 21 0;
#X connect 4 0 33 1;
#X connect 5 0 6 0;
#X connect 7 0 9 0;
#X connect 8 0 10 0;
#X connect 9 0 24 0;
#X connect 10 0 25 0;
#X connect 11 0 13 0;
#X connect 11 0 14 0;
#X connect 11 1 15 0;
#X connect 11 1 16 0;
#X connect 12 0 9 1;
#X connect 12 0 10 1;
#X connect 13 0 12 1;
#X connect 14 0 17 0;
#X connect 15 0 17 0;
#X connect 16 0 12 1;
#X connect 17 0 9 1;
#X connect 17 0 10 1;
#X connect 21 0 22 0;
#X connect 22 0 23 0;
#X connect 23 0 24 1;
#X connect 23 0 25 1;
#X connect 24 0 90 0;
#X connect 25 0 91 0;
#X connect 32 0 74 0;
#X connect 32 1 72 0;
#X connect 33 0 73 0;
#X connect 34 0 73 1;
#X connect 35 0 73 2;
#X connect 36 0 73 3;
#X connect 44 0 41 0;
#X connect 45 0 41 1;
#X connect 46 0 12 0;
#X connect 46 0 41 2;
#X connect 47 0 18 0;
#X connect 48 0 19 0;
#X connect 49 0 50 0;
#X connect 51 0 44 1;
#X connect 51 0 48 1;
#X connect 51 0 47 1;
#X connect 51 0 46 1;
#X connect 51 0 45 1;
#X connect 51 0 92 0;
#X connect 52 0 73 4;
#X connect 55 0 59 1;
#X connect 55 0 60 1;
#X connect 57 0 73 5;
#X connect 59 0 9 0;
#X connect 60 0 10 0;
#X connect 62 0 64 0;
#X connect 64 0 63 0;
#X connect 66 0 75 1;
#X connect 66 0 86 0;
#X connect 67 0 76 1;
#X connect 67 0 87 0;
#X connect 68 0 77 1;
#X connect 68 0 88 0;
#X connect 72 0 33 0;
#X connect 72 1 34 0;
#X connect 72 2 35 0;
#X connect 72 3 36 0;
#X connect 72 4 52 0;
#X connect 72 5 57 0;
#X connect 72 6 75 0;
#X connect 72 7 76 0;
#X connect 72 8 77 0;
#X connect 73 0 32 0;
#X connect 74 0 4 0;
#X connect 74 1 54 0;
#X connect 74 2 20 0;
#X connect 74 3 27 0;
#X connect 74 4 51 0;
#X connect 74 5 55 0;
#X connect 74 6 66 0;
#X connect 74 7 67 0;
#X connect 74 8 68 0;
#X connect 75 0 73 6;
#X connect 76 0 73 7;
#X connect 77 0 73 8;
#X connect 78 0 81 0;
#X connect 79 0 82 0;
#X connect 80 0 83 0;
#X connect 81 0 85 1;
#X connect 81 0 84 1;
#X connect 82 0 44 0;
#X connect 83 0 45 0;
#X connect 84 0 59 0;
#X connect 84 0 44 0;
#X connect 85 0 60 0;
#X connect 85 0 45 0;
#X connect 86 0 78 0;
#X connect 87 0 79 0;
#X connect 88 0 80 0;
#X connect 89 0 51 0;
#X connect 89 0 68 0;
#X connect 89 0 67 0;
#X connect 89 0 66 0;
#X connect 89 0 55 0;
#X connect 89 0 54 0;
#X connect 89 0 49 0;
#X connect 89 0 27 0;
#X connect 89 0 20 0;
#X connect 89 0 4 0;
#X connect 90 0 47 0;
#X connect 91 0 48 0;
#X connect 93 0 92 0;
#X connect 93 0 46 0;
#X connect 93 0 45 0;
#X connect 93 0 44 0;
#X connect 93 0 48 1;
#X connect 93 0 47 1;
#X connect 93 0 52 1;
#X connect 94 0 60 1;
#X connect 94 0 59 1;
#X connect 94 0 57 1;
#X connect 95 0 11 0;
#X connect 95 0 34 1;
#X connect 96 0 18 1;
#X connect 96 0 35 1;
#X connect 97 0 19 1;
#X connect 97 0 36 1;
#X coords 0 -1 1 1 302 120 1 100 100;
