#N canvas 253 23 1027 705 10;
#X obj 101 118 cnv 15 300 120 empty empty empty 20 12 0 14 -233017
-66577 0;
#X obj 85 -3 inlet~ X;
#X obj 140 -3 inlet~ Y;
#X obj 195 -3 inlet~ B;
#X obj 109 119 nbx 5 14 0 1e+37 0 0 \$2/audio_vol \$2/audio_vol vol(dB)
55 8 0 10 -4034 -1 -1 75 256;
#X obj 144 598 catch~ \$1-master;
#X obj 144 627 s~ \$1-master;
#X obj 250 -3 inlet~ L;
#X obj 311 -3 inlet~ R;
#X obj 263 437 *~;
#X obj 303 437 *~;
#X obj 277 320 select 0 1;
#X obj 278 395 *~;
#X msg 277 346 0;
#X msg 289 369 1;
#X msg 317 346 0;
#X msg 329 369 1;
#X obj 311 395 sig~;
#N canvas 0 23 512 521 demulitiplex 0;
#X obj 37 21 inlet~;
#X obj 203 21 inlet;
#X obj 36 343 *~;
#X obj 76 343 *~;
#X obj 116 343 *~;
#X obj 156 343 *~;
#X obj 196 343 *~;
#X obj 236 343 *~;
#X obj 276 343 *~;
#X msg 203 76 0;
#X msg 213 96 1;
#X msg 229 115 0;
#X msg 243 136 1;
#X msg 243 76 0;
#X msg 253 96 1;
#X msg 293 96 1;
#X msg 333 96 1;
#X msg 282 136 1;
#X msg 323 136 1;
#X msg 283 76 0;
#X msg 323 76 0;
#X msg 273 116 0;
#X msg 313 116 0;
#X obj 203 51 select 0 1 2 3 4 5 6 7 8;
#X obj 306 343 *~;
#X obj 346 343 *~;
#X msg 363 136 1;
#X msg 353 116 0;
#X msg 373 96 1;
#X msg 363 76 0;
#X obj 141 418 dac~ 4 5 6 7 8 17 18 65 66;
#X connect 0 0 2 0;
#X connect 0 0 8 0;
#X connect 0 0 7 0;
#X connect 0 0 6 0;
#X connect 0 0 5 0;
#X connect 0 0 4 0;
#X connect 0 0 3 0;
#X connect 0 0 24 0;
#X connect 0 0 25 0;
#X connect 1 0 23 0;
#X connect 2 0 30 0;
#X connect 3 0 30 1;
#X connect 4 0 30 2;
#X connect 5 0 30 3;
#X connect 6 0 30 4;
#X connect 7 0 30 5;
#X connect 8 0 30 6;
#X connect 9 0 3 1;
#X connect 9 0 8 1;
#X connect 9 0 7 1;
#X connect 9 0 6 1;
#X connect 9 0 5 1;
#X connect 9 0 4 1;
#X connect 9 0 25 1;
#X connect 9 0 24 1;
#X connect 10 0 2 1;
#X connect 11 0 2 1;
#X connect 11 0 8 1;
#X connect 11 0 7 1;
#X connect 11 0 6 1;
#X connect 11 0 5 1;
#X connect 11 0 4 1;
#X connect 11 0 25 1;
#X connect 11 0 24 1;
#X connect 12 0 3 1;
#X connect 13 0 2 1;
#X connect 13 0 3 1;
#X connect 13 0 8 1;
#X connect 13 0 7 1;
#X connect 13 0 6 1;
#X connect 13 0 5 1;
#X connect 13 0 25 1;
#X connect 13 0 24 1;
#X connect 14 0 4 1;
#X connect 15 0 6 1;
#X connect 16 0 8 1;
#X connect 17 0 5 1;
#X connect 18 0 7 1;
#X connect 19 0 2 1;
#X connect 19 0 5 1;
#X connect 19 0 4 1;
#X connect 19 0 3 1;
#X connect 19 0 8 1;
#X connect 19 0 7 1;
#X connect 19 0 25 1;
#X connect 19 0 24 1;
#X connect 20 0 7 1;
#X connect 20 0 6 1;
#X connect 20 0 5 1;
#X connect 20 0 4 1;
#X connect 20 0 3 1;
#X connect 20 0 2 1;
#X connect 20 0 25 1;
#X connect 20 0 24 1;
#X connect 21 0 2 1;
#X connect 21 0 4 1;
#X connect 21 0 3 1;
#X connect 21 0 8 1;
#X connect 21 0 7 1;
#X connect 21 0 6 1;
#X connect 21 0 25 1;
#X connect 21 0 24 1;
#X connect 22 0 6 1;
#X connect 22 0 5 1;
#X connect 22 0 4 1;
#X connect 22 0 3 1;
#X connect 22 0 2 1;
#X connect 22 0 8 1;
#X connect 22 0 25 1;
#X connect 22 0 24 1;
#X connect 23 0 9 0;
#X connect 23 0 10 0;
#X connect 23 1 11 0;
#X connect 23 1 12 0;
#X connect 23 2 13 0;
#X connect 23 2 14 0;
#X connect 23 3 21 0;
#X connect 23 3 17 0;
#X connect 23 4 19 0;
#X connect 23 4 15 0;
#X connect 23 5 22 0;
#X connect 23 5 18 0;
#X connect 23 6 20 0;
#X connect 23 6 16 0;
#X connect 23 7 26 0;
#X connect 23 7 27 0;
#X connect 23 8 28 0;
#X connect 23 8 29 0;
#X connect 24 0 30 7;
#X connect 25 0 30 8;
#X connect 26 0 24 1;
#X connect 27 0 25 1;
#X connect 27 0 8 1;
#X connect 27 0 7 1;
#X connect 27 0 6 1;
#X connect 27 0 5 1;
#X connect 27 0 4 1;
#X connect 27 0 3 1;
#X connect 27 0 2 1;
#X connect 28 0 25 1;
#X connect 29 0 24 1;
#X connect 29 0 8 1;
#X connect 29 0 7 1;
#X connect 29 0 6 1;
#X connect 29 0 5 1;
#X connect 29 0 4 1;
#X connect 29 0 3 1;
#X connect 29 0 2 1;
#X restore 263 574 pd demulitiplex;
#X obj 258 204 hradio 15 1 0 9 \$2/left \$2/left 4.5.6.7.8.17.18.65.66
6 -8 0 11 -257985 -1 -1 3;
#X obj 189 322 / 100;
#X obj 189 346 pack 0 100;
#X obj 190 370 line~;
#X obj 263 467 *~;
#X obj 303 467 *~;
#X obj 258 222 hradio 15 1 0 9 \$2/right \$2/right empty 6 -8 0 10
-257985 -1 -1 4;
#X text 453 507 Derek Holzer;
#X text 453 556 macumbista@gmail.com;
#X obj 411 93 savestate;
#X obj 462 137 f;
#X obj 477 157 f;
#X obj 493 177 f;
#X obj 509 138 f;
#X obj 377 376 kollabs/ds_reg \$1 \$2/audio_vol;
#X obj 377 396 kollabs/ds_reg \$1 \$2/brightmod;
#X obj 377 416 kollabs/ds_reg \$1 \$2/left;
#X obj 377 436 kollabs/ds_reg \$1 \$2/right;
#X obj 87 400 *~;
#X obj 114 400 *~;
#X obj 143 402 *~;
#X obj 263 545 *~;
#X obj 303 544 *~;
#X obj 109 186 bng 15 250 50 0 empty empty Reset.Phases 18 8 0 10 -258113
-1 -1;
#X obj 44 367 s \$1-reset-phase;
#X obj 203 278 hradio 15 1 0 2 \$2/offon \$2/offon Off.On -5 -8 0 10
-258113 -1 -1 1;
#X obj 539 168 f;
#X obj 377 456 kollabs/ds_reg \$1 \$2/offon;
#X obj 109 221 hradio 15 1 0 2 \$2/brightmod \$2/brightmod empty -5
-8 0 10 -4034 -1 -1 1;
#X obj 109 204 hradio 15 1 0 2 \$2/xylr \$2/xylr empty -5 -8 0 10 -4034
-1 -1 1;
#X obj 551 145 f;
#X obj 377 476 kollabs/ds_reg \$1 \$2/xylr;
#X obj 88 71 *~;
#X obj 115 71 *~;
#X obj 207 188 bng 15 250 50 0 empty empty ? 17 7 0 10 -4032 -1 -1
;
#X obj 360 266 s pd-\$2-help;
#X msg 360 244 vis 1;
#N canvas 0 23 476 677 \$2-help 0;
#X obj 36 18 cnv 15 300 140 empty empty HELP:vs-audiodac-gui 20 12
0 14 -4034 -66577 0;
#X text 85 60 1) X axis signal;
#X text 85 80 2) Y axis signal;
#X text 85 99 3) Brightness signal;
#X text 85 120 4) Audio Left;
#X text 85 138 5) Audio Right;
#X text 42 41 INLETS:;
#X text 35 193 [vs-audiodac-gui] is a sinmple abstraction to output
to your audio interface. It also takes care of routing the master oscillator
signal from either a [vs-phasor-gui] or the [vs-multiplex-gui].;
#X text 38 363 ON/OFF switches on and off both the audio and vector
signals. Think of it as an overall "mute".;
#X text 37 304 BRIGHT MOD switches on or off the amplitude modulation
of the audio channels by the overall brightness signal. This should
be turned OFF when using the [vs-multiplex-gui] since that abstraction
does this function already.;
#X text 35 257 AUDIO VOL controls the overall amount of the signal
going to the audio channels. It does not affect the signals going to
the vector channels. This number is in dB.;
#X text 40 544 HORZ adjusts the horizontal position of the figure through
zero.;
#X text 40 584 VERT adjusts the vertical location of the figure through
zero.;
#X text 40 504 SCALE adjusts the size of the image in percentage through
zero to inversion(default 100%).;
#X text 39 455 The YELLOW RADIO BOXES assign the LEFT and RIGHT channels
of the audio signals to one of the channels (4-8 \, or 65 and 66 if
using SoundFlower) of your audio interface.;
#X text 42 622 RESET PHASES resets the phase of every Vector Synthesis
oscillator in your patch to zero.;
#X text 40 399 The BLUE RADIO BOXES assign the X \, Y \, and Z channels
(i.e. HORIZONTAL \, VERTICAL \, and BRIGHTNESS) of the vector signal
to one of the channels (1-8 of your audio interface. Normally this
is channels 1-3.;
#X restore 360 356 pd \$2-help;
#X obj 110 135 nbx 5 14 -1e+37 1e+37 0 0 \$2/scale \$2/scale Scale
55 8 0 10 -4034 -1 -1 8 256;
#X obj 109 152 nbx 5 14 -1e+37 1e+37 0 0 \$2/horz \$2/horz Horz 55
8 0 10 -4034 -1 -1 0 256;
#X obj 109 169 nbx 5 14 -1e+37 1e+37 0 0 \$2/vert \$2/vert Vert 55
8 0 10 -4034 -1 -1 0 256;
#X obj 547 436 kollabs/ds_reg \$1 \$2/scale;
#X obj 547 456 kollabs/ds_reg \$1 \$2/horz;
#X obj 547 476 kollabs/ds_reg \$1 \$2/vert;
#X obj 581 145 f;
#X obj 601 165 f;
#X obj 621 185 f;
#X obj 36 199 pack 0 20;
#X obj 56 239 pack 0 20;
#X obj 76 279 pack 0 20;
#X obj 36 304 line~;
#X obj 56 324 line~;
#X obj 76 344 line~;
#X obj 85 44 *~;
#X obj 140 44 *~;
#X obj 36 178 / 100;
#X obj 56 219 / 100;
#X obj 76 259 / 100;
#X obj 397 42 loadbang;
#X obj 263 486 hip~ 20;
#X obj 303 504 hip~ 20;
#X obj 185 657 outlet switch;
#X obj 181 244 r \$2/offon;
#X obj 112 17 r \$2/xylr;
#X obj 277 299 r \$2/brightmod;
#X obj 369 299 r \$2/left;
#X obj 429 299 r \$2/right;
#N canvas 105 23 690 413 scan_fail_(open_to_adjust_settings) 0;
#X obj 251 89 >;
#X obj 266 23 nbx 5 14 0 100 0 1 empty empty Scan_fail_threshold_in_dB
60 8 0 10 -4034 -1 -1 30 256;
#X text 325 48 Analysis window size in samples;
#X text 511 308 Derek Holzer;
#X text 511 346 macumbista@gmail.com;
#X text 511 327 Santa Barbara MAR 2019;
#X obj 251 109 sig~;
#X obj 153 23 inlet~ Brightness;
#X obj 153 154 *~;
#X obj 153 260 outlet~ Brightness;
#X obj 35 45 hip~ 10;
#X text 36 291 This patch analyzes the combined level of the X and
Y axes. If that level falls under a certain threshold in dB \, within
the window size in samples (compare with current sample rate to find
time in ms) \, then the brightness is shut off to prevent an unmoving
beam from burning the CRT.;
#X obj 35 66 env~ 1920;
#X obj 35 23 inlet~ X;
#X obj 97 45 hip~ 10;
#X obj 97 23 inlet~ Y;
#X obj 97 66 env~ 1920;
#X obj 35 98 +;
#X connect 0 0 6 0;
#X connect 1 0 0 1;
#X connect 6 0 8 1;
#X connect 7 0 8 0;
#X connect 8 0 9 0;
#X connect 10 0 12 0;
#X connect 12 0 17 0;
#X connect 13 0 10 0;
#X connect 15 0 14 0;
#X connect 16 0 17 1;
#X connect 17 0 0 0;
#X restore 25 514 pd scan_fail_(open_to_adjust_settings);
#X obj 280 134 hradio 12 1 0 10 \$2/x-send \$2/x-send 1.2.3.4.5.6.7.8.9.10
2 -8 0 10 -4032 -1 -1 0;
#X obj 280 152 hradio 12 1 0 10 \$2/y-send \$2/y-send empty 6 -8 0
10 -4032 -1 -1 1;
#X obj 280 170 hradio 12 1 0 10 \$2/z-send \$2/z-send empty 6 -8 0
10 -4032 -1 -1 2;
#X obj 584 356 kollabs/ds_reg \$1 \$2/x-send;
#X obj 584 376 kollabs/ds_reg \$1 \$2/y-send;
#X obj 584 396 kollabs/ds_reg \$1 \$2/z-send;
#X text 266 136 X;
#X text 266 152 Y;
#X text 266 169 Z;
#X obj 641 145 f;
#X obj 661 165 f;
#X obj 681 185 f;
#N canvas 0 23 512 521 demulitiplex 0;
#X obj 37 21 inlet~;
#X obj 203 21 inlet;
#X obj 36 343 *~;
#X obj 76 343 *~;
#X obj 116 343 *~;
#X obj 156 343 *~;
#X obj 196 343 *~;
#X obj 236 343 *~;
#X obj 276 343 *~;
#X msg 203 76 0;
#X msg 213 96 1;
#X msg 207 135 0;
#X msg 243 136 1;
#X msg 243 76 0;
#X msg 253 96 1;
#X msg 293 96 1;
#X msg 333 96 1;
#X msg 282 136 1;
#X msg 323 136 1;
#X msg 283 76 0;
#X msg 320 76 0;
#X msg 273 116 0;
#X msg 313 116 0;
#X msg 373 106 1;
#X msg 366 76 0;
#X obj 316 343 *~;
#X obj 141 418 dac~ 1 2 3 4 5 6 7 8 9 10;
#X obj 346 343 *~;
#X obj 386 343 *~;
#X obj 203 51 select 0 1 2 3 4 5 6 7 8 9;
#X msg 403 106 1;
#X msg 396 76 0;
#X msg 393 166 1;
#X msg 382 139 0;
#X connect 0 0 2 0;
#X connect 0 0 8 0;
#X connect 0 0 7 0;
#X connect 0 0 6 0;
#X connect 0 0 5 0;
#X connect 0 0 4 0;
#X connect 0 0 3 0;
#X connect 0 0 25 0;
#X connect 0 0 27 0;
#X connect 0 0 28 0;
#X connect 1 0 29 0;
#X connect 2 0 26 0;
#X connect 3 0 26 1;
#X connect 4 0 26 2;
#X connect 5 0 26 3;
#X connect 6 0 26 4;
#X connect 7 0 26 5;
#X connect 8 0 26 6;
#X connect 9 0 3 1;
#X connect 9 0 8 1;
#X connect 9 0 7 1;
#X connect 9 0 6 1;
#X connect 9 0 5 1;
#X connect 9 0 4 1;
#X connect 9 0 25 1;
#X connect 10 0 2 1;
#X connect 11 0 2 1;
#X connect 11 0 8 1;
#X connect 11 0 7 1;
#X connect 11 0 6 1;
#X connect 11 0 5 1;
#X connect 11 0 4 1;
#X connect 11 0 25 1;
#X connect 12 0 3 1;
#X connect 13 0 2 1;
#X connect 13 0 3 1;
#X connect 13 0 8 1;
#X connect 13 0 7 1;
#X connect 13 0 6 1;
#X connect 13 0 5 1;
#X connect 13 0 25 1;
#X connect 14 0 4 1;
#X connect 15 0 6 1;
#X connect 16 0 8 1;
#X connect 17 0 5 1;
#X connect 18 0 7 1;
#X connect 19 0 2 1;
#X connect 19 0 5 1;
#X connect 19 0 4 1;
#X connect 19 0 3 1;
#X connect 19 0 8 1;
#X connect 19 0 7 1;
#X connect 19 0 25 1;
#X connect 20 0 7 1;
#X connect 20 0 6 1;
#X connect 20 0 5 1;
#X connect 20 0 4 1;
#X connect 20 0 3 1;
#X connect 20 0 2 1;
#X connect 20 0 25 1;
#X connect 21 0 2 1;
#X connect 21 0 4 1;
#X connect 21 0 3 1;
#X connect 21 0 8 1;
#X connect 21 0 7 1;
#X connect 21 0 6 1;
#X connect 21 0 25 1;
#X connect 22 0 6 1;
#X connect 22 0 5 1;
#X connect 22 0 4 1;
#X connect 22 0 3 1;
#X connect 22 0 2 1;
#X connect 22 0 8 1;
#X connect 22 0 25 1;
#X connect 23 0 25 1;
#X connect 24 0 8 1;
#X connect 24 0 7 1;
#X connect 24 0 6 1;
#X connect 24 0 5 1;
#X connect 24 0 4 1;
#X connect 24 0 3 1;
#X connect 24 0 2 1;
#X connect 25 0 26 7;
#X connect 27 0 26 8;
#X connect 28 0 26 9;
#X connect 29 0 9 0;
#X connect 29 0 10 0;
#X connect 29 1 11 0;
#X connect 29 1 12 0;
#X connect 29 2 13 0;
#X connect 29 2 14 0;
#X connect 29 3 21 0;
#X connect 29 3 17 0;
#X connect 29 4 19 0;
#X connect 29 4 15 0;
#X connect 29 5 22 0;
#X connect 29 5 18 0;
#X connect 29 6 20 0;
#X connect 29 6 16 0;
#X connect 29 7 24 0;
#X connect 29 7 23 0;
#X connect 29 8 33 0;
#X connect 29 8 32 0;
#X connect 29 9 31 0;
#X connect 29 9 30 0;
#X connect 30 0 28 1;
#X connect 31 0 27 1;
#X connect 31 0 25 1;
#X connect 31 0 8 1;
#X connect 31 0 7 1;
#X connect 31 0 6 1;
#X connect 31 0 5 1;
#X connect 31 0 4 1;
#X connect 31 0 3 1;
#X connect 31 0 2 1;
#X connect 32 0 27 1;
#X connect 33 0 28 1;
#X connect 33 0 25 1;
#X connect 33 0 8 1;
#X connect 33 0 7 1;
#X connect 33 0 6 1;
#X connect 33 0 5 1;
#X connect 33 0 4 1;
#X connect 33 0 3 1;
#X connect 33 0 2 1;
#X restore 25 596 pd demulitiplex;
#X text 244 203 L;
#X text 244 221 R;
#X text 143 203 XY to LR OFF/ON;
#X text 143 221 Bright.Mod OFF/ON;
#N canvas 0 23 512 521 demulitiplex 0;
#X obj 37 21 inlet~;
#X obj 203 21 inlet;
#X obj 36 343 *~;
#X obj 76 343 *~;
#X obj 116 343 *~;
#X obj 156 343 *~;
#X obj 196 343 *~;
#X obj 236 343 *~;
#X obj 276 343 *~;
#X msg 203 76 0;
#X msg 213 96 1;
#X msg 207 135 0;
#X msg 243 136 1;
#X msg 243 76 0;
#X msg 253 96 1;
#X msg 293 96 1;
#X msg 333 96 1;
#X msg 282 136 1;
#X msg 323 136 1;
#X msg 283 76 0;
#X msg 320 76 0;
#X msg 273 116 0;
#X msg 313 116 0;
#X msg 373 106 1;
#X msg 366 76 0;
#X obj 316 343 *~;
#X obj 141 418 dac~ 1 2 3 4 5 6 7 8 9 10;
#X obj 346 343 *~;
#X obj 386 343 *~;
#X obj 203 51 select 0 1 2 3 4 5 6 7 8 9;
#X msg 403 106 1;
#X msg 396 76 0;
#X msg 393 166 1;
#X msg 382 139 0;
#X connect 0 0 2 0;
#X connect 0 0 8 0;
#X connect 0 0 7 0;
#X connect 0 0 6 0;
#X connect 0 0 5 0;
#X connect 0 0 4 0;
#X connect 0 0 3 0;
#X connect 0 0 25 0;
#X connect 0 0 27 0;
#X connect 0 0 28 0;
#X connect 1 0 29 0;
#X connect 2 0 26 0;
#X connect 3 0 26 1;
#X connect 4 0 26 2;
#X connect 5 0 26 3;
#X connect 6 0 26 4;
#X connect 7 0 26 5;
#X connect 8 0 26 6;
#X connect 9 0 3 1;
#X connect 9 0 8 1;
#X connect 9 0 7 1;
#X connect 9 0 6 1;
#X connect 9 0 5 1;
#X connect 9 0 4 1;
#X connect 9 0 25 1;
#X connect 10 0 2 1;
#X connect 11 0 2 1;
#X connect 11 0 8 1;
#X connect 11 0 7 1;
#X connect 11 0 6 1;
#X connect 11 0 5 1;
#X connect 11 0 4 1;
#X connect 11 0 25 1;
#X connect 12 0 3 1;
#X connect 13 0 2 1;
#X connect 13 0 3 1;
#X connect 13 0 8 1;
#X connect 13 0 7 1;
#X connect 13 0 6 1;
#X connect 13 0 5 1;
#X connect 13 0 25 1;
#X connect 14 0 4 1;
#X connect 15 0 6 1;
#X connect 16 0 8 1;
#X connect 17 0 5 1;
#X connect 18 0 7 1;
#X connect 19 0 2 1;
#X connect 19 0 5 1;
#X connect 19 0 4 1;
#X connect 19 0 3 1;
#X connect 19 0 8 1;
#X connect 19 0 7 1;
#X connect 19 0 25 1;
#X connect 20 0 7 1;
#X connect 20 0 6 1;
#X connect 20 0 5 1;
#X connect 20 0 4 1;
#X connect 20 0 3 1;
#X connect 20 0 2 1;
#X connect 20 0 25 1;
#X connect 21 0 2 1;
#X connect 21 0 4 1;
#X connect 21 0 3 1;
#X connect 21 0 8 1;
#X connect 21 0 7 1;
#X connect 21 0 6 1;
#X connect 21 0 25 1;
#X connect 22 0 6 1;
#X connect 22 0 5 1;
#X connect 22 0 4 1;
#X connect 22 0 3 1;
#X connect 22 0 2 1;
#X connect 22 0 8 1;
#X connect 22 0 25 1;
#X connect 23 0 25 1;
#X connect 24 0 8 1;
#X connect 24 0 7 1;
#X connect 24 0 6 1;
#X connect 24 0 5 1;
#X connect 24 0 4 1;
#X connect 24 0 3 1;
#X connect 24 0 2 1;
#X connect 25 0 26 7;
#X connect 27 0 26 8;
#X connect 28 0 26 9;
#X connect 29 0 9 0;
#X connect 29 0 10 0;
#X connect 29 1 11 0;
#X connect 29 1 12 0;
#X connect 29 2 13 0;
#X connect 29 2 14 0;
#X connect 29 3 21 0;
#X connect 29 3 17 0;
#X connect 29 4 19 0;
#X connect 29 4 15 0;
#X connect 29 5 22 0;
#X connect 29 5 18 0;
#X connect 29 6 20 0;
#X connect 29 6 16 0;
#X connect 29 7 24 0;
#X connect 29 7 23 0;
#X connect 29 8 33 0;
#X connect 29 8 32 0;
#X connect 29 9 31 0;
#X connect 29 9 30 0;
#X connect 30 0 28 1;
#X connect 31 0 27 1;
#X connect 31 0 25 1;
#X connect 31 0 8 1;
#X connect 31 0 7 1;
#X connect 31 0 6 1;
#X connect 31 0 5 1;
#X connect 31 0 4 1;
#X connect 31 0 3 1;
#X connect 31 0 2 1;
#X connect 32 0 27 1;
#X connect 33 0 28 1;
#X connect 33 0 25 1;
#X connect 33 0 8 1;
#X connect 33 0 7 1;
#X connect 33 0 6 1;
#X connect 33 0 5 1;
#X connect 33 0 4 1;
#X connect 33 0 3 1;
#X connect 33 0 2 1;
#X restore 87 556 pd demulitiplex;
#N canvas 0 23 512 521 demulitiplex 0;
#X obj 37 21 inlet~;
#X obj 203 21 inlet;
#X obj 36 343 *~;
#X obj 76 343 *~;
#X obj 116 343 *~;
#X obj 156 343 *~;
#X obj 196 343 *~;
#X obj 236 343 *~;
#X obj 276 343 *~;
#X msg 203 76 0;
#X msg 213 96 1;
#X msg 207 135 0;
#X msg 243 136 1;
#X msg 243 76 0;
#X msg 253 96 1;
#X msg 293 96 1;
#X msg 333 96 1;
#X msg 282 136 1;
#X msg 323 136 1;
#X msg 283 76 0;
#X msg 320 76 0;
#X msg 273 116 0;
#X msg 313 116 0;
#X msg 373 106 1;
#X msg 366 76 0;
#X obj 316 343 *~;
#X obj 141 418 dac~ 1 2 3 4 5 6 7 8 9 10;
#X obj 346 343 *~;
#X obj 386 343 *~;
#X obj 203 51 select 0 1 2 3 4 5 6 7 8 9;
#X msg 403 106 1;
#X msg 396 76 0;
#X msg 393 166 1;
#X msg 382 139 0;
#X connect 0 0 2 0;
#X connect 0 0 8 0;
#X connect 0 0 7 0;
#X connect 0 0 6 0;
#X connect 0 0 5 0;
#X connect 0 0 4 0;
#X connect 0 0 3 0;
#X connect 0 0 25 0;
#X connect 0 0 27 0;
#X connect 0 0 28 0;
#X connect 1 0 29 0;
#X connect 2 0 26 0;
#X connect 3 0 26 1;
#X connect 4 0 26 2;
#X connect 5 0 26 3;
#X connect 6 0 26 4;
#X connect 7 0 26 5;
#X connect 8 0 26 6;
#X connect 9 0 3 1;
#X connect 9 0 8 1;
#X connect 9 0 7 1;
#X connect 9 0 6 1;
#X connect 9 0 5 1;
#X connect 9 0 4 1;
#X connect 9 0 25 1;
#X connect 10 0 2 1;
#X connect 11 0 2 1;
#X connect 11 0 8 1;
#X connect 11 0 7 1;
#X connect 11 0 6 1;
#X connect 11 0 5 1;
#X connect 11 0 4 1;
#X connect 11 0 25 1;
#X connect 12 0 3 1;
#X connect 13 0 2 1;
#X connect 13 0 3 1;
#X connect 13 0 8 1;
#X connect 13 0 7 1;
#X connect 13 0 6 1;
#X connect 13 0 5 1;
#X connect 13 0 25 1;
#X connect 14 0 4 1;
#X connect 15 0 6 1;
#X connect 16 0 8 1;
#X connect 17 0 5 1;
#X connect 18 0 7 1;
#X connect 19 0 2 1;
#X connect 19 0 5 1;
#X connect 19 0 4 1;
#X connect 19 0 3 1;
#X connect 19 0 8 1;
#X connect 19 0 7 1;
#X connect 19 0 25 1;
#X connect 20 0 7 1;
#X connect 20 0 6 1;
#X connect 20 0 5 1;
#X connect 20 0 4 1;
#X connect 20 0 3 1;
#X connect 20 0 2 1;
#X connect 20 0 25 1;
#X connect 21 0 2 1;
#X connect 21 0 4 1;
#X connect 21 0 3 1;
#X connect 21 0 8 1;
#X connect 21 0 7 1;
#X connect 21 0 6 1;
#X connect 21 0 25 1;
#X connect 22 0 6 1;
#X connect 22 0 5 1;
#X connect 22 0 4 1;
#X connect 22 0 3 1;
#X connect 22 0 2 1;
#X connect 22 0 8 1;
#X connect 22 0 25 1;
#X connect 23 0 25 1;
#X connect 24 0 8 1;
#X connect 24 0 7 1;
#X connect 24 0 6 1;
#X connect 24 0 5 1;
#X connect 24 0 4 1;
#X connect 24 0 3 1;
#X connect 24 0 2 1;
#X connect 25 0 26 7;
#X connect 27 0 26 8;
#X connect 28 0 26 9;
#X connect 29 0 9 0;
#X connect 29 0 10 0;
#X connect 29 1 11 0;
#X connect 29 1 12 0;
#X connect 29 2 13 0;
#X connect 29 2 14 0;
#X connect 29 3 21 0;
#X connect 29 3 17 0;
#X connect 29 4 19 0;
#X connect 29 4 15 0;
#X connect 29 5 22 0;
#X connect 29 5 18 0;
#X connect 29 6 20 0;
#X connect 29 6 16 0;
#X connect 29 7 24 0;
#X connect 29 7 23 0;
#X connect 29 8 33 0;
#X connect 29 8 32 0;
#X connect 29 9 31 0;
#X connect 29 9 30 0;
#X connect 30 0 28 1;
#X connect 31 0 27 1;
#X connect 31 0 25 1;
#X connect 31 0 8 1;
#X connect 31 0 7 1;
#X connect 31 0 6 1;
#X connect 31 0 5 1;
#X connect 31 0 4 1;
#X connect 31 0 3 1;
#X connect 31 0 2 1;
#X connect 32 0 27 1;
#X connect 33 0 28 1;
#X connect 33 0 25 1;
#X connect 33 0 8 1;
#X connect 33 0 7 1;
#X connect 33 0 6 1;
#X connect 33 0 5 1;
#X connect 33 0 4 1;
#X connect 33 0 3 1;
#X connect 33 0 2 1;
#X restore 114 576 pd demulitiplex;
#N canvas 0 23 512 521 demulitiplex 0;
#X obj 37 21 inlet~;
#X obj 203 21 inlet;
#X obj 36 343 *~;
#X obj 76 343 *~;
#X obj 116 343 *~;
#X obj 156 343 *~;
#X obj 196 343 *~;
#X obj 236 343 *~;
#X obj 276 343 *~;
#X msg 203 76 0;
#X msg 213 96 1;
#X msg 229 115 0;
#X msg 243 136 1;
#X msg 243 76 0;
#X msg 253 96 1;
#X msg 293 96 1;
#X msg 333 96 1;
#X msg 282 136 1;
#X msg 323 136 1;
#X msg 283 76 0;
#X msg 323 76 0;
#X msg 273 116 0;
#X msg 313 116 0;
#X obj 203 51 select 0 1 2 3 4 5 6 7 8;
#X obj 306 343 *~;
#X obj 346 343 *~;
#X msg 363 136 1;
#X msg 353 116 0;
#X msg 373 96 1;
#X msg 363 76 0;
#X obj 141 418 dac~ 4 5 6 7 8 17 18 65 66;
#X connect 0 0 2 0;
#X connect 0 0 8 0;
#X connect 0 0 7 0;
#X connect 0 0 6 0;
#X connect 0 0 5 0;
#X connect 0 0 4 0;
#X connect 0 0 3 0;
#X connect 0 0 24 0;
#X connect 0 0 25 0;
#X connect 1 0 23 0;
#X connect 2 0 30 0;
#X connect 3 0 30 1;
#X connect 4 0 30 2;
#X connect 5 0 30 3;
#X connect 6 0 30 4;
#X connect 7 0 30 5;
#X connect 8 0 30 6;
#X connect 9 0 3 1;
#X connect 9 0 8 1;
#X connect 9 0 7 1;
#X connect 9 0 6 1;
#X connect 9 0 5 1;
#X connect 9 0 4 1;
#X connect 9 0 25 1;
#X connect 9 0 24 1;
#X connect 10 0 2 1;
#X connect 11 0 2 1;
#X connect 11 0 8 1;
#X connect 11 0 7 1;
#X connect 11 0 6 1;
#X connect 11 0 5 1;
#X connect 11 0 4 1;
#X connect 11 0 25 1;
#X connect 11 0 24 1;
#X connect 12 0 3 1;
#X connect 13 0 2 1;
#X connect 13 0 3 1;
#X connect 13 0 8 1;
#X connect 13 0 7 1;
#X connect 13 0 6 1;
#X connect 13 0 5 1;
#X connect 13 0 25 1;
#X connect 13 0 24 1;
#X connect 14 0 4 1;
#X connect 15 0 6 1;
#X connect 16 0 8 1;
#X connect 17 0 5 1;
#X connect 18 0 7 1;
#X connect 19 0 2 1;
#X connect 19 0 5 1;
#X connect 19 0 4 1;
#X connect 19 0 3 1;
#X connect 19 0 8 1;
#X connect 19 0 7 1;
#X connect 19 0 25 1;
#X connect 19 0 24 1;
#X connect 20 0 7 1;
#X connect 20 0 6 1;
#X connect 20 0 5 1;
#X connect 20 0 4 1;
#X connect 20 0 3 1;
#X connect 20 0 2 1;
#X connect 20 0 25 1;
#X connect 20 0 24 1;
#X connect 21 0 2 1;
#X connect 21 0 4 1;
#X connect 21 0 3 1;
#X connect 21 0 8 1;
#X connect 21 0 7 1;
#X connect 21 0 6 1;
#X connect 21 0 25 1;
#X connect 21 0 24 1;
#X connect 22 0 6 1;
#X connect 22 0 5 1;
#X connect 22 0 4 1;
#X connect 22 0 3 1;
#X connect 22 0 2 1;
#X connect 22 0 8 1;
#X connect 22 0 25 1;
#X connect 22 0 24 1;
#X connect 23 0 9 0;
#X connect 23 0 10 0;
#X connect 23 1 11 0;
#X connect 23 1 12 0;
#X connect 23 2 13 0;
#X connect 23 2 14 0;
#X connect 23 3 21 0;
#X connect 23 3 17 0;
#X connect 23 4 19 0;
#X connect 23 4 15 0;
#X connect 23 5 22 0;
#X connect 23 5 18 0;
#X connect 23 6 20 0;
#X connect 23 6 16 0;
#X connect 23 7 26 0;
#X connect 23 7 27 0;
#X connect 23 8 28 0;
#X connect 23 8 29 0;
#X connect 24 0 30 7;
#X connect 25 0 30 8;
#X connect 26 0 24 1;
#X connect 27 0 25 1;
#X connect 27 0 8 1;
#X connect 27 0 7 1;
#X connect 27 0 6 1;
#X connect 27 0 5 1;
#X connect 27 0 4 1;
#X connect 27 0 3 1;
#X connect 27 0 2 1;
#X connect 28 0 25 1;
#X connect 29 0 24 1;
#X connect 29 0 8 1;
#X connect 29 0 7 1;
#X connect 29 0 6 1;
#X connect 29 0 5 1;
#X connect 29 0 4 1;
#X connect 29 0 3 1;
#X connect 29 0 2 1;
#X restore 303 604 pd demulitiplex;
#X text 453 531 Stockholm OCT 2020;
#X obj 193 169 nbx 5 14 -1e+37 1e+37 0 0 \$2/brite \$2/brite Brt 55
8 0 10 -4034 -1 -1 0 256;
#X obj 462 115 t b b b b b b b b b b b b b;
#X obj 462 210 pack 0 0 0 0 0 0 0 0 0 0 0 0 0;
#X obj 411 231 unpack 0 0 0 0 0 0 0 0 0 0 0 0 0;
#X obj 712 185 f;
#X obj 547 416 kollabs/ds_reg \$1 \$2/brite;
#X obj 527 290 pack 0 20;
#X obj 527 310 line~;
#X obj 527 269 / 100;
#X obj 512 336 *~;
#X connect 1 0 72 0;
#X connect 2 0 73 0;
#X connect 3 0 117 0;
#X connect 4 0 20 0;
#X connect 4 0 29 1;
#X connect 5 0 6 0;
#X connect 7 0 9 0;
#X connect 8 0 10 0;
#X connect 9 0 23 0;
#X connect 10 0 24 0;
#X connect 11 0 13 0;
#X connect 11 0 14 0;
#X connect 11 1 15 0;
#X connect 11 1 16 0;
#X connect 12 0 9 1;
#X connect 12 0 10 1;
#X connect 13 0 12 1;
#X connect 14 0 17 0;
#X connect 15 0 17 0;
#X connect 16 0 12 1;
#X connect 17 0 9 1;
#X connect 17 0 10 1;
#X connect 20 0 21 0;
#X connect 21 0 22 0;
#X connect 22 0 23 1;
#X connect 22 0 24 1;
#X connect 23 0 78 0;
#X connect 24 0 79 0;
#X connect 28 0 111 0;
#X connect 28 1 109 0;
#X connect 29 0 110 0;
#X connect 30 0 110 1;
#X connect 31 0 110 2;
#X connect 32 0 110 3;
#X connect 37 0 86 0;
#X connect 37 0 104 0;
#X connect 38 0 86 1;
#X connect 38 0 105 0;
#X connect 39 0 12 0;
#X connect 39 0 86 2;
#X connect 40 0 18 0;
#X connect 41 0 106 0;
#X connect 42 0 43 0;
#X connect 44 0 37 1;
#X connect 44 0 41 1;
#X connect 44 0 40 1;
#X connect 44 0 39 1;
#X connect 44 0 38 1;
#X connect 44 0 80 0;
#X connect 45 0 110 4;
#X connect 48 0 51 1;
#X connect 48 0 52 1;
#X connect 49 0 110 5;
#X connect 51 0 9 0;
#X connect 52 0 10 0;
#X connect 53 0 55 0;
#X connect 55 0 54 0;
#X connect 57 0 63 1;
#X connect 57 0 74 0;
#X connect 58 0 64 1;
#X connect 58 0 75 0;
#X connect 59 0 65 1;
#X connect 59 0 76 0;
#X connect 63 0 110 6;
#X connect 64 0 110 7;
#X connect 65 0 110 8;
#X connect 66 0 69 0;
#X connect 67 0 70 0;
#X connect 68 0 71 0;
#X connect 69 0 73 1;
#X connect 69 0 72 1;
#X connect 70 0 37 0;
#X connect 71 0 38 0;
#X connect 72 0 51 0;
#X connect 72 0 37 0;
#X connect 73 0 52 0;
#X connect 73 0 38 0;
#X connect 74 0 66 0;
#X connect 75 0 67 0;
#X connect 76 0 68 0;
#X connect 77 0 44 0;
#X connect 77 0 59 0;
#X connect 77 0 58 0;
#X connect 77 0 57 0;
#X connect 77 0 48 0;
#X connect 77 0 47 0;
#X connect 77 0 42 0;
#X connect 77 0 25 0;
#X connect 77 0 19 0;
#X connect 77 0 4 0;
#X connect 77 0 87 0;
#X connect 77 0 88 0;
#X connect 77 0 89 0;
#X connect 77 0 108 0;
#X connect 78 0 40 0;
#X connect 79 0 41 0;
#X connect 81 0 80 0;
#X connect 81 0 39 0;
#X connect 81 0 38 0;
#X connect 81 0 37 0;
#X connect 81 0 41 1;
#X connect 81 0 40 1;
#X connect 81 0 45 1;
#X connect 82 0 52 1;
#X connect 82 0 51 1;
#X connect 82 0 49 1;
#X connect 83 0 11 0;
#X connect 83 0 30 1;
#X connect 84 0 18 1;
#X connect 84 0 31 1;
#X connect 85 0 32 1;
#X connect 85 0 106 1;
#X connect 86 0 99 0;
#X connect 87 0 96 1;
#X connect 87 0 104 1;
#X connect 88 0 97 1;
#X connect 88 0 105 1;
#X connect 89 0 98 1;
#X connect 89 0 99 1;
#X connect 96 0 110 9;
#X connect 97 0 110 10;
#X connect 98 0 110 11;
#X connect 108 0 112 0;
#X connect 108 0 116 0;
#X connect 109 0 29 0;
#X connect 109 1 30 0;
#X connect 109 2 31 0;
#X connect 109 3 32 0;
#X connect 109 4 45 0;
#X connect 109 5 49 0;
#X connect 109 6 63 0;
#X connect 109 7 64 0;
#X connect 109 8 65 0;
#X connect 109 9 96 0;
#X connect 109 10 97 0;
#X connect 109 11 98 0;
#X connect 109 12 112 1;
#X connect 110 0 28 0;
#X connect 111 0 4 0;
#X connect 111 1 47 0;
#X connect 111 2 19 0;
#X connect 111 3 25 0;
#X connect 111 4 44 0;
#X connect 111 5 48 0;
#X connect 111 6 57 0;
#X connect 111 7 58 0;
#X connect 111 8 59 0;
#X connect 111 9 87 0;
#X connect 111 10 88 0;
#X connect 111 11 89 0;
#X connect 111 12 108 0;
#X connect 112 0 110 12;
#X connect 114 0 115 0;
#X connect 115 0 117 1;
#X connect 116 0 114 0;
#X connect 117 0 39 0;
#X coords 0 -1 1 1 302 140 1 100 100;
