#N canvas 79 71 900 576 10;
#X obj 199 50 inlet~ multiplier;
#X obj 409 50 inlet~ scale;
#X obj 119 179 *~;
#X obj 119 207 wrap~;
#X obj 59 276 cos~;
#X obj 119 276 cos~;
#X obj 59 329 *~;
#X obj 119 329 *~;
#X obj 59 383 outlet~ H;
#X obj 119 383 outlet~ V;
#X obj 179 383 outlet~ brightness;
#X obj 119 243 +~;
#X obj 319 50 inlet~ phase;
#X obj 499 50 inlet~ brightness;
#X text 479 284 Derek Holzer;
#X text 481 332 macumbista@gmail.com;
#X text 479 310 Helsinki May 2019;
#X obj 59 50 inlet~ phasor;
#X connect 0 0 2 1;
#X connect 1 0 7 1;
#X connect 1 0 6 1;
#X connect 2 0 3 0;
#X connect 3 0 11 0;
#X connect 4 0 6 0;
#X connect 5 0 7 0;
#X connect 6 0 8 0;
#X connect 7 0 9 0;
#X connect 11 0 5 0;
#X connect 12 0 11 1;
#X connect 13 0 10 0;
#X connect 17 0 4 0;
#X connect 17 0 2 0;
