#N canvas 215 23 1193 737 10;
#X obj 101 118 cnv 15 300 100 empty empty empty 20 12 0 14 -233017
-66577 0;
#X obj 75 552 outlet~ X;
#X obj 145 552 outlet~ Y;
#X obj 285 552 outlet~ B;
#X obj 157 194 nbx 5 14 0 360 0 1 empty empty phase_degrees 0 -8 0
10 -4034 -1 -1 90 256;
#X obj 157 370 / 360;
#X obj 157 397 sig~;
#X obj 108 131 nbx 5 14 -1e+37 1e+37 0 1 empty empty base_frequency
0 -8 0 10 -4034 -1 -1 1000 256;
#X obj 132 163 nbx 5 14 -1e+37 1e+37 0 1 empty empty multiplier 0 -8
0 10 -4034 -1 -1 300 256;
#X obj 132 346 sig~;
#X obj 242 131 nbx 5 14 -1e+37 1e+37 0 1 empty empty scale 0 -8 0 10
-4034 -1 -1 30 256;
#X obj 182 346 sig~;
#X obj 182 320 / 100;
#X obj 132 321 / 100;
#X obj 108 396 sig~;
#X obj 267 161 nbx 5 14 -1e+37 1e+37 0 1 empty empty brightness 0 -8
0 10 -4034 -1 -1 100 256;
#X obj 207 397 sig~;
#X obj 207 371 / 100;
#X obj 108 424 VS-basic-lissajous;
#X obj 73 41 inlet~ freq;
#X obj 153 41 inlet~ mult;
#X obj 233 41 inlet~ phase;
#X obj 313 41 inlet~ scale;
#X obj 396 41 inlet~ brightness;
#X connect 4 0 5 0;
#X connect 5 0 6 0;
#X connect 6 0 18 2;
#X connect 7 0 14 0;
#X connect 8 0 13 0;
#X connect 9 0 18 1;
#X connect 10 0 12 0;
#X connect 11 0 18 3;
#X connect 12 0 11 0;
#X connect 13 0 9 0;
#X connect 14 0 18 0;
#X connect 15 0 17 0;
#X connect 16 0 18 4;
#X connect 17 0 16 0;
#X connect 18 0 1 0;
#X connect 18 1 2 0;
#X connect 18 2 3 0;
#X connect 19 0 18 0;
#X connect 20 0 18 1;
#X connect 21 0 18 2;
#X connect 22 0 18 3;
#X connect 23 0 18 4;
#X coords 0 -1 1 1 302 120 1 100 100;
