#N canvas 189 301 450 300 10;
#X obj 169 148 expr~ pow($v1 \, 0.25);
#X obj 29 148 expr~ pow($v1 \, 0.25);
#X obj 29 39 inlet~ xfadecontrol;
#X obj 29 211 outlet~ brightness1;
#X obj 169 211 outlet~ brightness1;
#X obj 29 98 *~ -1;
#X obj 29 122 +~ 1;
#X connect 0 0 4 0;
#X connect 1 0 3 0;
#X connect 2 0 5 0;
#X connect 2 0 0 0;
#X connect 5 0 6 0;
#X connect 6 0 1 0;
