#N canvas 560 175 637 496 10;
#N canvas 681 153 518 727 tables 0;
#N canvas 0 22 450 278 (subpatch) 0;
#X array \$0-cubeX 24 float 3;
#A 0 1 1 -1 -1 -1 -1 1 1 1 -1 -1 1 -1 -1 -1 1 1 1 1 -1 -1 -1 1 1;
#X coords 0 1 24 -1 200 140 1 0 0;
#X restore 211 88 graph;
#N canvas 0 22 450 278 (subpatch) 0;
#X array \$0-cubeY 24 float 3;
#A 0 -1 -1 -1 -1 -1 1 1 1 1 1 1 1 1 1 -1 -1 1 -1 -1 -1 1 -1 -1 1;
#X coords 0 1 24 -1 200 140 1 0 0;
#X restore 211 248 graph;
#N canvas 0 22 450 278 (subpatch) 0;
#X array \$0-cubeZ 24 float 3;
#A 0 -1 1 1 -1 1 1 1 -1 1 1 -1 -1 -1 1 1 1 1 1 -1 -1 -1 -1 -1 -1;
#X coords 0 1 24 -1 200 140 1 0 0;
#X restore 211 408 graph;
#X obj 7 99 bng 15 250 50 0 empty empty empty 17 7 0 10 -262144 -1
-1;
#X obj 7 239 bng 15 250 50 0 empty empty empty 17 7 0 10 -262144 -1
-1;
#X obj 7 399 bng 15 250 50 0 empty empty empty 17 7 0 10 -262144 -1
-1;
#X obj 7 122 f \$0;
#X obj 7 262 f \$0;
#X obj 7 422 f \$0;
#X msg 7 147 \; \$1-cubeX read 01.tables/cubeX.txt;
#X msg 7 287 \; \$1-cubeY read 01.tables/cubeY.txt;
#X msg 7 447 \; \$1-cubeZ read 01.tables/cubeZ.txt;
#X connect 3 0 6 0;
#X connect 4 0 7 0;
#X connect 5 0 8 0;
#X connect 6 0 9 0;
#X connect 7 0 10 0;
#X connect 8 0 11 0;
#X restore 394 244 pd tables;
#X obj 36 242 *~;
#X obj 109 322 *~;
#X obj 179 409 *~;
#X obj 36 457 outlet~ X;
#X obj 109 457 outlet~ Y;
#X obj 179 457 outlet~ Z;
#X obj 249 457 outlet~ brightness;
#X obj 36 77 inlet~ phasor;
#X obj 124 77 inlet~ scale;
#X obj 249 77 inlet~ brightness;
#N canvas 0 22 450 300 blanking 0;
#X obj 66 60 inlet~ brightness;
#X obj 186 60 inlet~ Hramp;
#X obj 66 200 outlet~ brightness;
#X obj 66 149 *~;
#X obj 81 109 expr~ ($v1>0.02)&($v1<0.98);
#X connect 0 0 3 0;
#X connect 1 0 4 0;
#X connect 3 0 2 0;
#X connect 4 0 3 1;
#X restore 249 336 pd blanking;
#X obj 36 185 *~ 24;
#X obj 109 265 *~ 24;
#X obj 179 355 *~ 24;
#X obj 36 217 VS-tabreadlin~ \$0-cubeX;
#X obj 109 296 VS-tabreadlin~ \$0-cubeY;
#X obj 179 386 VS-tabreadlin~ \$0-cubeZ;
#X connect 1 0 4 0;
#X connect 2 0 5 0;
#X connect 3 0 6 0;
#X connect 8 0 11 1;
#X connect 8 0 12 0;
#X connect 8 0 13 0;
#X connect 8 0 14 0;
#X connect 9 0 1 1;
#X connect 9 0 2 1;
#X connect 9 0 3 1;
#X connect 10 0 11 0;
#X connect 11 0 7 0;
#X connect 12 0 15 0;
#X connect 13 0 16 0;
#X connect 14 0 17 0;
#X connect 15 0 1 0;
#X connect 16 0 2 0;
#X connect 17 0 3 0;
