#N canvas 164 23 738 606 10;
#X obj 101 118 cnv 15 300 100 empty empty empty 20 12 0 14 -233017
-66577 0;
#X obj 105 200 nbx 5 14 -1e+37 1e+37 0 0 \$2/frequency \$2/frequency
int.freq 0 -8 0 10 -257985 -1 -1 1 256;
#X obj 95 337 phasor~;
#X text 554 422 Derek Holzer;
#X text 554 471 macumbista@gmail.com;
#X obj 169 282 sig~;
#X obj 105 131 nbx 5 14 0 100 0 0 \$2/multiples \$2/multiples multiples
0 -8 0 10 -4034 -1 -1 1 256;
#X obj 218 282 sig~;
#X obj 170 131 nbx 5 14 0 360 0 0 \$2/phase \$2/phase phase 0 -8 0
10 -4034 -1 -1 0 256;
#X obj 218 257 / 360;
#X obj 278 283 sig~;
#X obj 250 165 nbx 7 14 0 20000 0 0 empty empty Hz 0 -8 0 10 -228856
-1 -1 110 256;
#X obj 106 164 hsl 128 15 0 127 0 0 \$2/smoothing \$2/smoothing smoothing_freq
0 -8 0 10 -4034 -1 -1 4500 1;
#X obj 278 258 mtof;
#X obj 326 284 sig~;
#X obj 249 133 nbx 5 14 0 100 0 0 \$2/blanking \$2/blanking blanking
0 -8 0 10 -4034 -1 -1 0 256;
#X obj 326 259 / 100;
#N canvas 0 23 450 300 switch 0;
#X obj 57 225 outlet~;
#X obj 57 158 *~;
#X obj 127 158 *~;
#X obj 207 158 *~;
#X msg 296 92 0;
#X msg 313 114 1;
#X msg 336 92 0;
#X msg 353 114 1;
#X obj 296 29 inlet;
#X obj 296 58 select 0 1 2;
#X msg 366 92 0;
#X msg 383 114 1;
#X obj 57 29 inlet~ int;
#X obj 127 29 inlet~ noise;
#X obj 207 29 inlet~ ext;
#X connect 1 0 0 0;
#X connect 2 0 0 0;
#X connect 3 0 0 0;
#X connect 4 0 3 1;
#X connect 4 0 2 1;
#X connect 5 0 1 1;
#X connect 6 0 3 1;
#X connect 6 0 1 1;
#X connect 7 0 2 1;
#X connect 8 0 9 0;
#X connect 9 0 4 0;
#X connect 9 0 5 0;
#X connect 9 1 6 0;
#X connect 9 1 7 0;
#X connect 9 2 10 0;
#X connect 9 2 11 0;
#X connect 10 0 2 1;
#X connect 10 0 1 1;
#X connect 11 0 3 1;
#X connect 12 0 1 0;
#X connect 13 0 2 0;
#X connect 14 0 3 0;
#X restore 95 400 pd switch;
#X obj 340 200 hradio 15 1 0 3 \$2/select \$2/select Int.Noise.Ext
-15 -8 0 10 -257985 -1 -1 0;
#N canvas 0 23 450 300 noise_clock 0;
#X obj 146 47 inlet;
#X obj 125 219 outlet~;
#X obj 125 140 noise~;
#X obj 125 163 lop~;
#X obj 146 69 mtof;
#X obj 125 187 expr~ $v1 < 0.02;
#X obj 146 96 pack 0 50;
#X obj 146 118 line;
#X connect 0 0 4 0;
#X connect 2 0 3 0;
#X connect 3 0 5 0;
#X connect 4 0 6 0;
#X connect 5 0 1 0;
#X connect 6 0 7 0;
#X connect 7 0 3 1;
#X restore 112 367 pd noise_clock;
#X obj 46 432 VS-decimate, f 17;
#X obj 6 9 inlet~ X;
#X obj 61 9 inlet~ Y;
#X obj 116 9 inlet~ Z;
#X obj 171 9 inlet~ B;
#X obj 36 549 outlet~ X;
#X obj 106 549 outlet~ Y;
#X obj 176 549 outlet~ Z;
#X obj 246 549 outlet~ B;
#X obj 226 9 inlet~ External;
#X obj 249 200 nbx 5 14 0 135 0 0 \$2/noise \$2/noise noise.clock 0
-8 0 10 -257985 -1 -1 50 256;
#X obj 170 200 nbx 5 14 -1e+37 1e+37 0 0 \$2/frequency-100 \$2/frequency-100
int.freq/100 0 -8 0 10 -257985 -1 -1 0 256;
#X obj 47 283 sig~;
#X obj 95 303 sig~;
#X obj 95 283 / 100;
#X obj 326 409 kollabs/ds_reg \$1 \$2/multiples;
#X obj 326 429 kollabs/ds_reg \$1 \$2/phase;
#X obj 326 449 kollabs/ds_reg \$1 \$2/blanking;
#X obj 326 469 kollabs/ds_reg \$1 \$2/smoothing;
#X obj 326 489 kollabs/ds_reg \$1 \$2/frequency;
#X obj 326 529 kollabs/ds_reg \$1 \$2/noise;
#X obj 326 549 kollabs/ds_reg \$1 \$2/select;
#X obj 326 509 kollabs/ds_reg \$1 \$2/frequency-100;
#X obj 481 185 savestate;
#X obj 532 256 f;
#X obj 555 276 f;
#X obj 578 296 f;
#X obj 601 316 f;
#X obj 572 256 f;
#X obj 595 276 f;
#X obj 618 296 f;
#X obj 641 316 f;
#X obj 532 224 t b b b b b b b b;
#X obj 532 339 pack 0 0 0 0 0 0 0 0;
#X obj 483 364 unpack 0 0 0 0 0 0 0 0;
#X text 554 446 Helsinki May 2019;
#X obj 244 53 loadbang;
#X obj 376 134 bng 15 250 50 0 empty empty ? 17 7 0 10 -4032 -1 -1
;
#X obj 409 154 s pd-\$2-help;
#X msg 409 132 vis 1;
#N canvas 0 23 488 627 \$2-help 0;
#X obj 33 11 cnv 15 300 300 empty empty HELP:vs-decimate-gui 20 12
0 14 -4034 -66577 0;
#X text 67 58 1) X axis signal;
#X text 67 78 2) Y axis signal;
#X text 67 96 3) Z axis signal (ignore for 2D vectors);
#X text 67 232 1) X axis signal;
#X text 67 252 2) Y axis signal;
#X text 67 270 3) Z axis signal (ignore for 2D projection);
#X text 67 288 4) Brightness signal;
#X text 67 114 4) Brightness signal (0-1);
#X text 43 39 INLETS;
#X text 42 202 OUTLETS;
#X text 33 413 Smoothing slews the points into lines \, and blanking
controls the intensity of the beam in between the points. Phase can
adjust the position of the points respective to the start of the ramp.
;
#X text 34 322 [vs-decimate-gui] reduces a continuous vector signal
to points. These points can be multiples of the ramp used to draw a
2D or 3D shape \, if the same ramp is sent to the 5th inlet of the
abstracton. The multiples ramp could also come from a master clock
\, in the case of a multiplexing patch for example. Or an arbitrary
signal can be used \, such as the noise clock shown here.;
#X text 67 134 5) Decimate signal (0-1);
#X restore 409 184 pd \$2-help;
#X connect 1 0 32 0;
#X connect 1 0 48 1;
#X connect 2 0 17 0;
#X connect 5 0 20 5;
#X connect 6 0 5 0;
#X connect 6 0 44 1;
#X connect 7 0 20 6;
#X connect 8 0 9 0;
#X connect 8 0 45 1;
#X connect 9 0 7 0;
#X connect 10 0 20 7;
#X connect 12 0 13 0;
#X connect 12 0 47 1;
#X connect 13 0 11 0;
#X connect 13 0 10 0;
#X connect 14 0 20 8;
#X connect 15 0 16 0;
#X connect 15 0 46 1;
#X connect 16 0 14 0;
#X connect 17 0 20 4;
#X connect 18 0 17 3;
#X connect 18 0 51 1;
#X connect 19 0 17 1;
#X connect 20 0 25 0;
#X connect 20 1 26 0;
#X connect 20 2 27 0;
#X connect 20 3 28 0;
#X connect 21 0 20 0;
#X connect 22 0 20 1;
#X connect 23 0 20 2;
#X connect 24 0 20 3;
#X connect 29 0 17 2;
#X connect 30 0 19 0;
#X connect 30 0 50 1;
#X connect 31 0 34 0;
#X connect 31 0 49 1;
#X connect 32 0 2 0;
#X connect 33 0 2 0;
#X connect 34 0 33 0;
#X connect 43 0 54 0;
#X connect 43 1 52 0;
#X connect 44 0 53 0;
#X connect 45 0 53 1;
#X connect 46 0 53 2;
#X connect 47 0 53 3;
#X connect 48 0 53 4;
#X connect 49 0 53 5;
#X connect 50 0 53 6;
#X connect 51 0 53 7;
#X connect 52 0 44 0;
#X connect 52 1 45 0;
#X connect 52 2 46 0;
#X connect 52 3 47 0;
#X connect 52 4 48 0;
#X connect 52 5 49 0;
#X connect 52 6 50 0;
#X connect 52 7 51 0;
#X connect 53 0 43 0;
#X connect 54 0 6 0;
#X connect 54 1 8 0;
#X connect 54 2 15 0;
#X connect 54 3 12 0;
#X connect 54 4 1 0;
#X connect 54 5 31 0;
#X connect 54 6 30 0;
#X connect 54 7 18 0;
#X connect 56 0 6 0;
#X connect 56 0 31 0;
#X connect 56 0 30 0;
#X connect 56 0 18 0;
#X connect 56 0 15 0;
#X connect 56 0 12 0;
#X connect 56 0 11 0;
#X connect 56 0 8 0;
#X connect 56 0 1 0;
#X connect 57 0 59 0;
#X connect 59 0 58 0;
#X coords 0 -1 1 1 302 120 1 100 100;
