#N canvas 0 22 1033 517 10;
#X obj 232 264 samphold~;
#X obj 232 291 lop~;
#X obj 695 144 metro;
#X msg 722 121 tempo 64 samp;
#X obj 683 198 snapshot~;
#X obj 683 52 inlet~ smoothing;
#X obj 695 72 loadbang;
#X msg 695 121 1, f 2;
#X obj 695 97 t b b;
#X obj 142 264 samphold~;
#X obj 142 291 lop~;
#X obj 62 264 samphold~;
#X obj 62 291 lop~;
#X obj 62 51 inlet~ X;
#X obj 142 51 inlet~ Y;
#X obj 232 51 inlet~ Z;
#X obj 62 376 outlet~;
#X obj 142 376 outlet~;
#X obj 232 376 outlet~;
#X obj 315 376 outlet~;
#X obj 312 51 inlet~ B;
#X obj 478 52 inlet~ multiples;
#X obj 388 192 wrap~;
#X obj 598 52 inlet~ phase;
#X obj 388 52 inlet~ phasor;
#X obj 388 129 *~;
#X obj 388 164 +~;
#X text 630 319 Derek Holzer;
#X text 630 368 macumbista@gmail.com;
#X obj 315 339 *~;
#X obj 863 53 inlet~ blanking;
#X obj 388 282 expr~ $v1 < $v2;
#X text 630 343 Helsinki May 2018;
#X connect 0 0 1 0;
#X connect 1 0 18 0;
#X connect 2 0 4 0;
#X connect 3 0 2 0;
#X connect 4 0 1 1;
#X connect 4 0 10 1;
#X connect 4 0 12 1;
#X connect 5 0 4 0;
#X connect 6 0 8 0;
#X connect 7 0 2 0;
#X connect 8 0 7 0;
#X connect 8 1 3 0;
#X connect 9 0 10 0;
#X connect 10 0 17 0;
#X connect 11 0 12 0;
#X connect 12 0 16 0;
#X connect 13 0 11 0;
#X connect 14 0 9 0;
#X connect 15 0 0 0;
#X connect 20 0 29 0;
#X connect 21 0 25 1;
#X connect 22 0 0 1;
#X connect 22 0 9 1;
#X connect 22 0 11 1;
#X connect 22 0 31 0;
#X connect 23 0 26 1;
#X connect 24 0 25 0;
#X connect 25 0 26 0;
#X connect 26 0 22 0;
#X connect 29 0 19 0;
#X connect 30 0 31 1;
#X connect 31 0 29 1;
