#N canvas 0 23 815 638 10;
#X obj 101 118 cnv 15 300 60 empty empty empty 20 12 0 14 -228856 -66577
0;
#X obj 108 552 outlet~ X;
#X obj 178 552 outlet~ Y;
#X obj 246 552 outlet~ B;
#X obj 247 161 nbx 5 14 0 360 0 0 \$2/phase \$2/phase phase 0 -8 0
10 -4034 -1 -1 0 256;
#X obj 137 320 / 360;
#X obj 178 161 nbx 5 14 -1e+37 1e+37 0 0 \$2/scale \$2/scale scale
0 -8 0 10 -4034 -1 -1 100 256;
#X obj 175 320 / 100;
#X obj 319 161 nbx 5 14 -1e+37 1e+37 0 0 \$2/brightness \$2/brightness
brightness 0 -8 0 10 -4034 -1 -1 100 256;
#X obj 217 321 / 100;
#X obj 417 366 kollabs/ds_reg \$1 \$2/frequency;
#X obj 417 426 kollabs/ds_reg \$1 \$2/harmonic;
#X obj 417 446 kollabs/ds_reg \$1 \$2/scale;
#X obj 417 466 kollabs/ds_reg \$1 \$2/phase;
#X obj 417 486 kollabs/ds_reg \$1 \$2/brightness;
#X obj 190 17 inlet~ phase;
#X obj 102 17 inlet~ phasor;
#X obj 108 130 nbx 5 14 -1e+37 1e+37 0 0 \$2/frequency \$2/frequency
frequency 0 -8 0 10 -257985 -1 -1 50 256;
#X obj 168 130 nbx 5 14 -1e+37 1e+37 0 0 \$2/frequency-100 \$2/frequency-100
freq/100 0 -8 0 10 -257985 -1 -1 0 256;
#X obj 227 130 bng 15 250 50 0 empty empty Reset -6 -8 0 10 -258113
-1 -1;
#X obj 99 256 phasor~;
#X obj 129 191 / 100;
#X msg 165 215 0, f 4;
#N canvas 0 23 634 533 selector 0;
#X obj 139 36 inlet~;
#X obj 210 36 inlet~;
#X obj 380 36 inlet;
#X msg 142 112 0;
#X msg 154 135 1;
#X msg 214 112 0;
#X msg 225 135 1;
#X obj 139 239 *~;
#X obj 210 239 *~;
#X obj 163 267 outlet~;
#X obj 152 81 select 0 1 2;
#X msg 280 112 0;
#X msg 292 135 1;
#X obj 277 239 *~;
#X obj 277 36 r~ \$1-master;
#X connect 0 0 7 0;
#X connect 1 0 8 0;
#X connect 2 0 10 0;
#X connect 3 0 8 1;
#X connect 3 0 13 1;
#X connect 4 0 7 1;
#X connect 5 0 7 1;
#X connect 5 0 13 1;
#X connect 6 0 8 1;
#X connect 7 0 9 0;
#X connect 8 0 9 0;
#X connect 10 0 3 0;
#X connect 10 0 4 0;
#X connect 10 1 5 0;
#X connect 10 1 6 0;
#X connect 10 2 11 0;
#X connect 10 2 12 0;
#X connect 11 0 8 1;
#X connect 11 0 7 1;
#X connect 12 0 13 1;
#X connect 13 0 9 0;
#X connect 14 0 13 0;
#X restore 99 286 pd selector;
#X obj 323 52 r \$1-reset-phase;
#X obj 318 130 hradio 15 1 0 3 \$2/source \$2/source Int.Ext.Master
-12 -8 0 10 -257985 -1 -1 0;
#X obj 273 17 inlet~ scale;
#X obj 421 93 savestate;
#X obj 472 137 f;
#X obj 487 157 f;
#X obj 503 177 f;
#X obj 523 198 f;
#X obj 543 218 f;
#X obj 563 238 f;
#X obj 583 258 f;
#X obj 417 386 kollabs/ds_reg \$1 \$2/frequency-100;
#X obj 417 406 kollabs/ds_reg \$1 \$2/source;
#X text 643 424 Derek Holzer;
#X text 643 473 macumbista@gmail.com;
#X text 643 448 Helsinki May 2019;
#X obj 108 474 vs-diamond;
#X obj 353 17 inlet~ brightness;
#X obj 108 161 nbx 5 14 0 360 0 0 \$2/harmonic \$2/harmonic harmonic
0 -8 0 10 -4034 -1 -1 1 256;
#X obj 108 319 *~;
#X obj 108 346 wrap~;
#X obj 377 129 bng 15 250 50 0 empty empty ? 17 7 0 10 -4032 -1 -1
;
#X obj 320 269 s pd-\$2-help;
#X msg 320 247 vis 1;
#N canvas 0 23 947 714 \$2-help 0;
#X obj 286 18 cnv 15 300 220 empty empty HELP:vs-diamond-gui 20 12
0 14 -4034 -66577 0;
#X text 293 43 INLETS:;
#X text 293 153 OUTLETS:;
#X text 319 86 2) Phase signal (0-1);
#X text 319 106 3) Scale signal (0-1);
#X text 319 126 4) Brightness signal (0-1);
#X text 319 176 1) X signal;
#X text 319 196 2) Y signal;
#X text 319 216 3) Brightness signal (0-1);
#X text 319 66 1) Ramp signal (i.e. from [phasor~]) (0-1);
#X text 16 366 "The diamond shaped image is really a square tilted
45 degrees. The two triangles waves required must be 90 degrees out
of phase with each other. They are applied to any two axes desired
to get a flat \, 2-dimensional image.";
#X text 59 430 From: “Applications of OEI 3D Display Modules” (1975)
;
#X text 18 249 [vs-diamond-gui] is a simple \, ramp driven shape generator
with phase modulation.;
#X text 19 325 The [vs-rotate-gui] abstraction can be used to rotate
the diamond 45 degrees to show a square.;
#X text 485 243 The source of the ramp driving this abstraction is
selected from three options:;
#X text 496 334 EXT: ramp is taken from left-most inlet in the abstraction
;
#X text 497 358 MASTER: ramp is taken from the MASTER bus \, which
could be a [vs-phasor-gui] set to MASTER \, or the master clock of
the [vs-multiplex-gui] set to MASTER.;
#X text 490 414 Other controls:;
#X text 511 498 SCALE adjusts the amplitude of the output waveform.
;
#X text 511 449 HARMONIC sets the output waveform to a harmonic multiple
of the driving ramp. It also determines the number of STEP or RANDOM
steps per cycle of the driving ramp.;
#X text 496 288 INT: internal ramp generator with rough and fine tune
(freq/100) plus RESET button for phase. Set SMOOTH to ON if using MIDI
CC to control frequency.;
#X text 512 543 BRIGHTNESS sets the brightness value of this vector
figure.;
#X text 753 588 Derek Holzer;
#X text 753 637 macumbista@gmail.com;
#X text 753 612 Helsinki May 2019;
#X text 512 523 PHASE adjusts the phase of the output waveform..;
#X text 29 285 Phase modulation creates a pseudo-3D "rotation" effect.
;
#X restore 320 299 pd \$2-help;
#X obj 247 54 loadbang;
#X obj 257 130 hradio 15 1 0 2 \$2/smooth \$2/smooth ON 35 8 0 10 -257985
-1 -1 0;
#X text 256 115 Smooth;
#X obj 603 278 f;
#X obj 45 214 pack 0 0;
#X obj 109 214 pack 0 0;
#X obj 127 374 pack 0 20;
#X obj 197 374 pack 0 20;
#X obj 257 374 pack 0 20;
#X obj 175 190 * 20;
#X obj 418 518 kollabs/ds_reg \$1 \$2/smooth;
#X obj 472 115 t b b b b b b b b;
#X obj 472 290 pack 0 0 0 0 0 0 0 0;
#X obj 421 311 unpack 0 0 0 0 0 0 0 0;
#X obj 45 235 line~;
#X obj 129 235 line~;
#X obj 127 397 line~;
#X obj 165 396 line~;
#X obj 207 397 line~;
#X obj 127 425 +~ 0.25;
#X obj 229 230 r \$2/smooth;
#X obj 208 274 r \$2/source;
#X connect 4 0 5 0;
#X connect 4 0 31 1;
#X connect 5 0 55 0;
#X connect 6 0 7 0;
#X connect 6 0 33 1;
#X connect 7 0 56 0;
#X connect 8 0 9 0;
#X connect 8 0 34 1;
#X connect 9 0 57 0;
#X connect 15 0 40 1;
#X connect 16 0 23 1;
#X connect 17 0 28 1;
#X connect 17 0 53 0;
#X connect 18 0 21 0;
#X connect 18 0 29 1;
#X connect 19 0 22 0;
#X connect 20 0 23 0;
#X connect 21 0 54 0;
#X connect 22 0 20 1;
#X connect 23 0 43 0;
#X connect 24 0 19 0;
#X connect 26 0 40 2;
#X connect 27 0 62 0;
#X connect 27 1 60 0;
#X connect 28 0 61 0;
#X connect 29 0 61 1;
#X connect 30 0 61 2;
#X connect 31 0 61 3;
#X connect 32 0 61 4;
#X connect 33 0 61 5;
#X connect 34 0 61 6;
#X connect 40 0 1 0;
#X connect 40 1 2 0;
#X connect 40 2 3 0;
#X connect 41 0 40 3;
#X connect 42 0 43 1;
#X connect 42 0 32 1;
#X connect 43 0 44 0;
#X connect 44 0 40 0;
#X connect 45 0 47 0;
#X connect 47 0 46 0;
#X connect 49 0 25 0;
#X connect 49 0 18 0;
#X connect 49 0 42 0;
#X connect 49 0 19 0;
#X connect 49 0 17 0;
#X connect 49 0 8 0;
#X connect 49 0 6 0;
#X connect 49 0 4 0;
#X connect 49 0 50 0;
#X connect 52 0 61 7;
#X connect 53 0 63 0;
#X connect 54 0 64 0;
#X connect 55 0 65 0;
#X connect 56 0 66 0;
#X connect 57 0 67 0;
#X connect 58 0 54 1;
#X connect 58 0 53 1;
#X connect 60 0 28 0;
#X connect 60 1 29 0;
#X connect 60 2 30 0;
#X connect 60 3 31 0;
#X connect 60 4 32 0;
#X connect 60 5 33 0;
#X connect 60 6 34 0;
#X connect 60 7 52 0;
#X connect 61 0 27 0;
#X connect 62 0 17 0;
#X connect 62 1 18 0;
#X connect 62 2 25 0;
#X connect 62 3 4 0;
#X connect 62 4 42 0;
#X connect 62 5 6 0;
#X connect 62 6 8 0;
#X connect 62 7 50 0;
#X connect 63 0 20 0;
#X connect 64 0 20 0;
#X connect 65 0 68 0;
#X connect 66 0 40 2;
#X connect 67 0 40 3;
#X connect 68 0 40 1;
#X connect 69 0 58 0;
#X connect 69 0 52 1;
#X connect 70 0 23 2;
#X connect 70 0 30 1;
#X coords 0 -1 1 1 302 80 1 100 100;
