#N canvas 0 22 749 415 10;
#X obj 228 82 inlet~ brightness;
#X obj 228 137 expr~ pow($v1 \, $v2);
#X obj 339 82 inlet~ gamma;
#X obj 228 244 outlet~ brightness;
#X text 472 172 Derek Holzer;
#X text 472 196 Berlin July 2017;
#X text 472 221 macumbista@gmail.com;
#X obj 228 187 clip~ 0 1;
#X connect 0 0 1 0;
#X connect 1 0 7 0;
#X connect 2 0 1 1;
#X connect 7 0 3 0;
