#N canvas 357 238 582 473 10;
#X declare -lib Gem;
#X declare -lib Gem;
#X obj 21 40 declare -lib Gem;
#X obj 101 118 cnv 15 298 122 empty empty empty 20 12 0 14 -233017
-66577 0;
#X obj 115 278 declare -lib Gem;
#X obj 166 174 vradio 20 1 1 3 empty empty empty 0 -8 0 10 -4034 -1
-1 0;
#N canvas 416 132 765 458 source 0;
#X obj 143 423 outlet gemlist;
#X obj 43 333 spigot;
#X obj 143 333 spigot;
#X obj 243 333 spigot;
#X obj 76 309 == 0;
#X obj 176 309 == 1;
#X obj 276 309 == 2;
#X obj 343 42 inlet switcher;
#X obj 43 42 inlet gemlist;
#X obj 243 239 pix_image;
#X obj 243 143 openpanel;
#X msg 243 166 open \$1;
#X obj 43 239 pix_video;
#X obj 143 143 openpanel;
#X msg 143 166 open \$1;
#X obj 143 239 pix_film;
#X msg 167 209 auto \$1;
#X obj 167 191 tgl 15 1 empty empty empty 0 -6 0 8 -262144 -1 -1 1
1;
#X msg 214 239 0;
#X obj 143 42 inlet videoopen;
#X obj 243 42 inlet pixopen;
#X connect 1 0 0 0;
#X connect 2 0 0 0;
#X connect 3 0 0 0;
#X connect 4 0 1 1;
#X connect 5 0 2 1;
#X connect 6 0 3 1;
#X connect 7 0 6 0;
#X connect 7 0 5 0;
#X connect 7 0 4 0;
#X connect 8 0 12 0;
#X connect 8 0 15 0;
#X connect 8 0 9 0;
#X connect 9 0 3 0;
#X connect 10 0 11 0;
#X connect 11 0 9 0;
#X connect 12 0 1 0;
#X connect 13 0 14 0;
#X connect 14 0 15 0;
#X connect 15 0 2 0;
#X connect 15 2 18 0;
#X connect 16 0 15 0;
#X connect 17 0 16 0;
#X connect 18 0 15 1;
#X connect 19 0 13 0;
#X connect 20 0 10 0;
#X restore 115 331 pd source;
#X obj 115 302 gemhead;
#X obj 116 385 pix_draw;
#X obj 34 339 gemwin;
#X obj 111 119 bng 20 250 50 0 empty empty CREATE 25 10 0 12 -257985
-1 -1;
#X obj 111 148 bng 20 250 50 0 empty empty DESTROY 25 10 0 12 -258113
-1 -1;
#X obj 208 119 bng 20 250 50 0 empty empty OPEN_VIDEO_FILE 25 10 0
12 -4034 -1 -1;
#X obj 208 148 bng 20 250 50 0 empty empty OPEN_IMAGE_FILE 25 10 0
12 -4034 -1 -1;
#X obj 191 175 cnv 15 100 25 empty empty CAMERA_SOURCE 5 12 0 12 -233017
-66577 0;
#X obj 191 195 cnv 15 100 25 empty empty VIDEO_SOURCE 5 12 0 12 -233017
-66577 0;
#X obj 191 215 cnv 15 100 25 empty empty IMAGE_SOURCE 5 12 0 12 -233017
-66577 0;
#X text 262 298 Derek Holzer;
#X text 263 354 macumbista@gmail.com;
#X text 261 326 September 2018 Helsinki;
#X obj 179 386 outlet gemlist;
#X obj 111 62 loadbang;
#X msg 34 299 create \, 1;
#X msg 41 319 0 \, destroy;
#X obj 111 86 delay 2000;
#X connect 3 0 4 3;
#X connect 4 0 6 0;
#X connect 4 0 18 0;
#X connect 5 0 4 0;
#X connect 8 0 20 0;
#X connect 9 0 21 0;
#X connect 10 0 4 1;
#X connect 11 0 4 2;
#X connect 19 0 22 0;
#X connect 20 0 7 0;
#X connect 21 0 7 0;
#X connect 22 0 8 0;
#X coords 0 -1 1 1 300 142 1 100 100;
