#N canvas 36 62 722 399 10;
#X text 509 266 Derek Holzer;
#X text 509 304 macumbista@gmail.com;
#X text 509 285 Santa Barbara MAR 2019;
#X obj 97 310 outlet~ R;
#X obj 217 310 outlet~ G;
#X obj 337 310 outlet~ B;
#X obj 208 55 inlet~ master;
#N canvas 0 23 487 587 saw2tri 0;
#X obj 193 212 *~ -1;
#X obj 193 241 +~ 1;
#X obj 193 271 min~;
#X obj 193 300 *~ -4;
#X obj 193 327 +~ 1;
#X obj 193 175 wrap~;
#X obj 193 149 inlet~;
#X obj 193 411 outlet~;
#X obj 193 355 *~ 0.5;
#X obj 193 379 +~ 0.5;
#X connect 0 0 1 0;
#X connect 1 0 2 0;
#X connect 2 0 3 0;
#X connect 3 0 4 0;
#X connect 4 0 8 0;
#X connect 5 0 0 0;
#X connect 5 0 2 1;
#X connect 6 0 5 0;
#X connect 8 0 9 0;
#X connect 9 0 7 0;
#X restore 97 245 pd saw2tri;
#X obj 337 211 +~;
#X obj 365 193 nbx 5 14 0 360 0 1 empty empty phase 60 8 0 10 -4034
-1 -1 140 256;
#X obj 365 211 / 360;
#X obj 217 211 +~;
#X obj 245 193 nbx 5 14 0 360 0 1 empty empty phase 60 8 0 10 -4034
-1 -1 220 256;
#X obj 245 211 / 360;
#X obj 97 211 +~;
#X obj 125 193 nbx 5 14 -360 360 0 1 empty empty phase 60 8 0 10 -4034
-1 -1 0 256;
#X obj 125 211 / 360;
#N canvas 0 23 487 587 saw2tri 0;
#X obj 193 212 *~ -1;
#X obj 193 241 +~ 1;
#X obj 193 271 min~;
#X obj 193 300 *~ -4;
#X obj 193 327 +~ 1;
#X obj 193 175 wrap~;
#X obj 193 149 inlet~;
#X obj 193 411 outlet~;
#X obj 193 355 *~ 0.5;
#X obj 193 379 +~ 0.5;
#X connect 0 0 1 0;
#X connect 1 0 2 0;
#X connect 2 0 3 0;
#X connect 3 0 4 0;
#X connect 4 0 8 0;
#X connect 5 0 0 0;
#X connect 5 0 2 1;
#X connect 6 0 5 0;
#X connect 8 0 9 0;
#X connect 9 0 7 0;
#X restore 217 245 pd saw2tri;
#N canvas 0 23 487 587 saw2tri 0;
#X obj 193 212 *~ -1;
#X obj 193 241 +~ 1;
#X obj 193 271 min~;
#X obj 193 300 *~ -4;
#X obj 193 327 +~ 1;
#X obj 193 175 wrap~;
#X obj 193 149 inlet~;
#X obj 193 411 outlet~;
#X obj 193 355 *~ 0.5;
#X obj 193 379 +~ 0.5;
#X connect 0 0 1 0;
#X connect 1 0 2 0;
#X connect 2 0 3 0;
#X connect 3 0 4 0;
#X connect 4 0 8 0;
#X connect 5 0 0 0;
#X connect 5 0 2 1;
#X connect 6 0 5 0;
#X connect 8 0 9 0;
#X connect 9 0 7 0;
#X restore 337 245 pd saw2tri;
#X connect 6 0 14 0;
#X connect 6 0 11 0;
#X connect 6 0 8 0;
#X connect 7 0 3 0;
#X connect 8 0 18 0;
#X connect 9 0 10 0;
#X connect 10 0 8 1;
#X connect 11 0 17 0;
#X connect 12 0 13 0;
#X connect 13 0 11 1;
#X connect 14 0 7 0;
#X connect 15 0 16 0;
#X connect 16 0 14 1;
#X connect 17 0 4 0;
#X connect 18 0 5 0;
