#N canvas 0 23 1280 751 10;
#X text 579 585 Derek Holzer;
#X text 579 623 macumbista@gmail.com;
#X obj 36 437 clip~ -1 1;
#X obj 52 456 clip~ -1 1;
#X obj 394 441 *~;
#X obj 423 442 *~;
#X obj 394 518 clip~ -1 1;
#X obj 422 536 clip~ -1 1;
#X obj 437 405 *~;
#X obj 437 329 lop~;
#X obj 437 309 lop~;
#X obj 437 349 lop~;
#X obj 437 369 lop~;
#N canvas 0 23 450 300 lowpassfilters 0;
#X obj 144 53 inlet~ X;
#X obj 235 53 inlet~ Y;
#X obj 144 89 lop~;
#X obj 235 89 lop~;
#X obj 144 119 lop~;
#X obj 235 119 lop~;
#X obj 144 149 lop~;
#X obj 235 149 lop~;
#X obj 144 179 lop~;
#X obj 235 179 lop~;
#X obj 144 223 outlet~ X;
#X obj 235 223 outlet~ Y;
#X obj 325 53 inlet cutoff;
#X connect 0 0 2 0;
#X connect 1 0 3 0;
#X connect 2 0 4 0;
#X connect 3 0 5 0;
#X connect 4 0 6 0;
#X connect 5 0 7 0;
#X connect 6 0 8 0;
#X connect 7 0 9 0;
#X connect 8 0 10 0;
#X connect 9 0 11 0;
#X connect 12 0 3 1;
#X connect 12 0 9 1;
#X connect 12 0 8 1;
#X connect 12 0 7 1;
#X connect 12 0 6 1;
#X connect 12 0 5 1;
#X connect 12 0 4 1;
#X connect 12 0 2 1;
#X restore 35 363 pd lowpassfilters;
#X obj 788 13 inlet clipX;
#X obj 823 37 inlet clipY;
#X obj 568 14 inlet scaleX;
#X obj 606 34 inlet scaleY;
#X obj 668 13 inlet offsetX;
#X obj 703 37 inlet offsetY;
#X obj 1026 37 inlet cutoff;
#X obj 36 628 dac~ 1 2 3 4 5 6 7 8;
#X obj 788 107 * -1;
#X obj 823 136 * -1;
#X obj 36 69 *~;
#X obj 93 87 *~;
#X obj 394 471 hip~ 20;
#X obj 422 491 hip~ 20;
#X obj 568 109 sig~;
#X obj 606 139 sig~;
#X obj 668 109 sig~;
#X obj 703 139 sig~;
#X obj 888 13 inlet rotateX;
#X obj 926 37 inlet rotateY;
#X obj 983 13 inlet rotateZ;
#X obj 35 270 vs-rotate, f 30;
#X obj 35 314 vs-projector, f 24;
#X obj 888 69 / 360;
#X obj 926 69 / 360;
#X obj 983 69 / 360;
#X obj 788 61 / 100;
#X obj 823 86 / 100;
#X obj 568 59 / 100;
#X obj 606 89 / 100;
#X obj 668 59 / 100;
#X obj 703 89 / 100;
#X obj 1026 70 f;
#X obj 453 59 dbtorms;
#X obj 453 79 pack 0 50;
#X obj 453 109 line~;
#X obj 453 15 inlet audio_gain;
#X obj 176 291 sig~ 1;
#X obj 36 129 +~;
#X obj 93 147 +~;
#N canvas 32 345 894 429 rgb 0;
#X obj 29 137 *~ 20000;
#X obj 149 177 *~ 20000;
#X obj 269 217 *~ 20000;
#X obj 29 278 vs-rescale~ 0 1 0 0;
#X obj 149 278 vs-rescale~ 0 1 0 0;
#X obj 269 278 vs-rescale~ 0 1 0 0;
#X obj 29 26 inlet~ R;
#X obj 89 26 inlet~ G;
#X obj 149 26 inlet~ B;
#X obj 317 26 inlet Rmin;
#X obj 386 26 inlet Gmin;
#X obj 454 26 inlet Bmin;
#X obj 206 26 inlet~ brightness;
#X obj 317 51 sig~;
#X obj 386 51 sig~;
#X obj 454 51 sig~;
#X obj 29 346 outlet~ R;
#X obj 149 346 outlet~ G;
#X obj 269 346 outlet~ B;
#X text 639 312 Derek Holzer;
#X text 639 350 macumbista@gmail.com;
#X text 639 331 Santa Barbara MAR 2019;
#N canvas 480 52 578 604 curveR 0;
#X msg 54 82 bang;
#X obj 54 103 until;
#X text 85 82 start;
#X obj 54 125 f;
#X obj 83 125 + 1;
#X obj 54 43 loadbang;
#X obj 54 180 trigger float float;
#X obj 127 127 select 0;
#X obj 138 9 inlet;
#X obj 153 32 send \$0-to-numbox;
#X obj 139 53 trigger bang float;
#X text 96 257 mapping output range: 0 to 1;
#X obj 54 257 / 20000;
#X obj 83 147 mod 20000;
#N canvas 0 22 450 300 (subpatch) 0;
#X array \$0-curveR 20000 float 0;
#X coords 0 1 19999 0 200 200 1 0 0;
#X restore 295 70 graph;
#N canvas 304 201 450 300 draw_curve 0;
#X obj 106 325 pow 1;
#X obj 62 10 inlet;
#X obj 257 9 inlet;
#X obj 106 405 outlet;
#X obj 271 243 exp;
#X msg 287 177 2;
#X obj 287 198 log;
#X obj 271 221 *;
#X obj 62 248 moses 0;
#X obj 62 283 * -1;
#X obj 62 325 pow 1;
#X obj 62 352 * -1;
#X obj 257 155 t f b;
#X obj 257 119 * 10;
#X connect 0 0 3 0;
#X connect 1 0 8 0;
#X connect 2 0 13 0;
#X connect 4 0 0 1;
#X connect 4 0 10 1;
#X connect 5 0 6 0;
#X connect 6 0 7 1;
#X connect 7 0 4 0;
#X connect 8 0 9 0;
#X connect 8 1 0 0;
#X connect 9 0 10 0;
#X connect 10 0 11 0;
#X connect 11 0 3 0;
#X connect 12 0 7 0;
#X connect 12 1 5 0;
#X connect 13 0 12 0;
#X restore 54 287 pd draw_curve;
#X obj 53 313 tabwrite \$0-curveR;
#X connect 0 0 1 0;
#X connect 1 0 3 0;
#X connect 3 0 4 0;
#X connect 3 0 6 0;
#X connect 4 0 13 0;
#X connect 5 0 0 0;
#X connect 6 0 12 0;
#X connect 6 1 16 1;
#X connect 7 0 1 1;
#X connect 8 0 9 0;
#X connect 8 0 10 0;
#X connect 10 0 0 0;
#X connect 10 1 15 1;
#X connect 12 0 15 0;
#X connect 13 0 3 1;
#X connect 13 0 7 0;
#X connect 15 0 16 0;
#X restore 522 51 pd curveR;
#N canvas 480 52 578 604 curveG 0;
#X msg 54 82 bang;
#X obj 54 103 until;
#X text 85 82 start;
#X obj 54 125 f;
#X obj 83 125 + 1;
#X obj 54 43 loadbang;
#X obj 54 180 trigger float float;
#X obj 127 127 select 0;
#X obj 138 9 inlet;
#X obj 153 32 send \$0-to-numbox;
#X obj 139 53 trigger bang float;
#X text 96 257 mapping output range: 0 to 1;
#X obj 54 257 / 20000;
#X obj 83 147 mod 20000;
#N canvas 0 22 450 300 (subpatch) 0;
#X array \$0-curveG 20000 float 0;
#X coords 0 1 19999 0 200 200 1 0 0;
#X restore 295 70 graph;
#N canvas 304 201 450 300 draw_curve 0;
#X obj 106 325 pow 1;
#X obj 62 10 inlet;
#X obj 257 9 inlet;
#X obj 106 405 outlet;
#X obj 271 243 exp;
#X msg 287 177 2;
#X obj 287 198 log;
#X obj 271 221 *;
#X obj 62 248 moses 0;
#X obj 62 283 * -1;
#X obj 62 325 pow 1;
#X obj 62 352 * -1;
#X obj 257 155 t f b;
#X obj 257 119 * 10;
#X connect 0 0 3 0;
#X connect 1 0 8 0;
#X connect 2 0 13 0;
#X connect 4 0 0 1;
#X connect 4 0 10 1;
#X connect 5 0 6 0;
#X connect 6 0 7 1;
#X connect 7 0 4 0;
#X connect 8 0 9 0;
#X connect 8 1 0 0;
#X connect 9 0 10 0;
#X connect 10 0 11 0;
#X connect 11 0 3 0;
#X connect 12 0 7 0;
#X connect 12 1 5 0;
#X connect 13 0 12 0;
#X restore 54 287 pd draw_curve;
#X obj 53 313 tabwrite \$0-curveG;
#X connect 0 0 1 0;
#X connect 1 0 3 0;
#X connect 3 0 4 0;
#X connect 3 0 6 0;
#X connect 4 0 13 0;
#X connect 5 0 0 0;
#X connect 6 0 12 0;
#X connect 6 1 16 1;
#X connect 7 0 1 1;
#X connect 8 0 9 0;
#X connect 8 0 10 0;
#X connect 10 0 0 0;
#X connect 10 1 15 1;
#X connect 12 0 15 0;
#X connect 13 0 3 1;
#X connect 13 0 7 0;
#X connect 15 0 16 0;
#X restore 601 51 pd curveG;
#N canvas 480 52 578 604 curveB 0;
#X msg 54 82 bang;
#X obj 54 103 until;
#X text 85 82 start;
#X obj 54 125 f;
#X obj 83 125 + 1;
#X obj 54 43 loadbang;
#X obj 54 180 trigger float float;
#X obj 127 127 select 0;
#X obj 138 9 inlet;
#X obj 153 32 send \$0-to-numbox;
#X obj 139 53 trigger bang float;
#X text 96 257 mapping output range: 0 to 1;
#X obj 54 257 / 20000;
#X obj 83 147 mod 20000;
#N canvas 0 22 450 300 (subpatch) 0;
#X array \$0-curveB 20000 float 0;
#X coords 0 1 19999 0 200 200 1 0 0;
#X restore 295 70 graph;
#N canvas 304 201 450 300 draw_curve 0;
#X obj 106 325 pow 1;
#X obj 62 10 inlet;
#X obj 257 9 inlet;
#X obj 106 405 outlet;
#X obj 271 243 exp;
#X msg 287 177 2;
#X obj 287 198 log;
#X obj 271 221 *;
#X obj 62 248 moses 0;
#X obj 62 283 * -1;
#X obj 62 325 pow 1;
#X obj 62 352 * -1;
#X obj 257 155 t f b;
#X obj 257 119 * 10;
#X connect 0 0 3 0;
#X connect 1 0 8 0;
#X connect 2 0 13 0;
#X connect 4 0 0 1;
#X connect 4 0 10 1;
#X connect 5 0 6 0;
#X connect 6 0 7 1;
#X connect 7 0 4 0;
#X connect 8 0 9 0;
#X connect 8 1 0 0;
#X connect 9 0 10 0;
#X connect 10 0 11 0;
#X connect 11 0 3 0;
#X connect 12 0 7 0;
#X connect 12 1 5 0;
#X connect 13 0 12 0;
#X restore 54 287 pd draw_curve;
#X obj 53 313 tabwrite \$0-curveB;
#X connect 0 0 1 0;
#X connect 1 0 3 0;
#X connect 3 0 4 0;
#X connect 3 0 6 0;
#X connect 4 0 13 0;
#X connect 5 0 0 0;
#X connect 6 0 12 0;
#X connect 6 1 16 1;
#X connect 7 0 1 1;
#X connect 8 0 9 0;
#X connect 8 0 10 0;
#X connect 10 0 0 0;
#X connect 10 1 15 1;
#X connect 12 0 15 0;
#X connect 13 0 3 1;
#X connect 13 0 7 0;
#X connect 15 0 16 0;
#X restore 680 51 pd curveB;
#X obj 522 26 inlet Rcurve;
#X obj 601 26 inlet Gcurve;
#X obj 680 26 inlet Bcurve;
#X obj 29 313 clip~ 0 1;
#X obj 149 313 clip~ 0 1;
#X obj 269 313 clip~ 0 1;
#X obj 29 156 tabread~ \$0-curveR;
#X obj 149 196 tabread~ \$0-curveG;
#X obj 269 236 tabread~ \$0-curveB;
#X connect 0 0 31 0;
#X connect 1 0 32 0;
#X connect 2 0 33 0;
#X connect 3 0 28 0;
#X connect 4 0 29 0;
#X connect 5 0 30 0;
#X connect 6 0 0 0;
#X connect 7 0 1 0;
#X connect 8 0 2 0;
#X connect 9 0 13 0;
#X connect 10 0 14 0;
#X connect 11 0 15 0;
#X connect 12 0 3 4;
#X connect 12 0 4 4;
#X connect 12 0 5 4;
#X connect 13 0 3 3;
#X connect 14 0 4 3;
#X connect 15 0 5 3;
#X connect 25 0 22 0;
#X connect 26 0 23 0;
#X connect 27 0 24 0;
#X connect 28 0 16 0;
#X connect 29 0 17 0;
#X connect 30 0 18 0;
#X connect 31 0 3 0;
#X connect 32 0 4 0;
#X connect 33 0 5 0;
#X restore 181 462 pd rgb;
#X f 20;
#X obj 1078 11 inlet Rmin;
#X obj 1117 37 inlet Gmin;
#X obj 1156 11 inlet Bmin;
#X obj 1191 37 inlet Rcurve;
#X obj 1228 11 inlet Gcurve;
#X obj 1274 37 inlet Bcurve;
#N canvas 105 23 690 413 scan_fail_(open_to_adjust_settings) 0;
#X obj 217 23 inlet~ R;
#X obj -25 23 inlet~ X+Y;
#X obj 352 120 >;
#X obj 217 181 *~;
#X obj 277 199 *~;
#X obj 337 221 *~;
#X obj 367 74 nbx 5 14 0 100 0 1 empty empty Scan_fail_threshold_in_dB
60 8 0 10 -4034 -1 -1 30 256;
#X obj 277 23 inlet~ G;
#X obj 337 23 inlet~ B;
#X text 426 99 Analysis window size in samples;
#X obj 217 260 outlet~ R;
#X obj 277 260 outlet~ G;
#X obj 337 260 outlet~ B;
#X text 511 308 Derek Holzer;
#X text 511 346 macumbista@gmail.com;
#X text 511 327 Santa Barbara MAR 2019;
#X obj 352 140 sig~;
#X text 36 291 This patch analyzes the combined level of the X and
Y axes. If that level falls under a certain threshold in dB \, within
the window size in samples (compare with current sample rate to find
time in ms) \, then the RGB chanels are all shut off to prevent an
unmoving laser beam from posing a safety hazard.;
#X obj 103 23 inlet~ Brightness;
#X obj 103 154 *~;
#X obj 103 260 outlet~ Brightness;
#X obj -25 45 hip~ 10;
#X obj 44 45 hip~ 10;
#X obj 44 23 inlet~ Y;
#X obj 44 66 env~ 1920;
#X obj 10 108 +;
#X obj -25 66 env~ 1920;
#X connect 0 0 3 0;
#X connect 1 0 21 0;
#X connect 2 0 16 0;
#X connect 3 0 10 0;
#X connect 4 0 11 0;
#X connect 5 0 12 0;
#X connect 6 0 2 1;
#X connect 7 0 4 0;
#X connect 8 0 5 0;
#X connect 16 0 3 1;
#X connect 16 0 5 1;
#X connect 16 0 4 1;
#X connect 16 0 19 1;
#X connect 18 0 19 0;
#X connect 19 0 20 0;
#X connect 21 0 26 0;
#X connect 23 0 22 0;
#X connect 24 0 25 1;
#X connect 25 0 2 0;
#X connect 26 0 25 0;
#X restore 69 491 pd scan_fail_(open_to_adjust_settings);
#X obj 1078 67 / 100;
#X obj 1117 67 / 100;
#X obj 1156 67 / 100;
#X obj 36 15 catch~ X;
#X obj 93 15 catch~ Y;
#X obj 149 15 catch~ B;
#X obj 204 15 catch~ Red;
#X obj 271 15 catch~ Green;
#X obj 350 15 catch~ Blue;
#X obj 983 151 pack 0 10;
#X obj 926 121 pack 0 10;
#X obj 888 151 pack 0 10;
#X obj 888 219 line~;
#X obj 926 219 line~;
#X obj 983 219 line~;
#X obj 624 453 outlet~ x;
#X obj 685 453 outlet~ y;
#X obj 1318 11 inlet brightness;
#X obj 176 200 *~;
#X obj 1267 224 clip 0 1;
#X obj 1319 81 / 100;
#X obj 1267 263 sig~;
#X text 579 604 Helsinki November 2019;
#X obj 758 453 outlet~ b;
#X obj 759 422 *~;
#X connect 2 0 21 0;
#X connect 2 0 4 0;
#X connect 2 0 77 0;
#X connect 2 0 61 0;
#X connect 3 0 21 1;
#X connect 3 0 5 0;
#X connect 3 0 78 0;
#X connect 3 0 61 1;
#X connect 4 0 26 0;
#X connect 5 0 27 0;
#X connect 6 0 21 6;
#X connect 7 0 21 7;
#X connect 8 0 4 1;
#X connect 8 0 5 1;
#X connect 9 0 11 0;
#X connect 10 0 9 0;
#X connect 11 0 12 0;
#X connect 12 0 8 0;
#X connect 13 0 2 0;
#X connect 13 1 3 0;
#X connect 14 0 40 0;
#X connect 15 0 41 0;
#X connect 16 0 42 0;
#X connect 17 0 43 0;
#X connect 18 0 44 0;
#X connect 19 0 45 0;
#X connect 20 0 46 0;
#X connect 22 0 2 1;
#X connect 23 0 3 1;
#X connect 24 0 52 0;
#X connect 25 0 53 0;
#X connect 26 0 6 0;
#X connect 27 0 7 0;
#X connect 28 0 24 1;
#X connect 29 0 25 1;
#X connect 30 0 52 1;
#X connect 31 0 53 1;
#X connect 32 0 37 0;
#X connect 33 0 38 0;
#X connect 34 0 39 0;
#X connect 35 0 36 0;
#X connect 35 1 36 1;
#X connect 35 2 36 2;
#X connect 36 0 13 0;
#X connect 36 1 13 1;
#X connect 37 0 73 0;
#X connect 38 0 72 0;
#X connect 39 0 71 0;
#X connect 40 0 22 0;
#X connect 40 0 2 2;
#X connect 41 0 23 0;
#X connect 41 0 3 2;
#X connect 42 0 28 0;
#X connect 43 0 29 0;
#X connect 44 0 30 0;
#X connect 45 0 31 0;
#X connect 46 0 10 1;
#X connect 46 0 9 1;
#X connect 46 0 11 1;
#X connect 46 0 12 1;
#X connect 46 0 13 2;
#X connect 47 0 48 0;
#X connect 48 0 49 0;
#X connect 49 0 8 1;
#X connect 50 0 47 0;
#X connect 51 0 36 4;
#X connect 51 0 36 7;
#X connect 52 0 35 0;
#X connect 53 0 35 1;
#X connect 54 0 61 3;
#X connect 54 1 61 4;
#X connect 54 2 61 5;
#X connect 55 0 62 0;
#X connect 56 0 63 0;
#X connect 57 0 64 0;
#X connect 58 0 54 7;
#X connect 59 0 54 8;
#X connect 60 0 54 9;
#X connect 61 0 21 2;
#X connect 61 0 86 0;
#X connect 61 1 21 3;
#X connect 61 2 21 4;
#X connect 61 3 21 5;
#X connect 62 0 54 4;
#X connect 63 0 54 5;
#X connect 64 0 54 6;
#X connect 65 0 24 0;
#X connect 66 0 25 0;
#X connect 67 0 10 0;
#X connect 67 0 61 2;
#X connect 67 0 80 0;
#X connect 68 0 54 0;
#X connect 69 0 54 1;
#X connect 70 0 54 2;
#X connect 71 0 76 0;
#X connect 72 0 75 0;
#X connect 73 0 74 0;
#X connect 74 0 35 4;
#X connect 75 0 35 5;
#X connect 76 0 35 6;
#X connect 79 0 82 0;
#X connect 80 0 54 3;
#X connect 81 0 83 0;
#X connect 82 0 81 0;
#X connect 83 0 80 1;
#X connect 83 0 86 1;
#X connect 86 0 85 0;
