#N canvas 18 246 757 528 10;
#X text 469 355 Derek Holzer;
#X text 469 393 macumbista@gmail.com;
#X text 469 374 Santa Barbara MAR 2019;
#X obj 42 69 inlet~ X;
#X obj 42 179 throw~ X;
#X obj 102 69 inlet~ Y;
#X obj 102 179 throw~ Y;
#X obj 162 69 inlet~ B;
#X obj 162 179 throw~ B;
#X obj 224 179 throw~ Red;
#X obj 304 179 throw~ Green;
#X obj 394 179 throw~ Blue;
#X obj 224 120 vs-ilda-rgb;
#X obj 224 69 inlet~ RGB;
#X connect 3 0 4 0;
#X connect 5 0 6 0;
#X connect 7 0 8 0;
#X connect 12 0 9 0;
#X connect 12 1 10 0;
#X connect 12 2 11 0;
#X connect 13 0 12 0;
