#N canvas 0 23 815 657 10;
#X obj 101 118 cnv 15 300 60 empty empty empty 20 12 0 14 -228856 -66577
0;
#X obj 108 552 outlet~ X;
#X obj 178 552 outlet~ Y;
#X obj 246 552 outlet~ B;
#X obj 283 161 nbx 5 14 0 360 0 0 \$2/phase \$2/phase phase 0 -8 0
10 -4034 -1 -1 0 256;
#X obj 237 320 / 360;
#X obj 108 161 nbx 5 14 -1e+37 1e+37 0 0 \$2/harmonic \$2/harmonic
harmonic 0 -8 0 10 -4034 -1 -1 1 256;
#X obj 134 346 sig~;
#X obj 225 161 nbx 5 14 -1e+37 1e+37 0 0 \$2/scale \$2/scale scale
0 -8 0 10 -4034 -1 -1 100 256;
#X obj 182 320 / 100;
#X obj 341 161 nbx 5 14 -1e+37 1e+37 0 0 \$2/brightness \$2/brightness
brightness 0 -8 0 10 -4034 -1 -1 100 256;
#X obj 297 321 / 100;
#X obj 417 366 kollabs/ds_reg \$1 \$2/frequency;
#X obj 417 426 kollabs/ds_reg \$1 \$2/harmonic;
#X obj 417 446 kollabs/ds_reg \$1 \$2/scale;
#X obj 417 466 kollabs/ds_reg \$1 \$2/phase;
#X obj 417 486 kollabs/ds_reg \$1 \$2/brightness;
#X obj 190 17 inlet~ phase;
#X obj 102 17 inlet~ phasor;
#X obj 108 130 nbx 5 14 -1e+37 1e+37 0 0 \$2/frequency \$2/frequency
frequency 0 -8 0 10 -257985 -1 -1 50 256;
#X obj 168 130 nbx 5 14 -1e+37 1e+37 0 0 \$2/frequency-100 \$2/frequency-100
freq/100 0 -8 0 10 -257985 -1 -1 0 256;
#X obj 227 130 bng 15 250 50 0 empty empty Reset -6 -8 0 10 -258113
-1 -1;
#X obj 99 266 phasor~;
#X obj 129 201 / 100;
#X msg 195 225 0, f 4;
#N canvas 0 23 634 533 selector 0;
#X obj 139 36 inlet~;
#X obj 210 36 inlet~;
#X obj 380 36 inlet;
#X msg 142 112 0;
#X msg 154 135 1;
#X msg 214 112 0;
#X msg 225 135 1;
#X obj 139 239 *~;
#X obj 210 239 *~;
#X obj 163 267 outlet~;
#X obj 152 81 select 0 1 2;
#X msg 280 112 0;
#X msg 292 135 1;
#X obj 277 239 *~;
#X obj 277 36 r~ \$1-master;
#X connect 0 0 7 0;
#X connect 1 0 8 0;
#X connect 2 0 10 0;
#X connect 3 0 8 1;
#X connect 3 0 13 1;
#X connect 4 0 7 1;
#X connect 5 0 7 1;
#X connect 5 0 13 1;
#X connect 6 0 8 1;
#X connect 7 0 9 0;
#X connect 8 0 9 0;
#X connect 10 0 3 0;
#X connect 10 0 4 0;
#X connect 10 1 5 0;
#X connect 10 1 6 0;
#X connect 10 2 11 0;
#X connect 10 2 12 0;
#X connect 11 0 8 1;
#X connect 11 0 7 1;
#X connect 12 0 13 1;
#X connect 13 0 9 0;
#X connect 14 0 13 0;
#X restore 99 286 pd selector;
#X obj 323 52 r \$1-reset-phase;
#X obj 318 130 hradio 15 1 0 3 \$2/source \$2/source Int.Ext.Master
-12 -8 0 10 -257985 -1 -1 0;
#X obj 273 17 inlet~ scale;
#X obj 421 93 savestate;
#X obj 472 137 f;
#X obj 487 157 f;
#X obj 503 177 f;
#X obj 523 198 f;
#X obj 543 218 f;
#X obj 563 238 f;
#X obj 583 258 f;
#X obj 417 386 kollabs/ds_reg \$1 \$2/frequency-100;
#X obj 417 406 kollabs/ds_reg \$1 \$2/source;
#X text 485 549 Derek Holzer;
#X text 485 598 macumbista@gmail.com;
#X text 485 573 Helsinki May 2019;
#X obj 108 424 vs-basic-lissajous;
#X obj 353 17 inlet~ brightness;
#X obj 166 161 nbx 5 14 0 360 0 0 \$2/multiple \$2/multiple multiple
0 -8 0 10 -4034 -1 -1 2 256;
#X obj 417 506 kollabs/ds_reg \$1 \$2/multiple;
#X obj 593 208 f;
#X obj 99 314 *~;
#X obj 99 370 wrap~;
#X obj 377 129 bng 15 250 50 0 empty empty ? 17 7 0 10 -4032 -1 -1
;
#X obj 310 259 s pd-\$2-help;
#X msg 310 237 vis 1;
#N canvas 383 158 896 603 \$2-help 0;
#X obj 276 18 cnv 15 300 220 empty empty HELP:vs-lissajous-gui 20 12
0 14 -4034 -66577 0;
#X text 283 43 INLETS:;
#X text 283 153 OUTLETS:;
#X text 309 86 2) Phase signal (0-1);
#X text 309 106 3) Scale signal (0-1);
#X text 309 126 4) Brightness signal (0-1);
#X text 309 176 1) X signal;
#X text 309 196 2) Y signal;
#X text 309 216 3) Brightness signal (0-1);
#X text 309 66 1) Ramp signal (i.e. from [phasor~]) (0-1);
#X text 15 249 This patch illustrates a basic Lissajous figure made
by the harmonic relationship of two cosine waves. The second cosine
is phase-locked to the first \, and is given a higher harmonic by the
MULTIPLE number box. Changing the phase relationship of the two cosine
waves "rotates" the figure in a pseudo-3D space. It can also be scaled
in size and its overall brightness can be changed.;
#X text 14 343 The source of the ramp driving this abstraction is selected
from three options:;
#X text 25 434 EXT: ramp is taken from left-most inlet in the abstraction
;
#X text 26 458 MASTER: ramp is taken from the MASTER bus \, which could
be a [vs-phasor-gui] set to MASTER \, or the master clock of the [vs-multiplex-gui]
set to MASTER.;
#X text 490 254 Other controls:;
#X text 512 363 PHASE adjusts the phase of the output waveform.;
#X text 511 338 SCALE adjusts the amplitude of the output waveform.
;
#X text 511 289 HARMONIC sets the output waveform to a harmonic multiple
of the driving ramp. It also determines the number of STEP or RANDOM
steps per cycle of the driving ramp.;
#X text 25 388 INT: internal ramp generator with rough and fine tune
(freq/100) plus RESET button for phase. Set SMOOTH to ON if using MIDI
CC to control frequency.;
#X text 512 383 BRIGHTNESS sets the brightness value of this vector
figure.;
#X text 753 428 Derek Holzer;
#X text 753 477 macumbista@gmail.com;
#X text 753 452 Helsinki May 2019;
#X restore 310 289 pd \$2-help;
#X obj 218 47 loadbang;
#X obj 257 130 hradio 15 1 0 2 \$2/smooth \$2/smooth ON 35 8 0 10 -257985
-1 -1 0;
#X text 256 115 Smooth;
#X obj 613 278 f;
#X obj 65 224 pack 0 0;
#X obj 129 224 pack 0 0;
#X obj 174 356 pack 0 20;
#X obj 238 356 pack 0 20;
#X obj 308 356 pack 0 20;
#X obj 175 200 * 20;
#X obj 418 528 kollabs/ds_reg \$1 \$2/smooth;
#X obj 472 115 t b b b b b b b b b;
#X obj 472 290 pack 0 0 0 0 0 0 0 0 0;
#X obj 421 311 unpack 0 0 0 0 0 0 0 0 0;
#X obj 182 396 line~;
#X obj 237 397 line~;
#X obj 297 397 line~;
#X obj 65 245 line~;
#X obj 129 245 line~;
#X obj 162 265 r \$2/source;
#X obj 207 200 r \$2/smooth;
#X connect 4 0 5 0;
#X connect 4 0 33 1;
#X connect 5 0 60 0;
#X connect 6 0 34 1;
#X connect 6 0 47 1;
#X connect 7 0 42 1;
#X connect 8 0 9 0;
#X connect 8 0 35 1;
#X connect 9 0 59 0;
#X connect 10 0 11 0;
#X connect 10 0 36 1;
#X connect 11 0 61 0;
#X connect 17 0 42 2;
#X connect 18 0 25 1;
#X connect 19 0 30 1;
#X connect 19 0 57 0;
#X connect 20 0 23 0;
#X connect 20 0 31 1;
#X connect 21 0 24 0;
#X connect 22 0 25 0;
#X connect 23 0 58 0;
#X connect 24 0 22 1;
#X connect 25 0 47 0;
#X connect 26 0 21 0;
#X connect 28 0 42 3;
#X connect 29 0 66 0;
#X connect 29 1 64 0;
#X connect 30 0 65 0;
#X connect 31 0 65 1;
#X connect 32 0 65 2;
#X connect 33 0 65 3;
#X connect 34 0 65 4;
#X connect 35 0 65 5;
#X connect 36 0 65 6;
#X connect 42 0 1 0;
#X connect 42 1 2 0;
#X connect 42 2 3 0;
#X connect 43 0 42 4;
#X connect 44 0 46 1;
#X connect 44 0 7 0;
#X connect 46 0 65 7;
#X connect 47 0 48 0;
#X connect 48 0 42 0;
#X connect 49 0 51 0;
#X connect 51 0 50 0;
#X connect 53 0 27 0;
#X connect 53 0 44 0;
#X connect 53 0 21 0;
#X connect 53 0 20 0;
#X connect 53 0 19 0;
#X connect 53 0 10 0;
#X connect 53 0 8 0;
#X connect 53 0 6 0;
#X connect 53 0 4 0;
#X connect 53 0 54 0;
#X connect 56 0 65 8;
#X connect 57 0 70 0;
#X connect 58 0 71 0;
#X connect 59 0 67 0;
#X connect 60 0 68 0;
#X connect 61 0 69 0;
#X connect 62 0 58 1;
#X connect 62 0 57 1;
#X connect 64 0 30 0;
#X connect 64 1 31 0;
#X connect 64 2 32 0;
#X connect 64 3 33 0;
#X connect 64 4 34 0;
#X connect 64 5 35 0;
#X connect 64 6 36 0;
#X connect 64 7 46 0;
#X connect 64 8 56 0;
#X connect 65 0 29 0;
#X connect 66 0 19 0;
#X connect 66 1 20 0;
#X connect 66 2 27 0;
#X connect 66 3 4 0;
#X connect 66 4 6 0;
#X connect 66 5 8 0;
#X connect 66 6 10 0;
#X connect 66 7 44 0;
#X connect 66 8 54 0;
#X connect 67 0 42 3;
#X connect 68 0 42 2;
#X connect 69 0 42 4;
#X connect 70 0 22 0;
#X connect 71 0 22 0;
#X connect 72 0 25 2;
#X connect 72 0 32 1;
#X connect 73 0 62 0;
#X connect 73 0 56 1;
#X coords 0 -1 1 1 302 80 1 100 100;
