#N canvas 7 194 1258 580 10;
#X obj 320 238 outlet~ brightness;
#X obj 320 49 inlet~ brightness1;
#X obj 110 163 *~;
#X obj 798 49 inlet~ xfade;
#X obj 180 163 *~;
#X obj 320 163 *~;
#X obj 440 123 *~;
#X obj 510 123 *~;
#X obj 650 123 *~;
#X obj 440 49 inlet~ H2;
#X obj 510 49 inlet~ V2;
#X obj 650 49 inlet~ brightness2;
#X text 799 189 Derek Holzer;
#X text 799 238 macumbista@gmail.com;
#X text 799 127 UNIPOLAR INPUT to CROSSFADE (0-1);
#X obj 798 106 expr~ ($v1 * -1) + 1;
#X obj 798 74 clip~ 0 1;
#X text 799 213 Helsinki May 2018;
#X obj 250 163 *~;
#X obj 110 49 inlet~ X1;
#X obj 180 49 inlet~ Y1;
#X obj 250 49 inlet~ Z1;
#X obj 110 239 outlet~ X;
#X obj 180 239 outlet~ Y;
#X obj 250 239 outlet~ Z;
#X obj 580 123 *~;
#X obj 580 49 inlet~ Z2;
#X connect 1 0 5 0;
#X connect 2 0 22 0;
#X connect 3 0 16 0;
#X connect 4 0 23 0;
#X connect 5 0 0 0;
#X connect 6 0 22 0;
#X connect 7 0 23 0;
#X connect 8 0 0 0;
#X connect 9 0 6 0;
#X connect 10 0 7 0;
#X connect 11 0 8 0;
#X connect 15 0 8 1;
#X connect 15 0 25 1;
#X connect 15 0 7 1;
#X connect 15 0 6 1;
#X connect 16 0 15 0;
#X connect 16 0 5 1;
#X connect 16 0 18 1;
#X connect 16 0 4 1;
#X connect 16 0 2 1;
#X connect 18 0 24 0;
#X connect 19 0 2 0;
#X connect 20 0 4 0;
#X connect 21 0 18 0;
#X connect 25 0 24 0;
#X connect 26 0 25 0;
