#N canvas 0 22 603 606 10;
#X obj 363 61 loadbang;
#X obj 177 18 inlet~ Z;
#X obj 37 284 *~;
#X obj 107 284 *~;
#X obj 177 284 *~;
#X obj 37 18 inlet~ H;
#X obj 107 18 inlet~ V;
#X obj 363 108 sig~;
#X obj 192 157 expr~ ($v1>($v2-1))&($v1<$v2);
#X obj 177 333 *~;
#X obj 192 61 r~ \$1-mastermultiplex;
#X obj 264 262 r~ \$1-masterblank;
#X obj 363 85 f \$2;
#X obj 37 374 throw~ \$1-H;
#X obj 107 374 throw~ \$1-V;
#X obj 177 374 throw~ \$1-Z;
#X obj 138 520 throw~ \$1-left;
#X obj 234 520 throw~ \$1-right;
#X obj 239 458 *~;
#X obj 279 458 *~;
#X obj 302 382 expr~ pow($v1 \, 8);
#X text 405 536 macumbista@gmail.com;
#X text 405 489 Derek Holzer;
#X text 405 512 Helsinki May 2017;
#X connect 0 0 12 0;
#X connect 1 0 4 0;
#X connect 1 0 20 0;
#X connect 2 0 13 0;
#X connect 3 0 14 0;
#X connect 4 0 9 0;
#X connect 5 0 2 0;
#X connect 5 0 18 0;
#X connect 6 0 3 0;
#X connect 6 0 19 0;
#X connect 7 0 8 1;
#X connect 8 0 3 1;
#X connect 8 0 2 1;
#X connect 8 0 4 1;
#X connect 9 0 15 0;
#X connect 10 0 8 0;
#X connect 11 0 9 1;
#X connect 12 0 7 0;
#X connect 18 0 16 0;
#X connect 19 0 17 0;
#X connect 20 0 18 1;
#X connect 20 0 19 1;
