#N canvas 533 23 711 632 10;
#X obj 205 22 inlet number of channels;
#X obj 21 18 inlet clock freq;
#X obj 21 44 phasor~;
#X obj 205 44 sig~;
#X text 349 345 macumbista@gmail.com;
#X obj 190 129 wrap~;
#X obj 190 72 *~;
#X obj 231 129 s~ \$1-mastermultiplex;
#X obj 371 129 s~ \$1-masterchannels;
#X obj 21 361 s~ \$1-masterblank;
#X text 349 298 Derek Holzer;
#X obj 21 330 clip~ 0 1;
#X obj 401 25 inlet blanking;
#X text 349 321 Helsinki May 2019;
#X obj 21 231 expr~ ($v1>$v2)&($v1<(1-$v2));
#X obj 401 75 sig~;
#X obj 21 129 s~ \$1-masterclock;
#X connect 0 0 3 0;
#X connect 1 0 2 0;
#X connect 2 0 6 0;
#X connect 2 0 16 0;
#X connect 3 0 6 1;
#X connect 3 0 8 0;
#X connect 5 0 14 0;
#X connect 6 0 5 0;
#X connect 6 0 7 0;
#X connect 11 0 9 0;
#X connect 12 0 15 0;
#X connect 14 0 11 0;
#X connect 15 0 14 1;
