#N canvas 498 164 761 580 10;
#X obj 137 48 catch~ \$1-H;
#X obj 207 48 catch~ \$1-V;
#X obj 277 48 catch~ \$1-Z;
#X obj 437 269 *~;
#X obj 497 135 catch~ \$1-left;
#X obj 507 165 catch~ \$1-right;
#X obj 437 296 clip~ -1 1;
#X obj 507 269 *~;
#X obj 507 296 clip~ -1 1;
#X text 613 335 macumbista@gmail.com;
#X text 613 288 Derek Holzer;
#X obj 463 48 inlet~;
#X text 613 311 Helsinki May 2019;
#X obj 277 369 outlet~ B;
#X obj 137 369 outlet~ X;
#X obj 207 369 outlet~ Y;
#X obj 437 369 outlet~ L;
#X obj 507 369 outlet~ R;
#X obj 349 48 catch~ \$1-RGB;
#X obj 349 369 outlet~ RGB;
#X connect 0 0 14 0;
#X connect 1 0 15 0;
#X connect 2 0 13 0;
#X connect 3 0 6 0;
#X connect 4 0 3 0;
#X connect 5 0 7 0;
#X connect 6 0 16 0;
#X connect 7 0 8 0;
#X connect 8 0 17 0;
#X connect 11 0 3 1;
#X connect 11 0 7 1;
#X connect 18 0 19 0;
