#N canvas 631 63 680 678 10;
#X obj 334 580 outlet~;
#X obj 315 43 inlet~ shape;
#X obj 400 43 inlet~ scale;
#X obj 334 543 *~;
#X obj 75 212 cos~;
#X obj 193 212 *~ -1;
#X obj 193 241 +~ 1;
#X obj 193 271 min~;
#X obj 193 300 *~ -4;
#X obj 193 327 +~ 1;
#X obj 40 464 expr~ ($v1*-1)+1;
#X obj 25 496 *~;
#X obj 75 496 *~;
#X obj 40 432 clip~ 0 1;
#X obj 193 497 *~;
#X obj 159 497 *~;
#X obj 174 464 expr~ ($v1*-1)+1;
#X obj 174 432 clip~ 0 1;
#X obj 174 407 -~ 1;
#X obj 334 211 expr~ if($v1<0.5 \, 1 \, -1);
#X obj 334 497 *~;
#X obj 300 497 *~;
#X obj 315 464 expr~ ($v1*-1)+1;
#X obj 315 432 clip~ 0 1;
#X obj 315 407 -~ 2;
#X obj 25 212 *~ 2;
#X obj 25 241 -~ 1;
#X obj 315 153 expr~ ($v1+1)*1.5;
#X text 475 381 macumbista@gmail.com;
#X text 64 562 -1;
#X text 64 579 saw;
#X text 204 562 1;
#X text 191 579 square;
#X text 104 562 -0.3;
#X text 106 579 sine;
#X text 154 562 0.3;
#X text 156 579 tri;
#X text 16 562 SHAPE:;
#X obj 424 543 *~;
#X obj 424 580 outlet~;
#X obj 424 463 /~ 2;
#X obj 424 498 +~ 0.5;
#X text 335 607 Bipolar;
#X text 424 604 Unipolar;
#X obj 25 43 inlet~ phasor;
#X obj 25 153 wrap~;
#X text 475 324 Derek Holzer;
#X text 475 353 Helsinki May 2017;
#X obj 25 78 *~;
#X obj 25 104 +~;
#X obj 115 43 inlet~ harmonic;
#X obj 215 43 inlet~ phase;
#X connect 1 0 27 0;
#X connect 2 0 3 1;
#X connect 2 0 38 1;
#X connect 3 0 0 0;
#X connect 3 0 40 0;
#X connect 4 0 12 0;
#X connect 5 0 6 0;
#X connect 6 0 7 0;
#X connect 7 0 8 0;
#X connect 8 0 9 0;
#X connect 9 0 14 0;
#X connect 10 0 11 1;
#X connect 11 0 15 0;
#X connect 12 0 15 0;
#X connect 13 0 10 0;
#X connect 13 0 12 1;
#X connect 14 0 21 0;
#X connect 15 0 21 0;
#X connect 16 0 15 1;
#X connect 17 0 16 0;
#X connect 17 0 14 1;
#X connect 18 0 17 0;
#X connect 19 0 20 0;
#X connect 20 0 3 0;
#X connect 21 0 3 0;
#X connect 22 0 21 1;
#X connect 23 0 22 0;
#X connect 23 0 20 1;
#X connect 24 0 23 0;
#X connect 25 0 26 0;
#X connect 26 0 11 0;
#X connect 27 0 13 0;
#X connect 27 0 18 0;
#X connect 27 0 24 0;
#X connect 38 0 39 0;
#X connect 40 0 41 0;
#X connect 41 0 38 0;
#X connect 44 0 48 0;
#X connect 45 0 5 0;
#X connect 45 0 7 1;
#X connect 45 0 4 0;
#X connect 45 0 19 0;
#X connect 45 0 25 0;
#X connect 48 0 49 0;
#X connect 49 0 45 0;
#X connect 50 0 48 1;
#X connect 51 0 49 1;
