#N canvas 345 164 761 580 10;
#X obj 294 190 clip~ 0 1;
#X obj 135 190 clip~ -1 1;
#X obj 215 190 clip~ -1 1;
#X obj 135 48 catch~ \$1-H;
#X obj 215 48 catch~ \$1-V;
#X obj 294 48 catch~ \$1-Z;
#X obj 250 269 *~;
#X obj 402 135 catch~ \$1-left;
#X obj 412 165 catch~ \$1-right;
#X obj 250 296 clip~ -1 1;
#X obj 135 329 dac~ 1 2 3 4 5;
#X obj 320 269 *~;
#X obj 320 296 clip~ -1 1;
#X text 453 335 macumbista@gmail.com;
#X text 453 288 Derek Holzer;
#X text 453 311 Helsinki May 2017;
#X obj 373 48 inlet~;
#X obj 250 329 dac~ 65 66;
#X connect 0 0 10 2;
#X connect 1 0 10 0;
#X connect 2 0 10 1;
#X connect 3 0 1 0;
#X connect 4 0 2 0;
#X connect 5 0 0 0;
#X connect 6 0 9 0;
#X connect 7 0 6 0;
#X connect 8 0 11 0;
#X connect 9 0 10 3;
#X connect 9 0 17 0;
#X connect 11 0 12 0;
#X connect 12 0 10 4;
#X connect 12 0 17 1;
#X connect 16 0 6 1;
#X connect 16 0 11 1;
