#N canvas 345 164 761 580 10;
#X obj 294 190 clip~ 0 1;
#X obj 135 190 clip~ -1 1;
#X obj 215 190 clip~ -1 1;
#X obj 135 48 catch~ \$1-H;
#X obj 215 48 catch~ \$1-V;
#X obj 294 48 catch~ \$1-Z;
#X text 563 375 macumbista@gmail.com;
#X text 563 328 Derek Holzer;
#X text 563 351 Helsinki May 2017;
#X obj 135 400 vs-ilda-throw;
#X obj 377 48 catch~ \$1-RGB;
#X obj 377 190 clip~ 0 1;
#X obj 395 279 *~;
#X obj 547 145 catch~ \$1-left;
#X obj 557 175 catch~ \$1-right;
#X obj 395 306 clip~ -1 1;
#X obj 465 279 *~;
#X obj 465 306 clip~ -1 1;
#X obj 518 58 inlet~;
#X obj 419 390 throw~ masteraudioL;
#X obj 455 412 throw~ masteraudioL;
#X connect 0 0 9 2;
#X connect 1 0 9 0;
#X connect 2 0 9 1;
#X connect 3 0 1 0;
#X connect 4 0 2 0;
#X connect 5 0 0 0;
#X connect 10 0 11 0;
#X connect 11 0 9 3;
#X connect 12 0 15 0;
#X connect 13 0 12 0;
#X connect 14 0 16 0;
#X connect 15 0 19 0;
#X connect 16 0 17 0;
#X connect 17 0 20 0;
#X connect 18 0 12 1;
#X connect 18 0 16 1;
