#N canvas 193 40 1087 650 10;
#X obj 36 242 *~;
#X obj 109 322 *~;
#X obj 36 457 outlet~ X;
#X obj 109 457 outlet~ Y;
#X obj 249 457 outlet~ brightness;
#X obj 36 77 inlet~ phasor;
#X obj 124 77 inlet~ scale;
#X obj 249 77 inlet~ brightness;
#N canvas 485 25 450 300 blanking 0;
#X obj 66 60 inlet~ brightness;
#X obj 186 60 inlet~ Hramp;
#X obj 66 200 outlet~ brightness;
#X obj 66 149 *~;
#X obj 81 109 expr~ ($v1>0.1)&($v1<0.9);
#X connect 0 0 3 0;
#X connect 1 0 4 0;
#X connect 3 0 2 0;
#X connect 4 0 3 1;
#X restore 249 336 pd blanking;
#X obj 36 185 *~;
#X obj 109 265 *~;
#X obj 528 75 inlet openX;
#X obj 741 74 inlet openY;
#N canvas 0 22 450 278 (subpatch) 0;
#X array \$0-arrayX 24 float 3;
#A 0 1 1 -1 -1 -1 -1 1 1 1 -1 -1 1 -1 -1 -1 1 1 1 1 -1 -1 -1 1 1;
#X coords 0 1 24 -1 200 140 1 0 0;
#X restore 514 427 graph;
#N canvas 0 22 450 278 (subpatch) 0;
#X array \$0-arrayY 24 float 3;
#A 0 -1 -1 -1 -1 -1 1 1 1 1 1 1 1 1 1 -1 -1 1 -1 -1 -1 1 -1 -1 1;
#X coords 0 1 24 -1 200 140 1 0 0;
#X restore 756 426 graph;
#X obj 528 104 openpanel;
#X obj 528 231 textfile;
#X msg 562 162 read \$1;
#X msg 547 207 rewind;
#X obj 555 335 list length;
#X obj 592 207 f \$0;
#X obj 528 310 array set;
#X obj 528 130 t b b s b;
#X msg 592 258 symbol \$1-arrayX;
#X obj 528 252 t a a;
#X obj 555 366 array size;
#X obj 741 104 openpanel;
#X obj 741 231 textfile;
#X msg 775 162 read \$1;
#X msg 760 207 rewind;
#X obj 768 335 list length;
#X obj 805 207 f \$0;
#X obj 741 310 array set;
#X obj 741 130 t b b s b;
#X obj 741 252 t a a;
#X obj 768 366 array size;
#X msg 805 258 symbol \$1-arrayY;
#X obj 36 217 VS-tabreadlin~ \$0-arrayX;
#X obj 109 296 VS-tabreadlin~ \$0-arrayY;
#X obj 515 366 sig~;
#X connect 0 0 2 0;
#X connect 1 0 3 0;
#X connect 5 0 8 1;
#X connect 5 0 9 0;
#X connect 5 0 10 0;
#X connect 6 0 0 1;
#X connect 6 0 1 1;
#X connect 7 0 8 0;
#X connect 8 0 4 0;
#X connect 9 0 37 0;
#X connect 10 0 38 0;
#X connect 11 0 15 0;
#X connect 12 0 26 0;
#X connect 15 0 22 0;
#X connect 16 0 24 0;
#X connect 17 0 16 0;
#X connect 18 0 16 0;
#X connect 19 0 25 0;
#X connect 19 0 39 0;
#X connect 20 0 23 0;
#X connect 22 0 16 0;
#X connect 22 1 18 0;
#X connect 22 2 17 0;
#X connect 22 3 20 0;
#X connect 23 0 25 1;
#X connect 23 0 21 2;
#X connect 24 0 21 0;
#X connect 24 1 19 0;
#X connect 26 0 33 0;
#X connect 27 0 34 0;
#X connect 28 0 27 0;
#X connect 29 0 27 0;
#X connect 30 0 35 0;
#X connect 31 0 36 0;
#X connect 33 0 27 0;
#X connect 33 1 29 0;
#X connect 33 2 28 0;
#X connect 33 3 31 0;
#X connect 34 0 32 0;
#X connect 34 1 30 0;
#X connect 36 0 35 1;
#X connect 36 0 32 2;
#X connect 37 0 0 0;
#X connect 38 0 1 0;
#X connect 39 0 10 1;
#X connect 39 0 9 1;
