#N canvas 68 76 725 682 10;
#X obj 101 118 cnv 15 300 70 empty empty empty 20 12 0 14 -233017 -66577
0;
#X obj 258 157 hsl 128 15 -1 1 0 0 empty empty empty 135 8 0 10 -4034
-1 -1 0 1;
#X obj 185 157 hradio 15 1 1 4 empty empty saw.sin.tri.sqr -13 -10
0 10 -4034 -1 -1 0;
#X text 334 294 -1;
#X text 358 294 saw;
#X text 342 354 1;
#X text 359 354 square;
#X text 322 314 -0.3;
#X text 354 314 sine;
#X text 330 334 0.3;
#X text 360 334 tri;
#X text 311 274 SHAPE:;
#X obj 188 422 sig~;
#X obj 214 122 nbx 5 14 -1e+37 1e+37 0 1 empty empty scale 60 8 0 10
-4034 -1 -1 100 256;
#X obj 204 455 sig~;
#X obj 245 289 / 100;
#X text 103 173 Bipolar output;
#X text 301 173 Unipolar output;
#X obj 141 481 VS-operator;
#X obj 188 377 VS-waveselect;
#X obj 103 122 nbx 5 14 -1e+37 1e+37 0 1 empty empty harmonic 60 8
0 10 -4034 -1 -1 1 256;
#X obj 196 321 sig~;
#X obj 309 122 nbx 5 14 -1e+37 1e+37 0 1 empty empty phase 60 8 0 10
-4034 -1 -1 0 256;
#X obj 236 350 sig~;
#X obj 236 326 / 360;
#X obj 153 41 inlet~ harm;
#X obj 233 41 inlet~ pahse;
#X obj 323 41 inlet~ wave;
#X obj 406 41 inlet~ scale;
#X obj 141 552 outlet~ bi;
#X obj 225 552 outlet~ uni;
#X text 111 156 WAVESHAPE;
#X obj 53 41 inlet~ phasor;
#X obj 434 101 savestate;
#X obj 434 276 unpack 0 0 0 0;
#X obj 485 255 pack 0 0 0 0;
#X obj 485 172 f;
#X obj 508 192 f;
#X obj 531 212 f;
#X obj 554 232 f;
#X obj 485 140 t b b b b;
#X text 389 510 Derek Holzer;
#X text 390 552 macumbista@gmail.com;
#X text 389 532 Santa Barbara Feb 2019;
#X connect 1 0 12 0;
#X connect 2 0 19 0;
#X connect 2 0 39 1;
#X connect 12 0 18 3;
#X connect 13 0 15 0;
#X connect 13 0 37 1;
#X connect 14 0 18 4;
#X connect 15 0 14 0;
#X connect 18 0 29 0;
#X connect 18 1 30 0;
#X connect 19 0 1 0;
#X connect 20 0 21 0;
#X connect 20 0 36 1;
#X connect 21 0 18 1;
#X connect 22 0 24 0;
#X connect 22 0 38 1;
#X connect 23 0 18 2;
#X connect 24 0 23 0;
#X connect 25 0 18 1;
#X connect 26 0 18 2;
#X connect 27 0 18 3;
#X connect 28 0 18 4;
#X connect 32 0 18 0;
#X connect 33 0 34 0;
#X connect 33 1 40 0;
#X connect 34 0 20 0;
#X connect 34 1 13 0;
#X connect 34 2 22 0;
#X connect 34 3 2 0;
#X connect 35 0 33 0;
#X connect 36 0 35 0;
#X connect 37 0 35 1;
#X connect 38 0 35 2;
#X connect 39 0 35 3;
#X connect 40 0 36 0;
#X connect 40 1 37 0;
#X connect 40 2 38 0;
#X connect 40 3 39 0;
#X coords 0 -1 1 1 302 90 1 100 100;
