#N canvas 253 23 962 704 10;
#X obj 48 6 inlet~ phasor;
#X obj 227 121 +~;
#X obj 48 152 wrap~;
#X obj 227 152 wrap~;
#X obj 242 6 inlet~ phase;
#X text 769 523 Derek Holzer;
#X text 770 566 macumbista@gmail.com;
#X obj 665 78 metro;
#X msg 692 55 tempo 64 samp;
#X obj 651 119 snapshot~;
#X obj 665 6 loadbang;
#X msg 665 55 1, f 2;
#X obj 665 31 t b b;
#X obj 48 559 outlet~ X;
#X obj 227 559 outlet~ Y;
#X obj 298 559 outlet~ brightness;
#X obj 411 6 inlet~ brightness;
#X obj 332 6 inlet~ scale;
#X obj 227 532 *~;
#X obj 48 532 *~;
#X obj 143 6 inlet~ segments;
#X text 769 543 Helsinki June 2019;
#X obj 651 359 f;
#X obj 687 359 + 1;
#X msg 693 330 0;
#X obj 651 329 until;
#X obj 651 391 t f f;
#X obj 552 523 tabwrite \$0-SIN;
#X obj 651 523 tabwrite \$0-COS;
#N canvas 790 251 450 300 SIN 0;
#X obj 59 180 - 0.5;
#X obj 59 25 inlet;
#X obj 59 257 outlet;
#X obj 59 203 * 6.28319;
#X obj 59 227 sin;
#X obj 59 142 / 64;
#X obj 105 25 inlet points;
#X connect 0 0 3 0;
#X connect 1 0 5 0;
#X connect 3 0 4 0;
#X connect 4 0 2 0;
#X connect 5 0 0 0;
#X connect 6 0 5 1;
#X restore 552 495 pd SIN;
#N canvas 615 38 450 300 COS 0;
#X obj 59 190 - 0.5;
#X obj 59 25 inlet;
#X obj 59 267 outlet;
#X obj 59 213 * 6.28319;
#X obj 59 237 cos;
#X obj 59 153 / 64;
#X obj 105 25 inlet points;
#X connect 0 0 3 0;
#X connect 1 0 5 0;
#X connect 3 0 4 0;
#X connect 4 0 2 0;
#X connect 5 0 0 0;
#X connect 6 0 5 1;
#X restore 651 495 pd COS;
#X obj 651 174 change;
#X obj 746 400 table \$0-SIN 64;
#X obj 755 430 table \$0-COS 64;
#X obj 678 417 + 1;
#X obj 527 6 inlet interpolation;
#X obj 527 31 sig~;
#X obj 527 55 expr~ ($v1 * -1) + 1;
#X obj 48 330 *~;
#X obj 58 350 *~;
#X obj 48 267 tabread~ \$0-SIN;
#X obj 227 329 *~;
#X obj 237 349 *~;
#X obj 227 266 tabread~ \$0-COS;
#X obj 88 300 vs-tabreadlin~ \$0-SIN;
#X obj 267 299 vs-tabreadlin~ \$0-COS;
#X text 600 601 With thx to Cedric Buron for the bitcrushing code https://github.com/cedric-buron/pure_data_patches
;
#X obj 651 241 t f b f;
#X obj 48 189 *~;
#X obj 227 188 *~;
#X obj 48 222 +~ 1;
#X obj 227 221 +~ 1;
#X obj 651 144 int;
#X obj 651 272 + 1;
#X obj 338 527 *~;
#X obj 323 455 wrap~;
#X obj 323 477 expr~ ($v1>0.01)&($v1<0.99);
#X connect 0 0 2 0;
#X connect 0 0 1 0;
#X connect 1 0 3 0;
#X connect 2 0 48 0;
#X connect 3 0 49 0;
#X connect 4 0 1 1;
#X connect 7 0 9 0;
#X connect 8 0 7 0;
#X connect 9 0 52 0;
#X connect 10 0 12 0;
#X connect 11 0 7 0;
#X connect 12 0 11 0;
#X connect 12 1 8 0;
#X connect 16 0 54 1;
#X connect 17 0 18 1;
#X connect 17 0 19 1;
#X connect 18 0 14 0;
#X connect 19 0 13 0;
#X connect 20 0 9 0;
#X connect 22 0 23 0;
#X connect 22 0 26 0;
#X connect 23 0 22 1;
#X connect 24 0 22 1;
#X connect 25 0 22 0;
#X connect 26 0 29 0;
#X connect 26 0 30 0;
#X connect 26 1 34 0;
#X connect 29 0 27 0;
#X connect 30 0 28 0;
#X connect 31 0 49 1;
#X connect 31 0 48 1;
#X connect 31 0 47 0;
#X connect 34 0 28 1;
#X connect 34 0 27 1;
#X connect 35 0 36 0;
#X connect 36 0 37 0;
#X connect 36 0 39 1;
#X connect 36 0 42 1;
#X connect 37 0 38 1;
#X connect 37 0 41 1;
#X connect 38 0 19 0;
#X connect 39 0 19 0;
#X connect 40 0 38 0;
#X connect 41 0 18 0;
#X connect 42 0 18 0;
#X connect 43 0 41 0;
#X connect 44 0 39 0;
#X connect 45 0 42 0;
#X connect 47 0 53 0;
#X connect 47 1 24 0;
#X connect 47 2 30 1;
#X connect 47 2 29 1;
#X connect 48 0 50 0;
#X connect 48 0 55 0;
#X connect 49 0 51 0;
#X connect 50 0 40 0;
#X connect 50 0 44 0;
#X connect 51 0 43 0;
#X connect 51 0 45 0;
#X connect 52 0 31 0;
#X connect 53 0 25 0;
#X connect 54 0 15 0;
#X connect 55 0 56 0;
#X connect 56 0 54 0;
