#N canvas 126 127 1100 733 10;
#X obj 19 35 cnv 15 300 500 empty empty 3D_PYRAMID 20 12 0 14 -233017
-66577 0;
#X obj 333 36 cnv 15 300 500 empty empty XYZ_ROTATION_+_MODULATION
20 12 0 14 -233017 -66577 0;
#X obj 46 502 dac~ 1 2 3;
#X obj 357 90 nbx 5 14 -1e+37 1e+37 0 1 empty empty Xrotation 0 -8
0 10 -4034 -1 -1 0 256;
#X obj 357 129 sig~;
#X obj 242 131 sig~;
#X obj 242 90 nbx 5 14 -1e+37 1e+37 0 1 empty empty brightness 0 -8
0 10 -4034 -1 -1 100 256;
#X obj 456 90 nbx 5 14 -1e+37 1e+37 0 1 empty empty Yrotation 0 -8
0 10 -4034 -1 -1 0 256;
#X obj 456 130 sig~;
#X obj 546 89 nbx 5 14 -1e+37 1e+37 0 1 empty empty Zrotation 0 -8
0 10 -4034 -1 -1 0 256;
#X obj 546 129 sig~;
#X obj 142 109 / 100;
#X obj 46 89 nbx 5 14 -1e+37 1e+37 0 1 empty empty freq 0 -8 0 10 -4034
-1 -1 100 256;
#X obj 141 134 sig~;
#X obj 142 90 nbx 5 14 -1e+37 1e+37 0 1 empty empty scale 0 -8 0 10
-4034 -1 -1 30 256;
#X obj 46 109 phasor~;
#X obj 242 109 / 100;
#X obj 357 108 / 360;
#X obj 456 108 / 360;
#X obj 546 108 / 360;
#X obj 356 168 nbx 5 14 -1e+37 1e+37 0 1 empty empty freq/100 0 -8
0 10 -4034 -1 -1 10 256;
#X obj 356 222 phasor~;
#X obj 456 168 nbx 5 14 -1e+37 1e+37 0 1 empty empty freq/100 0 -8
0 10 -4034 -1 -1 10 256;
#X obj 456 222 phasor~;
#X obj 546 168 nbx 5 14 -1e+37 1e+37 0 1 empty empty freq/100 0 -8
0 10 -4034 -1 -1 10 256;
#X obj 546 222 phasor~;
#X text 882 466 Derek Holzer;
#X text 882 490 Berlin July 2017;
#X text 882 515 macumbista@gmail.com;
#X obj 565 468 tgl 15 1 empty empty ON_OFF 17 7 0 10 -258113 -1 -1
0 1;
#X obj 565 496 switch~;
#X obj 546 192 / 100;
#X obj 456 192 / 100;
#X obj 356 192 / 100;
#X text 900 234 X (horizontal);
#X text 900 254 Y (vertical);
#X text 900 274 Z (depth);
#X text 900 294 Brightness;
#X text 883 205 OUTLETS;
#X text 673 205 INLETS;
#X text 690 234 Signal from [phasor~];
#X text 690 254 Scale (signal 0-1);
#X text 690 274 Brightness (signal 0-1);
#X obj 46 470 VS-rotate;
#X obj 46 301 VS-pyramid;
#X text 651 36 [VS-pyramid] creates a 3D vector pyramid with a square
base and triangular sides \, with brightness blanking to remove the
flyback line.;
#X connect 3 0 17 0;
#X connect 4 0 43 4;
#X connect 5 0 44 2;
#X connect 6 0 16 0;
#X connect 7 0 18 0;
#X connect 8 0 43 5;
#X connect 9 0 19 0;
#X connect 10 0 43 6;
#X connect 11 0 13 0;
#X connect 12 0 15 0;
#X connect 13 0 44 1;
#X connect 14 0 11 0;
#X connect 15 0 44 0;
#X connect 16 0 5 0;
#X connect 17 0 4 0;
#X connect 18 0 8 0;
#X connect 19 0 10 0;
#X connect 20 0 33 0;
#X connect 21 0 43 4;
#X connect 22 0 32 0;
#X connect 23 0 43 5;
#X connect 24 0 31 0;
#X connect 25 0 43 6;
#X connect 29 0 30 0;
#X connect 31 0 25 0;
#X connect 32 0 23 0;
#X connect 33 0 21 0;
#X connect 43 0 2 0;
#X connect 43 1 2 1;
#X connect 43 3 2 2;
#X connect 44 0 43 0;
#X connect 44 1 43 1;
#X connect 44 2 43 2;
#X connect 44 3 43 3;
