#N canvas 189 189 930 412 10;
#X obj 48 -164 inlet~ phasor;
#X obj 238 -49 +~;
#X obj 48 -18 wrap~;
#X obj 238 -18 wrap~;
#X obj 253 -164 inlet~ phase;
#X obj 128 -89 *~;
#X obj 143 -164 inlet~ harmonic;
#X obj 48 20 cos~;
#X obj 238 20 cos~;
#X text 694 71 Derek Holzer;
#X text 695 114 macumbista@gmail.com;
#X obj 48 64 samphold~;
#X obj 238 64 samphold~;
#X obj 128 -36 wrap~;
#X text 694 91 Helsinki May 2018;
#X obj 48 91 lop~;
#X obj 238 91 lop~;
#X obj 725 -92 metro;
#X msg 752 -115 tempo 64 samp;
#X obj 583 -18 snapshot~;
#X obj 583 -164 inlet~ smoothing;
#X obj 725 -164 loadbang;
#X msg 725 -115 1, f 2;
#X obj 725 -139 t b b;
#X obj 48 149 outlet~ X;
#X obj 238 149 outlet~ Y;
#X obj 472 149 outlet~ brightness;
#X obj 472 -164 inlet~ brightness;
#X obj 353 -164 inlet~ scale;
#X obj 238 122 *~;
#X obj 48 122 *~;
#X connect 0 0 2 0;
#X connect 0 0 5 0;
#X connect 0 0 1 0;
#X connect 1 0 3 0;
#X connect 2 0 7 0;
#X connect 3 0 8 0;
#X connect 4 0 1 1;
#X connect 5 0 13 0;
#X connect 6 0 5 1;
#X connect 7 0 11 0;
#X connect 8 0 12 0;
#X connect 11 0 15 0;
#X connect 12 0 16 0;
#X connect 13 0 11 1;
#X connect 13 0 12 1;
#X connect 15 0 30 0;
#X connect 16 0 29 0;
#X connect 17 0 19 0;
#X connect 18 0 17 0;
#X connect 19 0 15 1;
#X connect 19 0 16 1;
#X connect 20 0 19 0;
#X connect 21 0 23 0;
#X connect 22 0 17 0;
#X connect 23 0 22 0;
#X connect 23 1 18 0;
#X connect 27 0 26 0;
#X connect 28 0 29 1;
#X connect 28 0 30 1;
#X connect 29 0 25 0;
#X connect 30 0 24 0;
