#N canvas 301 23 552 460 10;
#X obj 101 115 cnv 15 180 220 empty empty empty 20 12 0 14 -233017
-66577 0;
#X obj 115 260 bng 15 250 50 0 empty empty OPEN_TRANSITIONS 17 7 0
10 -4034 -1 -1;
#X obj 115 279 bng 15 250 50 0 empty empty OPEN_SCHEDULER 17 7 0 10
-4034 -1 -1;
#X obj 115 298 bng 15 250 50 0 empty empty RESET_PHASES 17 7 0 10 -258113
-1 -1;
#X msg 299 252 vis 1;
#X msg 300 185 vis 1;
#X obj 113 131 kollabs/ds_gui \$1;
#X obj 115 340 s \$1-reset-phase;
#X obj 300 318 kollabs/ds_logic \$1;
#N canvas 6 23 386 387 \$1-scheduler 0;
#X obj 11 10 cnv 15 340 350 empty empty empty 20 12 0 14 -233017 -66577
0;
#X obj 19 19 kollabs/ds_scheduler_gui \$1;
#X obj 22 331 kollabs/ds_scheduler \$1;
#X restore 300 296 pd \$1-scheduler;
#X obj 299 274 s pd-\$1-scheduler;
#N canvas 4 438 236 166 \$1-transition 0;
#X obj 11 13 cnv 15 200 130 empty empty empty 20 12 0 14 -233017 -66577
0;
#X obj 17 18 kollabs/ds_transition_gui \$1;
#X obj 18 113 kollabs/ds_transition \$1;
#X restore 299 229 pd \$1-transition;
#X obj 300 207 s pd-\$1-transition;
#X obj 300 344 loadbang;
#X obj 223 317 nbx 5 15 0 1e+37 0 0 empty empty dollar_zero_= -85 8
0 10 -261169 -1 -1 29272 256;
#X obj 300 366 f \$1;
#X obj 351 111 s /ds/\$1/scene/current;
#X obj 351 88 t b f;
#X obj 351 66 inlet;
#X connect 1 0 5 0;
#X connect 2 0 4 0;
#X connect 3 0 7 0;
#X connect 4 0 10 0;
#X connect 5 0 12 0;
#X connect 13 0 15 0;
#X connect 15 0 14 0;
#X connect 17 0 16 0;
#X connect 17 1 16 0;
#X connect 18 0 17 0;
#X coords 0 -1 1 1 182 236 1 100 100;
