#N canvas 81 23 928 606 10;
#X obj 79 50 inlet~ X;
#X obj 149 50 inlet~ Y;
#X obj 227 49 inlet~ Z;
#X obj 295 48 inlet~ brightness;
#X obj 584 390 outlet~ brightness;
#X text 294 477 A = viewing distance;
#X text 294 497 Sx = viewing angle X;
#X text 294 517 Sy = viewing angle Y;
#X obj 227 139 clip~ -0.9 0.9;
#X obj 584 336 /~;
#X obj 599 253 expr~ ($v1+$v2);
#X obj 439 48 inlet~ A;
#X obj 235 267 expr~ (($v1-$v4)/(($v2/$v3)+1))+$v4;
#X obj 506 47 inlet~ Sx;
#X obj 591 47 inlet~ Sy;
#X obj 79 333 expr~ (($v1-$v4)/(($v2/$v3)+1))+$v4;
#X obj 686 47 inlet~ shadow;
#X text 712 297 Derek Holzer;
#X text 712 346 macumbista@gmail.com;
#X text 484 528 SOURCE: "The 3-D Oscilloscope" \, Homer B. Tilton \,
1987;
#X text 573 446 Perspective formula:;
#X text 560 480 _____;
#X text 605 485 ) + Sx;
#X text 720 480 _____;
#X text 765 485 ) + Sy;
#X obj 79 388 outlet~ Xout;
#X obj 235 388 outlet~ Yout;
#X text 504 485 Xout = (;
#X text 664 485 Yout = (;
#X text 565 494 Z/A;
#X text 725 494 Z/A;
#X text 563 475 X-Sx;
#X text 723 475 Y-Sy;
#X text 712 321 Helsinki May 2018;
#X connect 0 0 15 0;
#X connect 1 0 12 0;
#X connect 2 0 8 0;
#X connect 2 0 10 0;
#X connect 3 0 9 0;
#X connect 8 0 12 1;
#X connect 8 0 15 1;
#X connect 9 0 4 0;
#X connect 10 0 9 1;
#X connect 11 0 12 2;
#X connect 11 0 15 2;
#X connect 12 0 26 0;
#X connect 13 0 15 3;
#X connect 14 0 12 3;
#X connect 15 0 25 0;
#X connect 16 0 10 1;
