#N canvas 30 41 618 593 10;
#X obj 101 118 cnv 15 300 40 empty empty empty 20 12 0 14 -233017 -66577
0;
#X text 359 439 Derek Holzer;
#X text 359 488 macumbista@gmail.com;
#X obj 321 136 nbx 5 14 -1e+37 1e+37 0 0 \$2/shadow \$2/shadow shadow
0 -8 0 10 -4034 -1 -1 90 256;
#X obj 168 136 nbx 5 14 -1e+37 1e+37 0 0 \$2/xangle \$2/xangle view_angle_X
0 -8 0 10 -4034 -1 -1 0 256;
#X obj 246 136 nbx 5 14 -1e+37 1e+37 0 0 \$2/yangle \$2/yangle view_angle_Y
0 -8 0 10 -4034 -1 -1 0 256;
#X obj 112 317 / 360;
#X obj 135 217 / 360;
#X obj 108 136 nbx 5 14 -1e+37 1e+37 0 0 \$2/distance \$2/distance
view_dist 0 -8 0 10 -4034 -1 -1 100 256;
#X obj 99 217 / 100;
#X obj 46 405 VS-projector, f 16;
#X obj 149 317 / 100;
#X text 359 463 Helsinki May 2019;
#X obj 6 9 inlet~ X;
#X obj 61 9 inlet~ Y;
#X obj 116 9 inlet~ Z;
#X obj 171 9 inlet~ B;
#X obj 36 509 outlet~ X;
#X obj 106 509 outlet~ Y;
#X obj 176 509 outlet~ B;
#X obj 289 344 kollabs/ds_reg \$1 \$2/distance;
#X obj 289 364 kollabs/ds_reg \$1 \$2/xangle;
#X obj 289 384 kollabs/ds_reg \$1 \$2/yangle;
#X obj 289 404 kollabs/ds_reg \$1 \$2/shadow;
#X obj 316 182 savestate;
#X obj 367 236 f;
#X obj 395 236 f;
#X obj 413 256 f;
#X obj 367 204 t b b b b;
#X obj 367 299 pack 0 0 0 0;
#X obj 316 320 unpack 0 0 0 0;
#X obj 444 256 f;
#X obj 378 135 bng 15 250 50 0 empty empty ? 17 7 0 10 -4032 -1 -1
;
#X obj 409 154 s pd-\$2-help;
#X msg 409 132 vis 1;
#N canvas 0 23 488 627 \$2-help 0;
#X obj 33 11 cnv 15 300 300 empty empty HELP:vs-projector-gui 20 12
0 14 -4034 -66577 0;
#X text 67 58 1) X axis signal;
#X text 67 78 2) Y axis signal;
#X text 67 96 3) Z axis signal (ignore for 2D vectors);
#X text 67 182 1) X axis signal;
#X text 67 202 2) Y axis signal;
#X text 67 114 4) Brightness signal (0-1);
#X text 43 39 INLETS;
#X text 42 152 OUTLETS;
#X text 67 221 3) Brightness signal;
#X text 44 487 The shadow threshold determines at what point on the
Z axis the lines begin to fade.;
#X text 44 388 Viewing distance affects the perspective illusion. Smaller
values increase the perspective effect. Extreme settings will cause
noticeable distortion and high output values.;
#X text 43 435 The viewing angle settings can simulate seeing the object
from the side \, top \, or bottom. Extreme settings will cause noticeable
distortion and high output values.;
#X text 44 521 Because of the tanh "soft clipping" function applied
to brightness \, intial brightness values should be much higher (250-500).
Output brightness will never exceed 1;
#X text 43 327 [vs-projector-gui] takes a 2D or 3D input vector shape
\, and projects it into 3D space by applying a perspective transformation
as well as a brightness modulation to simulate depth.;
#X restore 409 184 pd \$2-help;
#X obj 237 71 loadbang;
#X obj 152 340 pack 0 20;
#X obj 92 340 pack 0 20;
#X obj 162 250 pack 0 20;
#X obj 102 250 pack 0 20;
#X obj 99 276 line~;
#X obj 135 276 line~;
#X obj 112 366 line~;
#X obj 149 366 line~;
#X connect 3 0 11 0;
#X connect 3 0 31 1;
#X connect 4 0 6 0;
#X connect 4 0 26 1;
#X connect 5 0 7 0;
#X connect 5 0 27 1;
#X connect 6 0 38 0;
#X connect 7 0 39 0;
#X connect 8 0 9 0;
#X connect 8 0 25 1;
#X connect 9 0 40 0;
#X connect 10 0 17 0;
#X connect 10 1 18 0;
#X connect 10 2 19 0;
#X connect 11 0 37 0;
#X connect 13 0 10 0;
#X connect 14 0 10 1;
#X connect 15 0 10 2;
#X connect 16 0 10 3;
#X connect 24 0 30 0;
#X connect 24 1 28 0;
#X connect 25 0 29 0;
#X connect 26 0 29 1;
#X connect 27 0 29 2;
#X connect 28 0 25 0;
#X connect 28 1 26 0;
#X connect 28 2 27 0;
#X connect 28 3 31 0;
#X connect 29 0 24 0;
#X connect 30 0 8 0;
#X connect 30 1 4 0;
#X connect 30 2 5 0;
#X connect 30 3 3 0;
#X connect 31 0 29 3;
#X connect 32 0 34 0;
#X connect 34 0 33 0;
#X connect 36 0 3 0;
#X connect 36 0 8 0;
#X connect 36 0 5 0;
#X connect 36 0 4 0;
#X connect 37 0 44 0;
#X connect 38 0 43 0;
#X connect 39 0 42 0;
#X connect 40 0 41 0;
#X connect 41 0 10 4;
#X connect 42 0 10 6;
#X connect 43 0 10 5;
#X connect 44 0 10 7;
#X coords 0 -1 1 1 302 60 1 100 100;
