#N canvas 38 277 882 431 10;
#X obj 278 39 inlet~ brightness;
#X obj 278 279 outlet~ brightness;
#X text 490 226 Derek Holzer;
#X text 490 275 macumbista@gmail.com;
#X obj 90 279 outlet~ X;
#X obj 147 309 outlet~ Y;
#X obj 204 339 outlet~ Z;
#X obj 408 39 inlet~ Xrotate;
#X obj 498 39 inlet~ Yrotate;
#X obj 588 39 inlet~ Zrotate;
#N canvas 51 210 698 542 rotator 0;
#X obj 91 54 inlet~ X1;
#X obj 194 54 inlet~ X2;
#X obj 368 54 inlet~ R;
#X text 307 264 X1' = X2cosR - X1sinR;
#N canvas 440 322 239 297 cos-sin 0;
#X obj 95 56 inlet~;
#X obj 95 231 outlet~;
#X obj 45 161 cos~;
#X obj 95 136 +~ 0.25;
#X obj 95 161 cos~;
#X text 134 163 SIN;
#X text 16 163 COS;
#X obj 95 110 wrap~;
#X obj 45 231 outlet~;
#X connect 0 0 7 0;
#X connect 2 0 8 0;
#X connect 3 0 4 0;
#X connect 4 0 1 0;
#X connect 7 0 2 0;
#X connect 7 0 3 0;
#X restore 368 87 pd cos-sin;
#X obj 76 345 outlet~ X1';
#X obj 171 345 outlet~ X2';
#X obj 194 157 *~;
#X obj 76 210 -~;
#X obj 91 157 *~;
#X obj 262 212 *~;
#X obj 171 212 *~;
#X text 307 284 X2' = X2sinR + X1cosR;
#X obj 171 264 +~;
#X text 346 361 Derek Holzer;
#X text 346 410 macumbista@gmail.com;
#X text 346 385 Helsinki April 2018;
#X connect 0 0 9 0;
#X connect 0 0 11 0;
#X connect 1 0 7 0;
#X connect 1 0 10 0;
#X connect 2 0 4 0;
#X connect 4 0 7 1;
#X connect 4 0 11 1;
#X connect 4 1 9 1;
#X connect 4 1 10 1;
#X connect 7 0 8 0;
#X connect 8 0 5 0;
#X connect 9 0 8 1;
#X connect 10 0 13 1;
#X connect 11 0 13 0;
#X connect 13 0 6 0;
#X restore 90 205 pd rotator;
#N canvas 51 210 698 542 rotator 0;
#X obj 91 54 inlet~ X1;
#X obj 194 54 inlet~ X2;
#X obj 368 54 inlet~ R;
#X text 307 264 X1' = X2cosR - X1sinR;
#N canvas 440 322 239 297 cos-sin 0;
#X obj 95 56 inlet~;
#X obj 95 231 outlet~;
#X obj 45 161 cos~;
#X obj 95 136 +~ 0.25;
#X obj 95 161 cos~;
#X text 134 163 SIN;
#X text 16 163 COS;
#X obj 95 110 wrap~;
#X obj 45 231 outlet~;
#X connect 0 0 7 0;
#X connect 2 0 8 0;
#X connect 3 0 4 0;
#X connect 4 0 1 0;
#X connect 7 0 2 0;
#X connect 7 0 3 0;
#X restore 368 87 pd cos-sin;
#X obj 76 345 outlet~ X1';
#X obj 171 345 outlet~ X2';
#X obj 194 157 *~;
#X obj 76 210 -~;
#X obj 91 157 *~;
#X obj 262 212 *~;
#X obj 171 212 *~;
#X text 307 284 X2' = X2sinR + X1cosR;
#X obj 171 264 +~;
#X text 346 361 Derek Holzer;
#X text 346 410 macumbista@gmail.com;
#X text 346 385 Helsinki April 2018;
#X connect 0 0 9 0;
#X connect 0 0 11 0;
#X connect 1 0 7 0;
#X connect 1 0 10 0;
#X connect 2 0 4 0;
#X connect 4 0 7 1;
#X connect 4 0 11 1;
#X connect 4 1 9 1;
#X connect 4 1 10 1;
#X connect 7 0 8 0;
#X connect 8 0 5 0;
#X connect 9 0 8 1;
#X connect 10 0 13 1;
#X connect 11 0 13 0;
#X connect 13 0 6 0;
#X restore 147 156 pd rotator;
#N canvas 51 210 698 542 rotator 0;
#X obj 91 54 inlet~ X1;
#X obj 194 54 inlet~ X2;
#X obj 368 54 inlet~ R;
#X text 307 264 X1' = X2cosR - X1sinR;
#N canvas 440 322 239 297 cos-sin 0;
#X obj 95 56 inlet~;
#X obj 95 231 outlet~;
#X obj 45 161 cos~;
#X obj 95 136 +~ 0.25;
#X obj 95 161 cos~;
#X text 134 163 SIN;
#X text 16 163 COS;
#X obj 95 110 wrap~;
#X obj 45 231 outlet~;
#X connect 0 0 7 0;
#X connect 2 0 8 0;
#X connect 3 0 4 0;
#X connect 4 0 1 0;
#X connect 7 0 2 0;
#X connect 7 0 3 0;
#X restore 368 87 pd cos-sin;
#X obj 76 345 outlet~ X1';
#X obj 171 345 outlet~ X2';
#X obj 194 157 *~;
#X obj 76 210 -~;
#X obj 91 157 *~;
#X obj 262 212 *~;
#X obj 171 212 *~;
#X text 307 284 X2' = X2sinR + X1cosR;
#X obj 171 264 +~;
#X text 346 361 Derek Holzer;
#X text 346 410 macumbista@gmail.com;
#X text 346 385 Helsinki April 2018;
#X connect 0 0 9 0;
#X connect 0 0 11 0;
#X connect 1 0 7 0;
#X connect 1 0 10 0;
#X connect 2 0 4 0;
#X connect 4 0 7 1;
#X connect 4 0 11 1;
#X connect 4 1 9 1;
#X connect 4 1 10 1;
#X connect 7 0 8 0;
#X connect 8 0 5 0;
#X connect 9 0 8 1;
#X connect 10 0 13 1;
#X connect 11 0 13 0;
#X connect 13 0 6 0;
#X restore 90 117 pd rotator;
#X text 490 250 Helsinki May 2018;
#X obj 147 39 inlet~ Z;
#X obj 31 39 inlet~ X;
#X obj 91 39 inlet~ Y;
#X obj 408 66 +~ 0.25;
#X obj 588 65 -~ 0.25;
#X connect 0 0 1 0;
#X connect 7 0 17 0;
#X connect 8 0 11 2;
#X connect 9 0 18 0;
#X connect 10 0 4 0;
#X connect 10 1 6 0;
#X connect 11 0 10 1;
#X connect 11 1 5 0;
#X connect 12 0 10 0;
#X connect 12 1 11 0;
#X connect 14 0 11 1;
#X connect 15 0 12 0;
#X connect 16 0 12 1;
#X connect 17 0 10 2;
#X connect 18 0 12 2;
