#N canvas 94 23 935 615 10;
#X text 641 504 Derek Holzer;
#X text 641 553 macumbista@gmail.com;
#X obj 101 118 cnv 15 300 120 empty empty empty 10 12 0 14 -233017
-66577 0;
#X obj 108 137 nbx 5 14 -1e+37 1e+37 0 0 \$2/frequency \$2/frequency
Vert.Freq 0 -8 0 10 -4034 -1 -1 50 256;
#X obj 184 137 nbx 5 14 -1e+37 1e+37 0 0 \$2/lines \$2/lines Horz.Lines
0 -8 0 10 -4034 -1 -1 25 256;
#X obj 128 249 / 100;
#X obj 184 168 nbx 5 14 -1e+37 1e+37 0 0 \$2/hblank \$2/hblank Horz.Blank
0 -8 0 10 -4034 -1 -1 10 256;
#X obj 176 223 / 100;
#X obj 109 168 nbx 5 14 -1e+37 1e+37 0 0 \$2/vblank \$2/vblank Vert.Blank
0 -8 0 10 -4034 -1 -1 10 256;
#X obj 130 317 / 100;
#X obj 257 137 nbx 5 14 -1e+37 1e+37 0 0 \$2/brightness \$2/brightness
Brightness 0 -8 0 10 -4034 -1 -1 100 256;
#X obj 116 408 VS-raster, f 15;
#X obj 325 170 nbx 5 14 -1e+37 1e+37 0 0 \$2/hoff \$2/hoff Horz.Off
0 -8 0 10 -4034 -1 -1 0 256;
#X obj 257 168 nbx 5 14 -1e+37 1e+37 0 0 \$2/voff \$2/voff Vert.Off
0 -8 0 10 -4034 -1 -1 0 256;
#X obj 178 364 / 100;
#X obj 178 386 sig~;
#X obj 190 270 / 100;
#X obj 88 340 sig~;
#X obj 89 365 sig~;
#X text 641 528 Helsinki May 2019;
#X obj 158 65 inlet~ frequency;
#X obj 266 65 inlet~ lines;
#X obj 348 65 inlet~ brightness;
#X obj 116 508 outlet~ X;
#X obj 176 508 outlet~ Y;
#X obj 236 508 outlet~ B;
#X obj 346 137 hradio 15 1 0 2 \$2/bipolar \$2/bipolar UniPol.BiPol
-22 -8 0 10 -4034 -1 -1 1;
#X obj 436 393 kollabs/ds_reg \$1 \$2/frequency;
#X obj 437 452 kollabs/ds_reg \$1 \$2/bipolar;
#X obj 471 115 savestate;
#X obj 522 196 f;
#X obj 545 216 f;
#X obj 568 236 f;
#X obj 591 256 f;
#X obj 562 186 f;
#X obj 585 206 f;
#X obj 608 226 f;
#X obj 631 246 f;
#X obj 659 275 f;
#N canvas 0 23 510 583 switch 0;
#X obj 65 96 inlet~ XbiP;
#X obj 145 96 inlet~ YbiP;
#X obj 225 96 inlet~ XuniP;
#X obj 305 96 inlet~ YuniP;
#X obj 66 246 *~;
#X obj 145 246 *~;
#X obj 225 246 *~;
#X obj 305 246 *~;
#X obj 391 96 inlet switch;
#X obj 391 126 select 0 1;
#X obj 67 362 outlet~ X;
#X obj 145 362 outlet~ Y;
#X msg 391 153 0;
#X msg 403 171 1;
#X msg 421 153 0;
#X msg 433 171 1;
#X connect 0 0 4 0;
#X connect 1 0 5 0;
#X connect 2 0 6 0;
#X connect 3 0 7 0;
#X connect 4 0 10 0;
#X connect 5 0 11 0;
#X connect 6 0 10 0;
#X connect 7 0 11 0;
#X connect 8 0 9 0;
#X connect 9 0 12 0;
#X connect 9 0 13 0;
#X connect 9 1 14 0;
#X connect 9 1 15 0;
#X connect 12 0 5 1;
#X connect 12 0 4 1;
#X connect 13 0 7 1;
#X connect 13 0 6 1;
#X connect 14 0 7 1;
#X connect 14 0 6 1;
#X connect 15 0 5 1;
#X connect 15 0 4 1;
#X restore 116 453 pd switch;
#X obj 207 206 hradio 20 1 0 3 empty empty HORZ.VERT.GRID -12 -8 0
10 -4034 -1 -1 2;
#X obj 436 413 kollabs/ds_reg \$1 \$2/lines;
#X obj 436 433 kollabs/ds_reg \$1 \$2/brightness;
#X obj 436 473 kollabs/ds_reg \$1 \$2/hblank;
#X obj 436 493 kollabs/ds_reg \$1 \$2/vblank;
#X obj 437 534 kollabs/ds_reg \$1 \$2/hoff;
#X obj 436 513 kollabs/ds_reg \$1 \$2/voff;
#X obj 112 208 nbx 5 14 -1e+37 1e+37 0 0 \$2/scale \$2/scale Scale
0 -8 0 10 -4034 -1 -1 25 256;
#X obj 437 554 kollabs/ds_reg \$1 \$2/scale;
#X obj 522 154 t b b b b b b b b b b;
#X obj 522 319 pack 0 0 0 0 0 0 0 0 0 0;
#X obj 472 344 unpack 0 0 0 0 0 0 0 0 0 0;
#X obj 669 245 f;
#X obj 116 485 *~;
#X obj 175 485 *~;
#X obj 238 404 / 100;
#X obj 298 404 / 100;
#X obj 375 211 bng 15 250 50 0 empty empty ? 17 7 0 10 -4032 -1 -1
;
#X obj 320 269 s pd-\$2-help;
#X msg 320 247 vis 1;
#N canvas 0 23 458 451 \$2-help 0;
#X text 24 398 This method of making rasters is a bit computationally
"expensive" \, however it is sample precise.;
#X text 23 359 Interesting effects can be achieved by directly modulating
the brightness of the raster;
#X text 22 229 [vs-raster] is designed to produce a rectangular raster
field for the [VS-scanprocessor] patch \, or for direct brightness
modulation video synthesis. It takes a vertical scan ramp from [phasor~]
\, a number of lines \, and a brightness factor. It outputs the vertical
ramp and a number of horizontal ramps phase locked to the vertical
ramp \, as well as a blanked brightness to eliminate the "flyback"
lines. The line number is multiplied by the vertical frequency \, so
you will reach the Nyquist aliasing frequenecy of a 44.1K sampling
rate very quickly!;
#X obj 36 11 cnv 15 300 200 empty empty HELP:vs-raster-gui 20 12 0
14 -4034 -66577 0;
#X text 43 36 INLETS:;
#X text 43 126 OUTLETS:;
#X text 69 149 1) X signal;
#X text 69 169 2) Y signal;
#X text 69 189 3) Brightness signal (0-1);
#X text 69 99 3) Brightness signal (0-1);
#X text 69 59 1) Frequency signal (1 \, 2 \, 3...);
#X text 69 79 2) Lines signal (1 \, 2 \, 3...);
#X restore 320 299 pd \$2-help;
#X obj 130 335 pack 0 20;
#X obj 130 356 line~;
#X obj 128 270 pack 0 20;
#X obj 176 245 pack 0 20;
#X obj 190 317 pack 0 20;
#X obj 128 292 line~;
#X obj 190 342 line~;
#X obj 176 296 line~;
#X obj 238 428 pack 0 20;
#X obj 299 428 pack 0 20;
#X obj 298 456 line~;
#X obj 238 456 line~;
#X obj 411 114 loadbang;
#X connect 3 0 17 0;
#X connect 3 0 30 1;
#X connect 4 0 18 0;
#X connect 4 0 31 1;
#X connect 5 0 63 0;
#X connect 6 0 5 0;
#X connect 6 0 35 1;
#X connect 7 0 64 0;
#X connect 8 0 7 0;
#X connect 8 0 34 1;
#X connect 9 0 61 0;
#X connect 10 0 9 0;
#X connect 10 0 32 1;
#X connect 11 0 39 0;
#X connect 11 1 39 1;
#X connect 11 2 39 2;
#X connect 11 3 39 3;
#X connect 11 4 25 0;
#X connect 12 0 14 0;
#X connect 12 0 36 1;
#X connect 13 0 16 0;
#X connect 13 0 37 1;
#X connect 14 0 15 0;
#X connect 15 0 11 5;
#X connect 16 0 65 0;
#X connect 17 0 11 0;
#X connect 18 0 11 1;
#X connect 20 0 11 0;
#X connect 21 0 11 1;
#X connect 22 0 11 2;
#X connect 26 0 39 4;
#X connect 26 0 33 1;
#X connect 29 0 51 0;
#X connect 29 1 49 0;
#X connect 30 0 50 0;
#X connect 31 0 50 1;
#X connect 32 0 50 2;
#X connect 33 0 50 3;
#X connect 34 0 50 4;
#X connect 35 0 50 5;
#X connect 36 0 50 6;
#X connect 37 0 50 7;
#X connect 38 0 50 8;
#X connect 39 0 53 0;
#X connect 39 1 54 0;
#X connect 40 0 11 7;
#X connect 40 0 38 1;
#X connect 47 0 52 1;
#X connect 47 0 55 0;
#X connect 47 0 56 0;
#X connect 49 0 30 0;
#X connect 49 1 31 0;
#X connect 49 2 32 0;
#X connect 49 3 33 0;
#X connect 49 4 34 0;
#X connect 49 5 35 0;
#X connect 49 6 36 0;
#X connect 49 7 37 0;
#X connect 49 8 38 0;
#X connect 49 9 52 0;
#X connect 50 0 29 0;
#X connect 51 0 3 0;
#X connect 51 1 4 0;
#X connect 51 2 10 0;
#X connect 51 3 26 0;
#X connect 51 4 8 0;
#X connect 51 5 6 0;
#X connect 51 6 12 0;
#X connect 51 7 13 0;
#X connect 51 8 40 0;
#X connect 51 9 47 0;
#X connect 52 0 50 9;
#X connect 53 0 23 0;
#X connect 54 0 24 0;
#X connect 55 0 69 0;
#X connect 56 0 70 0;
#X connect 57 0 59 0;
#X connect 59 0 58 0;
#X connect 61 0 62 0;
#X connect 62 0 11 2;
#X connect 63 0 66 0;
#X connect 64 0 68 0;
#X connect 65 0 67 0;
#X connect 66 0 11 3;
#X connect 67 0 11 6;
#X connect 68 0 11 4;
#X connect 69 0 72 0;
#X connect 70 0 71 0;
#X connect 71 0 54 1;
#X connect 72 0 53 1;
#X connect 73 0 26 0;
#X connect 73 0 47 0;
#X connect 73 0 40 0;
#X connect 73 0 13 0;
#X connect 73 0 12 0;
#X connect 73 0 10 0;
#X connect 73 0 8 0;
#X connect 73 0 6 0;
#X connect 73 0 4 0;
#X connect 73 0 3 0;
#X coords 0 -1 1 1 302 140 1 100 100;
