#N canvas 456 182 1166 626 10;
#X obj 471 478 outlet~ brightness;
#X text 602 434 Derek Holzer;
#X text 602 483 macumbista@gmail.com;
#X obj 336 273 expr~ $v1 && $v2;
#X text 643 220 Vertical blanking;
#X text 559 244 Horizontal blanking;
#X obj 313 21 inlet~ brightness;
#X obj 313 295 *~;
#X obj 943 21 inlet direction;
#X msg 204 162 0;
#X msg 234 162 0;
#X msg 264 162 1;
#X obj 252 478 outlet~ Xunipolar;
#X obj 362 478 outlet~ Yunipolar;
#X obj 44 478 outlet~ Xbipolar;
#X obj 147 478 outlet~ Ybipolar;
#X obj 531 20 inlet~ Hblank;
#X obj 180 110 select 0 1 2;
#X obj 624 21 inlet~ Vblank;
#N canvas 94 23 657 751 raster 0;
#X obj 377 165 samplerate~;
#X floatatom 377 190 8 0 0 0 - - -, f 8;
#X obj 296 239 expr $f2 / $f1;
#X obj 102 587 vline~;
#X obj 127 296 expr $f1 / $f2;
#X obj 127 269 t b f;
#X floatatom 295 267 8 0 0 1 samples_per_frame - -, f 8;
#X floatatom 294 289 8 0 0 1 samples_per_line - -, f 8;
#X obj 324 595 vline~;
#X obj 377 139 loadbang;
#X obj 377 211 t b f;
#X obj 127 318 int;
#X obj 127 237 clip 0 500;
#X obj 127 210 - 1;
#X obj 102 612 outlet~ horizontal;
#X obj 324 617 outlet~ vertical;
#X obj 126 157 inlet Hlines;
#X obj 296 168 inlet Vfreq;
#N canvas 0 22 450 300 dsp_test 0;
#X obj 103 86 metro 100;
#X obj 103 23 loadbang;
#X msg 103 56 1;
#X obj 60 86 bang~;
#X obj 60 149 timer;
#X obj 60 183 < 10;
#X obj 60 246 outlet;
#X text 126 149 Tests to see if DSP is on within this patch.;
#X obj 60 215 change;
#X connect 0 0 4 1;
#X connect 1 0 2 0;
#X connect 2 0 0 0;
#X connect 3 0 4 0;
#X connect 4 0 5 0;
#X connect 5 0 8 0;
#X connect 8 0 6 0;
#X restore 99 77 pd dsp_test;
#X obj 471 619 outlet reset;
#X text 124 689 Many thanks to Johannes Taelman for pointing out that
horizontal lines must be whole number of samples.;
#X obj 324 556 expr ($f1 * 2) - 1;
#X obj 100 556 expr ($f1 * 2) - 1;
#X obj 367 333 int;
#X obj 339 378 %;
#X obj 339 333 int;
#X obj 339 356 + 1;
#X obj 339 404 /;
#X obj 127 440 int;
#X obj 99 485 %;
#X obj 99 440 int;
#X obj 99 463 + 1;
#X obj 99 511 /;
#X obj 114 374 select 0;
#X msg 114 397 0;
#X obj 324 534 f;
#X obj 324 498 select 0;
#X msg 106 107 tempo 1 samp;
#X obj 99 138 metro;
#X text 123 657 Construct vertical field and horizontal lines using
metro \, counters \, and vline~;
#X obj 127 182 change;
#X obj 296 203 change;
#X obj 46 291 s \$0-bang;
#X connect 0 0 1 0;
#X connect 1 0 10 0;
#X connect 2 0 4 0;
#X connect 2 0 6 0;
#X connect 2 0 23 0;
#X connect 3 0 14 0;
#X connect 4 0 7 0;
#X connect 4 0 11 0;
#X connect 5 0 4 0;
#X connect 5 1 4 1;
#X connect 8 0 15 0;
#X connect 9 0 0 0;
#X connect 9 0 37 0;
#X connect 10 0 2 0;
#X connect 10 1 2 1;
#X connect 11 0 28 0;
#X connect 12 0 5 0;
#X connect 13 0 12 0;
#X connect 16 0 40 0;
#X connect 17 0 41 0;
#X connect 18 0 38 0;
#X connect 21 0 8 0;
#X connect 22 0 3 0;
#X connect 23 0 24 1;
#X connect 23 0 27 1;
#X connect 24 0 25 1;
#X connect 24 0 27 0;
#X connect 25 0 26 0;
#X connect 26 0 24 0;
#X connect 27 0 33 0;
#X connect 27 0 35 1;
#X connect 28 0 29 1;
#X connect 28 0 32 1;
#X connect 29 0 30 1;
#X connect 29 0 32 0;
#X connect 30 0 31 0;
#X connect 31 0 29 0;
#X connect 32 0 22 0;
#X connect 32 0 36 0;
#X connect 33 0 34 0;
#X connect 33 0 19 0;
#X connect 34 0 30 1;
#X connect 35 0 21 0;
#X connect 36 0 35 0;
#X connect 37 0 38 0;
#X connect 38 0 30 0;
#X connect 38 0 25 0;
#X connect 38 0 42 0;
#X connect 40 0 13 0;
#X connect 41 0 2 0;
#X restore 53 128 pd raster;
#N canvas 51 210 698 542 rotator 0;
#X obj 91 54 inlet~ X1;
#X obj 194 54 inlet~ X2;
#X obj 368 54 inlet~ R;
#X text 307 264 X1' = X2cosR - X1sinR;
#N canvas 440 322 239 297 cos-sin 0;
#X obj 95 56 inlet~;
#X obj 95 231 outlet~;
#X obj 45 161 cos~;
#X obj 95 136 +~ 0.25;
#X obj 95 161 cos~;
#X text 134 163 SIN;
#X text 16 163 COS;
#X obj 95 110 wrap~;
#X obj 45 231 outlet~;
#X connect 0 0 7 0;
#X connect 2 0 8 0;
#X connect 3 0 4 0;
#X connect 4 0 1 0;
#X connect 7 0 2 0;
#X connect 7 0 3 0;
#X restore 368 87 pd cos-sin;
#X obj 76 345 outlet~ X1';
#X obj 171 345 outlet~ X2';
#X obj 194 157 *~;
#X obj 76 210 -~;
#X obj 91 157 *~;
#X obj 262 212 *~;
#X obj 171 212 *~;
#X text 307 284 X2' = X2sinR + X1cosR;
#X obj 171 264 +~;
#X text 346 361 Derek Holzer;
#X text 346 410 macumbista@gmail.com;
#X text 346 385 Helsinki April 2018;
#X connect 0 0 9 0;
#X connect 0 0 11 0;
#X connect 1 0 7 0;
#X connect 1 0 10 0;
#X connect 2 0 4 0;
#X connect 4 0 7 1;
#X connect 4 0 11 1;
#X connect 4 1 9 1;
#X connect 4 1 10 1;
#X connect 7 0 8 0;
#X connect 8 0 5 0;
#X connect 9 0 8 1;
#X connect 10 0 13 1;
#X connect 11 0 13 0;
#X connect 13 0 6 0;
#X restore 52 314 pd rotator;
#X obj 104 210 sig~;
#X obj 391 632 dac~ 1 2;
#X obj 104 238 * 0.25;
#X obj 429 219 expr~ ($v1>($v2+ -1))&($v1<(1-$v2));
#X obj 336 244 expr~ ($v1>($v2+ -1))&($v1<(1-$v2));
#X obj 252 450 expr~ ($v1*0.5)+ 0.5;
#X obj 362 428 expr~ ($v1*0.5)+ 0.5;
#X obj 721 20 inlet~ Hoff;
#X obj 814 21 inlet~ Voff;
#X obj 104 166 tgl 15 0 empty empty empty 17 7 0 10 -262144 -1 -1 0
1;
#X obj 104 187 spigot;
#X msg 181 140 1;
#X msg 211 140 0;
#N canvas 48 72 450 300 snapshot 0;
#X obj 118 27 r \$0-bang;
#X obj 37 27 inlet~ sig;
#X obj 37 253 outlet float;
#X text 178 198 Derek Holzer;
#X text 179 254 macumbista@gmail.com;
#X text 177 226 September 2018 Helsinki;
#X obj 37 183 snapshot~;
#X obj 118 143 spigot;
#X obj 230 93 switch~;
#X obj 230 71 tgl 15 0 empty empty empty 17 7 0 10 -262144 -1 -1 1
1;
#X obj 230 28 inlet dsp test;
#X connect 0 0 7 0;
#X connect 1 0 6 0;
#X connect 6 0 2 0;
#X connect 7 0 6 0;
#X connect 9 0 8 0;
#X connect 9 0 7 1;
#X connect 10 0 9 0;
#X restore 44 80 pd snapshot;
#N canvas 0 22 450 300 dsp_test 0;
#X obj 103 86 metro 100;
#X obj 103 23 loadbang;
#X msg 103 56 1;
#X obj 60 86 bang~;
#X obj 60 149 timer;
#X obj 60 183 < 10;
#X obj 60 246 outlet;
#X text 126 149 Tests to see if DSP is on within this patch.;
#X obj 60 215 change;
#X connect 0 0 4 1;
#X connect 1 0 2 0;
#X connect 2 0 0 0;
#X connect 3 0 4 0;
#X connect 4 0 5 0;
#X connect 5 0 8 0;
#X connect 8 0 6 0;
#X restore 107 51 pd dsp_test;
#X obj 44 21 inlet~ Vfreq;
#N canvas 48 72 450 300 snapshot 0;
#X obj 118 27 r \$0-bang;
#X obj 37 27 inlet~ sig;
#X obj 37 253 outlet float;
#X text 178 198 Derek Holzer;
#X text 179 254 macumbista@gmail.com;
#X text 177 226 September 2018 Helsinki;
#X obj 37 183 snapshot~;
#X obj 118 143 spigot;
#X obj 230 93 switch~;
#X obj 230 71 tgl 15 0 empty empty empty 17 7 0 10 -262144 -1 -1 1
1;
#X obj 230 28 inlet dsp test;
#X connect 0 0 7 0;
#X connect 1 0 6 0;
#X connect 6 0 2 0;
#X connect 7 0 6 0;
#X connect 9 0 8 0;
#X connect 9 0 7 1;
#X connect 10 0 9 0;
#X restore 134 80 pd snapshot;
#X obj 183 21 inlet~ Hlines;
#X text 602 458 Helsinki September 2018;
#X connect 3 0 7 1;
#X connect 6 0 7 0;
#X connect 7 0 0 0;
#X connect 8 0 17 0;
#X connect 9 0 31 1;
#X connect 10 0 31 1;
#X connect 11 0 31 1;
#X connect 16 0 25 1;
#X connect 17 0 32 0;
#X connect 17 0 9 0;
#X connect 17 1 33 0;
#X connect 17 1 10 0;
#X connect 17 2 11 0;
#X connect 18 0 24 1;
#X connect 19 0 20 0;
#X connect 19 0 25 0;
#X connect 19 1 20 1;
#X connect 19 1 24 0;
#X connect 19 2 31 0;
#X connect 20 0 26 0;
#X connect 20 0 14 0;
#X connect 20 1 27 0;
#X connect 20 1 15 0;
#X connect 21 0 20 2;
#X connect 23 0 21 0;
#X connect 24 0 3 1;
#X connect 25 0 3 0;
#X connect 26 0 12 0;
#X connect 27 0 13 0;
#X connect 28 0 20 0;
#X connect 29 0 20 1;
#X connect 30 0 23 0;
#X connect 31 0 30 0;
#X connect 32 0 23 0;
#X connect 33 0 23 0;
#X connect 34 0 19 1;
#X connect 35 0 34 1;
#X connect 35 0 37 1;
#X connect 36 0 34 0;
#X connect 37 0 19 0;
#X connect 38 0 37 0;
