#N canvas 106 342 758 413 10;
#X obj 107 170 expr~ ($v1-$v2)*($v5-$v4)/($v3-$v2)+$v4;
#X obj 107 74 inlet~;
#X obj 164 74 inlet~;
#X obj 222 74 inlet~;
#X obj 280 74 inlet~;
#X obj 338 74 inlet~;
#X text 463 69 INPUT MIN;
#X text 463 89 INPUT MAX;
#X text 463 109 OUTPUT MIN;
#X text 463 129 OUTPUT MAX;
#X obj 107 216 outlet~;
#X obj 378 170 f \$1;
#X obj 434 170 f \$2;
#X obj 490 170 f \$3;
#X obj 547 170 f \$4;
#X obj 603 130 loadbang;
#X obj 377 201 sig~;
#X obj 434 201 sig~;
#X obj 490 201 sig~;
#X obj 547 201 sig~;
#X connect 0 0 10 0;
#X connect 1 0 0 0;
#X connect 2 0 0 1;
#X connect 3 0 0 2;
#X connect 4 0 0 3;
#X connect 5 0 0 4;
#X connect 11 0 16 0;
#X connect 12 0 17 0;
#X connect 13 0 18 0;
#X connect 14 0 19 0;
#X connect 15 0 14 0;
#X connect 15 0 13 0;
#X connect 15 0 12 0;
#X connect 15 0 11 0;
#X connect 16 0 0 1;
#X connect 17 0 0 2;
#X connect 18 0 0 3;
#X connect 19 0 0 4;
