#N canvas 92 23 827 703 10;
#X obj 101 118 cnv 15 300 100 empty empty empty 20 12 0 14 -233017
-66577 0;
#X obj 119 133 nbx 5 14 -1e+37 1e+37 0 0 \$2/xrot \$2/xrot Xrotation
0 -8 0 10 -4034 -1 -1 0 256;
#X obj 188 133 nbx 5 14 -1e+37 1e+37 0 0 \$2/yrot \$2/yrot Yrotation
0 -8 0 10 -4034 -1 -1 45 256;
#X obj 258 132 nbx 5 14 -1e+37 1e+37 0 0 \$2/zrot \$2/zrot Zrotation
0 -8 0 10 -4034 -1 -1 120 256;
#X obj 59 250 / 360;
#X obj 98 250 / 360;
#X obj 138 250 / 360;
#X obj 118 197 nbx 5 14 -1e+37 1e+37 0 0 \$2/xfreq-100 \$2/xfreq-100
Xfreq/100 0 -8 0 10 -257985 -1 -1 0 256;
#X obj 222 475 phasor~;
#X obj 188 197 nbx 5 14 -1e+37 1e+37 0 0 \$2/yfreq-100 \$2/yfreq-100
Yfreq/100 0 -8 0 10 -257985 -1 -1 0 256;
#X obj 282 475 phasor~;
#X obj 258 197 nbx 5 14 -1e+37 1e+37 0 0 \$2/zfreq-100 \$2/zfreq-100
Zfreq/100 0 -8 0 10 -257985 -1 -1 5 256;
#X obj 342 475 phasor~;
#X text 621 575 Derek Holzer;
#X text 621 624 macumbista@gmail.com;
#X obj 342 295 / 100;
#X obj 282 295 / 100;
#X obj 222 295 / 100;
#X obj 94 436 VS-rotate, f 11;
#X text 621 599 Helsinki May 2019;
#X obj 282 373 *~;
#X obj 342 373 *~;
#X obj 222 373 *~;
#X obj 118 164 nbx 5 14 -1e+37 1e+37 0 0 \$2/xfreq \$2/xfreq Xfreq
0 -8 0 10 -257985 -1 -1 0 256;
#X obj 188 164 nbx 5 14 -1e+37 1e+37 0 0 \$2/yfreq \$2/yfreq Yfreq
0 -8 0 10 -257985 -1 -1 0 256;
#X obj 258 164 nbx 5 14 -1e+37 1e+37 0 0 \$2/zfreq \$2/zfreq Zfreq
0 -8 0 10 -257985 -1 -1 0 256;
#X obj 292 438 *~;
#X obj 352 438 *~;
#X obj 232 438 *~;
#X obj 323 196 bng 15 250 50 0 empty empty Reset 0 -8 0 10 -258113
-1 -1;
#X msg 262 441 0;
#X obj 268 271 line~;
#X obj 6 9 inlet~ X;
#X obj 61 9 inlet~ Y;
#X obj 116 9 inlet~ Z;
#X obj 171 9 inlet~ B;
#X obj 36 509 outlet~ X;
#X obj 106 509 outlet~ Y;
#X obj 176 509 outlet~ Z;
#X obj 246 509 outlet~ B;
#X obj 226 9 inlet~ Xrot;
#X obj 311 9 inlet~ Yrot;
#X obj 396 9 inlet~ Zrot;
#X obj 399 543 kollabs/ds_reg \$1 \$2/xrot;
#X obj 399 563 kollabs/ds_reg \$1 \$2/yrot;
#X obj 399 583 kollabs/ds_reg \$1 \$2/zrot;
#X obj 399 603 kollabs/ds_reg \$1 \$2/xfreq;
#X obj 399 623 kollabs/ds_reg \$1 \$2/yfreq;
#X obj 399 643 kollabs/ds_reg \$1 \$2/zfreq;
#X obj 398 463 kollabs/ds_reg \$1 \$2/xfreq-100;
#X obj 398 483 kollabs/ds_reg \$1 \$2/yfreq-100;
#X obj 398 503 kollabs/ds_reg \$1 \$2/zfreq-100;
#X obj 333 53 r \$1-reset-phase;
#X obj 399 523 kollabs/ds_reg \$1 \$2/intlfo;
#X obj 489 153 savestate;
#X obj 540 206 f;
#X obj 563 226 f;
#X obj 586 246 f;
#X obj 609 266 f;
#X obj 540 174 t b b b b b b b b b b;
#X obj 490 314 unpack 0 0 0 0 0 0 0 0 0 0;
#X obj 540 289 pack 0 0 0 0 0 0 0 0 0 0;
#X obj 580 206 f;
#X obj 603 226 f;
#X obj 626 246 f;
#X obj 649 266 f;
#X obj 630 206 f;
#X obj 653 226 f;
#X obj 48 79 loadbang;
#X obj 324 163 hradio 15 1 0 2 \$2/intlfo \$2/intlfo Ext.Int -5 -8
0 10 -257985 -1 -1 1;
#X obj 376 196 bng 15 250 50 0 empty empty ? 17 7 0 10 -4032 -1 -1
;
#X obj 479 116 s pd-\$2-help;
#X msg 479 94 vis 1;
#N canvas 0 23 446 503 \$2-help 0;
#X obj 33 11 cnv 15 300 300 empty empty HELP:vs-rotate-gui 20 12 0
14 -4034 -66577 0;
#X text 67 58 1) X axis signal;
#X text 67 78 2) Y axis signal;
#X text 67 96 3) Z axis signal (ignore for 2D vectors);
#X text 67 232 1) X axis signal;
#X text 67 252 2) Y axis signal;
#X text 67 270 3) Z axis signal (ignore for 2D projection);
#X text 67 288 4) Brightness signal;
#X text 67 114 4) Brightness signal (0-1);
#X text 43 39 INLETS;
#X text 67 135 5) X rotation (0-1);
#X text 67 155 6) Y rotation (0-1);
#X text 67 175 7) Z rotation (0-1);
#X text 42 202 OUTLETS;
#X text 33 325 [VS-rotate] rotates a 2D or 3D vector shape into 3D
space.;
#X text 37 411 A Zrotation of 120 degrees shows proper horizontal/vertical
movement for Xrotation and Yrotation.;
#X text 33 355 To make a simple projection to 2D space \, connect only
the X \, Y \, and brightness outlets to the [dac~]. For a projection
with perspective effects \, please see [VS-projector].;
#X restore 479 146 pd \$2-help;
#X obj 18 284 pack 0 20;
#X obj 78 284 pack 0 20;
#X obj 138 284 pack 0 20;
#X obj 59 311 line~;
#X obj 98 312 line~;
#X obj 138 311 line~;
#X obj 230 388 pack 0 20;
#X obj 290 388 pack 0 20;
#X obj 350 388 pack 0 20;
#X obj 268 250 pack 0 20;
#X obj 223 328 pack 0 20;
#X obj 283 328 pack 0 20;
#X obj 343 328 pack 0 20;
#X obj 222 349 line~;
#X obj 282 349 line~;
#X obj 342 349 line~;
#X obj 232 414 line~;
#X obj 292 414 line~;
#X obj 352 414 line~;
#X connect 1 0 4 0;
#X connect 1 0 55 1;
#X connect 2 0 5 0;
#X connect 2 0 56 1;
#X connect 3 0 6 0;
#X connect 3 0 57 1;
#X connect 4 0 74 0;
#X connect 5 0 75 0;
#X connect 6 0 76 0;
#X connect 7 0 17 0;
#X connect 7 0 65 1;
#X connect 8 0 18 4;
#X connect 9 0 16 0;
#X connect 9 0 66 1;
#X connect 10 0 18 5;
#X connect 11 0 15 0;
#X connect 11 0 67 1;
#X connect 12 0 18 6;
#X connect 15 0 86 0;
#X connect 16 0 85 0;
#X connect 17 0 84 0;
#X connect 18 0 36 0;
#X connect 18 1 37 0;
#X connect 18 2 38 0;
#X connect 18 3 39 0;
#X connect 20 0 10 0;
#X connect 21 0 12 0;
#X connect 22 0 8 0;
#X connect 23 0 58 1;
#X connect 23 0 80 0;
#X connect 24 0 62 1;
#X connect 24 0 81 0;
#X connect 25 0 63 1;
#X connect 25 0 82 0;
#X connect 26 0 10 0;
#X connect 27 0 12 0;
#X connect 28 0 8 0;
#X connect 29 0 30 0;
#X connect 30 0 8 1;
#X connect 30 0 12 1;
#X connect 30 0 10 1;
#X connect 31 0 22 1;
#X connect 31 0 21 1;
#X connect 31 0 20 1;
#X connect 31 0 28 1;
#X connect 31 0 27 1;
#X connect 31 0 26 1;
#X connect 32 0 18 0;
#X connect 33 0 18 1;
#X connect 34 0 18 2;
#X connect 35 0 18 3;
#X connect 40 0 18 4;
#X connect 41 0 18 5;
#X connect 42 0 18 6;
#X connect 52 0 29 0;
#X connect 54 0 60 0;
#X connect 54 1 59 0;
#X connect 55 0 61 0;
#X connect 56 0 61 1;
#X connect 57 0 61 2;
#X connect 58 0 61 3;
#X connect 59 0 55 0;
#X connect 59 1 56 0;
#X connect 59 2 57 0;
#X connect 59 3 58 0;
#X connect 59 4 62 0;
#X connect 59 5 63 0;
#X connect 59 6 64 0;
#X connect 59 7 65 0;
#X connect 59 8 66 0;
#X connect 59 9 67 0;
#X connect 60 0 1 0;
#X connect 60 1 2 0;
#X connect 60 2 3 0;
#X connect 60 3 23 0;
#X connect 60 4 24 0;
#X connect 60 5 25 0;
#X connect 60 6 69 0;
#X connect 60 7 7 0;
#X connect 60 8 9 0;
#X connect 60 9 11 0;
#X connect 61 0 54 0;
#X connect 62 0 61 4;
#X connect 63 0 61 5;
#X connect 64 0 61 6;
#X connect 65 0 61 7;
#X connect 66 0 61 8;
#X connect 67 0 61 9;
#X connect 68 0 2 0;
#X connect 68 0 29 0;
#X connect 68 0 25 0;
#X connect 68 0 24 0;
#X connect 68 0 23 0;
#X connect 68 0 11 0;
#X connect 68 0 9 0;
#X connect 68 0 7 0;
#X connect 68 0 3 0;
#X connect 68 0 1 0;
#X connect 68 0 69 0;
#X connect 69 0 64 1;
#X connect 69 0 83 0;
#X connect 70 0 72 0;
#X connect 72 0 71 0;
#X connect 74 0 77 0;
#X connect 75 0 78 0;
#X connect 76 0 79 0;
#X connect 77 0 18 4;
#X connect 78 0 18 5;
#X connect 79 0 18 6;
#X connect 80 0 90 0;
#X connect 81 0 91 0;
#X connect 82 0 92 0;
#X connect 83 0 31 0;
#X connect 84 0 87 0;
#X connect 85 0 88 0;
#X connect 86 0 89 0;
#X connect 87 0 22 0;
#X connect 88 0 20 0;
#X connect 89 0 21 0;
#X connect 90 0 28 0;
#X connect 91 0 26 0;
#X connect 92 0 27 0;
#X coords 0 -1 1 1 302 120 1 100 100;
