#N canvas 84 31 1166 626 10;
#X obj 471 478 outlet~ brightness;
#X obj 128 141 *~;
#X obj 143 21 inlet~ Hrampmult;
#X obj 44 261 samphold~;
#X text 602 404 Derek Holzer;
#X text 602 453 macumbista@gmail.com;
#X obj 336 223 expr~ $v1 && $v2;
#X text 643 170 Vertical blanking;
#X text 559 194 Horizontal blanking;
#X obj 44 21 inlet~ Vramp;
#X obj 313 21 inlet~ brightness;
#X obj 313 245 *~;
#X obj 336 191 expr~ ($v1>($v2+0))&($v1<(1-$v2));
#X obj 429 169 expr~ ($v1>($v2+0))&($v1<(1-$v2));
#X obj 192 314 expr~ $v1 < 0.5;
#X obj 212 334 expr~ $v1 > 0.5;
#X text 602 428 Helsinki June 2018;
#X obj 44 385 *~;
#X obj 74 385 *~;
#X obj 147 385 *~;
#X obj 177 385 *~;
#X obj 147 405 +~;
#X obj 44 405 +~;
#X obj 44 84 *~ 2;
#X obj 44 105 wrap~;
#X obj 943 21 inlet direction;
#X obj 192 246 sig~;
#X msg 212 184 0;
#X obj 270 245 sig~;
#X obj 272 274 *~;
#X msg 242 184 0;
#X msg 249 132 0;
#X msg 272 184 1;
#X msg 189 132 0;
#X msg 219 132 1;
#X obj 252 478 outlet~ Xunipolar;
#X obj 362 478 outlet~ Yunipolar;
#X obj 44 478 outlet~ Xbipolar;
#X obj 147 478 outlet~ Ybipolar;
#X obj 531 20 inlet~ Hblank;
#X obj 44 430 expr~ (($v1*2)-1)* 0.5;
#X obj 147 452 expr~ (($v1*2)-1) * 0.5;
#X obj 128 202 wrap~;
#X obj 188 102 select 0 1 2;
#X obj 624 21 inlet~ Vblank;
#X connect 1 0 42 0;
#X connect 2 0 1 1;
#X connect 3 0 12 0;
#X connect 3 0 19 0;
#X connect 3 0 17 0;
#X connect 6 0 11 1;
#X connect 9 0 29 0;
#X connect 9 0 23 0;
#X connect 10 0 11 0;
#X connect 11 0 0 0;
#X connect 12 0 6 0;
#X connect 13 0 6 1;
#X connect 14 0 17 1;
#X connect 14 0 20 1;
#X connect 15 0 18 1;
#X connect 15 0 19 1;
#X connect 17 0 22 0;
#X connect 18 0 22 1;
#X connect 19 0 21 0;
#X connect 20 0 21 1;
#X connect 21 0 36 0;
#X connect 21 0 41 0;
#X connect 22 0 35 0;
#X connect 22 0 40 0;
#X connect 23 0 24 0;
#X connect 24 0 3 0;
#X connect 24 0 1 0;
#X connect 25 0 43 0;
#X connect 26 0 14 0;
#X connect 26 0 15 0;
#X connect 27 0 28 0;
#X connect 28 0 29 1;
#X connect 29 0 14 0;
#X connect 29 0 15 0;
#X connect 30 0 28 0;
#X connect 31 0 26 0;
#X connect 32 0 28 0;
#X connect 33 0 26 0;
#X connect 34 0 26 0;
#X connect 39 0 12 1;
#X connect 40 0 37 0;
#X connect 41 0 38 0;
#X connect 42 0 3 1;
#X connect 42 0 18 0;
#X connect 42 0 20 0;
#X connect 42 0 13 0;
#X connect 43 0 33 0;
#X connect 43 0 27 0;
#X connect 43 1 34 0;
#X connect 43 1 30 0;
#X connect 43 2 31 0;
#X connect 43 2 32 0;
#X connect 44 0 13 1;
