#N canvas 122 127 570 344 10;
#X obj 97 160 expr ($f1-$f2)*($f5-$f4)/($f3-$f2)+$f4;
#X obj 97 64 inlet;
#X obj 153 64 inlet;
#X obj 209 64 inlet;
#X obj 265 64 inlet;
#X obj 322 64 inlet;
#X obj 97 226 outlet;
#X obj 153 104 f \$1;
#X obj 209 104 f \$2;
#X obj 265 104 f \$3;
#X obj 322 104 f \$4;
#X obj 378 64 loadbang;
#X text 393 109 INPUT MIN;
#X text 393 129 INPUT MAX;
#X text 393 149 OUTPUT MIN;
#X text 393 169 OUTPUT MAX;
#X text 393 89 INPUT SIGNAL to be modified;
#X connect 0 0 6 0;
#X connect 1 0 0 0;
#X connect 2 0 7 0;
#X connect 3 0 8 0;
#X connect 4 0 9 0;
#X connect 5 0 10 0;
#X connect 7 0 0 1;
#X connect 8 0 0 2;
#X connect 9 0 0 3;
#X connect 10 0 0 4;
#X connect 11 0 10 0;
#X connect 11 0 9 0;
#X connect 11 0 8 0;
#X connect 11 0 7 0;
