#N canvas 365 87 897 703 10;
#X obj 54 43 cnv 15 400 500 empty empty empty 20 12 0 14 -233017 -66577
0;
#X text 712 486 Derek Holzer;
#X text 712 535 macumbista@gmail.com;
#X obj 61 433 cnv 15 100 60 empty empty empty 20 12 0 14 -191407 -66577
0;
#X obj 67 177 phasor~;
#X obj 67 48 nbx 5 14 -1e+37 1e+37 0 1 empty empty base_frequency 60
8 0 10 -4034 -1 -1 2000 256;
#X obj 129 134 sig~;
#X obj 129 91 nbx 5 14 -1e+37 1e+37 0 1 empty empty phase 60 8 0 10
-4034 -1 -1 90 256;
#X obj 89 112 sig~;
#X obj 89 88 / 100;
#X obj 89 67 nbx 5 14 -1e+37 1e+37 0 1 empty empty harmonic 60 8 0
10 -4034 -1 -1 100 256;
#X obj 173 272 sig~;
#X obj 173 249 / 100;
#X obj 173 230 nbx 5 14 -1e+37 1e+37 0 1 empty empty Xscale 60 8 0
10 -4034 -1 -1 10 256;
#X obj 265 492 tgl 15 1 empty empty ON_OFF 17 7 0 10 -258113 -1 -1
0 1;
#X obj 265 520 switch~;
#X obj 67 513 dac~ 1 2 3;
#X obj 209 177 sig~;
#X obj 209 152 / 100;
#X obj 209 132 nbx 5 14 -1e+37 1e+37 0 1 empty empty brightness 60
8 0 10 -4034 -1 -1 100 256;
#X obj 129 112 / 360;
#X obj 213 294 sig~;
#X obj 213 271 / 100;
#X obj 213 252 nbx 5 14 -1e+37 1e+37 0 1 empty empty Yscale 60 8 0
10 -4034 -1 -1 10 256;
#X obj 268 331 phasor~;
#X obj 268 294 nbx 5 14 -1e+37 1e+37 0 1 empty empty mod_freq 60 8
0 10 -4034 -1 -1 503 256;
#X obj 268 372 *~;
#X obj 321 355 sig~;
#X obj 321 331 / 100;
#X obj 321 310 nbx 5 14 -1e+37 1e+37 0 1 empty empty mod_amt 60 8 0
10 -4034 -1 -1 100 256;
#X obj 268 395 *~;
#X obj 370 334 tgl 15 1 empty empty mod_on_off 17 7 0 10 -4034 -1 -1
1 1;
#X text 484 182 INLETS;
#X text 510 268 Brightness signal;
#X text 484 360 OUTLETS;
#X text 510 212 X axis signal;
#X text 510 232 Y axis signal;
#X text 510 446 Brightness signal;
#X text 510 390 X axis signal;
#X text 510 410 Y axis signal;
#X text 510 250 Z axis signal (ignore for 2D vectors);
#X text 510 428 Z axis signal (ignore for 2D projection);
#X text 510 288 X scaling signal;
#X text 510 308 Y scaling signal;
#X text 510 328 Z scaling signal;
#X obj 67 453 VS-scale, f 18;
#X text 482 120 Automated scaling is done via any sort of changing
audio signal \, i.e. from [phasor~] or from the [VS-operator] abstractions.
;
#X text 481 41 [VS-scale] allows scaling (size change) of the horizontal
\, vertical and depth dimensions of a 2D or 3D vector figure. Brightness
values are passed through. In the case of a 2D figure \, such as the
[VS-circle] shown here \, the Z inlet is unused.;
#X obj 67 228 VS-sine-circle;
#X obj 168 154 sig~;
#X obj 168 131 / 100;
#X obj 168 112 nbx 5 14 -1e+37 1e+37 0 1 empty empty scale 60 8 0 10
-4034 -1 -1 25 256;
#X text 712 510 Helsinki June 2018;
#X connect 4 0 48 0;
#X connect 5 0 4 0;
#X connect 6 0 48 2;
#X connect 7 0 20 0;
#X connect 8 0 48 1;
#X connect 9 0 8 0;
#X connect 10 0 9 0;
#X connect 11 0 45 4;
#X connect 12 0 11 0;
#X connect 13 0 12 0;
#X connect 14 0 15 0;
#X connect 17 0 48 4;
#X connect 18 0 17 0;
#X connect 19 0 18 0;
#X connect 20 0 6 0;
#X connect 21 0 45 5;
#X connect 22 0 21 0;
#X connect 23 0 22 0;
#X connect 24 0 26 0;
#X connect 25 0 24 0;
#X connect 26 0 30 0;
#X connect 27 0 26 1;
#X connect 28 0 27 0;
#X connect 29 0 28 0;
#X connect 30 0 45 5;
#X connect 30 0 45 4;
#X connect 31 0 30 1;
#X connect 45 0 16 0;
#X connect 45 1 16 1;
#X connect 45 3 16 2;
#X connect 48 0 45 0;
#X connect 48 1 45 1;
#X connect 48 2 45 3;
#X connect 49 0 48 3;
#X connect 50 0 49 0;
#X connect 51 0 50 0;
