#N canvas 0 22 850 663 10;
#X obj 74 122 phasor~;
#X obj 74 165 +~;
#X obj 74 200 cos~;
#X obj 137 122 sig~;
#X obj 137 43 nbx 5 14 -1e+37 1e+37 0 1 empty empty PHASE_(0) 0 -8
0 10 -260097 -1 -1 0 256;
#X obj 74 43 nbx 5 14 -1e+37 1e+37 0 1 empty empty FRQ_(90) 0 -8 0
10 -260097 -1 -1 93 256;
#X obj 74 73 sig~;
#X obj 137 73 / 360;
#X obj 224 122 phasor~;
#X obj 224 200 cos~;
#X obj 224 43 nbx 5 14 -1e+37 1e+37 0 1 empty empty FRQ_(33-185) 0
-8 0 10 -257985 -1 -1 230 256;
#X obj 224 73 sig~;
#X obj 644 122 phasor~;
#X obj 644 165 +~;
#X obj 644 200 cos~;
#X obj 717 122 sig~;
#X obj 717 43 nbx 5 14 -1e+37 1e+37 0 1 empty empty PHASE_(0) 0 -8
0 10 -4032 -1 -1 0 256;
#X obj 644 43 nbx 5 14 -1e+37 1e+37 0 1 empty empty FRQ_(85-290) 0
-8 0 10 -4032 -1 -1 185 256;
#X obj 644 73 sig~;
#X obj 717 73 / 360;
#X obj 224 263 *~;
#X obj 513 263 *~;
#X obj 300 165 +~;
#X obj 300 200 cos~;
#X obj 315 122 sig~;
#X obj 315 43 nbx 5 14 -1e+37 1e+37 0 1 empty empty PHASE_(180) 0 -8
0 10 -257985 -1 -1 180 256;
#X obj 315 73 / 360;
#X obj 444 122 phasor~;
#X obj 444 165 +~;
#X obj 444 200 cos~;
#X obj 527 122 sig~;
#X obj 527 43 nbx 5 14 -1e+37 1e+37 0 1 empty empty PHASE_(45) 0 -8
0 10 -4034 -1 -1 45 256;
#X obj 444 43 nbx 5 14 -1e+37 1e+37 0 1 empty empty FRQ_(100-20K) 0
-8 0 10 -4034 -1 -1 20000 256;
#X obj 444 73 sig~;
#X obj 527 73 / 360;
#X obj 528 165 +~;
#X obj 528 200 cos~;
#X obj 587 122 sig~;
#X obj 587 97 / 360;
#X obj 74 320 +~;
#X obj 629 320 +~;
#X obj 74 380 *~;
#X obj 629 380 *~;
#X obj 74 410 +~;
#X obj 629 410 +~;
#X obj 74 440 dac~ 1;
#X obj 629 440 dac~ 2;
#X obj 357 316 sig~;
#X obj 357 273 nbx 5 14 -1e+37 1e+37 0 1 empty empty SCALE_XY 0 -8
0 10 -228856 -1 -1 20 256;
#X obj 357 293 / 100;
#X obj 297 316 sig~;
#X obj 297 273 nbx 5 14 -1e+37 1e+37 0 1 empty empty POS_X 0 -8 0 10
-203904 -1 -1 0 256;
#X obj 297 293 / 100;
#X obj 417 316 sig~;
#X obj 417 273 nbx 5 14 -1e+37 1e+37 0 1 empty empty POS_Y 0 -8 0 10
-232576 -1 -1 0 256;
#X obj 417 293 / 100;
#X obj 311 464 tgl 15 1 empty empty ON_OFF 17 7 0 10 -258113 -1 -1
1 1;
#X obj 311 492 switch~;
#X obj 312 572 dac~ 3;
#X obj 312 547 sig~;
#X obj 312 525 tgl 15 0 empty empty empty 17 7 0 10 -262144 -1 -1 1
1;
#X obj 587 72 * -1;
#X text 665 549 Derek Holzer;
#X text 665 587 macumbista@gmail.com;
#X text 665 568 Helsinki SEP 2018;
#X text 75 575 Send constant brightness to Vectrex;
#X obj 116 260 adc~ 1;
#X obj 676 260 adc~ 2;
#X text 453 486 Based on Syntheshape - Oscilloscope Art Generator \,
"Projects in Sight \, Sound and Sensation" \, Mitchell Waite \, 1974
;
#X connect 0 0 1 0;
#X connect 1 0 2 0;
#X connect 2 0 39 0;
#X connect 3 0 1 1;
#X connect 4 0 7 0;
#X connect 5 0 6 0;
#X connect 6 0 0 0;
#X connect 7 0 3 0;
#X connect 8 0 22 0;
#X connect 8 0 9 0;
#X connect 9 0 20 0;
#X connect 10 0 11 0;
#X connect 11 0 8 0;
#X connect 12 0 13 0;
#X connect 13 0 14 0;
#X connect 14 0 40 1;
#X connect 15 0 13 1;
#X connect 16 0 19 0;
#X connect 17 0 18 0;
#X connect 18 0 12 0;
#X connect 19 0 15 0;
#X connect 20 0 39 1;
#X connect 21 0 40 0;
#X connect 22 0 23 0;
#X connect 23 0 21 0;
#X connect 24 0 22 1;
#X connect 25 0 26 0;
#X connect 26 0 24 0;
#X connect 27 0 28 0;
#X connect 27 0 35 0;
#X connect 28 0 29 0;
#X connect 29 0 20 1;
#X connect 30 0 28 1;
#X connect 31 0 34 0;
#X connect 31 0 61 0;
#X connect 32 0 33 0;
#X connect 33 0 27 0;
#X connect 34 0 30 0;
#X connect 35 0 36 0;
#X connect 36 0 21 1;
#X connect 37 0 35 1;
#X connect 38 0 37 0;
#X connect 39 0 41 0;
#X connect 40 0 42 0;
#X connect 41 0 43 0;
#X connect 42 0 44 0;
#X connect 43 0 45 0;
#X connect 44 0 46 0;
#X connect 47 0 41 1;
#X connect 47 0 42 1;
#X connect 48 0 49 0;
#X connect 49 0 47 0;
#X connect 50 0 43 1;
#X connect 51 0 52 0;
#X connect 52 0 50 0;
#X connect 53 0 44 1;
#X connect 54 0 55 0;
#X connect 55 0 53 0;
#X connect 56 0 57 0;
#X connect 59 0 58 0;
#X connect 60 0 59 0;
#X connect 61 0 38 0;
#X connect 66 0 39 1;
#X connect 67 0 40 1;
