#N canvas 401 116 1057 701 10;
#X obj 22 173 cnv 15 420 160 empty empty empty 20 12 0 14 -233017 -66577
0;
#X text 557 13 This patch aims to emulate the famous Rutt-Etra scan
processor by plotting digital video or images into audio signals sent
to an X/Y analog monitor with brightness control \, and draws inspiration
from a similar MaxMSP patch by Ivan Marusic Klif.;
#X text 788 534 Derek Holzer;
#X text 789 590 macumbista@gmail.com;
#X obj 28 19 vs-gemhead-master;
#X text 787 562 September 2018 Helsinki;
#X obj 42 238 nbx 5 14 -1e+37 1e+37 0 1 empty empty Hblank 60 8 0 10
-4034 -1 -1 25 256;
#X obj 147 238 nbx 5 14 -1e+37 1e+37 0 1 empty empty Vblank 60 8 0
10 -4034 -1 -1 25 256;
#X obj 253 238 nbx 5 14 -1e+37 1e+37 0 1 empty empty Brightness 60
8 0 10 -4034 -1 -1 500 256;
#X obj 147 198 nbx 5 14 -1e+37 1e+37 0 1 empty empty Vsize 60 8 0 10
-4034 -1 -1 100 256;
#X obj 42 198 nbx 5 14 -1e+37 1e+37 0 1 empty empty Hsize 60 8 0 10
-4034 -1 -1 100 256;
#X obj 147 218 nbx 5 14 -1e+37 1e+37 0 1 empty empty Vpos 60 8 0 10
-4034 -1 -1 0 256;
#X obj 42 218 nbx 5 14 -1e+37 1e+37 0 1 empty empty Hpos 60 8 0 10
-4034 -1 -1 0 256;
#X obj 253 218 nbx 5 14 -1e+37 1e+37 0 1 empty empty Zdeflect 60 8
0 10 -4034 -1 -1 12 256;
#X obj 253 198 nbx 5 14 -1e+37 1e+37 0 1 empty empty Zoom 60 8 0 10
-4034 -1 -1 0 256;
#X obj 275 262 vradio 20 1 1 2 empty empty empty 0 -8 0 10 -262144
-1 -1 0;
#X text 303 266 internal raster;
#X text 303 283 external source;
#X obj 42 177 nbx 5 14 0 1e+37 0 1 empty empty Vertical_frequency 60
8 0 10 -4034 -1 -1 25 256;
#X obj 253 177 nbx 5 14 0 1e+37 0 1 empty empty Horizontal_lines 60
8 0 10 -4034 -1 -1 80 256;
#N canvas 165 36 994 218 control 0;
#X obj 213 30 inlet;
#X obj 213 56 / 100;
#X obj 213 105 line~;
#X obj 213 81 pack 0 20;
#X obj 213 131 outlet~;
#X obj 283 30 inlet;
#X obj 283 56 / 100;
#X obj 283 105 line~;
#X obj 283 81 pack 0 20;
#X obj 283 131 outlet~;
#X obj 353 30 inlet;
#X obj 353 56 / 100;
#X obj 353 105 line~;
#X obj 353 81 pack 0 20;
#X obj 353 131 outlet~;
#X obj 423 30 inlet;
#X obj 423 56 / 100;
#X obj 423 105 line~;
#X obj 423 81 pack 0 20;
#X obj 423 131 outlet~;
#X obj 493 30 inlet;
#X obj 493 56 / 100;
#X obj 493 105 line~;
#X obj 493 81 pack 0 20;
#X obj 493 131 outlet~;
#X obj 563 30 inlet;
#X obj 563 56 / 100;
#X obj 563 105 line~;
#X obj 563 81 pack 0 20;
#X obj 563 131 outlet~;
#X obj 633 30 inlet;
#X obj 633 56 / 100;
#X obj 633 105 line~;
#X obj 633 81 pack 0 20;
#X obj 633 131 outlet~;
#X obj 703 30 inlet;
#X obj 703 56 / 100;
#X obj 703 105 line~;
#X obj 703 81 pack 0 20;
#X obj 703 131 outlet~;
#X obj 773 30 inlet;
#X obj 773 56 / 100;
#X obj 773 105 line~;
#X obj 773 81 pack 0 20;
#X obj 773 131 outlet~;
#X obj 83 30 inlet;
#X obj 83 105 line~;
#X obj 83 81 pack 0 20;
#X obj 83 131 outlet~;
#X obj 153 30 inlet;
#X obj 153 105 line~;
#X obj 153 81 pack 0 20;
#X obj 153 131 outlet~, f 35;
#X connect 0 0 1 0;
#X connect 1 0 3 0;
#X connect 2 0 4 0;
#X connect 3 0 2 0;
#X connect 5 0 6 0;
#X connect 6 0 8 0;
#X connect 7 0 9 0;
#X connect 8 0 7 0;
#X connect 10 0 11 0;
#X connect 11 0 13 0;
#X connect 12 0 14 0;
#X connect 13 0 12 0;
#X connect 15 0 16 0;
#X connect 16 0 18 0;
#X connect 17 0 19 0;
#X connect 18 0 17 0;
#X connect 20 0 21 0;
#X connect 21 0 23 0;
#X connect 22 0 24 0;
#X connect 23 0 22 0;
#X connect 25 0 26 0;
#X connect 26 0 28 0;
#X connect 27 0 29 0;
#X connect 28 0 27 0;
#X connect 30 0 31 0;
#X connect 31 0 33 0;
#X connect 32 0 34 0;
#X connect 33 0 32 0;
#X connect 35 0 36 0;
#X connect 36 0 38 0;
#X connect 37 0 39 0;
#X connect 38 0 37 0;
#X connect 40 0 41 0;
#X connect 41 0 43 0;
#X connect 42 0 44 0;
#X connect 43 0 42 0;
#X connect 45 0 47 0;
#X connect 46 0 48 0;
#X connect 47 0 46 0;
#X connect 49 0 51 0;
#X connect 50 0 52 0;
#X connect 51 0 50 0;
#X restore 42 280 pd control scaling;
#X obj 377 192 vradio 20 1 1 3 empty empty empty 0 -8 0 10 -262144
-1 -1 0;
#X text 406 215 VERT;
#X text 406 196 HORZ;
#X text 405 235 GRID;
#X obj 338 41 cnv 15 200 120 empty empty EXTERNAL_XY_SOURCE 20 12 0
14 -233017 -66577 0;
#N canvas 0 22 537 469 spiral 0;
#X obj 67 177 phasor~;
#X obj 67 48 nbx 5 14 -1e+37 1e+37 0 1 empty empty base_frequency 60
8 0 10 -4034 -1 -1 2019 256;
#X obj 129 134 sig~;
#X obj 129 91 nbx 5 14 -1e+37 1e+37 0 1 empty empty phase 60 8 0 10
-4034 -1 -1 90 256;
#X obj 89 112 sig~;
#X obj 89 88 / 100;
#X obj 89 67 nbx 5 14 -1e+37 1e+37 0 1 empty empty harmonic 60 8 0
10 -4034 -1 -1 100 256;
#X obj 129 112 / 360;
#X obj 67 228 VS-sine-circle;
#X obj 67 271 outlet~ H;
#X obj 137 271 outlet~ V;
#X obj 127 177 phasor~;
#X obj 229 124 nbx 5 14 -1e+37 1e+37 0 1 empty empty modulation_frequency
60 8 0 10 -4034 -1 -1 132 256;
#X obj 67 22 inlet BaseFreq;
#X text 268 219 Derek Holzer;
#X text 269 275 macumbista@gmail.com;
#X text 267 247 September 2018 Helsinki;
#X obj 184 177 phasor~;
#X obj 229 22 inlet SizModFreq;
#X obj 349 22 inlet PhaseModFreq;
#X obj 349 92 nbx 5 14 -1e+37 1e+37 0 1 empty empty modulation_frequency
60 8 0 10 -4034 -1 -1 0.5 256;
#X connect 0 0 8 0;
#X connect 1 0 0 0;
#X connect 2 0 8 2;
#X connect 3 0 7 0;
#X connect 4 0 8 1;
#X connect 5 0 4 0;
#X connect 6 0 5 0;
#X connect 7 0 2 0;
#X connect 8 0 9 0;
#X connect 8 1 10 0;
#X connect 11 0 8 3;
#X connect 12 0 11 0;
#X connect 13 0 1 0;
#X connect 17 0 8 2;
#X connect 18 0 12 0;
#X connect 19 0 20 0;
#X connect 20 0 17 0;
#X restore 341 126 pd spiral;
#X obj 341 67 nbx 5 14 -1e+37 1e+37 0 1 empty empty base_freq 60 8
0 10 -4034 -1 -1 2019 256;
#X obj 392 105 nbx 5 14 -1e+37 1e+37 0 1 empty empty phase_mod_freq
60 8 0 10 -4034 -1 -1 0.5 256;
#X obj 366 87 nbx 5 14 -1e+37 1e+37 0 1 empty empty size_mod_freq 60
8 0 10 -4034 -1 -1 132 256;
#X obj 22 345 cnv 15 420 160 empty empty empty 20 12 0 14 -233017 -66577
0;
#X obj 23 517 cnv 15 420 160 empty empty empty 20 12 0 14 -233017 -66577
0;
#X obj 28 645 dac~ 1 2 3;
#X obj 259 368 nbx 5 14 -1e+37 1e+37 0 1 empty empty Xrotation 0 -8
0 10 -4034 -1 -1 0 256;
#X obj 259 407 sig~;
#X obj 320 369 nbx 5 14 -1e+37 1e+37 0 1 empty empty Yrotation 0 -8
0 10 -4034 -1 -1 0 256;
#X obj 320 409 sig~;
#X obj 380 369 nbx 5 14 -1e+37 1e+37 0 1 empty empty Zrotation 0 -8
0 10 -4034 -1 -1 0 256;
#X obj 380 409 sig~;
#X obj 259 386 / 360;
#X obj 320 387 / 360;
#X obj 380 388 / 360;
#X obj 368 621 sig~;
#X obj 368 600 / 100;
#X obj 368 580 nbx 5 14 -1e+37 1e+37 0 1 empty empty shadow 0 -8 0
10 -4034 -1 -1 100 256;
#X obj 249 592 sig~;
#X obj 249 551 nbx 5 14 -1e+37 1e+37 0 1 empty empty view_angle_X 0
-8 0 10 -4034 -1 -1 0 256;
#X obj 308 566 nbx 5 14 -1e+37 1e+37 0 1 empty empty view_angle_Y 0
-8 0 10 -4034 -1 -1 0 256;
#X obj 249 571 / 360;
#X obj 308 586 / 360;
#X obj 189 577 sig~;
#X obj 189 536 nbx 5 14 -1e+37 1e+37 0 1 empty empty view_distance
0 -8 0 10 -4034 -1 -1 100 256;
#X obj 189 556 / 100;
#X obj 308 606 sig~;
#X obj 187 621 nbx 5 14 -1e+37 1e+37 0 1 empty empty Scale 0 -8 0 10
-4034 -1 -1 0.3 256;
#X obj 187 639 sig~;
#X obj 28 612 vs-scale, f 22;
#X obj 28 581 vs-projector, f 16;
#X obj 28 463 vs-rotate, f 28;
#X obj 309 482 switch~;
#X obj 309 462 tgl 15 0 empty empty SWITCH_PATCH_ON/OFF 17 7 0 10 -258113
-1 -1 0 1;
#X text 555 92 Results are very dependent on your sampling rate. Optimum
samping rate is 192K.;
#N canvas 0 22 560 391 SOFTWARE 0;
#X text 23 15 Requirements:;
#X text 62 168 with Horizontal \, Vertical and Brightness inputs;
#X text 35 149 * Oscilloscope \, vector monitor \, or Vectrex;
#X text 35 96 * Gem (Help->Find externals "Gem");
#X text 36 49 * Pd 0.45 or newer \, 32 bit version only;
#X text 57 69 (Pd Extended and 64 bit won't work!);
#X text 34 193 * Or use Hansi Raber's "Oscilloscope!" app + SoundFlower
(MacOS);
#X text 49 231 https://github.com/kritzikratzi/Oscilloscope/releases/tag/1.0.9
;
#X text 36 119 * DC coupled soundcard @ 192K sampling rate for best
results;
#X restore 558 315 pd SOFTWARE HARDWARE REQUIREMENTS README;
#X text 555 137 Use the internal raster for horizonal \, vertical \,
or grid lines. Other shapes can be used to drive the [scanprocessor]
abstraction. Try the spiral XY source in the upper right \, for example.
;
#X text 561 345 INPUTS;
#X text 587 372 1) Gemlist;
#X text 587 388 2) Vertical Frequency;
#X text 587 402 3) Horizontal Lines;
#X text 587 433 5) Vertical Size;
#X text 587 449 6) Zoom (summed w/ Hsize \, Vsize);
#X text 587 463 7) Horizontal Position;
#X text 587 479 8) Vertical Position;
#X text 787 372 9) Z Axis Deflection;
#X text 787 388 10) Horizontal Blanking;
#X text 787 402 11) Vertical Blanking;
#X text 787 418 12) Brightness;
#X text 787 433 13) External Vertical Signal;
#X text 787 449 14) External Horizontal Signal;
#X text 787 479 16) Internal/External Source (int: 0 \, 1);
#X text 787 463 15) Raster Mode (int: 0 \, 1 \, 2);
#X text 561 517 OUTPUTS;
#X text 587 544 1) X signal;
#X text 587 560 2) Y signal;
#X text 587 574 3) Z signal;
#X text 587 590 4) Brightness signal;
#X obj 28 316 vs-scanprocessor, f 36;
#X text 555 204 Hsize \, Vsize \, and Zoom can all be used to zoom
into an image \, even down to single pixels. Hpos and Vpos can be used
to scroll around inside a zoomed image. Zdeflect adds the brightness
signal to the Z axis for the classic "Vasulka effect" when projected
in 3D space with [vs-projector]. All numeric parameters can be controlled
with audio signals.;
#X text 587 418 4) Horizontal Size;
#X connect 4 0 85 0;
#X connect 6 0 20 8;
#X connect 7 0 20 9;
#X connect 8 0 20 10;
#X connect 9 0 20 3;
#X connect 10 0 20 2;
#X connect 11 0 20 6;
#X connect 12 0 20 5;
#X connect 13 0 20 7;
#X connect 14 0 20 4;
#X connect 15 0 85 15;
#X connect 18 0 20 0;
#X connect 19 0 20 1;
#X connect 20 0 85 1;
#X connect 20 1 85 2;
#X connect 20 2 85 3;
#X connect 20 3 85 4;
#X connect 20 4 85 5;
#X connect 20 5 85 6;
#X connect 20 6 85 7;
#X connect 20 7 85 8;
#X connect 20 8 85 9;
#X connect 20 9 85 10;
#X connect 20 10 85 11;
#X connect 21 0 85 14;
#X connect 26 0 85 12;
#X connect 26 1 85 13;
#X connect 27 0 26 0;
#X connect 28 0 26 2;
#X connect 29 0 26 1;
#X connect 33 0 39 0;
#X connect 34 0 58 4;
#X connect 35 0 40 0;
#X connect 36 0 58 5;
#X connect 37 0 41 0;
#X connect 38 0 58 6;
#X connect 39 0 34 0;
#X connect 40 0 36 0;
#X connect 41 0 38 0;
#X connect 42 0 57 7;
#X connect 43 0 42 0;
#X connect 44 0 43 0;
#X connect 45 0 57 5;
#X connect 46 0 48 0;
#X connect 47 0 49 0;
#X connect 48 0 45 0;
#X connect 49 0 53 0;
#X connect 50 0 57 4;
#X connect 51 0 52 0;
#X connect 52 0 50 0;
#X connect 53 0 57 6;
#X connect 54 0 55 0;
#X connect 55 0 56 4;
#X connect 55 0 56 5;
#X connect 56 0 32 0;
#X connect 56 1 32 1;
#X connect 56 3 32 2;
#X connect 57 0 56 0;
#X connect 57 1 56 1;
#X connect 57 2 56 3;
#X connect 58 0 57 0;
#X connect 58 1 57 1;
#X connect 58 2 57 2;
#X connect 58 3 57 3;
#X connect 60 0 59 0;
#X connect 85 0 58 0;
#X connect 85 1 58 1;
#X connect 85 2 58 2;
#X connect 85 3 58 3;
