#N canvas 441 23 1193 739 10;
#X obj 7 16 inlet gemlist;
#X text 453 576 Derek Holzer;
#X text 455 633 macumbista@gmail.com;
#X obj 309 719 outlet~ brightness;
#X obj 309 565 *~;
#X obj 92 196 *~;
#X obj 92 258 +~;
#X obj 132 197 *~;
#X obj 132 259 +~;
#X obj 17 719 outlet~ X;
#X obj 84 719 outlet~ Y;
#X obj 222 719 outlet~ Z;
#X obj 324 37 inlet~ brightness;
#X obj 906 37 switch~;
#X obj 906 17 inlet switch;
#X obj 237 565 *~;
#X obj 99 565 *~;
#X obj 32 565 *~;
#X obj 17 595 +~;
#X obj 84 595 +~;
#X obj 222 595 +~;
#X obj 731 17 inlet~ Xdeflect;
#X obj 768 37 inlet~ Ydeflect;
#X obj 808 57 inlet~ Zdeflect;
#X obj 502 16 inlet~ Xsize;
#X obj 542 36 inlet~ Ysize;
#X obj 602 16 inlet~ Xpos;
#X obj 642 36 inlet~ Ypos;
#N canvas 217 140 1136 641 getpixdata 0;
#X obj 205 71 inlet~ X;
#X obj 325 71 inlet~ Y;
#X obj 90 239 outlet~ Z;
#X obj 90 71 inlet gemlist;
#N canvas 0 22 450 278 (subpatch) 0;
#X array \$1-pix-x 64 float 2;
#X coords 0 1 64 -1 200 140 1 0 0;
#X restore 333 185 graph;
#N canvas 0 22 450 278 (subpatch) 0;
#X array \$1-pix-y 64 float 2;
#X coords 0 1 64 -1 200 140 1 0 0;
#X restore 543 187 graph;
#N canvas 239 23 669 529 pix 0;
#X obj 76 338 pix_data;
#X obj 130 485 outlet~;
#X obj 188 98 block~ 1;
#X obj 106 156 i;
#X obj 106 212 % 64;
#X obj 75 122 metro;
#X obj 182 65 tgl 15 0 empty empty empty 17 7 0 10 -262144 -1 -1 1
1;
#X msg 75 97 tempo \$1 samp;
#X obj 121 365 vline~;
#X obj 106 189 + 1;
#X obj 91 38 inlet gemlist;
#X obj 182 38 inlet on_off;
#X obj 75 73 nbx 5 14 0 1e+37 0 1 empty empty empty 0 -8 0 10 -262144
-1 -1 1 256;
#X text 148 157 with thanks to IOhannes Zmoelnig;
#X obj 106 257 tabread \$1-pix-x;
#X obj 121 287 tabread \$1-pix-y;
#X connect 0 2 8 0;
#X connect 3 0 9 0;
#X connect 4 0 3 1;
#X connect 4 0 14 0;
#X connect 4 0 15 0;
#X connect 5 0 0 0;
#X connect 5 0 3 0;
#X connect 6 0 5 0;
#X connect 7 0 5 0;
#X connect 8 0 1 0;
#X connect 9 0 4 0;
#X connect 10 0 0 1;
#X connect 11 0 6 0;
#X connect 12 0 7 0;
#X connect 14 0 0 2;
#X connect 15 0 0 3;
#X restore 90 151 pd pix;
#X obj 692 71 inlet on_off;
#X obj 205 104 tabsend~ \$1-pix-x;
#X obj 325 104 tabsend~ \$1-pix-y;
#X connect 0 0 8 0;
#X connect 1 0 9 0;
#X connect 3 0 6 0;
#X connect 6 0 2 0;
#X connect 7 0 6 1;
#X restore 7 354 pd getpixdata;
#X text 343 521 PLEASE SEE V-scanprocessorXYZ-help.pd for details;
#X text 333 490 USAGE [V-scanprocessorXYZ \$0];
#X obj 93 16 inlet~ X;
#X obj 120 36 inlet~ Y;
#X obj 304 659 expr~ ($v1 * 2) + 0.5;
#X obj 222 626 expr~ $v1+($v2 * -0.5);
#X obj 92 288 wrap~;
#X obj 132 288 wrap~;
#X obj 222 536 *~ -0.5;
#X obj 84 655 expr~ (($v1*2)-1) * 0.25;
#X obj 17 625 expr~ (($v1*2)-1) * 0.25;
#X text 454 606 Helsinki June 2018;
#X connect 0 0 28 0;
#X connect 4 0 3 0;
#X connect 5 0 6 0;
#X connect 6 0 35 0;
#X connect 7 0 8 0;
#X connect 8 0 36 0;
#X connect 12 0 4 1;
#X connect 14 0 13 0;
#X connect 14 0 28 3;
#X connect 15 0 20 1;
#X connect 16 0 19 1;
#X connect 17 0 18 1;
#X connect 18 0 39 0;
#X connect 19 0 38 0;
#X connect 20 0 34 0;
#X connect 21 0 17 1;
#X connect 22 0 16 1;
#X connect 22 0 37 0;
#X connect 23 0 15 1;
#X connect 23 0 34 1;
#X connect 24 0 5 1;
#X connect 25 0 7 1;
#X connect 26 0 6 1;
#X connect 27 0 8 1;
#X connect 28 0 4 0;
#X connect 28 0 17 0;
#X connect 28 0 16 0;
#X connect 28 0 15 0;
#X connect 31 0 5 0;
#X connect 31 0 18 0;
#X connect 32 0 7 0;
#X connect 32 0 19 0;
#X connect 34 0 33 0;
#X connect 34 0 11 0;
#X connect 35 0 28 1;
#X connect 36 0 28 2;
#X connect 37 0 20 0;
#X connect 38 0 10 0;
#X connect 39 0 9 0;
