#N canvas 728 60 1027 705 10;
#X text 376 474 Derek Holzer;
#X text 376 523 macumbista@gmail.com;
#X obj 410 93 savestate;
#X obj 461 137 f;
#X obj 476 157 f;
#X obj 492 177 f;
#X obj 508 138 f;
#X obj 538 168 f;
#X obj 550 145 f;
#X obj 488 64 s pd-\$2-help;
#X msg 488 42 vis 1;
#N canvas 21 23 476 677 \$2-help 0;
#X obj 36 18 cnv 15 300 250 empty empty HELP:vs-scanprocessor-gui 20
12 0 14 -4034 -66577 0;
#X text 42 41 INLETS:;
#X text 39 277 This patch aims to emulate the famous Rutt-Etra scan
processor by plotting digital video or images into audio signals sent
to an X/Y analog monitor with brightness control \, and draws inspiration
from a similar MaxMSP patch by Ivan Marusic Klif.;
#X text 37 356 Results are very dependent on your sampling rate. Optimum
samping rate is 192K.;
#N canvas 0 22 560 391 SOFTWARE 0;
#X text 23 15 Requirements:;
#X text 62 168 with Horizontal \, Vertical and Brightness inputs;
#X text 35 149 * Oscilloscope \, vector monitor \, or Vectrex;
#X text 35 96 * Gem (Help->Find externals "Gem");
#X text 36 49 * Pd 0.45 or newer \, 32 bit version only;
#X text 57 69 (Pd Extended and 64 bit won't work!);
#X text 34 193 * Or use Hansi Raber's "Oscilloscope!" app + SoundFlower
(MacOS);
#X text 49 231 https://github.com/kritzikratzi/Oscilloscope/releases/tag/1.0.9
;
#X text 36 119 * DC coupled soundcard @ 192K sampling rate for best
results;
#X restore 39 550 pd SOFTWARE HARDWARE REQUIREMENTS README;
#N canvas 689 576 600 413 INPUTS 0;
#X text 289 227 Derek Holzer;
#X text 290 283 macumbista@gmail.com;
#X text 288 255 September 2018 Helsinki;
#X text 62 38 INPUTS;
#X text 88 65 1) Gemlist;
#X text 88 81 2) Vertical Frequency;
#X text 88 95 3) Horizontal Lines;
#X text 88 126 5) Vertical Size;
#X text 88 142 6) Zoom (summed w/ Hsize \, Vsize);
#X text 88 156 7) Horizontal Position;
#X text 88 172 8) Vertical Position;
#X text 288 65 9) Z Axis Deflection;
#X text 288 81 10) Horizontal Blanking;
#X text 288 95 11) Vertical Blanking;
#X text 288 111 12) Brightness;
#X text 288 126 13) External Vertical Signal;
#X text 288 142 14) External Horizontal Signal;
#X text 288 172 16) Internal/External Source (int: 0 \, 1);
#X text 288 156 15) Raster Mode (int: 0 \, 1 \, 2);
#X text 62 210 OUTPUTS;
#X text 88 237 1) X signal;
#X text 88 253 2) Y signal;
#X text 88 267 3) Z signal;
#X text 88 283 4) Brightness signal;
#X text 88 111 4) Horizontal Size;
#X restore 39 581 pd INPUTS OUTPUTS HELP;
#X text 85 60 1) Gemlist;
#X text 85 99 3) External Y axis signal;
#X text 85 80 2) External X axis signal;
#X text 42 131 OUTLETS:;
#X text 85 170 1) External X axis signal;
#X text 85 189 2) External Y axis signal;
#X text 85 209 3) External Z axis signal;
#X text 85 229 4) Brightness signal;
#X text 37 401 Use the internal raster for horizonal \, vertical \,
or grid lines. Other shapes can be used to drive the [scanprocessor]
abstraction. Try a spiral XY source \, for example.;
#X text 37 458 Hsize \, Vsize \, and Zoom can all be used to zoom into
an image \, even down to single pixels. Hpos and Vpos can be used to
scroll around inside a zoomed image. Zdeflect adds the brightness signal
to the Z axis for the classic "Vasulka effect" when projected in 3D
space with [vs-projector-gui].;
#X restore 569 64 pd \$2-help;
#X obj 580 145 f;
#X obj 600 165 f;
#X obj 620 185 f;
#X obj 396 42 loadbang;
#X obj 640 145 f;
#X obj 660 165 f;
#X obj 669 185 f;
#X obj 693 144 f;
#X obj 84 -3 inlet gemlist;
#X obj 199 -3 inlet~ extyX;
#X obj 284 -3 inlet~ extY;
#X obj 101 118 cnv 15 300 160 empty empty empty 20 12 0 14 -233017
-66577 0;
#X obj 109 224 nbx 5 14 -1e+37 1e+37 0 0 \$2/Hblank \$2/Hblank Hblank
0 -8 0 10 -4034 -1 -1 0 256;
#X obj 214 224 nbx 5 14 -1e+37 1e+37 0 0 \$2/Vblank \$2/Vblank Vblank
0 -8 0 10 -4034 -1 -1 0 256;
#X obj 320 224 nbx 5 14 -1e+37 1e+37 0 0 \$2/Brite \$2/Brite Brightness
0 -8 0 10 -4034 -1 -1 298 256;
#X obj 212 162 nbx 5 14 -1e+37 1e+37 0 0 \$2/Vsize \$2/Vsize Vsize
0 -8 0 10 -4034 -1 -1 4 256;
#X obj 107 162 nbx 5 14 -1e+37 1e+37 0 0 \$2/Hsize \$2/Hsize Hsize
0 -8 0 10 -4034 -1 -1 1 256;
#X obj 213 193 nbx 5 14 -1e+37 1e+37 0 0 \$2/Vpos \$2/Vpos Vpos 0 -8
0 10 -4034 -1 -1 -50 256;
#X obj 108 193 nbx 5 14 -1e+37 1e+37 0 0 \$2/Hpos \$2/Hpos Hpos 0 -8
0 10 -4034 -1 -1 50 256;
#X obj 319 193 nbx 5 14 -1e+37 1e+37 0 0 \$2/Zdeflect \$2/Zdeflect
Zdeflect 0 -8 0 10 -4034 -1 -1 0 256;
#X obj 318 162 nbx 5 14 -1e+37 1e+37 0 0 \$2/Zoom \$2/Zoom Zoom 0 -8
0 10 -4034 -1 -1 100 256;
#X obj 155 131 nbx 5 14 0 1e+37 0 0 \$2/Vfreq \$2/Vfreq Vfreq 0 -8
0 10 -4034 -1 -1 25 256;
#X obj 266 131 nbx 5 14 0 1e+37 0 0 \$2/Hlines \$2/Hlines Hlines 0
-8 0 10 -4034 -1 -1 120 256;
#N canvas 165 36 994 218 control 0;
#X obj 213 30 inlet;
#X obj 213 56 / 100;
#X obj 213 105 line~;
#X obj 213 81 pack 0 20;
#X obj 213 131 outlet~;
#X obj 283 30 inlet;
#X obj 283 56 / 100;
#X obj 283 105 line~;
#X obj 283 81 pack 0 20;
#X obj 283 131 outlet~;
#X obj 353 30 inlet;
#X obj 353 56 / 100;
#X obj 353 105 line~;
#X obj 353 81 pack 0 20;
#X obj 353 131 outlet~;
#X obj 423 30 inlet;
#X obj 423 56 / 100;
#X obj 423 105 line~;
#X obj 423 81 pack 0 20;
#X obj 423 131 outlet~;
#X obj 493 30 inlet;
#X obj 493 56 / 100;
#X obj 493 105 line~;
#X obj 493 81 pack 0 20;
#X obj 493 131 outlet~;
#X obj 563 30 inlet;
#X obj 563 56 / 100;
#X obj 563 105 line~;
#X obj 563 81 pack 0 20;
#X obj 563 131 outlet~;
#X obj 633 30 inlet;
#X obj 633 56 / 100;
#X obj 633 105 line~;
#X obj 633 81 pack 0 20;
#X obj 633 131 outlet~;
#X obj 703 30 inlet;
#X obj 703 56 / 100;
#X obj 703 105 line~;
#X obj 703 81 pack 0 20;
#X obj 703 131 outlet~;
#X obj 773 30 inlet;
#X obj 773 56 / 100;
#X obj 773 105 line~;
#X obj 773 81 pack 0 20;
#X obj 773 131 outlet~;
#X obj 83 30 inlet;
#X obj 83 105 line~;
#X obj 83 81 pack 0 20;
#X obj 83 131 outlet~;
#X obj 153 30 inlet;
#X obj 153 105 line~;
#X obj 153 81 pack 0 20;
#X obj 153 131 outlet~, f 35;
#X connect 0 0 1 0;
#X connect 1 0 3 0;
#X connect 2 0 4 0;
#X connect 3 0 2 0;
#X connect 5 0 6 0;
#X connect 6 0 8 0;
#X connect 7 0 9 0;
#X connect 8 0 7 0;
#X connect 10 0 11 0;
#X connect 11 0 13 0;
#X connect 12 0 14 0;
#X connect 13 0 12 0;
#X connect 15 0 16 0;
#X connect 16 0 18 0;
#X connect 17 0 19 0;
#X connect 18 0 17 0;
#X connect 20 0 21 0;
#X connect 21 0 23 0;
#X connect 22 0 24 0;
#X connect 23 0 22 0;
#X connect 25 0 26 0;
#X connect 26 0 28 0;
#X connect 27 0 29 0;
#X connect 28 0 27 0;
#X connect 30 0 31 0;
#X connect 31 0 33 0;
#X connect 32 0 34 0;
#X connect 33 0 32 0;
#X connect 35 0 36 0;
#X connect 36 0 38 0;
#X connect 37 0 39 0;
#X connect 38 0 37 0;
#X connect 40 0 41 0;
#X connect 41 0 43 0;
#X connect 42 0 44 0;
#X connect 43 0 42 0;
#X connect 45 0 47 0;
#X connect 46 0 48 0;
#X connect 47 0 46 0;
#X connect 49 0 51 0;
#X connect 50 0 52 0;
#X connect 51 0 50 0;
#X restore 100 304 pd control scaling;
#X obj 86 340 vs-scanprocessor, f 36;
#X obj 274 404 outlet~ B;
#X obj 87 404 outlet~ X;
#X obj 150 404 outlet~ Y;
#X obj 210 404 outlet~ Z;
#X obj 173 257 hradio 15 1 0 2 \$2/IntExt \$2/IntExt INT|EXT -5 -8
0 10 -4034 -1 -1 0;
#X obj 281 257 hradio 15 1 0 3 \$2/HoVeGr \$2/HoVeGr HORZ|VERT|GRID
-18 -8 0 10 -4034 -1 -1 0;
#X text 220 255 RASTER;
#X obj 376 313 kollabs/ds_reg \$1 \$2/Vfreq;
#X obj 376 334 kollabs/ds_reg \$1 \$2/Hlines;
#X obj 375 354 kollabs/ds_reg \$1 \$2/Hsize;
#X obj 375 374 kollabs/ds_reg \$1 \$2/Vsize;
#X obj 375 394 kollabs/ds_reg \$1 \$2/Zoom;
#X obj 375 414 kollabs/ds_reg \$1 \$2/Hpos;
#X obj 565 312 kollabs/ds_reg \$1 \$2/Zdeflect;
#X obj 565 333 kollabs/ds_reg \$1 \$2/Hblank;
#X obj 565 353 kollabs/ds_reg \$1 \$2/Vblank;
#X text 376 498 Stockholm APR 2021;
#X obj 375 434 kollabs/ds_reg \$1 \$2/Vpos;
#X obj 565 373 kollabs/ds_reg \$1 \$2/Brite;
#X obj 565 393 kollabs/ds_reg \$1 \$2/IntExt;
#X obj 565 413 kollabs/ds_reg \$1 \$2/HoVeGr;
#X obj 461 115 t b b b b b b b b b b b b b;
#X obj 461 210 pack 0 0 0 0 0 0 0 0 0 0 0 0 0;
#X obj 435 237 unpack 0 0 0 0 0 0 0 0 0 0 0 0 0;
#X obj 361 256 bng 15 250 50 0 empty empty ? 17 7 0 10 -4032 -1 -1
;
#X connect 2 0 60 0;
#X connect 2 1 58 0;
#X connect 3 0 59 0;
#X connect 4 0 59 1;
#X connect 5 0 59 2;
#X connect 6 0 59 3;
#X connect 7 0 59 4;
#X connect 8 0 59 5;
#X connect 10 0 9 0;
#X connect 12 0 59 6;
#X connect 13 0 59 7;
#X connect 14 0 59 8;
#X connect 15 0 33 0;
#X connect 15 0 42 0;
#X connect 15 0 41 0;
#X connect 15 0 34 0;
#X connect 15 0 32 0;
#X connect 15 0 31 0;
#X connect 15 0 30 0;
#X connect 15 0 29 0;
#X connect 15 0 28 0;
#X connect 15 0 27 0;
#X connect 15 0 26 0;
#X connect 15 0 25 0;
#X connect 15 0 24 0;
#X connect 16 0 59 9;
#X connect 17 0 59 10;
#X connect 18 0 59 11;
#X connect 19 0 59 12;
#X connect 20 0 36 0;
#X connect 21 0 36 12;
#X connect 22 0 36 13;
#X connect 24 0 35 8;
#X connect 24 0 14 1;
#X connect 25 0 35 9;
#X connect 25 0 16 1;
#X connect 26 0 35 10;
#X connect 26 0 17 1;
#X connect 27 0 35 3;
#X connect 27 0 6 1;
#X connect 28 0 35 2;
#X connect 28 0 5 1;
#X connect 29 0 35 6;
#X connect 29 0 12 1;
#X connect 30 0 35 5;
#X connect 30 0 8 1;
#X connect 31 0 35 7;
#X connect 31 0 13 1;
#X connect 32 0 35 4;
#X connect 32 0 7 1;
#X connect 33 0 35 0;
#X connect 33 0 3 1;
#X connect 34 0 35 1;
#X connect 34 0 4 1;
#X connect 35 0 36 1;
#X connect 35 1 36 2;
#X connect 35 2 36 3;
#X connect 35 3 36 4;
#X connect 35 4 36 5;
#X connect 35 5 36 6;
#X connect 35 6 36 7;
#X connect 35 7 36 8;
#X connect 35 8 36 9;
#X connect 35 9 36 10;
#X connect 35 10 36 11;
#X connect 36 0 38 0;
#X connect 36 1 39 0;
#X connect 36 2 40 0;
#X connect 36 3 37 0;
#X connect 41 0 36 15;
#X connect 41 0 18 1;
#X connect 42 0 36 14;
#X connect 42 0 19 1;
#X connect 58 0 3 0;
#X connect 58 1 4 0;
#X connect 58 2 5 0;
#X connect 58 3 6 0;
#X connect 58 4 7 0;
#X connect 58 5 8 0;
#X connect 58 6 12 0;
#X connect 58 7 13 0;
#X connect 58 8 14 0;
#X connect 58 9 16 0;
#X connect 58 10 17 0;
#X connect 58 11 18 0;
#X connect 58 12 19 0;
#X connect 59 0 2 0;
#X connect 60 0 33 0;
#X connect 60 1 34 0;
#X connect 60 2 28 0;
#X connect 60 3 27 0;
#X connect 60 4 32 0;
#X connect 60 5 30 0;
#X connect 60 6 29 0;
#X connect 60 7 31 0;
#X connect 60 8 24 0;
#X connect 60 9 25 0;
#X connect 60 10 26 0;
#X connect 60 11 41 0;
#X connect 60 12 42 0;
#X connect 61 0 10 0;
#X coords 0 -1 1 1 302 180 1 100 100;
