#N canvas 0 22 882 431 10;
#X obj 429 129 inlet~ brightness;
#X obj 429 269 outlet~ brightness;
#X obj 218 198 *~;
#X obj 278 198 *~;
#X text 650 336 Derek Holzer;
#X text 650 385 macumbista@gmail.com;
#X obj 338 198 *~;
#X obj 218 129 inlet~ X;
#X obj 278 129 inlet~ Y;
#X obj 338 129 inlet~ Z;
#X obj 218 269 outlet~ X;
#X obj 278 269 outlet~ Y;
#X obj 338 269 outlet~ Z;
#X obj 539 129 inlet~ Xscale;
#X obj 628 129 inlet~ Yscale;
#X obj 718 129 inlet~ Zscale;
#X text 650 360 Helsinki April 2018;
#X connect 0 0 1 0;
#X connect 2 0 10 0;
#X connect 3 0 11 0;
#X connect 6 0 12 0;
#X connect 7 0 2 0;
#X connect 8 0 3 0;
#X connect 9 0 6 0;
#X connect 13 0 2 1;
#X connect 14 0 3 1;
#X connect 15 0 6 1;
