#N canvas 687 76 569 430 10;
#X obj 1 15 cnv 15 210 219 empty empty empty 20 12 0 14 -4034 -66577
0;
#N canvas 0 22 450 300 (subpatch) 0;
#X array \$0-sum1 1001 float 0;
#X coords 0 1.02 1000 -1.02 200 50 1 0 0;
#X restore 3 32 graph;
#X obj 280 106 inlet~;
#X obj 342 127 loadbang;
#X msg 337 150 1;
#X obj 308 200 tabwrite~ \$0-sum1;
#N canvas 0 22 450 300 (subpatch) 0;
#X array \$0-sum2 1001 float 0;
#X coords 0 1.02 1000 -1.02 200 50 1 0 0;
#X restore 4 97 graph;
#N canvas 0 22 450 300 (subpatch) 0;
#X array \$0-sum3 1001 float 0;
#X coords 0 1.1 1000 -1.1 200 50 1 0 0;
#X restore 4 162 graph;
#X obj 318 240 tabwrite~ \$0-sum2;
#X obj 338 280 tabwrite~ \$0-sum3;
#X obj 324 105 inlet~;
#X obj 374 105 inlet~;
#X obj 276 46 samplerate~;
#X floatatom 123 219 7 0 0 1 _ms-- #0-msin #0-msout, f 7;
#X obj 276 21 loadbang;
#X text 9 253 Derek Holzer;
#X text 9 302 macumbista@gmail.com;
#X text 9 277 Helsinki June 2018;
#X obj 319 173 metro 200;
#X obj 276 71 expr (1000 / $f1) * 1000;
#X obj 337 22 bng 15 250 50 0 empty empty empty 17 7 0 10 -262144 -1
-1;
#X text 5 218 -- 1000 samples or;
#X obj 231 122 s \$0-msin;
#X connect 2 0 5 0;
#X connect 3 0 4 0;
#X connect 4 0 18 0;
#X connect 10 0 8 0;
#X connect 11 0 9 0;
#X connect 12 0 19 0;
#X connect 14 0 12 0;
#X connect 18 0 5 0;
#X connect 18 0 8 0;
#X connect 18 0 9 0;
#X connect 19 0 22 0;
#X connect 20 0 12 0;
#X coords 0 -1 1 1 212 235 1 0 0;
