#N canvas 170 159 1043 500 10;
#X obj 48 16 inlet~ phasor;
#X obj 238 131 +~;
#X obj 48 162 wrap~;
#X obj 238 162 wrap~;
#X obj 253 16 inlet~ phase;
#X obj 128 91 *~;
#X obj 143 16 inlet~ harmonic;
#X obj 48 200 cos~;
#X obj 238 200 cos~;
#X text 574 261 Derek Holzer;
#X text 575 304 macumbista@gmail.com;
#X obj 343 16 inlet~ scale;
#X obj 423 16 inlet~ brightness;
#X obj 238 257 *~;
#X obj 48 257 *~;
#X obj 48 299 outlet~ X;
#X obj 238 299 outlet~ Y;
#X obj 423 299 outlet~ B;
#X text 574 281 Helsinki June 2018;
#X connect 0 0 2 0;
#X connect 0 0 5 0;
#X connect 1 0 3 0;
#X connect 2 0 7 0;
#X connect 3 0 8 0;
#X connect 4 0 1 1;
#X connect 5 0 1 0;
#X connect 6 0 5 1;
#X connect 7 0 14 0;
#X connect 8 0 13 0;
#X connect 11 0 13 1;
#X connect 11 0 14 1;
#X connect 12 0 17 0;
#X connect 13 0 16 0;
#X connect 14 0 15 0;
