#N canvas 116 51 1085 573 10;
#X declare -lib Gem;
#X obj 142 417 vline~;
#X obj 206 522 outlet~ B;
#X obj 19 522 outlet~ X;
#X obj 82 522 outlet~ Y;
#X obj 142 522 outlet~ Z;
#X obj 19 451 vline~;
#X obj 82 451 vline~;
#X obj 17 144 metro;
#X obj 17 123 tgl 15 0 empty empty empty 17 7 0 10 -262144 -1 -1 0
1;
#N canvas 0 23 706 473 blanking 0;
#X obj 177 247 expr~ $v1 && $v2;
#X text 484 194 Vertical blanking;
#X text 400 218 Horizontal blanking;
#X obj 154 269 *~;
#X obj 270 193 expr~ ($v1>($v2+ -1))&($v1<(1-$v2));
#X obj 177 218 expr~ ($v1>($v2+ -1))&($v1<(1-$v2));
#X obj 154 65 inlet~ B;
#X obj 34 65 inlet~ X;
#X obj 94 65 inlet~ Y;
#X obj 154 324 outlet~ B;
#X obj 384 66 inlet~ Hblank;
#X obj 477 66 inlet~ Vblank;
#X text 424 301 Derek Holzer;
#X text 425 357 macumbista@gmail.com;
#X text 423 329 September 2018 Helsinki;
#X connect 0 0 3 1;
#X connect 3 0 9 0;
#X connect 4 0 0 1;
#X connect 5 0 0 0;
#X connect 6 0 3 0;
#X connect 7 0 5 0;
#X connect 8 0 4 0;
#X connect 10 0 5 1;
#X connect 11 0 4 1;
#X restore 206 496 pd blanking;
#X obj 37 100 loadbang;
#X obj 15 29 inlet gemlist;
#X obj 17 192 declare -lib Gem;
#N canvas 0 22 450 300 dsp_test 0;
#X obj 103 86 metro 100;
#X obj 103 23 loadbang;
#X msg 103 56 1;
#X obj 60 86 bang~;
#X obj 60 149 timer;
#X obj 60 183 < 10;
#X obj 60 246 outlet;
#X text 126 149 Tests to see if DSP is on within this patch.;
#X obj 60 215 change;
#X connect 0 0 4 1;
#X connect 1 0 2 0;
#X connect 2 0 0 0;
#X connect 3 0 4 0;
#X connect 4 0 5 0;
#X connect 5 0 8 0;
#X connect 8 0 6 0;
#X restore 17 76 pd dsp_test;
#X text 433 469 Derek Holzer;
#X text 434 525 macumbista@gmail.com;
#X text 432 497 September 2018 Helsinki;
#N canvas 686 36 503 454 raster 0;
#X obj 22 27 inlet bang;
#X obj 102 27 inlet Hlines;
#X obj 182 27 inlet Vfreq;
#X obj 265 27 inlet Rselect;
#N canvas -25 26 678 679 raster-core 0;
#X obj 367 55 samplerate~;
#X floatatom 367 81 8 0 0 0 - - -, f 8;
#X obj 286 129 expr $f2 / $f1;
#X obj 119 176 expr $f1 / $f2;
#X obj 119 149 t b f;
#X floatatom 285 157 8 0 0 1 samples_per_frame - -, f 8;
#X floatatom 284 179 8 0 0 1 samples_per_line - -, f 8;
#X obj 367 29 loadbang;
#X obj 367 101 t b f, f 6;
#X obj 119 198 int;
#X obj 119 117 clip 0 500;
#X obj 119 97 - 1;
#X obj 119 51 inlet Hlines;
#X obj 286 29 inlet Vfreq;
#X obj 353 528 outlet reset;
#X text 92 599 Many thanks to Johannes Taelman for pointing out that
horizontal lines must be whole number of samples.;
#X obj 92 522 outlet horizontal;
#X obj 224 527 outlet vertical;
#X obj 91 21 inlet metro;
#X text 91 567 Construct vertical field and horizontal lines using
metro \, messages \, and counters;
#X text 482 567 Derek Holzer;
#X text 483 623 macumbista@gmail.com;
#X text 481 595 September 2018 Helsinki;
#X obj 119 73 change;
#X obj 288 78 change;
#X obj 224 500 expr ($f1 * 2) - 1;
#X obj 92 500 expr ($f1 * 2) - 1;
#X obj 267 237 int;
#X obj 239 282 %;
#X obj 239 237 int;
#X obj 239 260 + 1;
#X obj 239 308 /;
#X obj 119 314 int;
#X obj 91 359 %;
#X obj 91 314 int;
#X obj 91 337 + 1;
#X obj 91 385 /;
#X obj 106 235 select 0;
#X msg 106 271 0;
#X obj 224 468 f;
#X obj 225 435 select 0;
#X connect 0 0 1 0;
#X connect 1 0 8 0;
#X connect 2 0 3 0;
#X connect 2 0 5 0;
#X connect 2 0 27 0;
#X connect 3 0 6 0;
#X connect 3 0 9 0;
#X connect 4 0 3 0;
#X connect 4 1 3 1;
#X connect 7 0 0 0;
#X connect 8 0 2 0;
#X connect 8 1 2 1;
#X connect 9 0 32 0;
#X connect 10 0 4 0;
#X connect 11 0 10 0;
#X connect 12 0 23 0;
#X connect 13 0 24 0;
#X connect 18 0 29 0;
#X connect 18 0 34 0;
#X connect 23 0 11 0;
#X connect 24 0 2 0;
#X connect 25 0 17 0;
#X connect 26 0 16 0;
#X connect 27 0 28 1;
#X connect 27 0 31 1;
#X connect 28 0 29 1;
#X connect 28 0 31 0;
#X connect 29 0 30 0;
#X connect 30 0 28 0;
#X connect 31 0 37 0;
#X connect 31 0 39 1;
#X connect 32 0 33 1;
#X connect 32 0 36 1;
#X connect 33 0 34 1;
#X connect 33 0 36 0;
#X connect 34 0 35 0;
#X connect 35 0 33 0;
#X connect 36 0 26 0;
#X connect 36 0 40 0;
#X connect 37 0 38 0;
#X connect 37 0 14 0;
#X connect 38 0 34 1;
#X connect 39 0 25 0;
#X connect 40 0 39 0;
#X restore 22 110 pd raster-core;
#X msg 319 123 0;
#X obj 265 71 select 0 1 2;
#X obj 80 227 tgl 15 0 empty empty empty 17 7 0 10 -262144 -1 -1 0
1;
#X obj 80 198 spigot;
#X msg 350 123 1;
#X text 233 305 Derek Holzer;
#X text 234 361 macumbista@gmail.com;
#X text 232 333 September 2018 Helsinki;
#X obj 22 355 outlet H;
#X obj 79 355 outlet V;
#N canvas 29 30 657 351 raster-swap 0;
#X obj 138 280 outlet H;
#X obj 138 80 inlet IntH;
#X obj 238 80 inlet IntV;
#X obj 308 80 inlet ExtH;
#X obj 378 80 inlet ExtV;
#X obj 238 280 outlet V;
#X obj 448 80 inlet Switch;
#X obj 448 103 select 0 1;
#X msg 448 129 1;
#X msg 458 151 0;
#X msg 488 129 0;
#X msg 498 151 1;
#X text 373 229 Derek Holzer;
#X text 372 298 macumbista@gmail.com;
#X text 372 257 September 2018 Helsinki, f 11;
#X obj 138 236 spigot;
#X obj 188 236 spigot;
#X obj 238 236 spigot;
#X obj 288 236 spigot, f 17;
#X connect 1 0 15 0;
#X connect 2 0 17 0;
#X connect 3 0 16 0;
#X connect 4 0 18 0;
#X connect 6 0 7 0;
#X connect 7 0 8 0;
#X connect 7 0 9 0;
#X connect 7 1 10 0;
#X connect 7 1 11 0;
#X connect 8 0 15 1;
#X connect 8 0 17 1;
#X connect 9 0 16 1;
#X connect 9 0 18 1;
#X connect 10 0 15 1;
#X connect 10 0 17 1;
#X connect 11 0 16 1;
#X connect 11 0 18 1;
#X connect 15 0 0 0;
#X connect 16 0 0 0;
#X connect 17 0 5 0;
#X connect 18 0 5 0;
#X restore 20 308 pd raster-swap;
#X msg 289 123 0;
#X msg 266 101 0;
#X msg 296 101 1;
#X obj 22 54 spigot;
#X obj 355 27 inlet IntExt;
#X obj 356 49 select 0 1;
#X msg 356 82 1;
#X msg 384 102 0;
#X connect 0 0 19 0;
#X connect 1 0 4 1;
#X connect 2 0 4 2;
#X connect 3 0 6 0;
#X connect 4 0 15 0;
#X connect 4 0 15 3;
#X connect 4 1 15 1;
#X connect 4 1 15 2;
#X connect 4 2 8 0;
#X connect 5 0 8 1;
#X connect 6 0 16 0;
#X connect 6 0 17 0;
#X connect 6 1 18 0;
#X connect 6 1 5 0;
#X connect 6 2 9 0;
#X connect 7 0 15 4;
#X connect 8 0 7 0;
#X connect 9 0 8 1;
#X connect 15 0 13 0;
#X connect 15 1 14 0;
#X connect 16 0 8 1;
#X connect 17 0 7 0;
#X connect 18 0 7 0;
#X connect 19 0 4 0;
#X connect 20 0 21 0;
#X connect 21 0 22 0;
#X connect 21 1 23 0;
#X connect 22 0 19 1;
#X connect 23 0 19 1;
#X restore 19 274 pd raster rotator;
#X obj 100 29 inlet~ Vfreq;
#X obj 37 168 s \$0-bang;
#X obj 180 29 inlet~ Hline;
#X obj 260 29 inlet~ Hsize;
#X obj 340 29 inlet~ Vsize;
#X obj 420 29 inlet~ Zoom;
#X obj 500 29 inlet~ Hpos;
#X obj 581 29 inlet~ Vpos;
#X obj 660 29 inlet~ Zdefl;
#X obj 690 53 inlet~ Hblnk;
#X obj 720 73 inlet~ Vblnk;
#X obj 740 93 inlet~ Brite;
#N canvas 152 118 657 351 IntExt 0;
#X obj 128 280 outlet H;
#X obj 128 80 inlet IntH;
#X obj 238 80 inlet IntV;
#X obj 308 80 inlet ExtH;
#X obj 378 80 inlet ExtV;
#X obj 238 280 outlet V;
#X obj 448 80 inlet Switch;
#X obj 448 103 select 0 1;
#X msg 448 129 1;
#X msg 458 151 0;
#X msg 488 129 0;
#X msg 498 151 1;
#X text 353 229 Derek Holzer;
#X text 354 285 macumbista@gmail.com;
#X text 352 257 September 2018 Helsinki;
#X obj 128 236 spigot;
#X obj 178 236 spigot;
#X obj 238 236 spigot;
#X obj 288 236 spigot, f 11;
#X connect 1 0 15 0;
#X connect 2 0 17 0;
#X connect 3 0 16 0;
#X connect 4 0 18 0;
#X connect 6 0 7 0;
#X connect 7 0 8 0;
#X connect 7 0 9 0;
#X connect 7 1 10 0;
#X connect 7 1 11 0;
#X connect 8 0 15 1;
#X connect 8 0 17 1;
#X connect 9 0 16 1;
#X connect 9 0 18 1;
#X connect 10 0 15 1;
#X connect 10 0 17 1;
#X connect 11 0 16 1;
#X connect 11 0 18 1;
#X connect 15 0 0 0;
#X connect 16 0 0 0;
#X connect 17 0 5 0;
#X connect 18 0 5 0;
#X restore 19 338 pd IntExt;
#X obj 820 49 inlet~ ExtH;
#X obj 900 49 inlet~ ExtV;
#X obj 997 68 inlet IntExt;
#X obj 977 48 inlet Rsel;
#N canvas 325 43 683 566 scan-processing 0;
#X obj 31 30 inlet gemlist;
#X obj 121 30 inlet H;
#X obj 174 30 inlet V;
#X obj 226 30 inlet Hsize;
#X obj 299 30 inlet Vsize;
#X obj 375 30 inlet Hpos;
#X obj 443 30 inlet Vpos;
#X obj 121 145 *;
#X obj 174 172 *;
#X obj 88 298 pix_data;
#X obj 174 85 expr ($f1 * 0.5) + 0.5;
#X obj 121 62 expr ($f1 * 0.5) + 0.5;
#X obj 121 223 wrap;
#X obj 174 249 wrap;
#X obj 121 197 +;
#X obj 174 223 +;
#X obj 88 263 r \$0-bang;
#X obj 133 455 outlet brightness;
#X text 371 405 Derek Holzer;
#X text 372 461 macumbista@gmail.com;
#X text 370 433 September 2018 Helsinki;
#X obj 189 197 change;
#X obj 189 137 change;
#X obj 136 172 change;
#X obj 136 117 change, f 100;
#X connect 0 0 9 1;
#X connect 1 0 11 0;
#X connect 2 0 10 0;
#X connect 3 0 24 0;
#X connect 4 0 22 0;
#X connect 5 0 23 0;
#X connect 6 0 21 0;
#X connect 7 0 14 0;
#X connect 8 0 15 0;
#X connect 9 2 17 0;
#X connect 10 0 8 0;
#X connect 11 0 7 0;
#X connect 12 0 9 2;
#X connect 13 0 9 3;
#X connect 14 0 12 0;
#X connect 15 0 13 0;
#X connect 16 0 9 0;
#X connect 21 0 15 1;
#X connect 22 0 8 1;
#X connect 23 0 14 1;
#X connect 24 0 7 1;
#X restore 142 394 pd scan-processing;
#N canvas 102 126 805 276 zoom-calculation 0;
#X obj 123 30 inlet~ Hsize;
#X obj 213 30 inlet~ Vsize;
#X obj 303 30 inlet~ Zoom;
#X obj 383 30 inlet~ Hpos;
#X obj 463 30 inlet~ Vpos;
#X obj 123 180 outlet~ Hsize;
#X obj 213 180 outlet~ Vsize;
#X obj 383 180 outlet~ Hpos;
#X obj 463 180 outlet~ Vpos;
#X obj 303 84 expr~ (1-$v1)* 0.5;
#X text 557 126 Derek Holzer;
#X text 558 182 macumbista@gmail.com;
#X text 556 154 September 2018 Helsinki, f 54;
#X connect 0 0 5 0;
#X connect 1 0 6 0;
#X connect 2 0 5 0;
#X connect 2 0 6 0;
#X connect 2 0 9 0;
#X connect 3 0 7 0;
#X connect 4 0 8 0;
#X connect 9 0 7 0;
#X connect 9 0 8 0;
#X restore 260 50 pd zoom-calculation;
#X msg 37 123 tempo 1 samp;
#X obj 919 69 r \$0-bang;
#X obj 838 69 r \$0-bang;
#X obj 142 442 *~;
#X obj 142 473 *~;
#N canvas 0 22 450 300 snapshot 0;
#X obj 118 27 r \$0-bang;
#X obj 37 27 inlet~ sig;
#X obj 37 253 outlet float;
#X text 178 198 Derek Holzer;
#X text 179 254 macumbista@gmail.com;
#X text 177 226 September 2018 Helsinki;
#X obj 37 183 snapshot~;
#X connect 0 0 6 0;
#X connect 1 0 6 0;
#X connect 6 0 2 0;
#X restore 581 72 pd snapshot;
#N canvas 0 22 450 300 snapshot 0;
#X obj 118 27 r \$0-bang;
#X obj 37 27 inlet~ sig;
#X obj 37 253 outlet float;
#X text 178 198 Derek Holzer;
#X text 179 254 macumbista@gmail.com;
#X text 177 226 September 2018 Helsinki;
#X obj 37 183 snapshot~;
#X connect 0 0 6 0;
#X connect 1 0 6 0;
#X connect 6 0 2 0;
#X restore 474 72 pd snapshot;
#N canvas 0 22 450 300 snapshot 0;
#X obj 118 27 r \$0-bang;
#X obj 37 27 inlet~ sig;
#X obj 37 253 outlet float;
#X text 178 198 Derek Holzer;
#X text 179 254 macumbista@gmail.com;
#X text 177 226 September 2018 Helsinki;
#X obj 37 183 snapshot~;
#X connect 0 0 6 0;
#X connect 1 0 6 0;
#X connect 6 0 2 0;
#X restore 367 72 pd snapshot;
#N canvas 0 22 450 300 snapshot 0;
#X obj 118 27 r \$0-bang;
#X obj 37 27 inlet~ sig;
#X obj 37 253 outlet float;
#X text 178 198 Derek Holzer;
#X text 179 254 macumbista@gmail.com;
#X text 177 226 September 2018 Helsinki;
#X obj 37 183 snapshot~;
#X connect 0 0 6 0;
#X connect 1 0 6 0;
#X connect 6 0 2 0;
#X restore 260 70 pd snapshot;
#X obj 901 94 vs-sig2float;
#X obj 820 94 vs-sig2float;
#N canvas 0 22 450 300 snapshot 0;
#X obj 118 27 r \$0-bang;
#X obj 37 27 inlet~ sig;
#X obj 37 253 outlet float;
#X text 178 198 Derek Holzer;
#X text 179 254 macumbista@gmail.com;
#X text 177 226 September 2018 Helsinki;
#X obj 37 183 snapshot~;
#X obj 236 27 inlet IntExt;
#X obj 118 143 spigot;
#X obj 236 133 switch~;
#X obj 236 111 tgl 15 0 empty empty empty 17 7 0 10 -262144 -1 -1 1
1;
#X obj 236 47 select 0 1;
#X msg 236 72 1;
#X msg 265 72 0;
#X connect 0 0 8 0;
#X connect 1 0 6 0;
#X connect 6 0 2 0;
#X connect 7 0 11 0;
#X connect 8 0 6 0;
#X connect 10 0 9 0;
#X connect 10 0 8 1;
#X connect 11 0 12 0;
#X connect 11 1 13 0;
#X connect 12 0 10 0;
#X connect 13 0 10 0;
#X restore 100 54 pd snapshot;
#N canvas 0 22 450 300 snapshot 0;
#X obj 118 27 r \$0-bang;
#X obj 37 27 inlet~ sig;
#X obj 37 253 outlet float;
#X text 178 198 Derek Holzer;
#X text 179 254 macumbista@gmail.com;
#X text 177 226 September 2018 Helsinki;
#X obj 37 183 snapshot~;
#X obj 236 27 inlet IntExt;
#X obj 118 143 spigot;
#X obj 236 133 switch~;
#X obj 236 111 tgl 15 0 empty empty empty 17 7 0 10 -262144 -1 -1 1
1;
#X obj 236 47 select 0 1;
#X msg 236 72 1;
#X msg 265 72 0;
#X connect 0 0 8 0;
#X connect 1 0 6 0;
#X connect 6 0 2 0;
#X connect 7 0 11 0;
#X connect 8 0 6 0;
#X connect 10 0 9 0;
#X connect 10 0 8 1;
#X connect 11 0 12 0;
#X connect 11 1 13 0;
#X connect 12 0 10 0;
#X connect 13 0 10 0;
#X restore 180 54 pd snapshot;
#X obj 474 95 - 0.5;
#X obj 581 96 + 0.5;
#X connect 0 0 40 0;
#X connect 5 0 9 0;
#X connect 5 0 2 0;
#X connect 6 0 9 1;
#X connect 6 0 3 0;
#X connect 7 0 19 0;
#X connect 7 0 17 0;
#X connect 8 0 7 0;
#X connect 9 0 1 0;
#X connect 10 0 37 0;
#X connect 11 0 35 0;
#X connect 13 0 8 0;
#X connect 17 0 30 0;
#X connect 17 1 30 1;
#X connect 18 0 48 0;
#X connect 20 0 49 0;
#X connect 21 0 36 0;
#X connect 22 0 36 1;
#X connect 23 0 36 2;
#X connect 24 0 36 3;
#X connect 25 0 36 4;
#X connect 26 0 41 1;
#X connect 27 0 9 3;
#X connect 28 0 9 4;
#X connect 29 0 40 1;
#X connect 30 0 5 0;
#X connect 30 0 35 1;
#X connect 30 1 6 0;
#X connect 30 1 35 2;
#X connect 31 0 47 0;
#X connect 32 0 46 0;
#X connect 33 0 30 4;
#X connect 33 0 17 4;
#X connect 33 0 46 2;
#X connect 33 0 47 2;
#X connect 33 0 49 1;
#X connect 33 0 48 1;
#X connect 34 0 17 3;
#X connect 35 0 0 0;
#X connect 36 0 45 0;
#X connect 36 1 44 0;
#X connect 36 2 43 0;
#X connect 36 3 42 0;
#X connect 37 0 7 0;
#X connect 38 0 46 1;
#X connect 39 0 47 1;
#X connect 40 0 9 2;
#X connect 40 0 41 0;
#X connect 41 0 4 0;
#X connect 42 0 51 0;
#X connect 43 0 50 0;
#X connect 44 0 35 4;
#X connect 45 0 35 3;
#X connect 46 0 30 3;
#X connect 47 0 30 2;
#X connect 48 0 17 2;
#X connect 49 0 17 1;
#X connect 50 0 35 5;
#X connect 51 0 35 6;
