#N canvas 76 23 574 603 10;
#X obj 101 118 cnv 15 300 40 empty empty empty 20 12 0 14 -233017 -66577
0;
#X text 366 506 Derek Holzer;
#X text 366 555 macumbista@gmail.com;
#X obj 83 311 / 100;
#X obj 116 135 nbx 5 14 -1e+37 1e+37 0 0 \$2/xtranslate \$2/xtranslate
Xtranslate 0 -8 0 10 -4034 -1 -1 0 256;
#X obj 134 311 / 100;
#X obj 211 135 nbx 5 14 -1e+37 1e+37 0 0 \$2/ytranslate \$2/ytranslate
Ytranslate 0 -8 0 10 -4034 -1 -1 0 256;
#X obj 67 453 VS-translate;
#X text 366 530 Helsinki May 2019;
#X obj 196 311 / 100;
#X obj 306 135 nbx 5 14 -1e+37 1e+37 0 0 \$2/ztranslate \$2/ztranslate
Ztranslate 0 -8 0 10 -4034 -1 -1 0 256;
#X obj 6 9 inlet~ X;
#X obj 61 9 inlet~ Y;
#X obj 116 9 inlet~ Z;
#X obj 171 9 inlet~ B;
#X obj 36 509 outlet~ X;
#X obj 106 509 outlet~ Y;
#X obj 176 509 outlet~ Z;
#X obj 246 509 outlet~ B;
#X obj 226 9 inlet~ Xtrans;
#X obj 311 9 inlet~ Ytrans;
#X obj 396 9 inlet~ Ztrans;
#X obj 266 479 kollabs/ds_reg \$1 \$2/ztranslate;
#X obj 266 439 kollabs/ds_reg \$1 \$2/xtranslate;
#X obj 266 459 kollabs/ds_reg \$1 \$2/ytranslate;
#X obj 316 182 savestate;
#X obj 367 236 f;
#X obj 395 256 f;
#X obj 424 276 f;
#X obj 367 204 t b b b;
#X obj 367 299 pack 0 0 0;
#X obj 316 320 unpack 0 0 0;
#X obj 187 60 loadbang;
#X obj 376 134 bng 15 250 50 0 empty empty ? 17 7 0 10 -4032 -1 -1
;
#X obj 409 154 s pd-\$2-help;
#X msg 409 132 vis 1;
#N canvas 0 23 488 627 \$2-help 0;
#X obj 33 11 cnv 15 300 300 empty empty HELP:vs-translate-gui 20 12
0 14 -4034 -66577 0;
#X text 67 58 1) X axis signal;
#X text 67 78 2) Y axis signal;
#X text 67 96 3) Z axis signal (ignore for 2D vectors);
#X text 67 232 1) X axis signal;
#X text 67 252 2) Y axis signal;
#X text 67 270 3) Z axis signal (ignore for 2D projection);
#X text 67 288 4) Brightness signal;
#X text 67 114 4) Brightness signal (0-1);
#X text 43 39 INLETS;
#X text 42 202 OUTLETS;
#X text 67 135 5) X translation (0-1);
#X text 67 155 6) Y translation (0-1);
#X text 67 175 7) Z translation (0-1);
#X text 37 375 Simple position translation is done via static \, DC
audio signals.;
#X text 61 413 Htranslate: negative values move the object left \,
positive values move the object right.;
#X text 61 443 Vtranslate: negative values move the object up \, positive
values move the object down.;
#X text 38 532 Automated translation is done via any sort of changing
audio signal \, i.e. from [phasor~] or from the [VS-operator] abstractions.
;
#X text 37 321 [VS-translate] allows translation (movement) of the
horizontal \, vertical \, and depth dimensions of a 2D or 3D vector
figure. Brightness values are passed through.;
#X text 61 473 Ztranslate: negative values move the object back \,
positive values move the object forward. This requires the [VS-projector]
abstraction to function.;
#X restore 409 184 pd \$2-help;
#X obj 196 359 pack 0 20;
#X obj 132 359 pack 0 20;
#X obj 72 359 pack 0 20;
#X obj 83 394 line~;
#X obj 134 394 line~;
#X obj 196 394 line~;
#X connect 3 0 39 0;
#X connect 4 0 3 0;
#X connect 4 0 26 1;
#X connect 5 0 38 0;
#X connect 6 0 5 0;
#X connect 6 0 27 1;
#X connect 7 0 15 0;
#X connect 7 1 16 0;
#X connect 7 2 17 0;
#X connect 7 3 18 0;
#X connect 9 0 37 0;
#X connect 10 0 9 0;
#X connect 10 0 28 1;
#X connect 11 0 7 0;
#X connect 12 0 7 1;
#X connect 13 0 7 2;
#X connect 14 0 7 3;
#X connect 19 0 7 4;
#X connect 20 0 7 5;
#X connect 21 0 7 6;
#X connect 25 0 31 0;
#X connect 25 1 29 0;
#X connect 26 0 30 0;
#X connect 27 0 30 1;
#X connect 28 0 30 2;
#X connect 29 0 26 0;
#X connect 29 1 27 0;
#X connect 29 2 28 0;
#X connect 30 0 25 0;
#X connect 31 0 4 0;
#X connect 31 1 6 0;
#X connect 31 2 10 0;
#X connect 32 0 4 0;
#X connect 32 0 10 0;
#X connect 32 0 6 0;
#X connect 33 0 35 0;
#X connect 35 0 34 0;
#X connect 37 0 42 0;
#X connect 38 0 41 0;
#X connect 39 0 40 0;
#X connect 40 0 7 4;
#X connect 41 0 7 5;
#X connect 42 0 7 6;
#X coords 0 -1 1 1 302 60 1 100 100;
