#N canvas 0 22 882 431 10;
#X obj 408 129 inlet~ brightness;
#X obj 408 269 outlet~ brightness;
#X text 650 316 Derek Holzer;
#X text 650 365 macumbista@gmail.com;
#X obj 218 198 +~;
#X obj 278 198 +~;
#X obj 234 166 expr~ ($v1 * -1);
#X text 650 340 Helsinki April 2018;
#X obj 338 198 +~;
#X obj 218 129 inlet~ X;
#X obj 278 129 inlet~ Y;
#X obj 338 129 inlet~ Z;
#X obj 218 269 outlet~ X;
#X obj 278 269 outlet~ Y;
#X obj 338 269 outlet~ Z;
#X obj 518 129 inlet~ Xtranslate;
#X obj 638 129 inlet~ Ytranslate;
#X obj 758 129 inlet~ Ztranslate;
#X connect 0 0 1 0;
#X connect 4 0 12 0;
#X connect 5 0 13 0;
#X connect 6 0 4 1;
#X connect 8 0 14 0;
#X connect 9 0 4 0;
#X connect 10 0 5 0;
#X connect 11 0 8 0;
#X connect 15 0 6 0;
#X connect 16 0 5 1;
#X connect 17 0 8 1;
