#N canvas 312 23 788 751 10;
#X text 581 411 Derek Holzer;
#X text 581 460 macumbista@gmail.com;
#X text 581 435 Helsinki June 2018;
#X obj 200 72 adc~ 1 2 3 4;
#X obj 200 157 *~;
#X obj 230 126 / 100;
#X obj 93 75 nbx 7 14 -1e+37 1e+37 0 1 empty empty freq 0 -8 0 10 -4034
-1 -1 209 256;
#N canvas 0 22 450 300 switch 0;
#X obj 127 29 inlet~;
#X obj 127 225 outlet~;
#X obj 246 58 select 0 1;
#X obj 127 128 *~;
#X obj 177 29 inlet~;
#X obj 177 128 *~;
#X msg 246 92 0;
#X msg 263 114 1;
#X msg 286 92 0;
#X msg 303 114 1;
#X obj 246 29 inlet;
#X connect 0 0 3 0;
#X connect 2 0 6 0;
#X connect 2 0 7 0;
#X connect 2 1 8 0;
#X connect 2 1 9 0;
#X connect 3 0 1 0;
#X connect 4 0 5 0;
#X connect 5 0 1 0;
#X connect 6 0 5 1;
#X connect 7 0 3 1;
#X connect 8 0 3 1;
#X connect 9 0 5 1;
#X connect 10 0 2 0;
#X restore 93 257 pd switch;
#X obj 317 69 hradio 25 1 1 2 empty empty source 0 -8 0 10 -262144
-1 -1 0;
#N canvas 0 22 450 300 triangle-wave 0;
#X obj 120 19 inlet;
#X obj 120 221 outlet~;
#X obj 141 88 *~ -1;
#X obj 141 112 +~ 1;
#X obj 120 143 min~;
#X obj 120 167 -~ 0.25;
#X obj 120 191 *~ 4;
#X obj 120 45 phasor~;
#X connect 0 0 7 0;
#X connect 2 0 3 0;
#X connect 3 0 4 1;
#X connect 4 0 5 0;
#X connect 5 0 6 0;
#X connect 6 0 1 0;
#X connect 7 0 2 0;
#X connect 7 0 4 0;
#X restore 93 117 pd triangle-wave;
#X obj 230 105 nbx 7 14 -1e+37 1e+37 0 1 empty empty scale 0 -8 0 10
-4034 -1 -1 100 256;
#X text 348 192 To use it here \, connect the proper channel of the
[adc~] to the [*~] below it. Set the "source" switch to the right hand
position. Use the "scale" number box to adjust the input triangle wave
so that it peaks at -1 and 1 in the left hand [seeme~] display.;
#X text 349 271 Note that many soundcards have AC coupled inputs \,
meaning that low frequency signals may not be passed through them.
This will cause errors in the resulting ramp if your input signal does
not change quickly enough. To use analog LFOs and Control Voltages
(CV) in Vector Synthesis patches \, you may want to investigate hardware
interfaces by Expert Sleepers.;
#X text 348 391 With thanks to Derek Kwan!;
#X text 347 110 [v-tri2ramp] converts a triangle wave \, common in
analog synthesizers \, into a ramp waveform which is useful for controlling
many aspects of the Vector Synthesis library. It requires an input
triangle wave with a range of -1 to 1 \, and outputs a ramp (saw) wave
with a range of 0 to 1;
#X obj 353 428 VS-tri2ramp;
#X obj 353 483 VS-seeme;
#X obj 93 483 VS-seeme;
#X connect 3 0 4 0;
#X connect 4 0 7 1;
#X connect 5 0 4 1;
#X connect 6 0 9 0;
#X connect 7 0 15 0;
#X connect 7 0 17 0;
#X connect 8 0 7 2;
#X connect 9 0 7 0;
#X connect 10 0 5 0;
#X connect 15 0 16 0;
