#N canvas 134 81 996 900 10;
#X declare -path ../;
#X obj 39 174 vs-operator-gui \$0 \$0-operator-one;
#A saved 1000 0 0 1 0 10 0 1 1 0 0;
#X obj 353 172 vs-operator-gui \$0 \$0-operator-two;
#A saved 1000 0 0 1 0 10 90 1 1 0 0;
#X text 587 695 Derek Holzer;
#X text 587 744 macumbista@gmail.com;
#X obj 29 609 cnv 15 320 165 empty empty Connect_here_to_test 20 12
0 14 -191407 -66577 0;
#X obj 583 617 cnv 15 100 60 empty empty empty 20 12 0 14 -233017 -66577
0;
#X obj 619 639 bng 15 250 50 0 empty empty ? 17 7 0 10 -4032 -1 -1
;
#X text 597 621 CLICK THE;
#X text 601 657 FOR HELP;
#X obj 38 629 vs-audiodac-gui \$0 \$0-dac-vectorgen;
#A saved 75 0 5 6 1 1 100 0 0 0 1 2 100;
#X obj 38 778 switch~;
#X obj 649 17 vs-operator-gui \$0 \$0-operator-three;
#A saved 100 0 0 1 0 25 0 0 0 1 0;
#X text 587 718 Stockholm MAY 2022;
#X obj 590 767 declare -path ../;
#X obj 38 470 vs-rotate-gui \$0 \$0-rot-1;
#A saved 0 0 0 0 0 0 1 0 0 0;
#X text 493 503 Use the XROTATION and YROTATION parameters to move
the spiral to see it from the side instead of the front;
#X text 494 472 Use the ZROTATION paramter to make the spiral turn
a corkscrew;
#X obj 360 607 vs-seeme;
#X text 493 542 Using only two of the three axes gives us an isomorphic
projection. Insert a [vs-perspective] object to get a perspective projection.
;
#X text 608 435 ROTATION;
#X text 550 27 Z axis (depth);
#X text 179 97 X axis (width);
#X text 459 97 Y axis (height);
#X text 502 11 Amplitude modulation +;
#X connect 0 0 14 0;
#X connect 1 0 14 1;
#X connect 9 0 10 0;
#X connect 11 0 1 2;
#X connect 11 0 0 2;
#X connect 11 0 14 2;
#X connect 11 1 9 2;
#X connect 14 0 9 0;
#X connect 14 0 17 0;
#X connect 14 1 9 1;
#X connect 14 1 17 1;
#X connect 14 2 17 2;
