#N canvas 22 37 1057 906 10;
#X declare -path ../;
#X obj 39 174 vs-operator-gui \$0 \$0-operator-one;
#A saved 1000 0 0 1 0 10 0 1 1 0 0;
#X obj 353 172 vs-operator-gui \$0 \$0-operator-two;
#A saved 1000 0 0 1 0 10 90 1 1 0 0;
#X text 587 712 Derek Holzer;
#X text 587 761 macumbista@gmail.com;
#X obj 29 609 cnv 15 320 165 empty empty Connect_here_to_test 20 12
0 14 -191407 -66577 0;
#X obj 583 634 cnv 15 100 60 empty empty empty 20 12 0 14 -233017 -66577
0;
#X obj 619 656 bng 15 250 50 0 empty empty ? 17 7 0 10 -4032 -1 -1
;
#X text 597 638 CLICK THE;
#X text 601 674 FOR HELP;
#X obj 38 629 vs-audiodac-gui \$0 \$0-dac-vectorgen;
#A saved 75 0 5 6 1 1 100 0 0 0 1 2 100;
#X obj 38 778 switch~;
#X obj 335 16 vs-operator-gui \$0 \$0-operator-three;
#A saved 100 0 0 1 0 25 0 0 0 1 0;
#X text 587 735 Stockholm MAY 2022;
#X obj 590 784 declare -path ../;
#X obj 39 321 vs-rotate-gui \$0 \$0-rot-1;
#A saved 0 0 0 0 0 0 1 7 4 117;
#X obj 359 631 vs-seeme;
#X obj 690 205 vs-icosahedron-gui \$0 \$0-ico-01;
#A saved 25 0 0 0 1 25 100 0 0;
#X obj 39 534 vs-morph-gui \$0 \$0-xfade-01;
#A saved 100 0 0 1;
#X obj 690 316 vs-rotate-gui \$0 \$0-rot-2;
#A saved 0 0 0 0 0 0 1 5 9 11;
#X connect 0 0 14 0;
#X connect 1 0 14 1;
#X connect 9 0 10 0;
#X connect 11 0 1 2;
#X connect 11 0 0 2;
#X connect 11 0 14 2;
#X connect 11 1 14 3;
#X connect 14 0 17 0;
#X connect 14 1 17 1;
#X connect 14 2 17 2;
#X connect 14 3 17 3;
#X connect 16 0 18 0;
#X connect 16 1 18 1;
#X connect 16 2 18 2;
#X connect 16 3 18 3;
#X connect 17 0 9 0;
#X connect 17 0 15 0;
#X connect 17 1 9 1;
#X connect 17 1 15 1;
#X connect 17 2 15 2;
#X connect 17 3 9 2;
#X connect 18 0 17 4;
#X connect 18 1 17 5;
#X connect 18 2 17 6;
#X connect 18 3 17 7;
