#N canvas 22 37 1046 1018 10;
#X declare -path ../;
#X obj 39 174 vs-operator-gui \$0 \$0-operator-one;
#A saved 25 0 2 10 0 5 0 1 1 0 0;
#X obj 353 172 vs-operator-gui \$0 \$0-operator-two;
#A saved 25 0 2 10 0 5 90 1 1 0 0;
#X text 886 759 Derek Holzer;
#X text 886 808 macumbista@gmail.com;
#X obj 347 805 cnv 15 320 165 empty empty Connect_here_to_test 20 12
0 14 -191407 -66577 0;
#X obj 882 681 cnv 15 100 60 empty empty empty 20 12 0 14 -233017 -66577
0;
#X obj 918 703 bng 15 250 50 0 empty empty ? 17 7 0 10 -4032 -1 -1
;
#X text 896 685 CLICK THE;
#X text 900 721 FOR HELP;
#X obj 355 825 vs-audiodac-gui \$0 \$0-dac-vectorgen;
#A saved 75 0 5 6 1 1 100 0 0 0 1 2 100;
#X obj 355 974 switch~;
#X obj 335 16 vs-operator-gui \$0 \$0-operator-three;
#A saved 25 0 2 2 0 15 0 0 0 1 0;
#X text 886 782 Stockholm MAY 2022;
#X obj 889 831 declare -path ../;
#X obj 39 321 vs-rotate-gui \$0 \$0-rot-1;
#A saved 0 0 0 0 0 0 1 0 0 0;
#X obj 680 199 vs-icosahedron-gui \$0 \$0-ico-01;
#A saved 25 0 2 0 2 15 100 1 0;
#X obj 680 310 vs-rotate-gui \$0 \$0-rot-2;
#A saved 0 0 0 0 0 0 1 0 0 0;
#X obj 355 503 vs-multiplex-gui \$0 multiplex-one;
#A saved 25 2 1 1;
#X obj 39 524 vs-multiplex \$0 1;
#X obj 679 515 vs-multiplex \$0 2;
#X obj 39 452 vs-translate-gui \$0 \$0-tran-01;
#A saved 15 15 0;
#X obj 680 439 vs-translate-gui \$0 \$0-tran-02;
#A saved -15 -15 0;
#X obj 355 592 vs-rotate-gui \$0 \$0-rot-3;
#A saved 0 0 0 0 0 0 1 0 0 0;
#X obj 355 723 vs-translate-gui \$0 \$0-tran-03;
#A saved 0 0 0;
#X obj 48 624 vs-presets-gui \$0;
#X obj 48 595 nbx 5 14 -1e+37 1e+37 0 0 empty empty Current_Scene_Number
0 -8 0 10 -4034 -1 -1 0 256;
#X connect 0 0 14 0;
#X connect 1 0 14 1;
#X connect 9 0 10 0;
#X connect 11 0 1 2;
#X connect 11 0 0 2;
#X connect 11 0 14 2;
#X connect 11 1 14 3;
#X connect 14 0 20 0;
#X connect 14 1 20 1;
#X connect 14 2 20 2;
#X connect 14 3 20 3;
#X connect 15 0 16 0;
#X connect 15 1 16 1;
#X connect 15 2 16 2;
#X connect 15 3 16 3;
#X connect 16 0 21 0;
#X connect 16 1 21 1;
#X connect 16 2 21 2;
#X connect 16 3 21 3;
#X connect 17 0 22 0;
#X connect 17 1 22 1;
#X connect 17 2 22 3;
#X connect 20 0 18 0;
#X connect 20 1 18 1;
#X connect 20 3 18 2;
#X connect 21 0 19 0;
#X connect 21 1 19 1;
#X connect 21 3 19 2;
#X connect 22 0 23 0;
#X connect 22 1 23 1;
#X connect 22 2 23 2;
#X connect 22 3 23 3;
#X connect 23 0 9 0;
#X connect 23 1 9 1;
#X connect 23 3 9 2;
#X connect 25 0 24 0;
