#N canvas 186 196 403 513 10;
#X obj 290 323 + 1;
#X obj 146 102 inlet;
#X obj 146 124 t b a b;
#X obj 165 395 spigot;
#X obj 198 371 == 0;
#X obj 218 176 loadbang;
#X msg 218 234 0;
#X obj 165 417 outlet;
#X text 83 466 (c)2013 Marian Weger;
#X obj 115 176 del 0;
#X text 42 55 anyonce <name>;
#X obj 198 275 v anyonce-\$1;
#X obj 290 343 v anyonce-\$1;
#X obj 239 371 > 0;
#X obj 239 393 sel 1;
#X obj 239 415 outlet;
#X obj 198 300 t f f f;
#X connect 0 0 12 0;
#X connect 1 0 2 0;
#X connect 2 0 9 0;
#X connect 2 1 3 0;
#X connect 2 2 11 0;
#X connect 3 0 7 0;
#X connect 4 0 3 1;
#X connect 5 0 6 0;
#X connect 6 0 11 0;
#X connect 9 0 6 0;
#X connect 11 0 16 0;
#X connect 13 0 14 0;
#X connect 14 0 15 0;
#X connect 16 0 4 0;
#X connect 16 1 13 0;
#X connect 16 2 0 0;
