#N canvas 428 70 450 300 10;
#X obj 184 187 list;
#X obj 132 107 r \$1/\$2/anytable/read;
#X obj 205 133 r \$1/\$2/anytable/write;
#X text 57 45 anytable_slot <name> <slot-id>;
#X text 257 226 (c)2013 Marian Weger;
#X text 125 76 used by [anytable];
#X obj 215 153 r \$1/const;
#X obj 132 133 t b f;
#X obj 184 323 s;
#X obj 199 277 list prepend \$1;
#X msg 199 301 symbol \$1/anytable/out/\$2;
#X connect 0 0 8 0;
#X connect 1 0 7 0;
#X connect 2 0 0 1;
#X connect 6 0 0 1;
#X connect 7 0 0 0;
#X connect 7 1 9 0;
#X connect 9 0 10 0;
#X connect 10 0 8 1;
