#N canvas 0 22 588 724 10;
#X text 301 668 (c)2013 Marian Weger;
#X text 39 50 anytable <name> <size>;
#X obj 164 406 + 1;
#X obj 102 470 * 20;
#X msg 305 373 clear;
#X obj 102 406 f 0;
#X msg 164 373 0;
#X obj 102 523 list append;
#X obj 102 495 + 50;
#N canvas 0 22 450 300 \$0-slots 0;
#X obj 50 50 anytable_slot 0 0;
#X obj 50 70 anytable_slot 0 1;
#X obj 50 90 anytable_slot 0 2;
#X obj 50 110 anytable_slot 0 3;
#X obj 50 130 anytable_slot 0 4;
#X obj 50 150 anytable_slot 0 5;
#X obj 50 170 anytable_slot 0 6;
#X obj 50 190 anytable_slot 0 7;
#X obj 50 210 anytable_slot 0 8;
#X obj 50 230 anytable_slot 0 9;
#X obj 50 250 anytable_slot 0 10;
#X obj 50 270 anytable_slot 0 11;
#X obj 50 290 anytable_slot 0 12;
#X obj 50 310 anytable_slot 0 13;
#X obj 50 330 anytable_slot 0 14;
#X obj 50 350 anytable_slot 0 15;
#X obj 50 370 anytable_slot 0 16;
#X obj 50 390 anytable_slot 0 17;
#X obj 50 410 anytable_slot 0 18;
#X obj 50 430 anytable_slot 0 19;
#X obj 50 450 anytable_slot 0 20;
#X obj 50 470 anytable_slot 0 21;
#X obj 50 490 anytable_slot 0 22;
#X obj 50 510 anytable_slot 0 23;
#X obj 50 530 anytable_slot 0 24;
#X obj 50 550 anytable_slot 0 25;
#X obj 50 570 anytable_slot 0 26;
#X obj 50 590 anytable_slot 0 27;
#X obj 50 610 anytable_slot 0 28;
#X obj 50 630 anytable_slot 0 29;
#X obj 50 650 anytable_slot 0 30;
#X obj 50 670 anytable_slot 0 31;
#X obj 50 690 anytable_slot 0 32;
#X obj 50 710 anytable_slot 0 33;
#X obj 50 730 anytable_slot 0 34;
#X obj 50 750 anytable_slot 0 35;
#X obj 50 770 anytable_slot 0 36;
#X obj 50 790 anytable_slot 0 37;
#X obj 50 810 anytable_slot 0 38;
#X obj 50 830 anytable_slot 0 39;
#X obj 50 850 anytable_slot 0 40;
#X obj 50 870 anytable_slot 0 41;
#X obj 50 890 anytable_slot 0 42;
#X obj 50 910 anytable_slot 0 43;
#X obj 50 930 anytable_slot 0 44;
#X obj 50 950 anytable_slot 0 45;
#X obj 50 970 anytable_slot 0 46;
#X obj 50 990 anytable_slot 0 47;
#X obj 50 1010 anytable_slot 0 48;
#X obj 50 1030 anytable_slot 0 49;
#X obj 50 1050 anytable_slot 0 50;
#X obj 50 1070 anytable_slot 0 51;
#X obj 50 1090 anytable_slot 0 52;
#X obj 50 1110 anytable_slot 0 53;
#X obj 50 1130 anytable_slot 0 54;
#X obj 50 1150 anytable_slot 0 55;
#X obj 50 1170 anytable_slot 0 56;
#X obj 50 1190 anytable_slot 0 57;
#X obj 50 1210 anytable_slot 0 58;
#X obj 50 1230 anytable_slot 0 59;
#X obj 50 1250 anytable_slot 0 60;
#X obj 50 1270 anytable_slot 0 61;
#X obj 50 1290 anytable_slot 0 62;
#X obj 50 1310 anytable_slot 0 63;
#X obj 50 1330 anytable_slot 0 64;
#X obj 50 1350 anytable_slot 0 65;
#X obj 50 1370 anytable_slot 0 66;
#X obj 50 1390 anytable_slot 0 67;
#X obj 50 1410 anytable_slot 0 68;
#X obj 50 1430 anytable_slot 0 69;
#X obj 50 1450 anytable_slot 0 70;
#X obj 50 1470 anytable_slot 0 71;
#X obj 50 1490 anytable_slot 0 72;
#X obj 50 1510 anytable_slot 0 73;
#X obj 50 1530 anytable_slot 0 74;
#X obj 50 1550 anytable_slot 0 75;
#X obj 50 1570 anytable_slot 0 76;
#X obj 50 1590 anytable_slot 0 77;
#X obj 50 1610 anytable_slot 0 78;
#X obj 50 1630 anytable_slot 0 79;
#X obj 50 1650 anytable_slot 0 80;
#X obj 50 1670 anytable_slot 0 81;
#X obj 50 1690 anytable_slot 0 82;
#X obj 50 1710 anytable_slot 0 83;
#X obj 50 1730 anytable_slot 0 84;
#X obj 50 1750 anytable_slot 0 85;
#X obj 50 1770 anytable_slot 0 86;
#X obj 50 1790 anytable_slot 0 87;
#X obj 50 1810 anytable_slot 0 88;
#X obj 50 1830 anytable_slot 0 89;
#X obj 50 1850 anytable_slot 0 90;
#X obj 50 1870 anytable_slot 0 91;
#X obj 50 1890 anytable_slot 0 92;
#X obj 50 1910 anytable_slot 0 93;
#X obj 50 1930 anytable_slot 0 94;
#X obj 50 1950 anytable_slot 0 95;
#X obj 50 1970 anytable_slot 0 96;
#X obj 50 1990 anytable_slot 0 97;
#X obj 50 2010 anytable_slot 0 98;
#X obj 50 2030 anytable_slot 0 99;
#X restore 180 680 pd \$0-slots;
#X obj 102 428 t f f;
#X obj 305 618 s pd-\$0-slots;
#X obj 102 373 until;
#X obj 102 328 t f b;
#X obj 102 545 list append \$1;
#X obj 102 114 loadbang;
#X obj 217 94 r \$1;
#X obj 316 198 b;
#X obj 102 136 f \$2;
#X obj 102 158 sel 0;
#X msg 102 568 obj 50 \$1 anytable_slot \$3 \$2;
#X obj 217 116 route resize clear const;
#X obj 353 198 s \$1/const;
#X obj 268 198 > 100;
#X obj 102 245 kdemux2;
#X obj 102 297 f 100;
#X obj 190 317 - 100;
#X obj 217 158 t f f f f;
#X obj 391 365 s \$1/size;
#X connect 2 0 5 1;
#X connect 3 0 8 0;
#X connect 4 0 11 0;
#X connect 5 0 2 0;
#X connect 5 0 10 0;
#X connect 6 0 5 1;
#X connect 7 0 14 0;
#X connect 8 0 7 0;
#X connect 10 0 3 0;
#X connect 10 1 7 1;
#X connect 12 0 5 0;
#X connect 13 0 12 0;
#X connect 13 1 6 0;
#X connect 13 1 4 0;
#X connect 14 0 20 0;
#X connect 15 0 18 0;
#X connect 16 0 21 0;
#X connect 17 0 25 0;
#X connect 18 0 19 0;
#X connect 19 0 24 0;
#X connect 19 1 24 0;
#X connect 19 1 26 1;
#X connect 20 0 11 0;
#X connect 21 0 27 0;
#X connect 21 1 17 0;
#X connect 21 2 22 0;
#X connect 23 0 24 1;
#X connect 24 0 25 0;
#X connect 24 0 26 0;
#X connect 24 1 25 1;
#X connect 25 0 13 0;
#X connect 25 0 28 0;
#X connect 26 0 12 0;
#X connect 27 0 26 1;
#X connect 27 0 28 0;
#X connect 27 1 24 0;
#X connect 27 2 23 1;
#X connect 27 3 23 0;
