#N canvas 516 147 597 428 10;
#X text 193 382 (c)2012 Marian Weger;
#N canvas 609 85 541 335 prev-next 0;
#X msg 38 64 -1;
#X msg 118 64 1;
#X obj 38 146 +;
#X obj 118 146 +;
#X obj 118 205 max 0;
#X obj 38 22 r \$0-gui-offset/prev;
#X obj 118 42 r \$0-gui-offset/next;
#X obj 133 102 r \$0-gui-offset;
#X obj 118 229 s \$0-gui-offset;
#X msg 258 64 -1;
#X msg 338 64 1;
#X obj 258 146 +;
#X obj 338 146 +;
#X obj 338 205 max 0;
#X obj 353 102 r /browser/\$1/selector;
#X obj 258 22 r /browser/\$1/selector/prev;
#X obj 338 42 r /browser/\$1/selector/next;
#X obj 338 229 s /browser/\$1/selector;
#X connect 0 0 2 0;
#X connect 1 0 3 0;
#X connect 2 0 4 0;
#X connect 3 0 4 0;
#X connect 4 0 8 0;
#X connect 5 0 0 0;
#X connect 6 0 1 0;
#X connect 7 0 3 1;
#X connect 7 0 2 1;
#X connect 9 0 11 0;
#X connect 10 0 12 0;
#X connect 11 0 13 0;
#X connect 12 0 13 0;
#X connect 13 0 17 0;
#X connect 14 0 12 1;
#X connect 14 0 11 1;
#X connect 15 0 9 0;
#X connect 16 0 10 0;
#X restore 433 165 pd prev-next;
#N canvas 0 22 450 300 ADVANCED 0;
#X msg 103 122 vis 1;
#X obj 103 70 r /browser/\$1/advanced/vis;
#X obj 103 95 anyonce /browser/\$1/advanced/vis;
#X obj 103 144 s pd-\$0-browser-advanced;
#N canvas 442 22 195 117 \$0-browser-advanced 0;
#X obj 4 -254 cnv 15 170 100 empty empty empty 5 10 0 14 -228856 -66577
0;
#X coords 0 117 1 116 85 60 0;
#X restore 103 190 pd \$0-browser-advanced;
#X connect 0 0 3 0;
#X connect 1 0 2 0;
#X connect 2 0 0 0;
#X restore 433 315 pd ADVANCED;
#N canvas 0 22 493 346 INIT 0;
#X msg 243 131 0;
#X obj 243 153 s \$0-gui-offset;
#X obj 121 31 loadbang;
#X obj 168 131 symbol;
#X obj 168 153 s \$0-name;
#X obj 121 73 t b b;
#X connect 0 0 1 0;
#X connect 2 0 5 0;
#X connect 3 0 4 0;
#X connect 5 0 3 0;
#X connect 5 1 0 0;
#X restore 433 135 pd INIT;
#N canvas 57 318 464 383 SLIDER 0;
#X obj 246 303 s \$0-offset-slider;
#X msg 246 281 set \$1;
#X obj 47 21 r \$0-offset-slider-set;
#X obj 47 227 int;
#X obj 47 205 + 0.5;
#X obj 47 269 t b f b;
#X msg 113 238 0;
#X msg 143 238 1;
#X obj 246 43 spigot 1;
#X obj 47 302 s \$0-gui-offset;
#X obj 246 21 r \$0-gui-offset;
#X obj 246 219 / 100;
#X obj 47 183 * 90;
#X obj 68 130 - 8;
#X obj 273 197 + 1;
#X obj 68 152 t b f;
#X obj 68 102 t f f;
#X obj 68 58 r /browser/\$1/table/size;
#X obj 68 80 max 98;
#X connect 1 0 0 0;
#X connect 2 0 12 0;
#X connect 3 0 5 0;
#X connect 4 0 3 0;
#X connect 5 0 7 0;
#X connect 5 1 9 0;
#X connect 5 2 6 0;
#X connect 6 0 8 1;
#X connect 7 0 8 1;
#X connect 8 0 11 0;
#X connect 10 0 8 0;
#X connect 11 0 1 0;
#X connect 12 0 4 0;
#X connect 13 0 15 0;
#X connect 14 0 11 1;
#X connect 15 0 12 0;
#X connect 15 1 12 1;
#X connect 16 0 13 0;
#X connect 16 1 14 0;
#X connect 17 0 18 0;
#X connect 18 0 16 0;
#X restore 433 185 pd SLIDER;
#N canvas 0 22 450 300 UPDATE 0;
#X obj 82 144 symbol;
#X obj 82 166 s \$0-name;
#X obj 196 70 b;
#X obj 211 119 r \$0-gui-offset;
#X obj 196 141 f;
#X obj 196 163 s \$0-gui-offset;
#X text 21 118 intentionally disconnected;
#X obj 196 48 r /browser/\$1/gui/update;
#X connect 0 0 1 0;
#X connect 2 0 4 0;
#X connect 3 0 4 1;
#X connect 4 0 5 0;
#X connect 7 0 2 0;
#X restore 433 344 pd UPDATE;
#N canvas 101 102 487 297 GET_NAME_&_DURATION 0;
#X obj 181 102 spacereplace _;
#X obj 181 124 s \$0-name;
#X msg 181 186 set \$1;
#X obj 181 208 s \$0-duration;
#X obj 181 76 r /ds/\$1/scene/current/name;
#X obj 181 164 r /ds/\$1/scene/current/duration;
#X connect 0 0 1 0;
#X connect 2 0 3 0;
#X connect 4 0 0 0;
#X connect 5 0 2 0;
#X restore 431 433 pd GET_NAME_&_DURATION;
#X text 31 32 browser_gui <name>;
#X obj 101 115 cnv 20 240 169 empty empty empty 20 12 0 14 -228856
-66577 0;
#X obj 100 116 vradio 14 1 0 12 \$0-cursor-set \$0-cursor empty 0 -8
0 10 -4034 -1 -1 5;
#X obj 101 271 cnv 13 14 13 empty empty empty 20 12 0 14 -228856 -66577
0;
#X obj 101 116 cnv 13 14 13 empty empty empty 20 12 0 14 -228856 -66577
0;
#X obj 326 115 bng 15 250 50 0 \$0-gui-offset/prev \$0-gui-offset/prev
< 4 7 0 10 -262144 -1 -1;
#X obj 326 270 bng 15 250 50 0 \$0-gui-offset/next \$0-gui-offset/next
> 5 7 0 10 -262144 -1 -1;
#X obj 326 132 vsl 15 135 1 0 0 0 \$0-offset-slider-set \$0-offset-slider
empty 0 -9 0 10 -262144 -1 -1 12300 1;
#X obj 101 271 cnv 12 224 14 empty \$0-canvas i_don't_know_this_one
2 7 0 11 -1 -262144 0;
#X obj 114 172 browser_gui_element \$1 3 \$0;
#N canvas 589 102 450 300 SELECTOR 0;
#X obj 96 112 t b f;
#X msg 79 195 set \$1;
#X obj 79 165 + 1;
#X obj 79 143 - 0;
#X obj 79 219 s \$0-cursor;
#X obj 243 81 r \$0-cursor-set;
#X obj 243 163 + 0;
#X obj 243 107 - 1;
#X obj 96 90 r \$0-gui-offset;
#X obj 258 134 r \$0-gui-offset;
#X obj 79 51 r /browser/\$1/selector;
#X obj 243 197 s /browser/\$1/selector;
#X connect 0 0 3 0;
#X connect 0 1 3 1;
#X connect 1 0 4 0;
#X connect 2 0 1 0;
#X connect 3 0 2 0;
#X connect 5 0 7 0;
#X connect 6 0 11 0;
#X connect 7 0 6 0;
#X connect 8 0 0 0;
#X connect 9 0 6 1;
#X connect 10 0 3 0;
#X restore 433 215 pd SELECTOR;
#N canvas 783 166 450 300 SET_SELECTOR 0;
#X obj 96 60 r \$0-scene-set;
#X obj 96 102 s /browser/\$1/selector;
#X connect 0 0 1 0;
#X restore 433 245 pd SET_SELECTOR;
#N canvas 783 166 450 300 GET_SELECTOR 0;
#X msg 96 94 set \$1;
#X obj 96 118 s \$0-scene;
#X obj 96 60 r /browser/\$1/selector;
#X connect 0 0 1 0;
#X connect 2 0 0 0;
#X restore 433 265 pd GET_SELECTOR;
#X obj 114 130 browser_gui_element \$1 0 \$0;
#X obj 114 144 browser_gui_element \$1 1 \$0;
#X obj 114 158 browser_gui_element \$1 2 \$0;
#X obj 114 186 browser_gui_element \$1 4 \$0;
#X obj 114 200 browser_gui_element \$1 5 \$0;
#X obj 114 214 browser_gui_element \$1 6 \$0;
#X obj 114 228 browser_gui_element \$1 7 \$0;
#X obj 114 242 browser_gui_element \$1 8 \$0;
#X obj 114 256 browser_gui_element \$1 9 \$0;
#N canvas 830 100 450 300 CURRENT 0;
#X obj 120 116 anytabread /browser/\$1/table;
#X obj 177 160 spacereplace _;
#X obj 120 138 route bang;
#X obj 120 243 s \$0-canvas;
#X obj 120 200 list prepend label;
#X obj 120 222 list trim;
#X obj 120 94 r /browser/\$1/selector;
#X connect 0 0 2 0;
#X connect 1 0 4 0;
#X connect 2 0 4 0;
#X connect 2 1 1 0;
#X connect 4 0 5 0;
#X connect 5 0 3 0;
#X connect 6 0 0 0;
#X restore 428 376 pd CURRENT;
#X obj 101 115 cnv 12 224 14 empty empty \$1 2 7 0 11 -1 -262144 0
;
#X coords 0 -1 1 1 241 185 1 100 100;
