#N canvas 60 22 638 722 10;
#X obj 261 239 r \$2;
#X obj 132 693 s /ds/\$1/fetched;
#X obj 132 671 list prepend \$2;
#X obj 51 261 t b b;
#X msg 78 284 0;
#X msg 171 357 1;
#X obj 51 404 route bang set;
#X obj 171 469 list trim;
#X obj 241 513 s;
#X obj 152 261 t b b a;
#X obj 352 346 list prepend \$2;
#X text 457 217 global resend;
#X text 467 241 local resend;
#X text 161 222 route value;
#X text 454 412 global route;
#X text 464 434 local route;
#X obj 51 357 list;
#X obj 51 379 list trim;
#X obj 51 59 r /ds/\$1/fetch/data;
#X text 39 41 fetch data to storage;
#X obj 175 562 r /ds/\$1\$2/print;
#X obj -20 562 spigot;
#X obj -20 584 t b b;
#X msg -20 606 <not initialised>;
#X msg 40 562 0;
#X msg 13 535 1;
#X obj 132 443 kdemux2;
#X obj 51 91 b;
#X obj 51 115 kdemux2;
#X obj 352 324 b;
#X obj 352 217 r /ds/\$1/resend;
#X obj 352 241 s /ds/\$1\$2/resend;
#X obj 352 302 r /ds/\$1\$2/resend;
#X obj 352 368 s /ds/\$1\$2/route;
#X obj 175 628 s /ds/\$1\$2/route;
#X obj 352 412 r /ds/\$1/route;
#X obj 352 434 s /ds/\$1\$2/route;
#X obj 152 239 r /ds/\$1\$2/route;
#X obj 175 584 t b b;
#X text 11 10 ds_fetch <domain> <name>;
#X text 317 703 (c)2013 Marian Weger;
#X text 246 44 (used by ds_reg);
#X obj 175 606 list prepend /ds/\$1\$2/print/out;
#X obj 90 160 list prepend \$2:;
#X obj 90 182 s /ds/\$1/print/errors;
#X msg 90 138 occupied! could not be fetched.;
#X obj 90 91 r /ds/\$1\$2/busy;
#X connect 0 0 16 1;
#X connect 2 0 1 0;
#X connect 3 0 16 0;
#X connect 3 1 4 0;
#X connect 4 0 26 1;
#X connect 5 0 26 1;
#X connect 6 0 21 0;
#X connect 6 1 26 0;
#X connect 6 2 26 0;
#X connect 7 0 8 0;
#X connect 9 0 16 0;
#X connect 9 1 5 0;
#X connect 9 2 8 1;
#X connect 10 0 33 0;
#X connect 16 0 17 0;
#X connect 17 0 6 0;
#X connect 18 0 27 0;
#X connect 20 0 38 0;
#X connect 21 0 22 0;
#X connect 22 0 23 0;
#X connect 22 1 24 0;
#X connect 23 0 7 0;
#X connect 24 0 21 1;
#X connect 25 0 21 1;
#X connect 26 0 2 0;
#X connect 26 1 7 0;
#X connect 27 0 28 0;
#X connect 28 0 3 0;
#X connect 28 1 45 0;
#X connect 29 0 10 0;
#X connect 30 0 31 0;
#X connect 32 0 29 0;
#X connect 35 0 36 0;
#X connect 37 0 9 0;
#X connect 38 0 42 0;
#X connect 38 1 25 0;
#X connect 42 0 34 0;
#X connect 43 0 44 0;
#X connect 45 0 43 0;
#X connect 46 0 28 1;
