#N canvas 546 22 626 750 10;
#X obj 152 723 s /ds/\$1/fetched;
#X obj 152 701 list prepend \$2;
#X obj 71 219 t b b;
#X msg 98 242 0;
#X msg 191 337 1;
#X obj 71 384 route bang set;
#X obj 191 449 list trim;
#X obj 261 493 s;
#X obj 172 241 t b b a;
#X text 181 202 route value;
#X text 474 392 global route;
#X text 484 414 local route;
#X obj 71 359 list trim;
#X obj 195 542 r /ds/\$1\$2/print;
#X obj 0 542 spigot;
#X obj 0 564 t b b;
#X msg 0 586 <not initialised>;
#X msg 60 542 0;
#X msg 33 515 1;
#X obj 152 423 kdemux2;
#X obj 71 91 b;
#X obj 71 115 kdemux2;
#X msg 110 138 Busy! Could not be saved!;
#X obj 195 658 s /ds/\$1\$2/route;
#X obj 372 392 r /ds/\$1/route;
#X obj 372 414 s /ds/\$1\$2/route;
#X obj 172 219 r /ds/\$1\$2/route;
#X obj 71 59 r /ds/\$1/fetch/tables;
#X text 59 41 fetch table to storage;
#X text 29 10 ds_fetch_table <domain> <name>;
#X text 299 77 (used by ds_reg);
#X text 332 169 (c)2013 Marian Weger;
#X obj 110 160 s /ds/\$1\$2/print/out;
#X obj 195 636 list prepend /ds/\$1\$2/print/out;
#X obj 195 564 t b b b;
#X obj 234 611 s \$2;
#X msg 234 588 print;
#X obj 71 337 ktabdump \$2;
#X obj 110 91 r /ds/\$1\$2/busy;
#X connect 1 0 0 0;
#X connect 2 0 37 0;
#X connect 2 1 3 0;
#X connect 3 0 19 1;
#X connect 4 0 19 1;
#X connect 5 0 14 0;
#X connect 5 1 19 0;
#X connect 5 2 19 0;
#X connect 6 0 7 0;
#X connect 8 0 37 0;
#X connect 8 1 4 0;
#X connect 8 2 7 1;
#X connect 12 0 5 0;
#X connect 13 0 34 0;
#X connect 14 0 15 0;
#X connect 15 0 16 0;
#X connect 15 1 17 0;
#X connect 16 0 6 0;
#X connect 17 0 14 1;
#X connect 18 0 14 1;
#X connect 19 0 1 0;
#X connect 19 1 6 0;
#X connect 20 0 21 0;
#X connect 21 0 2 0;
#X connect 21 1 22 0;
#X connect 22 0 32 0;
#X connect 24 0 25 0;
#X connect 26 0 8 0;
#X connect 27 0 20 0;
#X connect 33 0 23 0;
#X connect 34 0 33 0;
#X connect 34 1 18 0;
#X connect 34 2 36 0;
#X connect 36 0 35 0;
#X connect 37 0 12 0;
#X connect 38 0 21 1;
