#N canvas 76 105 582 597 10;
#X obj 101 115 cnv 15 148 106 empty empty empty 20 12 0 14 -228856
-66577 0;
#X obj 104 163 bng 15 250 50 0 /ds/\$1/save /ds/\$1/save save 17 7
0 10 -258113 -1 -1;
#X obj 104 183 bng 15 250 50 0 /ds/\$1/load /ds/\$1/load load 17 7
0 10 -4034 -1 -1;
#X obj 174 163 bng 15 250 50 0 /ds/\$1/resave /ds/\$1/resave resave
17 7 0 10 -258113 -1 -1;
#X obj 174 183 bng 15 250 50 0 /ds/\$1/reload /ds/\$1/reload reload
17 7 0 10 -4034 -1 -1;
#X obj 123 119 nbx 3 15 0 1e+37 0 0 /ds/\$1/scene/current /ds/\$1/scene/current
empty 0 -8 0 12 -204786 -1 -1 1 256;
#X obj 104 119 bng 15 250 50 0 /ds/\$1/scene/current/prev /ds/\$1/scene/current/prev
< 4 7 0 10 -204786 -1 -1;
#X obj 174 119 bng 15 250 50 0 /ds/\$1/scene/current/next /ds/\$1/scene/current/next
> 5 7 0 10 -204786 -1 -1;
#X text 101 70 (gui for ds_logic);
#X text 91 40 ds_gui <domain>;
#X obj 174 203 bng 15 250 50 0 /ds/\$1/advanced/vis /ds/\$1/advanced/vis
advanced 17 7 0 10 -262144 -1 -1;
#X obj 196 140 bng 15 250 50 0 /ds/\$1/store /ds/\$1/store store 17
7 0 10 -258113 -1 -1;
#X obj 123 140 nbx 3 15 0 1e+37 0 0 /ds/\$1/scene/selected /ds/\$1/scene/selected
empty 0 -8 0 12 -261234 -1 -1 1 256;
#X obj 104 140 bng 15 250 50 0 /ds/\$1/scene/selected/prev /ds/\$1/scene/selected/prev
< 4 7 0 10 -261234 -1 -1;
#X obj 174 140 bng 15 250 50 0 /ds/\$1/scene/selected/next /ds/\$1/scene/selected/next
> 5 7 0 10 -261234 -1 -1;
#X obj 196 119 bng 15 250 50 0 /ds/\$1/recall /ds/\$1/recall recall
17 7 0 10 -4034 -1 -1;
#X obj 104 203 bng 15 250 50 0 /ds/\$1/edit/vis /ds/\$1/edit/vis edit
17 7 0 10 -262144 -1 -1;
#X text 300 55 for help: see [ds-help];
#X text 108 278 (c)2011 Marian Weger;
#N canvas 0 22 450 300 ADVANCED 0;
#X msg 82 112 vis 1;
#X obj 82 134 s pd-\$0-advanced;
#N canvas 624 82 232 481 \$0-advanced 0;
#X obj 4 -118 cnv 15 200 105 empty empty Recall 5 10 0 14 -228856 -66577
0;
#X obj 28 -94 tgl 15 0 /ds/\$1/recall/data/state /ds/\$1/recall/data/state
data 17 7 0 10 -262144 -1 -1 1 1;
#X obj 4 60 cnv 15 200 250 empty empty Print 5 10 0 14 -228856 -66577
0;
#X obj 82 -94 tgl 15 0 /ds/\$1/change /ds/\$1/change changes_only 17
7 0 10 -262144 -1 -1 0 1;
#X obj 28 -74 tgl 15 0 /ds/\$1/recall/tables/state /ds/\$1/recall/tables/state
tables 17 7 0 10 -262144 -1 -1 1 1;
#X obj 4 -9 cnv 15 200 65 empty empty Store 5 10 0 14 -228856 -66577
0;
#X obj 28 15 tgl 15 0 /ds/\$1/store/data/state /ds/\$1/store/data/state
data 17 7 0 10 -262144 -1 -1 1 1;
#X obj 28 35 tgl 15 0 /ds/\$1/store/tables/state /ds/\$1/store/tables/state
tables 17 7 0 10 -262144 -1 -1 1 1;
#X obj 28 -54 bng 15 250 50 0 /ds/\$1/recall/global /ds/\$1/recall/global
global 17 7 0 10 -262144 -1 -1;
#X obj 4 314 cnv 15 200 30 empty empty System 5 10 0 14 -228856 -66577
0;
#X obj 87 321 tgl 15 0 /ds/\$1/dsp/mute /ds/\$1/dsp/mute dsp_muting
17 7 0 10 -262144 -1 -1 0 1;
#X obj 28 85 tgl 15 0 /ds/\$1/print/info/state /ds/\$1/print/info/state
info 17 7 0 10 -262144 -1 -1 1 1;
#X obj 28 106 tgl 15 0 /ds/\$1/print/errors/state /ds/\$1/print/errors/state
errors 17 7 0 10 -262144 -1 -1 1 1;
#X obj 28 147 tgl 15 0 /ds/\$1/print/datastream/state /ds/\$1/print/datastream/state
datastream 17 7 0 10 -262144 -1 -1 0 1;
#X obj 28 168 bng 15 250 50 0 /ds/\$1/print/buffer /ds/\$1/print/buffer
clipboard 17 7 0 10 -262144 -1 -1;
#X obj 28 189 bng 15 250 50 0 /ds/\$1/print/scenes /ds/\$1/print/scenes
all_scenes 17 7 0 10 -262144 -1 -1;
#X obj 28 209 bng 15 250 50 0 /ds/\$1/scene/selected/print /ds/\$1/scene/selected/print
selected_scene 17 7 0 10 -262144 -1 -1;
#X obj 28 229 bng 15 250 50 0 /ds/\$1/print/main /ds/\$1/print/main
recently_loaded/saved 17 7 0 10 -262144 -1 -1;
#X obj 28 249 bng 15 250 50 0 /ds/\$1/print/global /ds/\$1/print/global
global_settings 17 7 0 10 -262144 -1 -1;
#X obj 28 269 bng 15 250 50 0 /ds/\$1/reg/print/dialog /ds/\$1/reg/print/dialog
register_list 17 7 0 10 -262144 -1 -1;
#X obj 28 289 bng 15 250 50 0 /ds/\$1/reg/global/print/dialog /ds/\$1/reg/global/print/dialog
global_register_list 17 7 0 10 -262144 -1 -1;
#X obj 28 -34 tgl 15 0 /ds/\$1/dispatch /ds/\$1/dispatch dispatch 17
7 0 10 -262144 -1 -1 1 1;
#X obj 28 127 tgl 15 0 /ds/\$1/print/debug/state /ds/\$1/print/debug/state
debug 17 7 0 10 -262144 -1 -1 1 1;
#X coords 0 481 1 480 85 60 0;
#X restore 82 160 pd \$0-advanced;
#X obj 82 60 r /ds/\$1/advanced/vis;
#N canvas 43 108 913 589 register-list-loader 0;
#X obj 451 433 + 1;
#X obj 389 467 * 20;
#X msg 652 425 clear;
#X obj 389 433 f 0;
#X msg 451 400 0;
#X obj 389 520 list append;
#X obj 389 400 t b a;
#X msg 44 346 vis 1;
#X obj 389 542 list append \$1;
#X obj 327 273 t b b b b b;
#X obj 510 232 t b b b;
#X obj 515 470 list append \$1;
#X msg 515 494 obj 30 20 cnv 15 300 20 empty empty Register_list_for_"\$1"
5 10 0 14 -1 -262144 0;
#X obj 389 489 + 46;
#X obj 44 323 del 0;
#X obj 124 498 f \$0;
#X msg 124 520 \$1-reg-names;
#X obj 124 559 s;
#X obj 213 498 list prepend \$1;
#X msg 213 520 symbol /ds/\$1/name/route;
#X obj 124 464 t b b;
#X obj 389 366 r \$0-reg-names;
#X obj 308 61 r /ds/\$1/reg/print/dialog;
#X obj 44 368 s pd-\$0-register-list;
#X msg 389 615 obj 30 \$1 bng 15 250 50 0 /ds/\$3\$2/print /ds/\$3\$2/print
\$2 20 7 0 10 -262144 -1 -1;
#X obj 652 675 s pd-\$0-register-list;
#X obj 491 126 loadbang;
#X obj 491 158 t b b b;
#X obj 308 170 t b b b;
#X msg 397 211 0;
#X msg 348 211 1;
#X obj 397 244 s /ds/\$1/dsp;
#X obj 308 93 anyonce /ds/\$1/reg/print/dialog;
#X connect 0 0 3 1;
#X connect 1 0 13 0;
#X connect 2 0 25 0;
#X connect 3 0 0 0;
#X connect 3 0 1 0;
#X connect 4 0 3 1;
#X connect 5 0 8 0;
#X connect 6 0 3 0;
#X connect 6 1 5 1;
#X connect 7 0 23 0;
#X connect 8 0 24 0;
#X connect 9 0 14 0;
#X connect 9 1 20 0;
#X connect 9 2 4 0;
#X connect 9 3 11 0;
#X connect 9 4 2 0;
#X connect 10 0 4 0;
#X connect 10 1 11 0;
#X connect 10 2 2 0;
#X connect 11 0 12 0;
#X connect 12 0 25 0;
#X connect 13 0 5 0;
#X connect 14 0 7 0;
#X connect 15 0 16 0;
#X connect 16 0 17 0;
#X connect 18 0 19 0;
#X connect 19 0 17 1;
#X connect 20 0 15 0;
#X connect 20 1 18 0;
#X connect 21 0 6 0;
#X connect 22 0 32 0;
#X connect 24 0 25 0;
#X connect 26 0 27 0;
#X connect 27 0 30 0;
#X connect 27 1 10 0;
#X connect 27 2 29 0;
#X connect 28 0 30 0;
#X connect 28 1 9 0;
#X connect 28 2 29 0;
#X connect 29 0 31 0;
#X connect 30 0 31 0;
#X connect 32 0 28 0;
#X restore 82 210 pd register-list-loader;
#N canvas 726 25 402 401 \$0-register-list 0;
#X obj 30 20 cnv 15 300 20 empty empty Register_list_for_"domain" 5
10 0 14 -1 -262144 0;
#X restore 82 230 pd \$0-register-list;
#N canvas 249 96 913 589 global-list-loader 0;
#X obj 451 433 + 1;
#X obj 389 467 * 20;
#X msg 652 425 clear;
#X obj 389 433 f 0;
#X msg 451 400 0;
#X obj 389 520 list append;
#X obj 389 400 t b a;
#X msg 44 346 vis 1;
#X obj 389 542 list append \$1;
#X obj 327 273 t b b b b b;
#X obj 613 232 t b b b;
#X obj 515 470 list append \$1;
#X obj 389 489 + 46;
#X obj 44 323 del 0;
#X obj 64 498 f \$0;
#X obj 64 559 s;
#X obj 173 498 list prepend \$1;
#X obj 64 464 t b b;
#X msg 389 615 obj 30 \$1 bng 15 250 50 0 /ds/\$3\$2/print /ds/\$3\$2/print
\$2 20 7 0 10 -262144 -1 -1;
#X msg 515 494 obj 30 20 cnv 15 300 20 empty empty Global_registers_for_"\$1"
5 10 0 14 -1 -262144 0;
#X obj 308 91 r /ds/\$1/reg/global/print/dialog;
#X obj 44 368 s pd-\$0-global-list;
#X obj 389 366 r \$0-global-names;
#X msg 64 520 \$1-global-names;
#X obj 652 675 s pd-\$0-global-list;
#X msg 173 520 symbol /ds/\$1/global/name/route;
#X obj 594 126 loadbang;
#X obj 594 158 t b b b;
#X obj 308 170 t b b b;
#X msg 467 211 0;
#X msg 418 211 1;
#X obj 467 244 s /ds/\$1/dsp;
#X obj 308 123 anyonce /ds/\$1/reg/global/print/dialog;
#X connect 0 0 3 1;
#X connect 1 0 12 0;
#X connect 2 0 24 0;
#X connect 3 0 0 0;
#X connect 3 0 1 0;
#X connect 4 0 3 1;
#X connect 5 0 8 0;
#X connect 6 0 3 0;
#X connect 6 1 5 1;
#X connect 7 0 21 0;
#X connect 8 0 18 0;
#X connect 9 0 13 0;
#X connect 9 1 17 0;
#X connect 9 2 4 0;
#X connect 9 3 11 0;
#X connect 9 4 2 0;
#X connect 10 0 4 0;
#X connect 10 1 11 0;
#X connect 10 2 2 0;
#X connect 11 0 19 0;
#X connect 12 0 5 0;
#X connect 13 0 7 0;
#X connect 14 0 23 0;
#X connect 16 0 25 0;
#X connect 17 0 14 0;
#X connect 17 1 16 0;
#X connect 18 0 24 0;
#X connect 19 0 24 0;
#X connect 20 0 32 0;
#X connect 22 0 6 0;
#X connect 23 0 15 0;
#X connect 25 0 15 1;
#X connect 26 0 27 0;
#X connect 27 0 30 0;
#X connect 27 1 10 0;
#X connect 27 2 29 0;
#X connect 28 0 30 0;
#X connect 28 1 9 0;
#X connect 28 2 29 0;
#X connect 29 0 31 0;
#X connect 30 0 31 0;
#X connect 32 0 28 0;
#X restore 257 210 pd global-list-loader;
#N canvas 726 25 383 661 \$0-global-list 0;
#X obj 30 20 cnv 15 300 20 empty empty Global_registers_for_"domain"
5 10 0 14 -1 -262144 0;
#X restore 257 230 pd \$0-global-list;
#X obj 82 85 anyonce /ds/\$1/advanced/vis;
#X connect 0 0 1 0;
#X connect 3 0 8 0;
#X connect 8 0 0 0;
#X restore 283 149 pd ADVANCED;
#N canvas 0 22 450 300 EDIT 0;
#X msg 136 183 vis 1;
#X obj 136 101 r /ds/\$1/edit/vis;
#X obj 136 205 s pd-\$0-edit;
#N canvas 97 54 215 278 \$0-edit 0;
#X obj 4 -273 cnv 15 98 50 empty empty all 5 10 0 14 -233017 -66577
0;
#X obj 4 -219 cnv 15 200 30 empty empty selected 5 10 0 14 -233017
-66577 0;
#X obj 14 -248 bng 15 250 50 0 /ds/\$1/edit/clear /ds/\$1/edit/clear
delete 17 7 0 10 -258113 -1 -1;
#X obj 106 -273 cnv 15 98 50 empty empty lock 5 10 0 14 -1 -262144
0;
#X obj 167 -260 tgl 25 0 /ds/\$1/edit/lock /ds/\$1/edit/lock empty
22 12 0 10 -262144 -1 -262144 1 1;
#X obj 4 -187 cnv 15 79 180 empty empty empty 5 10 0 14 -228856 -66577
0;
#X obj 85 -187 cnv 15 119 180 empty empty empty 5 10 0 14 -228856 -66577
0;
#X obj 14 -138 bng 15 250 50 0 /ds/\$1/edit/scene/cut /ds/\$1/edit/scene/cut
cut 17 7 0 10 -260097 -1 -1;
#X obj 14 -118 bng 15 250 50 0 /ds/\$1/edit/scene/delete /ds/\$1/edit/scene/delete
delete 17 7 0 10 -258113 -1 -1;
#X obj 94 -158 bng 15 250 50 0 /ds/\$1/edit/scene/paste-override /ds/\$1/edit/scene/paste-override
paste_overwrite 17 7 0 10 -4160 -1 -1;
#X obj 14 -158 bng 15 250 50 0 /ds/\$1/edit/scene/copy /ds/\$1/edit/scene/copy
copy 17 7 0 10 -257985 -1 -1;
#X obj 94 -118 bng 15 250 50 0 /ds/\$1/edit/scene/insert /ds/\$1/edit/scene/insert
insert_blank 17 7 0 10 -4034 -1 -1;
#X obj 94 -138 bng 15 250 50 0 /ds/\$1/edit/scene/paste-insert /ds/\$1/edit/scene/paste-insert
paste_insert 17 7 0 10 -4032 -1 -1;
#X obj 14 -178 bng 15 250 50 0 /ds/\$1/edit/scene/clear /ds/\$1/edit/scene/clear
clear 17 7 0 10 -159808 -1 -1;
#X obj 94 -48 tgl 15 0 /ds/\$1/edit/scene/paste/data /ds/\$1/edit/scene/paste/data
data 17 7 0 10 -262144 -1 -1 1 1;
#X obj 94 -88 tgl 15 0 /ds/\$1/edit/scene/paste/settings /ds/\$1/edit/scene/paste/settings
settings 17 7 0 10 -262144 -1 -1 1 1;
#X obj 94 -68 tgl 15 0 /ds/\$1/edit/scene/paste/tables /ds/\$1/edit/scene/paste/tables
tables 17 7 0 10 -262144 -1 -1 1 1;
#X obj 94 -28 tgl 15 0 /ds/\$1/edit/scene/paste/properties /ds/\$1/edit/scene/paste/properties
properties 17 7 0 10 -262144 -1 -1 1 1;
#X obj 124 -212 nbx 3 15 0 1e+37 0 0 /ds/\$1/scene/selected /ds/\$1/scene/selected
empty 0 -8 0 12 -261234 -1 -1 1 256;
#X coords 0 278 1 277 85 60 0;
#X restore 136 231 pd \$0-edit;
#X obj 221 205 s /ds/\$1/edit/lock;
#X msg 221 183 1;
#X obj 136 148 t b b;
#X obj 136 126 anyonce /ds/\$1/edit/vis;
#X connect 0 0 2 0;
#X connect 1 0 7 0;
#X connect 5 0 4 0;
#X connect 6 0 0 0;
#X connect 6 1 5 0;
#X connect 7 0 6 0;
#X restore 283 169 pd EDIT;
#X coords 0 -1 1 1 150 122 1 100 100;
