#N canvas 323 83 866 635 10;
#X obj 78 169 spigot 1;
#X obj 409 169 spigot 1;
#X obj 78 215 t b b;
#X msg 117 249 0;
#X obj 78 345 kdemux2;
#X obj 156 491 s;
#X msg 242 253 1;
#X obj 223 227 t b b a;
#X text 232 176 route value;
#X obj 261 447 symbol;
#X text 27 52 used by [ds_logic] for registering scene-properties;
#X obj 78 323 list;
#X obj 78 525 list prepend \$2;
#X obj 117 369 list trim;
#X obj 409 321 s;
#X obj 436 251 list prepend \$1 \$2 \$3;
#X obj 409 219 t a a;
#X msg 436 289 symbol /ds/\$1/scene/\$3\$2;
#X obj 123 122 r /ds/\$1/scene/\$3\$2/reg/state;
#X obj 223 205 r /ds/\$1/scene/\$3\$2/route;
#X obj 99 293 r /ds/\$1/scene/\$3\$2;
#X obj 78 93 r /ds/\$1/fetch/properties/scene/\$3;
#X obj 409 93 r /ds/\$1/scene/\$3\$2/dispatch;
#X text 432 519 (c)2013 Marian Weger;
#X obj 78 582 s;
#X obj 93 555 r \$1-properties-destination-\$3;
#X text 27 23 ds_reg_properties <domain> <subname> <scene-nr>;
#X connect 0 0 2 0;
#X connect 1 0 16 0;
#X connect 2 0 11 0;
#X connect 2 1 3 0;
#X connect 3 0 4 1;
#X connect 4 0 12 0;
#X connect 4 1 13 0;
#X connect 6 0 4 1;
#X connect 7 0 11 0;
#X connect 7 1 6 0;
#X connect 7 2 9 0;
#X connect 9 0 5 1;
#X connect 11 0 4 0;
#X connect 12 0 24 0;
#X connect 13 0 5 0;
#X connect 15 0 17 0;
#X connect 16 0 14 0;
#X connect 16 1 15 0;
#X connect 17 0 14 1;
#X connect 18 0 0 1;
#X connect 18 0 1 1;
#X connect 19 0 7 0;
#X connect 20 0 11 1;
#X connect 21 0 0 0;
#X connect 22 0 1 0;
#X connect 25 0 24 1;
