#N canvas 280 110 875 507 10;
#X text 358 307 (c)2012 Marian Weger;
#X text 27 22 ds_reg_global <domain> <subname>;
#X obj 348 224 r /ds/\$1\$2/dispatch;
#X obj 348 254 s /ds/\$1\$2;
#X obj 78 147 t b b;
#X msg 174 181 0;
#X obj 78 267 kdemux2;
#X obj 221 313 s;
#X msg 242 185 1;
#X obj 223 159 t b b a;
#X text 232 120 route value;
#X obj 236 274 symbol;
#X obj 223 137 r /ds/\$1\$2/route;
#X obj 78 327 list prepend \$2;
#X obj 93 181 r /ds/\$1\$2;
#X obj 78 353 s /ds/\$1/fetched/global;
#X obj 78 93 r /ds/\$1/fetch/global;
#X obj 435 145 list trim;
#X obj 435 100 b;
#X obj 435 123 list prepend /ds/\$1\$2;
#X obj 435 167 s /ds/\$1\$2/route;
#X obj 659 86 loadbang;
#X obj 659 133 s /ds/\$1\$2/name \$2;
#X obj 659 108 list prepend \$2;
#X obj 659 169 ds_route /ds/\$1\$2/name;
#X obj 659 211 r /ds/\$1\$2/print;
#X obj 659 342 r \$0-print;
#X obj 659 283 list prepend \$0-print;
#X obj 659 305 s /ds/\$1\$2/route;
#X obj 661 452 s /ds/\$1\$2/name/route;
#X obj 661 430 r /ds/\$1/global/name/route;
#X obj 669 231 r /ds/\$1/print/global;
#X obj 659 258 b;
#X obj 435 78 r /ds/\$1/recall/global;
#X obj 387 367 r /ds/\$1\$2/resend;
#X obj 387 389 b;
#X obj 387 411 list prepend /ds/\$1\$2;
#X obj 387 433 list trim;
#X obj 387 455 s /ds/\$1\$2/route;
#X obj 659 364 list prepend \$2:;
#X obj 659 385 s /ds/\$1/print;
#X obj 78 225 value /ds/\$1\$2/v;
#X connect 2 0 3 0;
#X connect 4 0 41 0;
#X connect 4 1 5 0;
#X connect 5 0 6 1;
#X connect 6 0 13 0;
#X connect 6 1 7 0;
#X connect 8 0 6 1;
#X connect 9 0 41 0;
#X connect 9 1 8 0;
#X connect 9 2 11 0;
#X connect 11 0 7 1;
#X connect 12 0 9 0;
#X connect 13 0 15 0;
#X connect 14 0 41 0;
#X connect 16 0 4 0;
#X connect 17 0 20 0;
#X connect 18 0 19 0;
#X connect 19 0 17 0;
#X connect 21 0 23 0;
#X connect 23 0 22 0;
#X connect 25 0 32 0;
#X connect 26 0 39 0;
#X connect 27 0 28 0;
#X connect 30 0 29 0;
#X connect 31 0 32 0;
#X connect 32 0 27 0;
#X connect 33 0 18 0;
#X connect 34 0 35 0;
#X connect 35 0 36 0;
#X connect 36 0 37 0;
#X connect 37 0 38 0;
#X connect 39 0 40 0;
#X connect 41 0 6 0;
