#N canvas 309 22 845 756 10;
#X text 611 371 (c)2013 Marian Weger;
#X obj 101 101 cnv 15 321 350 empty empty empty 20 12 0 14 -262144
-66577 0;
#X obj 101 101 cnv 15 321 20 empty empty \$2_(\$1) 5 10 0 12 -228856
-1 0;
#X obj 101 125 cnv 15 158 65 empty empty empty 20 12 0 14 -228856 -66577
0;
#X obj 111 135 tgl 15 0 /ds/\$1\$2/slave /ds/\$1\$2/slave slave 17
7 0 10 -62784 -1 -1 0 1;
#X obj 111 161 nbx 4 14 -1e+37 1e+37 0 0 /ds/\$1\$2/delay /ds/\$1\$2/delay
delay/s 47 7 0 10 -44926 -1 -1 0 256;
#X obj 101 194 cnv 15 321 118 empty empty empty 20 12 0 14 -233016
-1 0;
#X obj 101 355 cnv 15 321 96 empty empty empty 20 12 0 14 -228856 -66577
0;
#X obj 111 365 tgl 15 0 \$0-dummy /ds/\$1\$2/change change 17 7 0 10
-228856 -1 -1 0 1;
#X symbolatom 162 407 20 0 0 0 prepend: /ds/#1#2/data_prepend/gui #0-dummy
;
#X symbolatom 290 427 20 0 0 0 - /ds/#1#2/name_append/gui #0-dummy
;
#X symbolatom 162 427 20 0 0 0 append: /ds/#1#2/data_append/gui #0-dummy
;
#X symbolatom 290 407 20 0 0 0 - /ds/#1#2/name_prepend/gui #0-dummy
;
#X obj 264 125 cnv 15 158 65 empty empty empty 20 12 0 14 -191407 -66577
0;
#X obj 276 131 bng 15 250 50 0 /ds/\$1\$2/settings/copy /ds/\$1\$2/settings/copy
COPY_to_buffer 17 7 0 10 -4034 -1 -1;
#X obj 276 150 bng 15 250 50 0 /ds/\$1\$2/settings/paste /ds/\$1\$2/settings/paste
PASTE_from_buffer 17 7 0 10 -258113 -1 -1;
#X obj 276 169 bng 15 250 50 0 /ds/\$1/reg/settings/buffer /ds/\$1/reg/settings/buffer
show_buffer 17 7 0 10 -257985 -1 -1;
#X text 159 390 Data;
#X text 287 390 Name;
#X obj 101 316 cnv 15 158 35 empty empty empty 20 12 0 14 -228856 -66577
0;
#X obj 111 326 tgl 15 0 /ds/\$1\$2/occupy /ds/\$1\$2/occupy occupy
17 7 0 10 -260818 -1 -1 0 1;
#X obj 264 316 cnv 15 158 35 empty empty empty 20 12 0 14 -228856 -66577
0;
#X text 36 25 ds_reg_gui <domain> <name>;
#X obj 250 204 nbx 4 14 -1e+37 1e+37 0 0 /ds/\$1\$2/morph/time /ds/\$1\$2/morph/time
time/s: -45 7 0 10 -24198 -1 -1 0 256;
#X obj 111 204 tgl 15 0 /ds/\$1\$2/morph /ds/\$1\$2/morph morph 17
7 0 10 -258699 -1 -1 0 1;
#X obj 250 230 nbx 4 14 -1e+37 1e+37 0 0 /ds/\$1\$2/morph/curve/shape
/ds/\$1\$2/morph/curve/shape empty 47 7 0 10 -24198 -1 -1 0 256;
#X obj 111 288 nbx 4 14 10 10000 0 0 /ds/\$1\$2/morph/curve/resolution
/ds/\$1\$2/morph/curve/resolution resolution 0 -8 0 10 -225271 -1 -1
128 256;
#X obj 324 288 hradio 15 1 0 3 /ds/\$1\$2/morph/curve/quality /ds/\$1\$2/morph/curve/quality
quality 0 -8 0 10 -225271 -1 -1 0;
#X obj 324 230 bng 20 250 50 0 /ds/\$1\$2/morph/curve/vis /ds/\$1\$2/morph/curve/vis
show 23 10 0 10 -24198 -1 -1;
#X obj 199 288 nbx 4 14 -1e+37 1e+37 0 0 /ds/\$1\$2/morph/timegrain
/ds/\$1\$2/morph/timegrain time-grain/ms 0 -8 0 10 -225271 -1 -1 20
256;
#X obj 114 251 hsl 128 15 0 1 0 0 /ds/\$1\$2/morph/curve/weight /ds/\$1\$2/morph/curve/weight
weight 5 8 0 10 -24198 -1 -1 0 1;
#X obj 114 230 hsl 128 15 -10 10 0 0 /ds/\$1\$2/morph/curve/shape /ds/\$1\$2/morph/curve/shape
shape 5 8 0 10 -24198 -1 -1 6350 1;
#X obj 250 251 nbx 4 14 -1e+37 1e+37 0 0 /ds/\$1\$2/morph/curve/weight
/ds/\$1\$2/morph/curve/weight empty 47 7 0 10 -24198 -1 -1 0 256;
#X obj 63 504 loadbang;
#X obj 90 552 list prepend \$1 \$2;
#X obj 63 734 r /ds/\$1\$2/name_prepend;
#X obj 63 756 symbol;
#X obj 63 778 s /ds/\$1\$2/name_prepend/gui;
#X obj 63 826 symbol;
#X obj 63 804 r /ds/\$1\$2/name_append;
#X obj 63 848 s /ds/\$1\$2/name_append/gui;
#X obj 63 896 symbol;
#X obj 63 966 symbol;
#X obj 63 874 r /ds/\$1\$2/data_prepend;
#X obj 63 918 s /ds/\$1\$2/data_prepend/gui;
#X obj 63 988 s /ds/\$1\$2/data_append/gui;
#X obj 63 944 r /ds/\$1\$2/data_append;
#X obj 181 365 tgl 15 0 \$0-dummy /ds/\$1\$2/table table 17 7 0 10
-228856 -1 -1 0 1;
#X obj 485 1081 s /ds/\$1\$2/name_prepend/resend;
#X obj 485 1101 s /ds/\$1\$2/name_append/resend;
#X obj 485 1121 s /ds/\$1\$2/data_prepend/resend;
#X obj 485 1141 s /ds/\$1\$2/data_append/resend;
#X msg 90 582 \; /ds/\$1\$2/name_prepend/gui symbol \; /ds/\$1\$2/name_append/gui
symbol \; /ds/\$1\$2/data_prepend/gui symbol \; /ds/\$1\$2/data_append/gui
symbol \;;
#X obj 63 526 t b b;
#X obj 376 780 b;
#X obj 485 439 v /ds/\$1\$2/morph/v;
#X msg 485 461 set \$1;
#N canvas 0 22 450 300 COLOR_slave 0;
#X obj 190 71 sel 0 1;
#X msg 190 183 color \$1 22 22;
#N canvas 0 22 423 423 rgb2iemgui 0;
#X obj 202 169 t b f;
#X obj 156 227 +;
#X obj 156 252 t b f;
#X obj 156 283 +;
#X obj 99 147 * -65536;
#X obj 156 147 * -256;
#X obj 202 147 * -1;
#X obj 156 314 - 1;
#X obj 156 336 outlet;
#X obj 102 39 inlet;
#X obj 102 83 pack 0 0 0;
#X obj 192 39 inlet;
#X obj 262 39 inlet;
#X obj 102 105 unpack 0 0 0;
#X connect 0 0 1 0;
#X connect 0 1 1 1;
#X connect 1 0 2 0;
#X connect 2 0 3 0;
#X connect 2 1 3 1;
#X connect 3 0 7 0;
#X connect 4 0 3 0;
#X connect 5 0 1 0;
#X connect 6 0 0 0;
#X connect 7 0 8 0;
#X connect 9 0 10 0;
#X connect 10 0 13 0;
#X connect 11 0 10 1;
#X connect 12 0 10 2;
#X connect 13 0 4 0;
#X connect 13 1 5 0;
#X connect 13 2 6 0;
#X restore 250 137 pd rgb2iemgui;
#X msg 250 110 990 990 990;
#X msg 190 123 18;
#X obj 190 205 outlet;
#X obj 190 49 v /ds/\$1\$2/slave/lock/v;
#X obj 190 24 loadbang;
#X connect 0 0 4 0;
#X connect 0 1 3 0;
#X connect 1 0 5 0;
#X connect 2 0 1 0;
#X connect 3 0 2 0;
#X connect 4 0 1 0;
#X connect 6 0 0 0;
#X connect 7 0 6 0;
#X restore 111 74 pd COLOR_slave;
#N canvas 0 22 469 411 COLOR_morph 0;
#X obj 64 370 outlet;
#X obj 160 372 outlet;
#X obj 306 373 outlet;
#X obj 190 75 sel 0 1;
#X msg 74 296 color \$1 22 22;
#X msg 203 316 color \$1 22 22;
#X msg 203 286 6;
#X msg 357 334 color \$1 22 22;
#X msg 357 314 13;
#X msg 74 236 16;
#N canvas 0 22 423 423 rgb2iemgui 0;
#X obj 202 169 t b f;
#X obj 156 227 +;
#X obj 156 252 t b f;
#X obj 156 283 +;
#X obj 99 147 * -65536;
#X obj 156 147 * -256;
#X obj 202 147 * -1;
#X obj 156 314 - 1;
#X obj 156 336 outlet;
#X obj 102 39 inlet;
#X obj 102 83 pack 0 0 0;
#X obj 192 39 inlet;
#X obj 262 39 inlet;
#X obj 102 105 unpack 0 0 0;
#X connect 0 0 1 0;
#X connect 0 1 1 1;
#X connect 1 0 2 0;
#X connect 2 0 3 0;
#X connect 2 1 3 1;
#X connect 3 0 7 0;
#X connect 4 0 3 0;
#X connect 5 0 1 0;
#X connect 6 0 0 0;
#X connect 7 0 8 0;
#X connect 9 0 10 0;
#X connect 10 0 13 0;
#X connect 11 0 10 1;
#X connect 12 0 10 2;
#X connect 13 0 4 0;
#X connect 13 1 5 0;
#X connect 13 2 6 0;
#X restore 250 141 pd rgb2iemgui;
#X msg 250 114 990 990 990;
#X obj 190 53 v /ds/\$1\$2/nomorph/v;
#X obj 190 31 loadbang;
#X connect 3 0 9 0;
#X connect 3 0 6 0;
#X connect 3 0 8 0;
#X connect 3 1 11 0;
#X connect 4 0 0 0;
#X connect 5 0 1 0;
#X connect 6 0 5 0;
#X connect 7 0 2 0;
#X connect 8 0 7 0;
#X connect 9 0 4 0;
#X connect 10 0 4 0;
#X connect 10 0 5 0;
#X connect 10 0 7 0;
#X connect 11 0 10 0;
#X connect 12 0 3 0;
#X connect 13 0 12 0;
#X restore 431 195 pd COLOR_morph;
#N canvas 0 22 450 300 COLOR_delay 0;
#X obj 167 66 sel 0 1;
#X msg 167 178 color \$1 22 22;
#N canvas 0 22 423 423 rgb2iemgui 0;
#X obj 202 169 t b f;
#X obj 156 227 +;
#X obj 156 252 t b f;
#X obj 156 283 +;
#X obj 99 147 * -65536;
#X obj 156 147 * -256;
#X obj 202 147 * -1;
#X obj 156 314 - 1;
#X obj 156 336 outlet;
#X obj 102 39 inlet;
#X obj 102 83 pack 0 0 0;
#X obj 192 39 inlet;
#X obj 262 39 inlet;
#X obj 102 105 unpack 0 0 0;
#X connect 0 0 1 0;
#X connect 0 1 1 1;
#X connect 1 0 2 0;
#X connect 2 0 3 0;
#X connect 2 1 3 1;
#X connect 3 0 7 0;
#X connect 4 0 3 0;
#X connect 5 0 1 0;
#X connect 6 0 0 0;
#X connect 7 0 8 0;
#X connect 9 0 10 0;
#X connect 10 0 13 0;
#X connect 11 0 10 1;
#X connect 12 0 10 2;
#X connect 13 0 4 0;
#X connect 13 1 5 0;
#X connect 13 2 6 0;
#X restore 227 132 pd rgb2iemgui;
#X msg 227 105 990 990 990;
#X msg 167 118 17;
#X obj 167 200 outlet;
#X obj 167 44 v /ds/\$1\$2/delay/lock/v;
#X obj 167 22 loadbang;
#X connect 0 0 4 0;
#X connect 0 1 3 0;
#X connect 1 0 5 0;
#X connect 2 0 1 0;
#X connect 3 0 2 0;
#X connect 4 0 1 0;
#X connect 6 0 0 0;
#X connect 7 0 6 0;
#X restore 215 74 pd COLOR_delay;
#N canvas 0 22 450 300 COLOR_occupy 0;
#X obj 108 72 sel 0 1;
#X msg 108 184 color \$1 22 22;
#N canvas 0 22 423 423 rgb2iemgui 0;
#X obj 202 169 t b f;
#X obj 156 227 +;
#X obj 156 252 t b f;
#X obj 156 283 +;
#X obj 99 147 * -65536;
#X obj 156 147 * -256;
#X obj 202 147 * -1;
#X obj 156 314 - 1;
#X obj 156 336 outlet;
#X obj 102 39 inlet;
#X obj 102 83 pack 0 0 0;
#X obj 192 39 inlet;
#X obj 262 39 inlet;
#X obj 102 105 unpack 0 0 0;
#X connect 0 0 1 0;
#X connect 0 1 1 1;
#X connect 1 0 2 0;
#X connect 2 0 3 0;
#X connect 2 1 3 1;
#X connect 3 0 7 0;
#X connect 4 0 3 0;
#X connect 5 0 1 0;
#X connect 6 0 0 0;
#X connect 7 0 8 0;
#X connect 9 0 10 0;
#X connect 10 0 13 0;
#X connect 11 0 10 1;
#X connect 12 0 10 2;
#X connect 13 0 4 0;
#X connect 13 1 5 0;
#X connect 13 2 6 0;
#X restore 168 138 pd rgb2iemgui;
#X msg 168 111 990 990 990;
#X msg 108 124 14;
#X obj 108 206 outlet;
#X obj 108 50 v /ds/\$1\$2/occupy/lock/v;
#X obj 108 27 loadbang;
#X connect 0 0 4 0;
#X connect 0 1 3 0;
#X connect 1 0 5 0;
#X connect 2 0 1 0;
#X connect 3 0 2 0;
#X connect 4 0 1 0;
#X connect 6 0 0 0;
#X connect 7 0 6 0;
#X restore 428 315 pd COLOR_occupy;
#X obj 485 491 v /ds/\$1\$2/morph/time/v;
#X msg 485 513 set \$1;
#X obj 485 541 v /ds/\$1\$2/morph/timegrain/v;
#X msg 485 563 set \$1;
#X obj 485 591 v /ds/\$1\$2/morph/curve/shape/v;
#X msg 485 613 set \$1;
#X obj 485 641 v /ds/\$1\$2/morph/curve/weight/v;
#X msg 485 663 set \$1;
#X obj 485 691 v /ds/\$1\$2/morph/curve/resolution/v;
#X msg 485 713 set \$1;
#X obj 485 741 v /ds/\$1\$2/morph/curve/quality/v;
#X msg 485 763 set \$1;
#X obj 485 791 v /ds/\$1\$2/occupy/v;
#X msg 485 813 set \$1;
#X obj 485 841 v /ds/\$1\$2/slave/v;
#X msg 485 863 set \$1;
#X obj 485 891 v /ds/\$1\$2/delay/v;
#X msg 485 913 set \$1;
#X obj 485 941 v /ds/\$1\$2/slave/lock/v;
#X obj 485 971 v /ds/\$1\$2/change/v;
#X msg 485 993 set \$1;
#X obj 485 1021 v /ds/\$1\$2/table/v;
#X msg 485 1043 set \$1;
#X connect 33 0 53 0;
#X connect 34 0 52 0;
#X connect 35 0 36 0;
#X connect 36 0 37 0;
#X connect 38 0 40 0;
#X connect 39 0 38 0;
#X connect 41 0 44 0;
#X connect 42 0 45 0;
#X connect 43 0 41 0;
#X connect 46 0 42 0;
#X connect 53 0 54 0;
#X connect 53 1 34 0;
#X connect 54 0 48 0;
#X connect 54 0 49 0;
#X connect 54 0 50 0;
#X connect 54 0 51 0;
#X connect 54 0 55 0;
#X connect 54 0 61 0;
#X connect 54 0 63 0;
#X connect 54 0 65 0;
#X connect 54 0 67 0;
#X connect 54 0 69 0;
#X connect 54 0 71 0;
#X connect 54 0 73 0;
#X connect 54 0 75 0;
#X connect 54 0 77 0;
#X connect 54 0 79 0;
#X connect 54 0 80 0;
#X connect 54 0 82 0;
#X connect 55 0 56 0;
#X connect 56 0 24 0;
#X connect 57 0 4 0;
#X connect 58 0 23 0;
#X connect 58 0 28 0;
#X connect 58 0 25 0;
#X connect 58 0 32 0;
#X connect 58 0 30 0;
#X connect 58 0 31 0;
#X connect 58 1 27 0;
#X connect 58 1 29 0;
#X connect 58 1 26 0;
#X connect 58 2 24 0;
#X connect 59 0 5 0;
#X connect 60 0 20 0;
#X connect 61 0 62 0;
#X connect 62 0 23 0;
#X connect 63 0 64 0;
#X connect 64 0 29 0;
#X connect 65 0 66 0;
#X connect 66 0 31 0;
#X connect 66 0 25 0;
#X connect 67 0 68 0;
#X connect 68 0 30 0;
#X connect 68 0 32 0;
#X connect 69 0 70 0;
#X connect 70 0 26 0;
#X connect 71 0 72 0;
#X connect 72 0 27 0;
#X connect 73 0 74 0;
#X connect 74 0 20 0;
#X connect 75 0 76 0;
#X connect 76 0 4 0;
#X connect 77 0 78 0;
#X connect 78 0 5 0;
#X connect 80 0 81 0;
#X connect 81 0 8 0;
#X connect 82 0 83 0;
#X connect 83 0 47 0;
#X coords 0 -1 1 1 323 352 2 100 100;
