#N canvas 690 99 444 499 10;
#N canvas 229 22 611 756 dispatch 0;
#X obj 145 1200 list trim;
#X obj 94 585 t b a;
#X obj 145 688 kdemux2;
#X obj 58 160 t a a;
#X obj 37 284 route bang;
#X obj 37 80 r /ds/\$1\$2/redispatch;
#X obj 58 103 r /ds/\$1\$2/dispatch;
#X obj 184 724 list prepend;
#X obj 145 1673 s;
#X obj 160 1628 list trim;
#X obj 160 1650 symbol;
#X obj 160 1286 list prepend \$2;
#X obj 184 640 t b a;
#X msg 184 662 1;
#X obj 145 828 kdemux2;
#X obj 184 780 t b a;
#X msg 184 802 1;
#X obj 184 864 list append;
#X obj 160 1388 kdemux2;
#X obj 199 1340 t b a;
#X msg 199 1362 1;
#X obj 199 1411 list prepend;
#X msg 199 1433 \$1\$2;
#X obj 160 1538 kdemux2;
#X obj 199 1490 t b a;
#X msg 199 1512 1;
#X msg 199 1583 \$1\$2;
#X obj 199 1561 list append;
#X obj 160 1240 r \$0-init-complete;
#X obj 199 1468 r /ds/\$1\$2/name_append;
#X obj 199 1318 r /ds/\$1\$2/name_prepend;
#X obj 184 618 r /ds/\$1\$2/data_prepend;
#X obj 184 758 r /ds/\$1\$2/data_append;
#X obj 145 379 r /ds/\$1/transition/state;
#X obj 37 184 list;
#X obj 160 1262 b;
#X obj 133 547 s /ds/\$1\$2/transition/in;
#X obj 145 585 r /ds/\$1\$2/transition/out;
#X obj 94 1718 s /ds/\$1\$2/dispatched;
#N canvas 653 247 547 492 change 0;
#X obj 105 13 inlet;
#X obj 138 107 change;
#X obj 201 107 t a a;
#X obj 240 132 list length;
#X obj 240 154 > 1;
#X obj 201 179 kdemux2;
#X obj 241 221 symbol;
#X obj 241 243 schange;
#X obj 241 335 list trim;
#X obj 138 65 route float;
#X obj 320 17 r \$2;
#X msg 320 61 set \$1;
#X obj 383 61 t a a;
#X obj 422 86 list length;
#X obj 422 108 > 1;
#X obj 383 133 kdemux2;
#X obj 320 39 route float;
#X obj 335 245 list-abs/list-compare;
#X obj 335 294 list;
#X obj 335 216 t a a;
#X obj 335 267 sel 0;
#X obj 105 35 t b a b;
#X obj 138 368 t b a;
#X obj 254 453 outlet;
#X msg 138 390 0;
#X msg 61 107 1;
#X obj 105 431 spigot;
#X obj 105 453 s /ds/\$1\$2/dispatched;
#X connect 0 0 21 0;
#X connect 1 0 22 0;
#X connect 2 0 5 0;
#X connect 2 1 3 0;
#X connect 3 0 4 0;
#X connect 4 0 5 1;
#X connect 5 0 6 0;
#X connect 5 1 19 0;
#X connect 6 0 7 0;
#X connect 7 0 8 0;
#X connect 8 0 22 0;
#X connect 9 0 1 0;
#X connect 9 1 2 0;
#X connect 10 0 16 0;
#X connect 11 0 1 0;
#X connect 12 0 15 0;
#X connect 12 1 13 0;
#X connect 13 0 14 0;
#X connect 14 0 15 1;
#X connect 15 0 7 1;
#X connect 15 1 17 1;
#X connect 16 0 11 0;
#X connect 16 1 12 0;
#X connect 17 0 20 0;
#X connect 18 0 8 0;
#X connect 19 0 17 0;
#X connect 19 1 18 1;
#X connect 20 0 18 0;
#X connect 21 0 26 0;
#X connect 21 1 9 0;
#X connect 21 2 25 0;
#X connect 22 0 24 0;
#X connect 22 1 23 0;
#X connect 24 0 26 1;
#X connect 25 0 26 1;
#X connect 26 0 27 0;
#X restore 133 331 pd change;
#X obj 94 307 kdemux2;
#X obj 133 160 r /ds/\$1\$2/change;
#X obj 145 180 r /ds/\$1/change;
#X obj 133 280 spigot 1;
#X obj 145 451 && 1;
#X obj 157 425 t b f;
#X obj 157 403 r /ds/\$1/transition/activate;
#X obj 211 977 list length;
#X obj 313 979 r /ds/\$1\$2/resize;
#X obj 268 1076 spigot 1;
#X msg 211 1098 const 0;
#X obj 211 1029 t b f;
#X msg 268 1098 resize \$1;
#X obj 313 1047 spigot 1;
#X obj 358 1023 == 0;
#X obj 358 1001 r /ds/\$1\$2/resize/lock;
#X obj 145 930 kdemux2;
#X obj 184 907 r /ds/\$1\$2/table;
#X obj 184 953 t a a;
#X obj 184 1126 list prepend 0;
#X obj 58 125 anyonce /ds/\$1\$2/dispatch;
#X obj 178 204 r \$0-init-complete;
#X obj 178 226 v /ds/\$1\$2/change/lock/v;
#X obj 178 248 == 0;
#X obj 94 522 kdemux2;
#X obj 145 493 && 0;
#X obj 208 447 t b f;
#X obj 208 425 r \$0-transition-state;
#X connect 0 0 8 0;
#X connect 1 0 38 0;
#X connect 1 1 2 0;
#X connect 2 0 14 0;
#X connect 2 1 7 0;
#X connect 3 0 34 1;
#X connect 3 1 4 0;
#X connect 4 1 40 0;
#X connect 5 0 34 0;
#X connect 6 0 60 0;
#X connect 7 0 14 0;
#X connect 9 0 10 0;
#X connect 10 0 8 1;
#X connect 11 0 18 0;
#X connect 12 0 13 0;
#X connect 12 1 7 1;
#X connect 13 0 2 1;
#X connect 14 0 56 0;
#X connect 14 1 17 0;
#X connect 15 0 16 0;
#X connect 15 1 17 1;
#X connect 16 0 14 1;
#X connect 17 0 56 0;
#X connect 18 0 23 0;
#X connect 18 1 21 0;
#X connect 19 0 20 0;
#X connect 19 1 21 1;
#X connect 20 0 18 1;
#X connect 21 0 22 0;
#X connect 22 0 23 0;
#X connect 23 0 9 0;
#X connect 23 1 27 0;
#X connect 24 0 25 0;
#X connect 24 1 27 1;
#X connect 25 0 23 1;
#X connect 26 0 9 0;
#X connect 27 0 26 0;
#X connect 28 0 35 0;
#X connect 29 0 24 0;
#X connect 30 0 19 0;
#X connect 31 0 12 0;
#X connect 32 0 15 0;
#X connect 33 0 44 0;
#X connect 34 0 4 0;
#X connect 35 0 11 0;
#X connect 37 0 2 0;
#X connect 39 0 64 0;
#X connect 40 0 64 0;
#X connect 40 1 39 0;
#X connect 41 0 43 0;
#X connect 42 0 43 0;
#X connect 43 0 40 1;
#X connect 44 0 65 0;
#X connect 45 0 44 0;
#X connect 45 1 44 1;
#X connect 46 0 45 0;
#X connect 47 0 51 0;
#X connect 48 0 53 0;
#X connect 49 0 52 0;
#X connect 50 0 0 0;
#X connect 51 0 50 0;
#X connect 51 1 49 0;
#X connect 52 0 0 0;
#X connect 53 0 49 1;
#X connect 54 0 53 1;
#X connect 55 0 54 0;
#X connect 56 0 0 0;
#X connect 56 1 58 0;
#X connect 57 0 56 1;
#X connect 58 0 59 0;
#X connect 58 1 47 0;
#X connect 59 0 0 0;
#X connect 60 0 3 0;
#X connect 61 0 62 0;
#X connect 62 0 63 0;
#X connect 63 0 43 1;
#X connect 64 0 1 0;
#X connect 64 1 36 0;
#X connect 65 0 64 1;
#X connect 66 0 65 0;
#X connect 66 1 65 1;
#X connect 67 0 66 0;
#X restore 59 301 pd dispatch;
#X obj 59 465 outlet slave-chain;
#N canvas 67 22 1046 726 init 0;
#X obj 340 34 loadbang;
#X obj 28 203 list split 1;
#X obj 28 300 list trim;
#X msg 96 491 1;
#X msg 28 483 1;
#X obj 28 179 list prepend \$15 \$14 \$13 \$12 \$11 \$10 \$9 \$8 \$7
\$6 \$5 \$4 \$3;
#X msg 145 482 1;
#X obj 145 460 b;
#X obj 96 466 b;
#X obj 28 458 b;
#X obj 517 173 list prepend \$1 \$2 \$0;
#X obj 328 541 spigot;
#X obj 328 563 t a b;
#X msg 385 553 0;
#X obj 328 585 list prepend symbol;
#X msg 328 607 symbol \$2;
#X obj 328 629 symbol;
#X obj 243 672 spigot;
#X obj 243 694 t a b;
#X msg 300 684 0;
#X msg 93 635 1;
#X obj 93 603 b;
#X obj 243 758 symbol;
#X obj 243 715 list prepend symbol;
#X msg 243 737 symbol \$2;
#X obj 544 580 spigot;
#X obj 544 602 t a b;
#X msg 601 592 0;
#X obj 544 666 symbol;
#X obj 544 623 list prepend symbol;
#X msg 544 645 symbol \$2;
#X msg 206 487 1;
#X obj 206 465 b;
#X msg 262 492 1;
#X obj 262 470 b;
#X obj 482 722 spigot;
#X obj 482 744 t a b;
#X msg 539 734 0;
#X obj 482 766 list prepend symbol;
#X msg 482 788 symbol \$2;
#X obj 482 810 symbol;
#X obj 850 753 s \$0-init-complete;
#X obj 243 782 s /ds/\$1\$2/name_prepend;
#X obj 328 660 s /ds/\$1\$2/data_prepend;
#X obj 544 689 s /ds/\$1\$2/data_append;
#X obj 482 841 s /ds/\$1\$2/name_append;
#X obj 795 679 + 1;
#X obj 62 225 t l;
#X obj 755 701 sel 12;
#X obj 755 679 f 0;
#X obj 28 265 t b a;
#X obj 383 489 t a;
#X msg 128 596 1;
#X obj 672 497 spigot;
#X msg 729 509 0;
#X obj 672 616 s /ds/\$1\$2/delay;
#X obj 672 519 t f b;
#X msg 58 842 1;
#X obj 58 800 t b b;
#X msg 95 823 1;
#X obj 128 571 b;
#X msg 177 569 1;
#X obj 75 536 b;
#X msg 75 568 0;
#X msg 861 578 1;
#X obj 861 556 b;
#X obj 861 444 t b b;
#X msg 909 465 1;
#X obj 909 567 s /ds/\$1\$2/occupy;
#X obj 192 532 b;
#X obj 153 800 b;
#X msg 77 708 1;
#X obj 104 708 s /ds/\$1\$2/change;
#X obj 77 682 t b f;
#X obj 640 408 b;
#X msg 640 430 1;
#X obj 405 34 r /ds/\$1\$2/init;
#X obj 672 591 f;
#X obj 684 541 r /ds/\$1\$2/delay/reinit;
#X obj 684 563 b;
#X obj 909 541 f;
#X obj 921 513 b;
#X obj 921 491 r /ds/\$1\$2/occupy/reinit;
#X obj 95 898 f;
#X obj 107 870 b;
#X obj 95 924 s /ds/\$1\$2/slave;
#X obj 107 848 r /ds/\$1\$2/slave/reinit;
#X msg 729 877 1;
#X obj 729 835 t b b;
#X obj 766 880 s /ds/\$1\$2/resize;
#X obj 751 785 t b b;
#X msg 788 808 1;
#X obj 788 830 s /ds/\$1\$2/resize;
#X msg 766 858 0;
#X obj 28 325 route nomorph slave data_prepend name_prepend data_append
name_append change bang delay float direct noslave nodelay nochange
occupy nooccupy table resize noresize;
#X obj 861 600 v /ds/\$1\$2/occupy/lock/v;
#X obj 729 905 v /ds/\$1\$2/resize/lock/v;
#X obj 77 730 v /ds/\$1\$2/change/lock/v;
#X obj 128 620 v /ds/\$1\$2/delay/lock/v;
#X obj 58 980 v /ds/\$1\$2/slave/lock/v;
#X obj 640 456 v /ds/\$1\$2/table/v;
#X msg 517 205 \; /ds/\$1\$2/delay 0 \; /ds/\$1\$2/slave 0 \; /ds/\$1\$2/change
0 \; /ds/\$1\$2/name \$2 \; /ds/\$1\$2/resize 1 \;;
#X obj 28 1012 v /ds/\$1\$2/nomorph/v;
#X text 497 86 multiples will not get initialized.;
#X obj 340 109 t b b;
#X obj 340 56 t b b;
#X obj 340 86 loadonce /ds/\$1\$2/init;
#X obj 409 62 s \$0-preinit;
#X connect 0 0 105 0;
#X connect 1 0 50 0;
#X connect 1 1 47 0;
#X connect 2 0 94 0;
#X connect 3 0 11 1;
#X connect 4 0 102 0;
#X connect 5 0 1 0;
#X connect 6 0 17 1;
#X connect 7 0 6 0;
#X connect 8 0 3 0;
#X connect 9 0 4 0;
#X connect 10 0 101 0;
#X connect 11 0 12 0;
#X connect 12 0 14 0;
#X connect 12 1 13 0;
#X connect 13 0 11 1;
#X connect 14 0 15 0;
#X connect 15 0 16 0;
#X connect 16 0 43 0;
#X connect 17 0 18 0;
#X connect 18 0 23 0;
#X connect 18 1 19 0;
#X connect 19 0 17 1;
#X connect 20 0 73 0;
#X connect 21 0 20 0;
#X connect 22 0 42 0;
#X connect 23 0 24 0;
#X connect 24 0 22 0;
#X connect 25 0 26 0;
#X connect 26 0 29 0;
#X connect 26 1 27 0;
#X connect 27 0 25 1;
#X connect 28 0 44 0;
#X connect 29 0 30 0;
#X connect 30 0 28 0;
#X connect 31 0 35 1;
#X connect 32 0 31 0;
#X connect 33 0 25 1;
#X connect 34 0 33 0;
#X connect 35 0 36 0;
#X connect 36 0 38 0;
#X connect 36 1 37 0;
#X connect 37 0 35 1;
#X connect 38 0 39 0;
#X connect 39 0 40 0;
#X connect 40 0 45 0;
#X connect 46 0 49 1;
#X connect 47 0 1 0;
#X connect 48 0 41 0;
#X connect 49 0 46 0;
#X connect 49 0 48 0;
#X connect 50 0 49 0;
#X connect 50 1 2 0;
#X connect 51 0 25 0;
#X connect 51 0 35 0;
#X connect 51 0 11 0;
#X connect 51 0 17 0;
#X connect 52 0 53 1;
#X connect 52 0 98 0;
#X connect 53 0 56 0;
#X connect 54 0 53 1;
#X connect 56 0 77 0;
#X connect 56 1 54 0;
#X connect 57 0 99 0;
#X connect 58 0 57 0;
#X connect 58 1 59 0;
#X connect 59 0 83 0;
#X connect 60 0 52 0;
#X connect 61 0 98 0;
#X connect 62 0 63 0;
#X connect 63 0 73 0;
#X connect 64 0 95 0;
#X connect 65 0 64 0;
#X connect 66 0 65 0;
#X connect 66 1 67 0;
#X connect 67 0 80 0;
#X connect 69 0 61 0;
#X connect 70 0 57 0;
#X connect 71 0 97 0;
#X connect 73 0 71 0;
#X connect 73 1 72 0;
#X connect 74 0 75 0;
#X connect 74 0 4 0;
#X connect 74 0 63 0;
#X connect 75 0 100 0;
#X connect 76 0 105 0;
#X connect 77 0 55 0;
#X connect 78 0 79 0;
#X connect 79 0 77 0;
#X connect 80 0 68 0;
#X connect 81 0 80 0;
#X connect 82 0 81 0;
#X connect 83 0 85 0;
#X connect 84 0 83 0;
#X connect 86 0 84 0;
#X connect 87 0 96 0;
#X connect 88 0 87 0;
#X connect 88 1 93 0;
#X connect 90 0 87 0;
#X connect 90 1 91 0;
#X connect 91 0 92 0;
#X connect 93 0 89 0;
#X connect 94 0 9 0;
#X connect 94 1 58 0;
#X connect 94 2 8 0;
#X connect 94 3 7 0;
#X connect 94 4 34 0;
#X connect 94 5 32 0;
#X connect 94 6 21 0;
#X connect 94 8 60 0;
#X connect 94 9 51 0;
#X connect 94 9 53 0;
#X connect 94 10 9 0;
#X connect 94 10 65 0;
#X connect 94 10 69 0;
#X connect 94 10 70 0;
#X connect 94 11 70 0;
#X connect 94 12 69 0;
#X connect 94 13 62 0;
#X connect 94 14 66 0;
#X connect 94 15 65 0;
#X connect 94 16 74 0;
#X connect 94 17 90 0;
#X connect 94 18 88 0;
#X connect 94 19 51 0;
#X connect 104 0 5 0;
#X connect 104 1 10 0;
#X connect 105 0 106 0;
#X connect 105 1 107 0;
#X connect 106 0 104 0;
#X restore 59 221 pd init;
#X text 40 21 ds_reg <domain> <name> <arg1> <arg2> ...;
#X obj 59 191 s /ds/\$1\$2/slave/start;
#X text 282 456 (c)2011 Marian Weger;
#X obj 59 391 r /ds/\$1\$2/dispatched;
#X obj 86 441 s /ds/\$1/dispatched;
#N canvas 246 34 884 668 transition_loader 0;
#X obj 89 124 r /ds/\$1/transition/check/answer;
#X obj 403 212 s /ds/\$1/transition/check/question;
#X msg 627 1863 clear;
#X msg 183 279 0;
#X msg 129 279 1;
#X obj 450 1864 s pd-\$0-transition;
#X obj 108 374 list append \$1 \$2 \$3 \$4 \$5 \$6 \$7 \$8 \$9 \$10
\$11 \$12 \$13 \$14 \$15;
#X msg 272 483 obj 30 20 ds_transition_occupy \$1 \$2 \$3 \$4 \$5 \$6
\$7 \$8 \$9 \$10 \$11 \$12 \$13 \$14 \$15;
#X msg 108 1868 loadbang;
#X obj 108 412 t b l l l l l b;
#X obj 272 718 t b a;
#X obj 272 740 v \$0-transition-counter;
#X obj 272 762 t f f;
#X obj 317 782 + 1;
#X obj 272 804 pack 0 0;
#X msg 272 683 obj 30 60 ds_transition_slave \$1 \$2 \$3 \$4 \$5 \$6
\$7 \$8 \$9 \$10 \$11 \$12 \$13 \$14 \$15;
#X obj 272 658 spigot 1;
#X obj 272 1108 t b a;
#X obj 272 1130 v \$0-transition-counter;
#X obj 272 1152 t f f;
#X obj 317 1172 + 1;
#X obj 272 1194 pack 0 0;
#X obj 272 1048 spigot 1;
#X obj 272 1438 t b a;
#X obj 272 1460 v \$0-transition-counter;
#X obj 272 1482 t f f;
#X obj 317 1502 + 1;
#X obj 272 1524 pack 0 0;
#X obj 272 1378 spigot 1;
#X msg 272 1073 obj 30 100 ds_transition_delay \$1 \$2 \$3 \$4 \$5
\$6 \$7 \$8 \$9 \$10 \$11 \$12 \$13 \$14 \$15;
#X msg 272 1403 obj 30 140 ds_transition_morph \$1 \$2 \$3 \$4 \$5
\$6 \$7 \$8 \$9 \$10 \$11 \$12 \$13 \$14 \$15;
#X obj 558 1677 t b a;
#X obj 558 1699 v \$0-transition-counter;
#X obj 558 1721 t f f;
#X obj 603 1741 + 1;
#X obj 558 1763 pack 0 0;
#X obj 644 426 v \$0-transition-counter;
#X msg 644 400 0;
#X obj 317 1354 == 0;
#X obj 317 1330 ||;
#X obj 403 30 r \$0-init-complete;
#X obj 317 611 &&;
#X obj 424 571 t b f;
#X obj 317 958 == 0;
#X obj 317 1000 &&;
#X obj 427 960 t b f;
#X obj 317 938 r /ds/\$1\$2/delay;
#X obj 317 571 == 0;
#X obj 317 549 r /ds/\$1\$2/slave;
#X obj 317 633 == 0;
#X obj 317 1022 == 0;
#X msg 272 826 connect \$1 0 \$2 0 \, connect \$1 1 \$2 1;
#X msg 272 1216 connect \$1 0 \$2 0 \, connect \$1 1 \$2 1;
#X msg 272 1546 connect \$1 0 \$2 0 \, connect \$1 1 \$2 1;
#X obj 208 1591 t l l;
#X obj 208 1677 t b a;
#X obj 208 1721 t f f;
#X obj 253 1743 + 1;
#X obj 208 1765 pack 0 0;
#X msg 208 1787 connect \$1 0 \$2 0;
#X msg 558 1785 connect \$1 1 \$2 0;
#X msg 208 1642 obj 30 180 s /ds/\$1\$2/dispatched;
#X msg 558 1642 obj 381 180 s /ds/\$1\$2/transition/out;
#X obj 208 1699 v \$0-transition-counter;
#X obj 208 1743 - 1;
#X obj 183 312 s /ds/\$1/dsp;
#X obj 301 1285 v /ds/\$1\$2/table/v;
#X obj 403 134 del 100;
#X obj 427 938 v /ds/\$1\$2/delay/lock/v;
#X obj 424 549 v /ds/\$1\$2/slave/lock/v;
#X obj 644 372 r \$0-transition-loader-init;
#X obj 424 528 r \$0-transition-loader-init;
#X obj 427 914 r \$0-transition-loader-init;
#X obj 272 1259 t a b b;
#X obj 332 1304 v /ds/\$1\$2/nomorph/v;
#X obj 89 186 loadonce /ds/\$1\$2/transition/check/answer;
#X obj 430 90 s \$0-transition-loader-init;
#X obj 403 62 t b b;
#X obj 627 1837 r \$0-preinit;
#X obj 109 149 r \$0-transition-check-answer;
#X obj 403 156 list prepend symbol \$0-transition-check-answer;
#X obj 403 178 list trim;
#X obj 129 335 s \$0-transition-state;
#X obj 89 238 t b b b;
#X connect 0 0 75 0;
#X connect 2 0 5 0;
#X connect 3 0 65 0;
#X connect 4 0 65 0;
#X connect 4 0 82 0;
#X connect 6 0 9 0;
#X connect 7 0 5 0;
#X connect 8 0 5 0;
#X connect 9 0 8 0;
#X connect 9 1 54 0;
#X connect 9 2 73 0;
#X connect 9 3 22 0;
#X connect 9 4 16 0;
#X connect 9 5 7 0;
#X connect 9 6 37 0;
#X connect 10 0 11 0;
#X connect 10 1 5 0;
#X connect 11 0 12 0;
#X connect 12 0 14 0;
#X connect 12 1 13 0;
#X connect 13 0 14 1;
#X connect 13 0 11 0;
#X connect 14 0 51 0;
#X connect 15 0 10 0;
#X connect 16 0 15 0;
#X connect 17 0 18 0;
#X connect 17 1 5 0;
#X connect 18 0 19 0;
#X connect 19 0 21 0;
#X connect 19 1 20 0;
#X connect 20 0 21 1;
#X connect 20 0 18 0;
#X connect 21 0 52 0;
#X connect 22 0 29 0;
#X connect 23 0 24 0;
#X connect 23 1 5 0;
#X connect 24 0 25 0;
#X connect 25 0 27 0;
#X connect 25 1 26 0;
#X connect 26 0 27 1;
#X connect 26 0 24 0;
#X connect 27 0 53 0;
#X connect 28 0 30 0;
#X connect 29 0 17 0;
#X connect 30 0 23 0;
#X connect 31 0 32 0;
#X connect 31 1 5 0;
#X connect 32 0 33 0;
#X connect 33 0 35 0;
#X connect 33 1 34 0;
#X connect 34 0 35 1;
#X connect 34 0 32 0;
#X connect 35 0 60 0;
#X connect 37 0 36 0;
#X connect 38 0 28 1;
#X connect 39 0 38 0;
#X connect 40 0 77 0;
#X connect 41 0 49 0;
#X connect 42 0 41 0;
#X connect 42 1 41 1;
#X connect 43 0 44 0;
#X connect 44 0 50 0;
#X connect 45 0 44 0;
#X connect 45 1 44 1;
#X connect 46 0 43 0;
#X connect 47 0 41 0;
#X connect 48 0 47 0;
#X connect 49 0 16 1;
#X connect 50 0 22 1;
#X connect 51 0 5 0;
#X connect 52 0 5 0;
#X connect 53 0 5 0;
#X connect 54 0 61 0;
#X connect 54 1 62 0;
#X connect 55 0 63 0;
#X connect 55 1 5 0;
#X connect 56 0 64 0;
#X connect 56 1 57 0;
#X connect 57 0 58 1;
#X connect 58 0 59 0;
#X connect 59 0 5 0;
#X connect 60 0 5 0;
#X connect 61 0 55 0;
#X connect 62 0 31 0;
#X connect 63 0 56 0;
#X connect 64 0 58 0;
#X connect 66 0 39 0;
#X connect 67 0 80 0;
#X connect 68 0 45 0;
#X connect 69 0 42 0;
#X connect 70 0 37 0;
#X connect 71 0 69 0;
#X connect 72 0 68 0;
#X connect 73 0 28 0;
#X connect 73 1 66 0;
#X connect 73 2 74 0;
#X connect 74 0 39 1;
#X connect 75 0 83 0;
#X connect 77 0 67 0;
#X connect 77 1 76 0;
#X connect 78 0 2 0;
#X connect 79 0 75 0;
#X connect 80 0 81 0;
#X connect 81 0 1 0;
#X connect 83 0 4 0;
#X connect 83 1 6 0;
#X connect 83 2 3 0;
#X restore 59 341 pd transition_loader;
#N canvas 525 22 627 302 \$0-transition 0;
#X restore 59 361 pd \$0-transition;
#N canvas 151 242 403 420 route 0;
#X obj 89 187 ds_route /ds/\$1\$2/data_prepend;
#X obj 89 207 ds_route /ds/\$1\$2/data_append;
#X obj 89 227 ds_route /ds/\$1\$2/name_prepend;
#X obj 89 247 ds_route /ds/\$1\$2/name_append;
#X obj 89 347 r /ds/\$1/name/route;
#X obj 89 369 s /ds/\$1\$2/name/route;
#X obj 89 267 ds_route /ds/\$1\$2/name;
#X obj 89 157 ds_route /ds/\$1\$2/change;
#X obj 89 297 ds_route /ds/\$1\$2/resize;
#X connect 4 0 5 0;
#X restore 59 321 pd route;
#X text 21 50 registers variables or tables to state saving system
;
#X obj 59 168 inlet slave-chain;
#X obj 59 413 t b b;
#N canvas 79 123 524 565 fetch_and_route_loader 0;
#X msg 322 295 clear;
#X obj 50 128 t b b b;
#X msg 139 169 0;
#X msg 90 169 1;
#X msg 69 478 loadbang;
#X obj 69 234 list append \$1 \$2;
#X obj 69 257 t b l b;
#X obj 50 66 r \$0-init-complete;
#X obj 88 375 kdemux2;
#X msg 127 405 obj 30 20 ds_fetch_table \$1 \$2;
#X msg 88 435 obj 30 20 ds_fetch \$1 \$2;
#X obj 322 534 s pd-\$0-fetch_and_route;
#X obj 139 202 s /ds/\$1/dsp;
#X obj 127 324 v /ds/\$1\$2/table/v;
#X obj 322 251 r \$0-preinit;
#X connect 0 0 11 0;
#X connect 1 0 3 0;
#X connect 1 1 5 0;
#X connect 1 2 2 0;
#X connect 2 0 12 0;
#X connect 3 0 12 0;
#X connect 4 0 11 0;
#X connect 5 0 6 0;
#X connect 6 0 4 0;
#X connect 6 1 8 0;
#X connect 6 2 0 0;
#X connect 6 2 13 0;
#X connect 7 0 1 0;
#X connect 8 0 10 0;
#X connect 8 1 9 0;
#X connect 9 0 11 0;
#X connect 10 0 11 0;
#X connect 13 0 8 1;
#X connect 14 0 0 0;
#X restore 59 241 pd fetch_and_route_loader;
#N canvas 0 22 450 300 \$0-fetch_and_route 0;
#X restore 59 261 pd \$0-fetch_and_route;
#N canvas 585 129 277 212 print 0;
#X obj 64 86 r /ds/\$1\$2/print/out;
#X obj 64 108 list prepend \$2:;
#X obj 64 130 s /ds/\$1/print;
#X connect 0 0 1 0;
#X connect 1 0 2 0;
#X restore 59 281 pd print;
#X text 39 80 arguments: nomorph \, slave \, data_prepend \, data_append
<symbol> \, name_prepend <symbol> \, name_append <symbol> \, direct
\, delay <time/s> \, noslave \, nodelay \, nochange \, occupy \, nooccupy
\, table \, resize \, noresize;
#X text 198 263 <-- clear contents before saving!!!;
#X text 167 361 <-- clear contents before saving!!!;
#X connect 6 0 13 0;
#X connect 12 0 4 0;
#X connect 13 0 1 0;
#X connect 13 1 7 0;
