#N canvas 38 106 797 450 10;
#X text 27 22 ds_reg_settings <domain> <subname>;
#X text 27 52 used by [ds_reg] for registering its settings;
#X text 357 363 (c)2012 Marian Weger;
#X obj 78 169 spigot 1;
#X obj 369 155 spigot 1;
#X obj 78 235 t b b;
#X msg 174 269 0;
#X obj 78 365 kdemux2;
#X obj 251 411 s;
#X msg 272 273 1;
#X obj 253 247 t b b a;
#X text 262 168 route value;
#X obj 266 372 symbol;
#X obj 253 185 r /ds/\$1\$2/route;
#X obj 369 93 r /ds/\$1\$2/dispatch;
#X obj 369 315 s /ds/\$1\$2;
#X obj 78 405 list prepend \$2;
#X obj 93 269 r /ds/\$1\$2;
#X obj 78 93 r /ds/\$1/fetch/settings;
#X obj 78 431 s /ds/\$1/fetched;
#X obj 233 116 r /ds/\$1\$2/reg/state;
#X obj 588 101 r /ds/\$1\$2/resend;
#X obj 588 123 b;
#X obj 588 145 list append /ds/\$1\$2;
#X obj 588 167 list trim;
#X obj 588 189 s /ds/\$1\$2/route;
#X obj 78 310 v /ds/\$1\$2/v;
#X obj 78 135 anyonce /ds/\$1\$2/fetch;
#X obj 369 121 anyonce /ds/\$1\$2/dispatch;
#X obj 253 207 anyonce /ds/\$1\$2/route;
#X connect 3 0 5 0;
#X connect 4 0 15 0;
#X connect 5 0 26 0;
#X connect 5 1 6 0;
#X connect 6 0 7 1;
#X connect 7 0 16 0;
#X connect 7 1 8 0;
#X connect 9 0 7 1;
#X connect 10 0 26 0;
#X connect 10 1 9 0;
#X connect 10 2 12 0;
#X connect 12 0 8 1;
#X connect 13 0 29 0;
#X connect 14 0 28 0;
#X connect 16 0 19 0;
#X connect 17 0 26 0;
#X connect 18 0 27 0;
#X connect 20 0 3 1;
#X connect 20 0 4 1;
#X connect 21 0 22 0;
#X connect 22 0 23 0;
#X connect 23 0 24 0;
#X connect 24 0 25 0;
#X connect 26 0 7 0;
#X connect 27 0 3 0;
#X connect 28 0 4 0;
#X connect 29 0 10 0;
