#N canvas 534 144 439 383 10;
#X text 20 21 ds_route <name>;
#X obj 95 315 s;
#X text 92 51 route value;
#X obj 110 286 symbol;
#X obj 83 147 t b a;
#X obj 38 240 list;
#X obj 38 286 route bang;
#X text 62 360 (c)2012 Marian Weger;
#X obj 38 65 r \$1;
#X obj 83 68 r \$1/route;
#X obj 38 262 list trim;
#X obj 323 141 r \$1/resend;
#X obj 323 163 b;
#X obj 323 185 list prepend \$1;
#X obj 323 207 list trim;
#X obj 323 229 s \$1/route;
#X obj 169 246 route float;
#X obj 169 268 v \$1/v;
#X obj 83 120 anyonce \$1;
#X obj 83 90 route bang;
#X connect 3 0 1 1;
#X connect 4 0 5 0;
#X connect 4 1 3 0;
#X connect 5 0 10 0;
#X connect 6 1 1 0;
#X connect 8 0 5 1;
#X connect 8 0 16 0;
#X connect 9 0 19 0;
#X connect 10 0 6 0;
#X connect 11 0 12 0;
#X connect 12 0 13 0;
#X connect 13 0 14 0;
#X connect 14 0 15 0;
#X connect 16 0 17 0;
#X connect 18 0 4 0;
#X connect 19 1 18 0;
