#N canvas 423 22 540 594 10;
#X msg 36 278 0;
#X obj 84 278 s;
#X obj 67 107 t b b f b;
#X msg 82 398 1;
#X obj 67 437 f 0;
#X obj 67 469 outlet slot-status;
#X obj 67 84 inlet slot-id;
#X text 88 536 (c)2013 Marian Weger;
#X obj 291 210 list prepend \$1;
#X msg 291 232 symbol /ds/\$1/slot/\$2/status/request;
#X text 26 22 ds/slot-status-request <domain>;
#X obj 82 306 r \$0-slot-status-answer;
#X obj 84 210 f \$0;
#X msg 84 232 symbol \$1-slot-status-answer;
#X obj 82 348 f;
#X obj 117 348 + 1;
#X obj 82 370 sel 0;
#X obj 206 425 list prepend slot;
#X obj 206 402 list prepend has;
#X obj 206 447 list append duplicates!;
#X obj 206 469 print /ds/\$1/print/errors;
#X connect 0 0 4 1;
#X connect 0 0 14 1;
#X connect 2 0 4 0;
#X connect 2 1 12 0;
#X connect 2 2 8 0;
#X connect 2 2 17 1;
#X connect 2 3 0 0;
#X connect 3 0 4 1;
#X connect 4 0 5 0;
#X connect 6 0 2 0;
#X connect 8 0 9 0;
#X connect 9 0 1 1;
#X connect 11 0 14 0;
#X connect 12 0 13 0;
#X connect 13 0 1 0;
#X connect 14 0 15 0;
#X connect 14 0 16 0;
#X connect 15 0 14 1;
#X connect 16 0 3 0;
#X connect 16 1 18 0;
#X connect 17 0 19 0;
#X connect 18 0 17 0;
#X connect 19 0 20 0;
