#N canvas 659 92 653 517 10;
#X text 193 410 (c)2012 Marian Weger;
#N canvas 790 238 450 300 prev-next 0;
#X msg 38 64 -1;
#X msg 118 64 1;
#X obj 38 146 +;
#X obj 118 146 +;
#X obj 118 205 max 0;
#X obj 38 22 r \$0-gui-offset/prev;
#X obj 118 42 r \$0-gui-offset/next;
#X obj 133 102 r \$0-gui-offset;
#X obj 118 229 s \$0-gui-offset;
#X connect 0 0 2 0;
#X connect 1 0 3 0;
#X connect 2 0 4 0;
#X connect 3 0 4 0;
#X connect 4 0 8 0;
#X connect 5 0 0 0;
#X connect 6 0 1 0;
#X connect 7 0 3 1;
#X connect 7 0 2 1;
#X restore 505 169 pd prev-next;
#X obj 101 116 cnv 20 314 283 empty empty empty 20 12 0 14 -228856
-66577 0;
#X obj 101 115 vradio 16 1 0 12 \$0-cursor-set \$0-cursor empty 0 -8
0 10 -176107 -1 -1 4;
#X obj 383 115 vradio 16 1 0 12 \$0-selected-set \$0-selected empty
0 -8 0 10 -260454 -1 -1 4;
#X obj 101 115 cnv 13 16 15 empty empty empty 20 12 0 14 -228856 -66577
0;
#X obj 117 307 nbx 3 16 -1e+37 1e+37 0 0 \$0-scene-set \$0-scene empty
0 -8 0 10 -204786 -1 -1 3 256;
#X obj 399 115 bng 16 250 50 0 \$0-gui-offset/prev \$0-gui-offset/prev
< 4 7 0 10 -262144 -1 -1;
#X obj 399 291 bng 16 250 50 0 \$0-gui-offset/next \$0-gui-offset/next
> 5 7 0 10 -262144 -1 -1;
#X obj 399 133 vsl 16 155 1 0 0 0 \$0-offset-slider-set \$0-offset-slider
empty 0 -9 0 10 -262144 -1 -1 15400 1;
#X symbolatom 153 307 29 0 0 0 - #0-name #0-name-set;
#X obj 347 362 bng 28 250 50 0 /ds/\$1/play /ds/\$1/play > 7 11 0 30
-1 -66577 -262144;
#X obj 315 362 bng 28 250 50 0 /ds/\$1/pause /ds/\$1/pause || 3 15
0 20 -1 -66577 -24198;
#X obj 379 362 bng 28 250 50 0 /ds/\$1/forward /ds/\$1/forward » 6
11 0 30 -1 -99865 -262144;
#X obj 283 362 bng 28 250 50 0 /ds/\$1/backward /ds/\$1/backward «
5 11 0 30 -1 -99865 -262144;
#X obj 328 116 cnv 13 54 13 empty empty DUR/s 8 7 0 12 -204800 -1 0
;
#X obj 154 116 cnv 13 173 13 empty empty NAME 8 7 0 12 -162280 -262144
0;
#X obj 118 116 cnv 13 34 13 empty empty ID 8 7 0 12 -232576 -1 0;
#X text 118 362 Elapsed:;
#X text 106 376 Remaining:;
#X obj 328 307 nbx 5 16 0 1e+37 0 0 \$0-duration-set \$0-duration empty
0 -8 0 10 -204800 -1 -1 0 256;
#X obj 283 340 bng 15 250 50 0 /ds/\$1/scheduler/advanced/vis /ds/\$1/scheduler/advanced/vis
advanced 17 7 0 10 -262144 -1 -1;
#X text 31 32 ds_scheduler_gui <domain>;
#N canvas 0 22 450 300 SET_DURATION 0;
#X obj 96 112 spigot 1;
#X obj 123 228 s;
#X obj 138 180 list prepend \$1;
#X obj 96 60 r \$0-duration-set;
#X msg 138 202 symbol /ds/\$1/scene/\$2/duration;
#X obj 96 134 t b f;
#X obj 96 256 s /ds/\$1/scheduler/gui/update;
#X obj 141 89 r /ds/\$1/scene/current/lock;
#X obj 138 158 r /ds/\$1/scene/current;
#X connect 0 0 5 0;
#X connect 2 0 4 0;
#X connect 3 0 0 0;
#X connect 4 0 1 1;
#X connect 5 0 6 0;
#X connect 5 1 1 0;
#X connect 7 0 0 1;
#X connect 8 0 2 0;
#X restore 505 289 pd SET_DURATION;
#N canvas 196 135 450 300 SET_NAME 0;
#X obj 118 82 r \$0-name-set;
#X obj 145 253 s;
#X obj 160 205 list prepend \$1;
#X msg 160 227 symbol /ds/\$1/scene/\$2/name;
#X obj 118 309 s /ds/\$1/scheduler/gui/update;
#X obj 118 134 spigot 1;
#X obj 118 157 t b s;
#X obj 163 110 r /ds/\$1/scene/current/lock;
#X obj 160 183 r /ds/\$1/scene/current;
#X connect 0 0 5 0;
#X connect 2 0 3 0;
#X connect 3 0 1 1;
#X connect 5 0 6 0;
#X connect 6 0 4 0;
#X connect 6 1 1 0;
#X connect 7 0 5 1;
#X connect 8 0 2 0;
#X restore 505 269 pd SET_NAME;
#N canvas 0 22 450 300 ADVANCED 0;
#X msg 103 122 vis 1;
#X obj 103 70 r /ds/\$1/scheduler/advanced/vis;
#X obj 103 95 anyonce /ds/\$1/scheduler/advanced/vis;
#X obj 103 144 s pd-\$0-scheduler-advanced;
#N canvas 442 22 195 117 \$0-scheduler-advanced 0;
#X obj 4 -254 cnv 15 170 100 empty empty Scheduler 5 10 0 14 -228856
-66577 0;
#X obj 21 -229 nbx 5 14 0.1 1e+37 0 0 /ds/\$1/resolution /ds/\$1/resolution
resolution/ms 57 8 0 10 -262144 -1 -1 1 256;
#X obj 21 -190 vradio 15 1 0 2 /ds/\$1/timebase /ds/\$1/timebase timebase
0 -8 0 10 -262144 -1 -1 0;
#X text 39 -175 OS;
#X text 39 -191 CPU;
#X coords 0 117 1 116 85 60 0;
#X restore 103 190 pd \$0-scheduler-advanced;
#X connect 0 0 3 0;
#X connect 1 0 2 0;
#X connect 2 0 0 0;
#X restore 505 379 pd ADVANCED;
#N canvas 0 22 493 346 INIT 0;
#X msg 243 131 0;
#X obj 243 153 s \$0-gui-offset;
#X obj 121 31 loadbang;
#X obj 168 131 symbol;
#X obj 168 153 s \$0-name;
#X obj 121 73 t b b;
#X connect 0 0 1 0;
#X connect 2 0 5 0;
#X connect 3 0 4 0;
#X connect 5 0 3 0;
#X connect 5 1 0 0;
#X restore 505 139 pd INIT;
#N canvas 0 22 450 300 SELECTED_SCENE 0;
#X obj 94 116 t b f;
#X msg 77 199 set \$1;
#X obj 77 169 + 1;
#X obj 77 147 - 0;
#X obj 249 182 + 0;
#X obj 249 126 - 1;
#X obj 249 104 r \$0-selected-set;
#X obj 77 223 s \$0-selected;
#X obj 77 65 r /ds/\$1/scene/selected;
#X obj 249 220 s /ds/\$1/scene/selected;
#X obj 94 94 r \$0-gui-offset;
#X obj 264 153 r \$0-gui-offset;
#X connect 0 0 3 0;
#X connect 0 1 3 1;
#X connect 1 0 7 0;
#X connect 2 0 1 0;
#X connect 3 0 2 0;
#X connect 4 0 9 0;
#X connect 5 0 4 0;
#X connect 6 0 5 0;
#X connect 8 0 3 0;
#X connect 10 0 0 0;
#X connect 11 0 4 1;
#X restore 505 239 pd SELECTED_SCENE;
#N canvas 0 22 450 300 CURRENT_SCENE 0;
#X obj 96 112 t b f;
#X msg 79 195 set \$1;
#X obj 79 165 + 1;
#X obj 79 143 - 0;
#X obj 79 219 s \$0-cursor;
#X obj 243 81 r \$0-cursor-set;
#X obj 243 163 + 0;
#X obj 243 107 - 1;
#X obj 243 197 s /ds/\$1/scene/current;
#X obj 96 90 r \$0-gui-offset;
#X obj 258 134 r \$0-gui-offset;
#X obj 79 51 r /ds/\$1/scene/current;
#X connect 0 0 3 0;
#X connect 0 1 3 1;
#X connect 1 0 4 0;
#X connect 2 0 1 0;
#X connect 3 0 2 0;
#X connect 5 0 7 0;
#X connect 6 0 8 0;
#X connect 7 0 6 0;
#X connect 9 0 0 0;
#X connect 10 0 6 1;
#X connect 11 0 3 0;
#X restore 505 219 pd CURRENT_SCENE;
#N canvas 83 227 464 383 SLIDER 0;
#X obj 246 303 s \$0-offset-slider;
#X msg 246 281 set \$1;
#X obj 47 21 r \$0-offset-slider-set;
#X obj 47 227 int;
#X obj 47 205 + 0.5;
#X obj 47 269 t b f b;
#X msg 113 238 0;
#X msg 143 238 1;
#X obj 246 43 spigot 1;
#X obj 47 302 s \$0-gui-offset;
#X obj 246 21 r \$0-gui-offset;
#X obj 246 219 / 100;
#X obj 47 183 * 90;
#X obj 68 130 - 8;
#X obj 273 197 + 1;
#X obj 68 152 t b f;
#X obj 68 58 r /ds/\$1/scene/maximum;
#X obj 68 80 max 98;
#X obj 68 102 t f f;
#X connect 1 0 0 0;
#X connect 2 0 12 0;
#X connect 3 0 5 0;
#X connect 4 0 3 0;
#X connect 5 0 7 0;
#X connect 5 1 9 0;
#X connect 5 2 6 0;
#X connect 6 0 8 1;
#X connect 7 0 8 1;
#X connect 8 0 11 0;
#X connect 10 0 8 0;
#X connect 11 0 1 0;
#X connect 12 0 4 0;
#X connect 13 0 15 0;
#X connect 14 0 11 1;
#X connect 15 0 12 0;
#X connect 15 1 12 1;
#X connect 16 0 17 0;
#X connect 17 0 18 0;
#X connect 18 0 13 0;
#X connect 18 1 14 0;
#X restore 505 189 pd SLIDER;
#N canvas 0 22 450 300 COLOR_selected_scene 0;
#X obj 117 232 outlet;
#X msg 117 196 color \$1 22 22;
#X obj 117 82 r /ds/\$1/transition/busy;
#X obj 117 104 sel 0 1;
#N canvas 0 22 423 423 rgb2iemgui 0;
#X obj 202 169 t b f;
#X obj 156 227 +;
#X obj 156 252 t b f;
#X obj 156 283 +;
#X obj 99 147 * -65536;
#X obj 156 147 * -256;
#X obj 202 147 * -1;
#X obj 156 314 - 1;
#X obj 156 336 outlet;
#X obj 102 39 inlet;
#X obj 102 83 pack 0 0 0;
#X obj 192 39 inlet;
#X obj 262 39 inlet;
#X obj 102 105 unpack 0 0 0;
#X connect 0 0 1 0;
#X connect 0 1 1 1;
#X connect 1 0 2 0;
#X connect 2 0 3 0;
#X connect 2 1 3 1;
#X connect 3 0 7 0;
#X connect 4 0 3 0;
#X connect 5 0 1 0;
#X connect 6 0 0 0;
#X connect 7 0 8 0;
#X connect 9 0 10 0;
#X connect 10 0 13 0;
#X connect 11 0 10 1;
#X connect 12 0 10 2;
#X connect 13 0 4 0;
#X connect 13 1 5 0;
#X connect 13 2 6 0;
#X restore 117 168 pd rgb2iemgui;
#X msg 207 136 220 220 220;
#X msg 117 136 255 150 150;
#X connect 1 0 0 0;
#X connect 2 0 3 0;
#X connect 3 0 6 0;
#X connect 3 1 5 0;
#X connect 4 0 1 0;
#X connect 5 0 4 0;
#X connect 6 0 4 0;
#X restore 383 74 pd COLOR_selected_scene;
#N canvas 0 22 450 300 UPDATE 0;
#X obj 82 144 symbol;
#X obj 82 166 s \$0-name;
#X obj 196 70 b;
#X obj 196 48 r /ds/\$1/scheduler/gui/update;
#X obj 211 119 r \$0-gui-offset;
#X obj 196 141 f;
#X obj 196 163 s \$0-gui-offset;
#X text 21 118 intentionally disconnected;
#X connect 0 0 1 0;
#X connect 2 0 5 0;
#X connect 3 0 2 0;
#X connect 4 0 5 1;
#X connect 5 0 6 0;
#X restore 505 408 pd UPDATE;
#X obj 117 163 ds_scheduler_gui_element \$1 2 \$0;
#N canvas 101 102 487 297 GET_NAME_&_DURATION 0;
#X obj 181 102 spacereplace _;
#X obj 181 124 s \$0-name;
#X msg 181 186 set \$1;
#X obj 181 208 s \$0-duration;
#X obj 181 76 r /ds/\$1/scene/current/name;
#X obj 181 164 r /ds/\$1/scene/current/duration;
#X connect 0 0 1 0;
#X connect 2 0 3 0;
#X connect 4 0 0 0;
#X connect 5 0 2 0;
#X restore 507 436 pd GET_NAME_&_DURATION;
#N canvas 783 166 450 300 SET_CURRENT_SCENE 0;
#X obj 96 60 r \$0-scene-set;
#X obj 96 102 s /ds/\$1/scene/current;
#X connect 0 0 1 0;
#X restore 505 309 pd SET_CURRENT_SCENE;
#N canvas 783 166 450 300 GET_CURRENT_SCENE 0;
#X msg 96 94 set \$1;
#X obj 96 118 s \$0-scene;
#X obj 96 60 r /ds/\$1/scene/current;
#X connect 0 0 1 0;
#X connect 2 0 0 0;
#X restore 505 339 pd GET_CURRENT_SCENE;
#X obj 117 147 ds_scheduler_gui_element \$1 1 \$0;
#X obj 117 131 ds_scheduler_gui_element \$1 0 \$0;
#X obj 117 179 ds_scheduler_gui_element \$1 3 \$0;
#X obj 117 195 ds_scheduler_gui_element \$1 4 \$0;
#X obj 117 211 ds_scheduler_gui_element \$1 5 \$0;
#X obj 117 227 ds_scheduler_gui_element \$1 6 \$0;
#X obj 117 243 ds_scheduler_gui_element \$1 7 \$0;
#X obj 117 259 ds_scheduler_gui_element \$1 8 \$0;
#X obj 117 275 ds_scheduler_gui_element \$1 9 \$0;
#N canvas 0 22 459 339 COLOR_PLAY 0;
#X obj 117 322 outlet;
#X msg 117 246 0;
#X obj 117 47 r /ds/\$1/playing;
#X obj 117 179 sel 0 1;
#X obj 220 84 r /ds/\$1/transition/busy;
#X msg 117 286 color 22 2 \$1;
#X msg 217 286 color 15 2 13;
#X obj 117 149 f;
#X obj 208 205 kdemux2;
#X msg 257 246 13;
#X obj 220 106 t b f;
#X msg 217 246 16;
#X connect 1 0 5 0;
#X connect 2 0 7 0;
#X connect 3 0 1 0;
#X connect 3 1 8 0;
#X connect 4 0 10 0;
#X connect 5 0 0 0;
#X connect 6 0 0 0;
#X connect 7 0 3 0;
#X connect 8 0 11 0;
#X connect 8 1 9 0;
#X connect 9 0 5 0;
#X connect 10 0 7 0;
#X connect 10 1 8 1;
#X connect 11 0 5 0;
#X restore 347 54 pd COLOR_PLAY;
#N canvas 142 357 545 369 COLOR_PAUSE 0;
#X obj 121 314 outlet;
#X obj 118 40 r /ds/\$1/playing;
#X obj 118 172 sel 0 1;
#X obj 221 77 r /ds/\$1/transition/busy;
#X msg 118 279 color 22 2 \$1;
#X obj 118 142 f;
#X obj 209 198 kdemux2;
#X msg 258 239 13;
#X obj 221 99 t b f;
#X msg 218 239 16;
#X msg 136 230 0;
#X connect 1 0 5 0;
#X connect 2 0 6 0;
#X connect 2 1 10 0;
#X connect 3 0 8 0;
#X connect 4 0 0 0;
#X connect 5 0 2 0;
#X connect 6 0 9 0;
#X connect 6 1 7 0;
#X connect 7 0 4 0;
#X connect 8 0 5 0;
#X connect 8 1 6 1;
#X connect 9 0 4 0;
#X connect 10 0 4 0;
#X restore 315 34 pd COLOR_PAUSE;
#X floatatom 223 362 3 0 0 2 s /ds/#1/timer/elapsed/s #0-dummy;
#X floatatom 223 376 3 0 0 0 - /ds/#1/timer/remaining/s #0-dummy;
#X floatatom 243 362 4 0 0 2 % /ds/#1/timer/elapsed/cs #0-dummy;
#X floatatom 243 376 4 0 0 0 - /ds/#1/timer/remaining/cs #0-dummy;
#X floatatom 197 362 4 0 0 2 m /ds/#1/timer/elapsed/min #0-dummy;
#X floatatom 197 376 4 0 0 0 - /ds/#1/timer/remaining/min #0-dummy
;
#X floatatom 171 362 4 0 0 2 h /ds/#1/timer/elapsed/h #0-dummy;
#X floatatom 171 376 4 0 0 2 - /ds/#1/timer/remaining/h #0-dummy;
#X obj 101 292 cnv 13 16 15 empty empty empty 20 12 0 14 -228856 -66577
0;
#X obj 383 115 cnv 13 15 15 empty empty empty 20 12 0 14 -228856 -66577
0;
#X obj 383 292 cnv 13 15 15 empty empty empty 20 12 0 14 -228856 -66577
0;
#X connect 30 0 4 0;
#X connect 45 0 11 0;
#X connect 46 0 12 0;
#X coords 0 -1 1 1 316 300 1 100 100;
