#N canvas 39 323 470 347 10;
#X obj 74 109 inlet;
#X obj 201 109 inlet;
#X text 226 10 0: left inlet to left outlet;
#X text 226 30 non zero: left inlet to right outlet;
#X obj 74 257 spigot 1;
#X obj 156 279 outlet;
#X obj 74 279 outlet;
#X obj 119 161 == 0;
#X obj 201 161 != 0;
#X obj 119 87 loadbang;
#X obj 119 109 float \$1;
#X obj 156 257 spigot 0;
#X text 244 287 (c)2012 Marian Weger;
#X text 43 11 kdemux2 <init value>;
#X connect 0 0 4 0;
#X connect 0 0 11 0;
#X connect 1 0 7 0;
#X connect 1 0 8 0;
#X connect 4 0 6 0;
#X connect 7 0 4 1;
#X connect 8 0 11 1;
#X connect 9 0 10 0;
#X connect 10 0 7 0;
#X connect 10 0 8 0;
#X connect 11 0 5 0;
