#N canvas 488 200 447 360 10;
#X obj 94 129 inlet;
#X obj 174 217 spigot;
#X obj 269 129 inlet;
#X obj 94 217 spigot 1;
#X obj 94 279 outlet;
#X obj 139 191 == 0;
#X obj 207 191 != 0;
#X text 141 75 non zero: 2nd inlet to outlet;
#X text 141 55 0: 1st inlet to outlet;
#X obj 174 129 inlet;
#X text 257 285 (c)2012 Marian Weger;
#X text 49 39 kmux2;
#X connect 0 0 3 0;
#X connect 1 0 4 0;
#X connect 2 0 5 0;
#X connect 2 0 6 0;
#X connect 3 0 4 0;
#X connect 5 0 3 1;
#X connect 6 0 1 1;
#X connect 9 0 1 0;
