#N canvas 223 136 610 610 10;
#X obj 370 409 tabread dummy;
#X obj 122 192 list prepend set;
#X obj 122 234 list trim;
#X text 428 555 (c)2013 Marian Weger;
#X obj 346 78 loadbang;
#X obj 346 100 list prepend \$1;
#X obj 346 122 route 0;
#X obj 385 258 expr size("$s1");
#X obj 370 344 until;
#X obj 370 312 t f b;
#X obj 370 376 f;
#X obj 413 376 + 1;
#X msg 413 344 0;
#X obj 239 569 outlet data;
#X obj 370 283 f;
#X obj 385 236 symbol dummy;
#X obj 239 100 route bang set;
#X obj 239 192 t b b b b;
#X text 71 47 Pd-Vanilla compatible replacement for zexy/tabdump;
#X obj 239 78 inlet;
#X obj 290 467 list prepend;
#X obj 239 543 list;
#X obj 290 509 t a a;
#X text 70 20 ktabdump (<table name>);
#X connect 0 0 20 0;
#X connect 1 0 2 0;
#X connect 2 0 0 0;
#X connect 4 0 5 0;
#X connect 5 0 6 0;
#X connect 6 1 1 0;
#X connect 6 1 15 0;
#X connect 7 0 14 1;
#X connect 8 0 10 0;
#X connect 9 0 8 0;
#X connect 9 1 12 0;
#X connect 10 0 11 0;
#X connect 10 0 0 0;
#X connect 11 0 10 1;
#X connect 12 0 10 1;
#X connect 14 0 9 0;
#X connect 15 0 7 0;
#X connect 16 0 17 0;
#X connect 16 1 15 0;
#X connect 16 1 1 0;
#X connect 17 0 21 0;
#X connect 17 1 14 0;
#X connect 17 2 21 1;
#X connect 17 2 20 1;
#X connect 17 3 15 0;
#X connect 19 0 16 0;
#X connect 20 0 22 0;
#X connect 21 0 13 0;
#X connect 22 0 21 1;
#X connect 22 1 20 1;
