#N canvas 186 196 359 409 10;
#X obj 177 232 + 1;
#X obj 105 100 inlet;
#X obj 105 313 spigot;
#X obj 138 289 == 0;
#X obj 105 335 outlet;
#X text 64 386 (c)2013 Marian Weger;
#X text 42 55 loadonce <name>;
#X obj 105 122 t a b;
#X obj 138 208 t f f f;
#X obj 138 183 v loadonce-\$1;
#X obj 177 252 v loadonce-\$1;
#X obj 174 289 > 0;
#X obj 174 311 sel 1;
#X obj 174 335 outlet;
#X obj 252 98 inlet reset;
#X obj 252 120 b;
#X msg 252 142 0;
#X connect 0 0 10 0;
#X connect 1 0 7 0;
#X connect 2 0 4 0;
#X connect 3 0 2 1;
#X connect 7 0 2 0;
#X connect 7 1 9 0;
#X connect 8 0 3 0;
#X connect 8 1 11 0;
#X connect 8 2 0 0;
#X connect 9 0 8 0;
#X connect 11 0 12 0;
#X connect 12 0 13 0;
#X connect 14 0 15 0;
#X connect 15 0 16 0;
#X connect 16 0 9 0;
