#N canvas 24 22 426 658 10;
#X text 200 602 (c)2011 \, Marian Weger;
#X text 33 14 midi_r: <domain> <name> <type> <cc#/note#/prg#/...> <ch#>
<scaling> <offset> <interpol.time> <grain rate>;
#X obj 91 141 spigot 1;
#X msg 91 193 \$3 \$2 \$1;
#X obj 91 94 r /midi/\$1/in;
#N canvas 499 22 270 248 init 0;
#X obj 63 49 loadbang;
#X msg 63 115 1;
#X obj 63 71 f \$6;
#X obj 63 93 sel 0;
#X obj 63 143 s \$0-scaling;
#X obj 153 49 loadbang;
#X msg 153 115 1;
#X obj 153 93 sel 0;
#X obj 153 143 s \$0-channel;
#X obj 153 71 f \$5;
#X connect 0 0 2 0;
#X connect 1 0 4 0;
#X connect 2 0 3 0;
#X connect 3 0 1 0;
#X connect 3 1 4 0;
#X connect 5 0 9 0;
#X connect 6 0 8 0;
#X connect 7 0 6 0;
#X connect 7 1 8 0;
#X connect 9 0 7 0;
#X restore 279 193 pd init;
#X obj 91 455 * 1;
#X obj 91 406 / 127;
#X obj 204 94 inlet in-state;
#X obj 91 499 kdemux2 \$8;
#X obj 148 526 pack f \$8;
#X obj 148 554 line 0 \$9;
#X obj 91 267 route \$4;
#X obj 106 430 r \$0-scaling;
#X obj 91 171 route \$3;
#X obj 91 477 + \$7;
#X obj 91 585 s \$2;
#X obj 91 245 route 1;
#X obj 130 224 r \$0-channel;
#X obj 118 293 loadbang;
#X obj 118 315 symbol \$3;
#X msg 118 359 16383;
#X msg 163 359 127;
#X obj 118 337 sel bend;
#X obj 118 381 t f;
#X connect 2 0 14 0;
#X connect 3 0 17 0;
#X connect 4 0 2 0;
#X connect 6 0 15 0;
#X connect 7 0 6 0;
#X connect 8 0 2 1;
#X connect 9 0 16 0;
#X connect 9 1 10 0;
#X connect 10 0 11 0;
#X connect 11 0 16 0;
#X connect 12 0 7 0;
#X connect 13 0 6 1;
#X connect 14 0 3 0;
#X connect 15 0 9 0;
#X connect 17 0 12 0;
#X connect 18 0 17 1;
#X connect 19 0 20 0;
#X connect 20 0 23 0;
#X connect 21 0 24 0;
#X connect 22 0 24 0;
#X connect 23 0 21 0;
#X connect 23 1 22 0;
#X connect 24 0 7 1;
