#N canvas 523 201 509 361 10;
#N canvas 288 31 780 668 note 0;
#X obj 222 427 makenote 127 100;
#X obj 538 323 r /midi/\$1/gen/note/velocity;
#X obj 432 71 r /midi/\$1/gen/note/duration;
#X obj 319 519 r /midi/\$1/gen/ch;
#X obj 262 591 list prepend note;
#X obj 432 93 sel 0;
#X obj 262 339 spigot 1;
#X msg 294 313 0;
#X msg 432 313 1;
#X obj 415 339 spigot;
#X obj 432 125 t b b;
#X obj 481 125 t f b b;
#X msg 324 313 1;
#X msg 462 313 0;
#X obj 262 645 outlet;
#X obj 571 396 r /midi/\$1/gen/note/send/vel;
#X obj 538 345 t b f;
#X obj 250 45 t b f;
#X obj 250 20 r /midi/\$1/gen/note/nr;
#X obj 67 149 r /midi/\$1/gen/note/send/note;
#X obj 306 50 r /midi/\$1/gen/note/send;
#X obj 306 72 t b;
#X obj 262 225 f;
#X obj 538 419 spigot;
#X obj 34 175 spigot;
#X obj 262 544 pack f f 1;
#X connect 0 0 25 0;
#X connect 0 1 25 1;
#X connect 1 0 16 0;
#X connect 2 0 5 0;
#X connect 3 0 25 2;
#X connect 4 0 14 0;
#X connect 5 0 10 0;
#X connect 5 1 11 0;
#X connect 6 0 0 0;
#X connect 7 0 6 1;
#X connect 8 0 9 1;
#X connect 9 0 25 0;
#X connect 10 0 8 0;
#X connect 10 1 7 0;
#X connect 11 0 0 2;
#X connect 11 1 12 0;
#X connect 11 2 13 0;
#X connect 12 0 6 1;
#X connect 13 0 9 1;
#X connect 15 0 23 1;
#X connect 16 0 23 0;
#X connect 16 1 0 1;
#X connect 16 1 25 1;
#X connect 17 0 24 0;
#X connect 17 1 22 1;
#X connect 18 0 17 0;
#X connect 19 0 24 1;
#X connect 20 0 21 0;
#X connect 21 0 22 0;
#X connect 22 0 6 0;
#X connect 22 0 9 0;
#X connect 23 0 22 0;
#X connect 24 0 22 0;
#X connect 25 0 4 0;
#X restore 84 69 pd note;
#N canvas 673 250 450 300 bend 0;
#X obj 109 77 r /midi/\$1/gen/bend;
#X obj 109 124 pack f 1;
#X obj 154 98 r /midi/\$1/gen/ch;
#X obj 109 146 list prepend bend;
#X obj 109 190 outlet;
#X connect 0 0 1 0;
#X connect 1 0 3 0;
#X connect 2 0 1 1;
#X connect 3 0 4 0;
#X restore 205 69 pd bend;
#X obj 228 133 r /midi/\$1/gen/dest;
#X obj 168 255 s /midi/\$1/out;
#X obj 147 179 list trim;
#X text 251 289 (c)2011 \, Marian Weger;
#N canvas 448 97 636 400 ctl 0;
#X obj -1228 305 outlet;
#X obj -1482 118 r /midi/\$1/gen/ctl/send;
#X obj -1100 79 r /midi/\$1/gen/ctl/value;
#X obj -1295 117 r /midi/\$1/gen/ctl/send/ctl;
#X obj -1482 140 t b;
#X obj -1328 80 t b f;
#X obj -1228 224 f;
#X obj -1328 146 spigot;
#X obj -1171 228 r /midi/\$1/gen/ctl/ch;
#X obj -1228 256 pack f f 1;
#X obj -1328 55 r /midi/\$1/gen/ctl/nr;
#X obj -1100 101 t b f;
#X obj -1100 151 spigot;
#X obj -1067 128 r /midi/\$1/gen/ctl/send/val;
#X obj -1228 278 list prepend ctl;
#X connect 1 0 4 0;
#X connect 2 0 11 0;
#X connect 3 0 7 1;
#X connect 4 0 6 0;
#X connect 5 0 7 0;
#X connect 5 1 9 1;
#X connect 6 0 9 0;
#X connect 7 0 6 0;
#X connect 8 0 9 2;
#X connect 9 0 14 0;
#X connect 10 0 5 0;
#X connect 11 0 12 0;
#X connect 11 1 6 1;
#X connect 12 0 6 0;
#X connect 13 0 12 1;
#X connect 14 0 0 0;
#X restore 147 69 pd ctl;
#X text 67 24 midi_gen <domain>;
#X obj 147 156 list prepend 0;
#X obj 147 202 route 0 1 2;
#X obj 189 232 s /midi/\$1/gen;
#X obj 147 277 s /midi/\$1/in;
#X obj 75 322 outlet;
#X connect 0 0 8 0;
#X connect 0 0 12 0;
#X connect 1 0 8 0;
#X connect 1 0 12 0;
#X connect 2 0 8 1;
#X connect 4 0 9 0;
#X connect 6 0 8 0;
#X connect 6 0 12 0;
#X connect 8 0 4 0;
#X connect 9 0 11 0;
#X connect 9 1 3 0;
#X connect 9 2 10 0;
