#N canvas 17 97 488 568 10;
#X text 33 14 midi_s <domain> <name> <type> <cc#/note#/prg#/...> <ch#>
<scaling> <offset>;
#X obj 37 162 spigot 1;
#X obj 37 80 r \$2;
#X obj 37 360 + 0.5;
#X obj 37 380 int;
#X obj 37 256 / 1;
#X obj 37 328 * 127;
#X obj 155 80 inlet out-state;
#X obj 37 102 route float;
#X obj 37 204 - \$7;
#X obj 52 232 r \$0-scaling;
#X obj 37 433 list append \$4;
#X obj 37 401 list prepend \$3;
#X text 249 472 (c)2011 \, Marian Weger;
#X obj 37 537 s /midi/\$1/out;
#X obj 37 507 list trim;
#N canvas 499 22 270 248 init 0;
#X obj 63 49 loadbang;
#X msg 63 115 1;
#X obj 63 71 f \$6;
#X obj 63 93 sel 0;
#X obj 63 143 s \$0-scaling;
#X obj 153 49 loadbang;
#X msg 153 115 1;
#X obj 153 93 sel 0;
#X obj 153 143 s \$0-channel;
#X obj 153 71 f \$5;
#X connect 0 0 2 0;
#X connect 1 0 4 0;
#X connect 2 0 3 0;
#X connect 3 0 1 0;
#X connect 3 1 4 0;
#X connect 5 0 9 0;
#X connect 6 0 8 0;
#X connect 7 0 6 0;
#X connect 7 1 8 0;
#X connect 9 0 7 0;
#X restore 315 183 pd init;
#X obj 37 485 list append 1;
#X obj 112 463 r \$0-channel;
#X obj 194 158 loadbang;
#X obj 194 180 symbol \$3;
#X msg 194 224 16383;
#X msg 239 224 127;
#X obj 194 202 sel bend;
#X obj 194 246 t f;
#X connect 1 0 9 0;
#X connect 2 0 8 0;
#X connect 3 0 4 0;
#X connect 4 0 12 0;
#X connect 5 0 6 0;
#X connect 6 0 3 0;
#X connect 7 0 1 1;
#X connect 8 0 1 0;
#X connect 9 0 5 0;
#X connect 10 0 5 1;
#X connect 11 0 17 0;
#X connect 12 0 11 0;
#X connect 15 0 14 0;
#X connect 17 0 15 0;
#X connect 18 0 17 1;
#X connect 19 0 20 0;
#X connect 20 0 23 0;
#X connect 21 0 24 0;
#X connect 22 0 24 0;
#X connect 23 0 21 0;
#X connect 23 1 22 0;
#X connect 24 0 6 1;
