#N canvas 57 61 657 664 10;
#X obj 137 109 spigot 1;
#X obj 137 551 ctlout;
#X obj 137 521 unpack f f f;
#X obj 173 466 unpack f f f;
#X obj 173 496 noteout;
#X obj 209 408 unpack f f;
#X obj 209 438 bendout;
#X obj 246 354 unpack f f;
#X obj 246 384 pgmout;
#X obj 282 294 unpack f f;
#X obj 355 184 unpack f f;
#X obj 319 234 unpack f f f;
#X obj 319 264 polytouchout;
#X obj 137 139 route ctl note bend pgm touch polytouch raw;
#X obj 282 324 touchout;
#X obj 355 206 midiout;
#X text 363 527 (c)2011 \, Marian Weger;
#X text 322 24 midi_out <domain>;
#X obj 391 80 spigot 1;
#X obj 391 102 print MIDI_OUT;
#X obj 137 37 r /midi/\$1/out;
#X obj 182 84 r /midi/\$1/out/active;
#X obj 436 55 r /midi/\$1/out/print;
#X obj 254 37 inlet;
#X connect 0 0 13 0;
#X connect 2 0 1 0;
#X connect 2 1 1 1;
#X connect 2 2 1 2;
#X connect 3 0 4 0;
#X connect 3 1 4 1;
#X connect 3 2 4 2;
#X connect 5 0 6 0;
#X connect 5 1 6 1;
#X connect 7 0 8 0;
#X connect 7 1 8 1;
#X connect 9 0 14 0;
#X connect 9 1 14 1;
#X connect 10 0 15 0;
#X connect 10 1 15 1;
#X connect 11 0 12 0;
#X connect 11 1 12 1;
#X connect 11 2 12 2;
#X connect 13 0 2 0;
#X connect 13 1 3 0;
#X connect 13 2 5 0;
#X connect 13 3 7 0;
#X connect 13 4 9 0;
#X connect 13 5 11 0;
#X connect 13 6 10 0;
#X connect 18 0 19 0;
#X connect 20 0 0 0;
#X connect 20 0 18 0;
#X connect 21 0 0 1;
#X connect 22 0 18 1;
#X connect 23 0 0 0;
#X connect 23 0 18 0;
