#N canvas 94 39 629 576 10;
#X text 430 514 (c)2011 \, Marian Weger;
#X obj 287 127 spigot 1;
#X msg 287 179 \$3 \$2 \$1;
#X obj 287 80 r /midi/\$1/in;
#X obj 37 142 spigot 1;
#X obj 37 80 r \$2;
#X obj 37 360 + 0.5;
#X obj 37 380 int;
#X obj 287 484 t b a b;
#X msg 326 510 0;
#X obj 306 537 s \$2;
#X msg 287 510 1;
#X obj 37 188 spigot 1;
#X obj 287 324 * 1;
#X obj 287 275 / 127;
#X obj 37 306 / 1;
#X obj 37 328 * 127;
#X obj 155 80 inlet out-state;
#X obj 400 80 inlet in-state;
#X obj 37 254 - \$7;
#X obj 52 282 r \$0-scaling;
#X obj 37 433 list append \$4;
#X obj 287 368 kdemux2 \$8;
#X obj 344 395 pack f \$8;
#X obj 344 423 line 0 \$9;
#X obj 287 253 route \$4;
#X obj 302 299 r \$0-scaling;
#X obj 287 157 route \$3;
#X obj 37 401 list prepend \$3;
#X obj 287 346 + \$7;
#X text 33 14 midi_bi: <domain> <name> <type> <cc#/note#/prg#/...>
<ch#> <scaling> <offset> <interpol.time> <grain rate>;
#N canvas 499 22 270 248 init 0;
#X obj 63 49 loadbang;
#X msg 63 115 1;
#X obj 63 71 f \$6;
#X obj 63 93 sel 0;
#X obj 63 143 s \$0-scaling;
#X obj 153 49 loadbang;
#X msg 153 115 1;
#X obj 153 93 sel 0;
#X obj 153 143 s \$0-channel;
#X obj 153 71 f \$5;
#X connect 0 0 2 0;
#X connect 1 0 4 0;
#X connect 2 0 3 0;
#X connect 3 0 1 0;
#X connect 3 1 4 0;
#X connect 5 0 9 0;
#X connect 6 0 8 0;
#X connect 7 0 6 0;
#X connect 7 1 8 0;
#X connect 9 0 7 0;
#X restore 489 193 pd init;
#X obj 37 507 list trim;
#X obj 37 485 list append 1;
#X obj 112 462 r \$0-channel;
#X obj 287 231 route 1;
#X obj 326 209 r \$0-channel;
#X obj 37 527 s /midi/\$1/out;
#X obj 37 220 route float;
#X obj 194 158 loadbang;
#X obj 194 180 symbol \$3;
#X msg 194 224 16383;
#X msg 239 224 127;
#X obj 194 202 sel bend;
#X obj 194 246 t f;
#X connect 1 0 27 0;
#X connect 2 0 35 0;
#X connect 3 0 1 0;
#X connect 4 0 12 0;
#X connect 5 0 4 0;
#X connect 6 0 7 0;
#X connect 7 0 28 0;
#X connect 8 0 11 0;
#X connect 8 1 10 0;
#X connect 8 2 9 0;
#X connect 9 0 12 1;
#X connect 11 0 12 1;
#X connect 12 0 38 0;
#X connect 13 0 29 0;
#X connect 14 0 13 0;
#X connect 15 0 16 0;
#X connect 16 0 6 0;
#X connect 17 0 4 1;
#X connect 18 0 1 1;
#X connect 19 0 15 0;
#X connect 20 0 15 1;
#X connect 21 0 33 0;
#X connect 22 0 8 0;
#X connect 22 1 23 0;
#X connect 23 0 24 0;
#X connect 24 0 8 0;
#X connect 25 0 14 0;
#X connect 26 0 13 1;
#X connect 27 0 2 0;
#X connect 28 0 21 0;
#X connect 29 0 22 0;
#X connect 32 0 37 0;
#X connect 33 0 32 0;
#X connect 34 0 33 1;
#X connect 35 0 25 0;
#X connect 36 0 35 1;
#X connect 38 0 19 0;
#X connect 39 0 40 0;
#X connect 40 0 43 0;
#X connect 41 0 44 0;
#X connect 42 0 44 0;
#X connect 43 0 41 0;
#X connect 43 1 42 0;
#X connect 44 0 16 1;
#X connect 44 0 29 1;
