#N canvas 73 56 1134 540 10;
#X obj 39 47 ctlin;
#X obj 39 69 pack f f f;
#X obj 39 147 list prepend ctl;
#X obj 149 69 pack f f f;
#X obj 149 47 notein;
#X obj 149 147 list prepend note;
#X obj 269 47 bendin;
#X obj 269 69 pack f f;
#X obj 269 147 list prepend bend;
#X obj 389 69 pack f f;
#X obj 389 47 pgmin;
#X obj 389 147 list prepend pgm;
#X obj 509 69 pack f f;
#X obj 509 47 touchin;
#X obj 509 147 list prepend touch;
#X obj 639 47 polytouchin;
#X obj 639 69 pack f f f;
#X obj 639 147 list prepend polytouch;
#X obj 789 47 sysexin;
#X obj 789 69 pack f f;
#X obj 789 147 list prepend sysex;
#X obj 247 410 spigot;
#X obj 247 432 print MIDI_IN;
#X obj 558 393 spigot;
#X text 312 15 midi_in <domain>;
#X text 786 458 (c)2011 \, Marian Weger;
#X obj 909 69 pack f f;
#X obj 909 47 midiin;
#X obj 909 147 list prepend raw;
#X obj 419 281 spigot 1;
#X obj 419 306 list trim;
#X obj 525 504 outlet;
#X obj 863 258 == 0;
#X obj 863 280 s \$0-noraw;
#X obj 822 96 r \$0-noraw;
#X obj 672 96 r \$0-noraw;
#X obj 542 96 r \$0-noraw;
#X obj 422 96 r \$0-noraw;
#X obj 302 96 r \$0-noraw;
#X obj 182 96 r \$0-noraw;
#X obj 72 96 r \$0-noraw;
#X obj 39 122 spigot 1;
#X obj 149 122 spigot 1;
#X obj 269 121 spigot 1;
#X obj 389 121 spigot 1;
#X obj 509 121 spigot 1;
#X obj 639 121 spigot 1;
#X obj 789 121 spigot 1;
#X obj 909 121 spigot;
#X obj 863 236 r /midi/\$1/in/raw;
#X obj 494 281 r /midi/\$1/in/active;
#X obj 591 370 r /midi/\$1/in/showinfo;
#X obj 558 415 s /midi/\$1/in/info;
#X obj 419 502 s /midi/\$1/in;
#X obj 280 387 r /midi/\$1/in/print;
#X obj 942 96 r /midi/\$1/in/raw;
#X connect 0 0 1 0;
#X connect 0 1 1 1;
#X connect 0 2 1 2;
#X connect 1 0 41 0;
#X connect 2 0 29 0;
#X connect 3 0 42 0;
#X connect 4 0 3 0;
#X connect 4 1 3 1;
#X connect 4 2 3 2;
#X connect 5 0 29 0;
#X connect 6 0 7 0;
#X connect 6 1 7 1;
#X connect 7 0 43 0;
#X connect 8 0 29 0;
#X connect 9 0 44 0;
#X connect 10 0 9 0;
#X connect 10 1 9 1;
#X connect 11 0 29 0;
#X connect 12 0 45 0;
#X connect 13 0 12 0;
#X connect 13 1 12 1;
#X connect 14 0 29 0;
#X connect 15 0 16 0;
#X connect 15 1 16 1;
#X connect 15 2 16 2;
#X connect 16 0 46 0;
#X connect 17 0 29 0;
#X connect 18 0 19 0;
#X connect 18 1 19 1;
#X connect 19 0 47 0;
#X connect 20 0 29 0;
#X connect 21 0 22 0;
#X connect 23 0 52 0;
#X connect 26 0 48 0;
#X connect 27 0 26 0;
#X connect 27 1 26 1;
#X connect 28 0 29 0;
#X connect 29 0 30 0;
#X connect 30 0 23 0;
#X connect 30 0 21 0;
#X connect 30 0 31 0;
#X connect 30 0 53 0;
#X connect 32 0 33 0;
#X connect 34 0 47 1;
#X connect 35 0 46 1;
#X connect 36 0 45 1;
#X connect 37 0 44 1;
#X connect 38 0 43 1;
#X connect 39 0 42 1;
#X connect 40 0 41 1;
#X connect 41 0 2 0;
#X connect 42 0 5 0;
#X connect 43 0 8 0;
#X connect 44 0 11 0;
#X connect 45 0 14 0;
#X connect 46 0 17 0;
#X connect 47 0 20 0;
#X connect 48 0 28 0;
#X connect 49 0 32 0;
#X connect 50 0 29 1;
#X connect 51 0 23 1;
#X connect 54 0 21 1;
#X connect 55 0 48 1;
