#N canvas 215 198 657 487 10;
#X obj 101 115 cnv 15 198 84 empty empty empty 20 12 0 14 -191407 -66577
0;
#X text 312 340 (c)2011 \, Marian Weger;
#X obj 104 118 tgl 15 0 \$1/midi/in/print \$1/midi/in/print print 17
7 0 10 -262144 -1 -1 0 1;
#X text 173 25 midi_in_gui: <domain>;
#X obj 172 118 tgl 15 0 /midi/\$1/in/showinfo /midi/\$1/in/showinfo
info 17 7 0 10 -262144 -1 -1 0 1;
#X obj 242 118 tgl 15 0 /midi/\$1/in/active /midi/\$1/in/active active
17 7 0 10 -4034 -1 -1 1 1;
#X obj 122 182 nbx 5 14 -1e+37 1e+37 0 0 empty empty value_1 0 -8 0
10 -191407 -1 -1 0 256;
#X obj 182 182 nbx 5 14 -1e+37 1e+37 0 0 empty empty value_2 0 -8 0
10 -191407 -1 -1 0 256;
#X obj 242 182 nbx 5 14 -1e+37 1e+37 0 0 empty empty channel 0 -8 0
10 -191407 -1 -1 0 256;
#X obj 104 146 cnv 14 55 13 empty empty empty 20 12 0 14 -262144 -66577
0;
#X symbolatom 104 146 9 0 0 1 type - -;
#X obj 393 196 unpack s f f f;
#X obj 373 37 loadbang;
#X msg 373 59 symbol;
#X msg 420 167 0;
#X obj 393 146 t a b;
#X obj 104 181 bng 15 250 50 0 empty empty empty 17 7 0 10 -191407
-1 -1;
#X obj 242 145 tgl 15 0 /midi/\$1/in/raw /midi/\$1/in/raw raw 17 7
0 10 -262144 -1 -1 0 1;
#N canvas 755 69 371 260 init 0;
#X obj 123 75 loadbang;
#X obj 123 97 list prepend \$1;
#X msg 123 119 \; /midi/\$1/in/active 1 \; /midi/\$1/in/showinfo 0
\; /midi/\$1/in/print 0 \;;
#X connect 0 0 1 0;
#X connect 1 0 2 0;
#X restore 229 265 pd init;
#X obj 393 124 r /midi/\$1/in/info;
#X connect 11 0 10 0;
#X connect 11 1 6 0;
#X connect 11 2 7 0;
#X connect 11 3 8 0;
#X connect 12 0 13 0;
#X connect 13 0 10 0;
#X connect 14 0 8 0;
#X connect 15 0 11 0;
#X connect 15 1 14 0;
#X connect 15 1 16 0;
#X connect 19 0 15 0;
#X coords 0 -1 1 1 200 100 1 100 100;
