#N canvas 596 173 297 359 10;
#X obj 35 130 list prepend set;
#X obj 35 152 list trim;
#X msg 74 197 clear;
#X obj 35 175 t a b b;
#X obj 35 275 outlet;
#X obj 35 87 inlet;
#X obj 54 219 pipe 5000;
#X obj 153 118 loadbang;
#X obj 153 167 sel 0;
#X msg 153 189 5000;
#X obj 153 140 \$1;
#X msg 54 241 set ---;
#X text 25 60 "prints" any message to a message box;
#X text 77 275 <-- connect message box here;
#X text 71 86 <-- put data stream here;
#X text 28 27 msg_monitor <reset time>;
#X text 43 311 (c)2011 Marian Weger;
#X connect 0 0 1 0;
#X connect 1 0 3 0;
#X connect 2 0 6 0;
#X connect 3 0 4 0;
#X connect 3 1 6 0;
#X connect 3 2 2 0;
#X connect 5 0 0 0;
#X connect 6 0 11 0;
#X connect 7 0 10 0;
#X connect 7 0 11 0;
#X connect 8 0 9 0;
#X connect 8 1 6 1;
#X connect 9 0 6 1;
#X connect 10 0 8 0;
#X connect 11 0 4 0;
