#N canvas 473 160 616 571 10;
#X obj 277 127 spigot 1;
#X obj 277 80 r /\$1/midi/in;
#X obj 37 122 spigot 1;
#X obj 126 80 inlet out-state;
#X obj 365 80 inlet in-state;
#X obj 37 202 route float;
#X text 434 294 (c)2012 \, Marian Weger;
#X obj 277 558 s /\$1/osc/in;
#X obj 37 169 route \$2;
#X text 23 14 osc2midi <domain> <osc-name> <midi-type> <cc#/note#/prg#/...>
<ch#> <scaling> <offset> <interpol.time> <grain rate>;
#X obj 37 80 r /\$1/osc/out;
#X obj 37 370 + 0.5;
#X obj 37 390 int;
#X obj 37 286 / 1;
#X obj 37 338 * 127;
#X obj 37 234 - \$7;
#X obj 52 262 r \$0-scaling;
#X obj 37 443 list append \$4;
#X obj 37 411 list prepend \$3;
#X obj 37 517 list trim;
#X obj 37 495 list append 1;
#X obj 112 472 r \$0-channel;
#X obj 37 537 s /\$1/midi/out;
#X msg 277 172 \$3 \$2 \$1;
#X obj 277 347 * 1;
#X obj 277 298 / 127;
#X obj 277 391 kdemux2 \$8;
#X obj 334 418 pack f \$8;
#X obj 334 446 line 0 \$9;
#X obj 277 246 route \$4;
#X obj 292 322 r \$0-scaling;
#X obj 277 150 route \$3;
#X obj 277 369 + \$7;
#N canvas 499 22 270 248 init 0;
#X obj 63 49 loadbang;
#X msg 63 115 1;
#X obj 63 71 f \$6;
#X obj 63 93 sel 0;
#X obj 63 143 s \$0-scaling;
#X obj 153 49 loadbang;
#X msg 153 115 1;
#X obj 153 93 sel 0;
#X obj 153 143 s \$0-channel;
#X obj 153 71 f \$5;
#X connect 0 0 2 0;
#X connect 1 0 4 0;
#X connect 2 0 3 0;
#X connect 3 0 1 0;
#X connect 3 1 4 0;
#X connect 5 0 9 0;
#X connect 6 0 8 0;
#X connect 7 0 6 0;
#X connect 7 1 8 0;
#X connect 9 0 7 0;
#X restore 479 186 pd init;
#X obj 277 224 route 1;
#X obj 316 202 r \$0-channel;
#X obj 277 507 list prepend \$2;
#X obj 277 529 list trim;
#X obj 194 158 loadbang;
#X obj 194 180 symbol \$3;
#X msg 194 224 16383;
#X msg 239 224 127;
#X obj 194 202 sel bend;
#X obj 194 246 t f;
#X connect 0 0 31 0;
#X connect 1 0 0 0;
#X connect 2 0 8 0;
#X connect 3 0 2 1;
#X connect 4 0 0 1;
#X connect 5 0 15 0;
#X connect 8 0 5 0;
#X connect 10 0 2 0;
#X connect 11 0 12 0;
#X connect 12 0 18 0;
#X connect 13 0 14 0;
#X connect 14 0 11 0;
#X connect 15 0 13 0;
#X connect 16 0 13 1;
#X connect 17 0 20 0;
#X connect 18 0 17 0;
#X connect 19 0 22 0;
#X connect 20 0 19 0;
#X connect 21 0 20 1;
#X connect 23 0 34 0;
#X connect 24 0 32 0;
#X connect 25 0 24 0;
#X connect 26 0 36 0;
#X connect 26 1 27 0;
#X connect 27 0 28 0;
#X connect 28 0 36 0;
#X connect 29 0 25 0;
#X connect 30 0 24 1;
#X connect 31 0 23 0;
#X connect 32 0 26 0;
#X connect 34 0 29 0;
#X connect 35 0 34 1;
#X connect 36 0 37 0;
#X connect 37 0 7 0;
#X connect 38 0 39 0;
#X connect 39 0 42 0;
#X connect 40 0 43 0;
#X connect 41 0 43 0;
#X connect 42 0 40 0;
#X connect 42 1 41 0;
#X connect 43 0 14 1;
#X connect 43 0 25 1;
