#N canvas 236 289 287 274 10;
#X obj 49 150 list trim;
#X obj 49 90 spigot 1;
#X obj 104 58 inlet status_switch;
#X text 55 214 (c)2011 Marian Weger;
#X obj 49 125 list prepend \$2;
#X obj 49 58 r \$2;
#X text 33 14 osc_s <domain> <name>;
#X obj 49 182 s /osc/\$1/out;
#X connect 0 0 7 0;
#X connect 1 0 4 0;
#X connect 2 0 1 1;
#X connect 4 0 0 0;
#X connect 5 0 1 0;
