#N canvas 659 149 379 230 10;
#X text 495 104 (c)2011-2012 \, Marian Weger;
#X text 24 43 registers parameter for bidirectional osc communication
;
#X obj 18 61 cnv 15 350 75 empty empty empty 20 12 0 14 -233017 -66577
0;
#X text 27 84 OSC input stream needs to be routed to /<domain>/osc/in
;
#X text 27 104 OSC output stream is routed to /<domain>/osc/out;
#X text 50 15 osc_bi <domain> <name>;
#X obj 61 150 cnv 15 250 30 empty empty see_[osc-help]_for_help 20
12 0 14 -261234 -1 0;
#X text 229 16 e.g. "main /foo/bar";
