#N canvas 578 25 513 521 10;
#X msg 121 157 -1;
#X msg 171 157 1;
#X obj 121 281 +;
#X obj 171 281 +;
#X obj 384 157 r \$1;
#X obj 121 471 s \$1;
#X obj 121 231 * 1;
#X obj 121 59 inlet;
#X obj 171 59 inlet;
#X obj 295 59 loadbang;
#X obj 295 87 \$4;
#X obj 295 109 sel 0;
#X msg 295 131 1;
#X obj 322 157 t f;
#X text 261 439 (c)2011 \, Marian Weger;
#X obj 444 109 \$3;
#X obj 444 157 - \$2;
#X obj 121 389 wrap;
#X obj 121 367 / 1;
#X obj 121 421 * 1;
#X obj 121 327 - \$2;
#X obj 121 443 + \$2;
#X obj 51 59 r \$1/prev;
#X obj 221 59 r \$1/next;
#X obj 171 231 * 1;
#X obj 444 131 + 1;
#X obj 121 131 t b;
#X obj 171 131 t b;
#X text 75 19 prev_next <variable name> <lower border> <upper border>
<step size>;
#X connect 0 0 6 0;
#X connect 1 0 24 0;
#X connect 2 0 20 0;
#X connect 3 0 20 0;
#X connect 4 0 3 1;
#X connect 4 0 2 1;
#X connect 6 0 2 0;
#X connect 7 0 26 0;
#X connect 8 0 27 0;
#X connect 9 0 10 0;
#X connect 9 0 15 0;
#X connect 10 0 11 0;
#X connect 11 0 12 0;
#X connect 11 1 13 0;
#X connect 12 0 13 0;
#X connect 13 0 6 1;
#X connect 13 0 24 1;
#X connect 15 0 25 0;
#X connect 16 0 18 1;
#X connect 16 0 19 1;
#X connect 17 0 19 0;
#X connect 18 0 17 0;
#X connect 19 0 21 0;
#X connect 20 0 18 0;
#X connect 21 0 5 0;
#X connect 22 0 26 0;
#X connect 23 0 27 0;
#X connect 24 0 3 0;
#X connect 25 0 16 0;
#X connect 26 0 0 0;
#X connect 27 0 1 0;
