#N canvas 563 102 454 351 10;
#X obj 116 66 inlet;
#X obj 116 240 spigot 1;
#X msg 187 204 0;
#X obj 167 299 outlet;
#X text 39 26 schange <init value>;
#X text 258 30 [change] for symbols;
#X text 36 313 (c)2012 Marian Weger;
#X obj 116 128 t a a b;
#X obj 167 272 t a a;
#X msg 155 204 1;
#X obj 187 180 sel init;
#X obj 249 94 loadbang;
#X obj 232 128 symbol \$1;
#X obj 232 66 inlet set;
#X connect 0 0 7 0;
#X connect 1 0 8 0;
#X connect 2 0 1 1;
#X connect 7 0 1 0;
#X connect 7 1 10 0;
#X connect 7 2 9 0;
#X connect 8 0 3 0;
#X connect 8 1 10 1;
#X connect 9 0 1 1;
#X connect 10 0 2 0;
#X connect 11 0 12 0;
#X connect 12 0 10 1;
#X connect 13 0 12 0;
