#N canvas 224 144 637 475 10;
#X obj 158 220 t l;
#X obj 124 161 list split 1;
#X obj 301 268 t l b;
#X msg 301 217 1;
#X obj 250 240 kdemux2 1;
#X msg 351 254 0;
#X obj 193 487 symbol;
#X obj 193 519 outlet symbol;
#X obj 85 47 inlet list;
#X text 425 493 (c)2013 Marian Weger;
#X obj 458 131 inlet symbol;
#X msg 226 461 symbol \$1\$3\$2;
#X obj 226 430 list append;
#X obj 479 177 loadbang;
#X obj 458 343 symbol;
#X obj 479 242 route 0;
#X msg 479 264 symbol;
#X obj 479 221 list trim;
#X obj 479 199 list prepend \$1;
#X obj 532 264 list prepend symbol;
#X obj 532 286 list trim;
#X obj 193 184 del 0;
#X text 28 14 spacereplace <replacement>;
#X obj 85 69 t a a;
#X obj 124 93 list length;
#X obj 85 138 kdemux2;
#X obj 124 115 > 1;
#X obj 226 298 list append;
#X connect 0 0 1 0;
#X connect 1 0 4 0;
#X connect 1 1 0 0;
#X connect 1 2 21 0;
#X connect 2 0 27 1;
#X connect 2 1 5 0;
#X connect 3 0 4 1;
#X connect 4 0 27 0;
#X connect 4 1 2 0;
#X connect 5 0 4 1;
#X connect 6 0 7 0;
#X connect 8 0 23 0;
#X connect 10 0 14 0;
#X connect 11 0 6 1;
#X connect 11 0 27 1;
#X connect 12 0 11 0;
#X connect 13 0 18 0;
#X connect 14 0 12 1;
#X connect 15 0 16 0;
#X connect 15 1 19 0;
#X connect 16 0 14 0;
#X connect 17 0 15 0;
#X connect 18 0 17 0;
#X connect 19 0 20 0;
#X connect 20 0 14 0;
#X connect 21 0 6 0;
#X connect 21 0 3 0;
#X connect 23 0 25 0;
#X connect 23 1 24 0;
#X connect 24 0 26 0;
#X connect 25 0 6 0;
#X connect 25 1 1 0;
#X connect 26 0 25 1;
#X connect 27 0 12 0;
