#N canvas 563 22 794 595 10;
#X obj 397 354 textfile;
#X obj 447 199 list prepend read;
#X msg 397 244 rewind;
#X obj 447 221 list append cr;
#X obj 447 244 list trim;
#X obj 348 272 until;
#X obj 397 376 t a b;
#X obj 348 244 t b b;
#X msg 625 365 0;
#X obj 639 412 + 1;
#X obj 610 412 f;
#X msg 347 354 print;
#X obj 78 122 loadbang;
#X obj 78 144 list prepend \$2;
#X obj 78 166 route 0;
#X text 25 32 textfile2anytable <table_name> (<filename>);
#X obj 117 193 s \$1/filename;
#X obj 348 140 r \$1/filename;
#X obj 397 490 anytabwrite \$1 resize;
#X obj 109 415 outlet bang_when_loaded;
#X obj 348 172 t b b b a;
#X obj 227 101 s \$1/filename;
#X obj 227 79 inlet filename;
#X connect 0 0 6 0;
#X connect 0 1 5 1;
#X connect 1 0 3 0;
#X connect 2 0 0 0;
#X connect 3 0 4 0;
#X connect 4 0 0 0;
#X connect 5 0 0 0;
#X connect 6 0 18 0;
#X connect 6 1 10 0;
#X connect 7 0 5 0;
#X connect 7 1 8 0;
#X connect 8 0 10 1;
#X connect 9 0 10 1;
#X connect 10 0 9 0;
#X connect 10 0 18 1;
#X connect 11 0 0 0;
#X connect 12 0 13 0;
#X connect 13 0 14 0;
#X connect 14 1 16 0;
#X connect 17 0 20 0;
#X connect 20 0 19 0;
#X connect 20 1 7 0;
#X connect 20 2 2 0;
#X connect 20 3 1 0;
#X connect 22 0 21 0;
